G04 EasyPC Gerber Version 21.0.3 Build 4286 *
G04 #@! TF.Part,Single*
G04 #@! TF.FileFunction,Copper,L2,Bot *
G04 #@! TF.FilePolarity,Positive *
%FSLAX45Y45*%
%MOIN*%
G04 #@! TA.AperFunction,SMDPad*
%ADD25R,0.02559X0.03937*%
%ADD114R,0.02559X0.04134*%
G04 #@! TA.AperFunction,ComponentPad*
%ADD95R,0.10630X0.10630*%
G04 #@! TD.AperFunction*
%ADD70C,0.00500*%
%ADD71C,0.01000*%
%ADD78C,0.01500*%
%ADD22C,0.01575*%
G04 #@! TA.AperFunction,ViaPad*
%ADD77C,0.02362*%
G04 #@! TA.AperFunction,ComponentPad*
%ADD74C,0.06693*%
%ADD96C,0.10630*%
G04 #@! TA.AperFunction,WasherPad*
%ADD91C,0.13386*%
G04 #@! TA.AperFunction,SMDPad*
%ADD26R,0.03937X0.02559*%
X0Y0D02*
D02*
D70*
X178726Y197191D02*
G75*
G02X164331Y200476I-6823J3286D01*
G01*
G75*
G02X168618Y207299I7573*
G01*
X34700*
G75*
G02X38987Y200476I-3286J-6823*
G01*
G75*
G02X24608Y197155I-7573*
G01*
Y23956*
G75*
G02X38987Y20634I6806J-3322*
G01*
G75*
G02X34700Y13811I-7573*
G01*
X168618*
G75*
G02X164331Y20634I3286J6823*
G01*
G75*
G02X178726Y23920I7573*
G01*
Y197191*
X114772Y87687D02*
G75*
G02X116791Y86057I351J-1630D01*
G01*
G75*
G02X114772Y84427I-1667*
G01*
X61028*
G75*
G02X59874Y84906J1630*
G01*
X54317Y90463*
X49189*
G75*
G02X41762Y89765I-3900J1630*
G01*
Y84420*
G75*
G02X49189Y83722I3528J-2328*
G01*
X89315*
G75*
G02X90945Y82093J-1630*
G01*
Y76863*
G75*
G02X90982Y76511I-1630J-351*
G01*
G75*
G02X87648I-1667*
G01*
G75*
G02X87685Y76863I1667*
G01*
Y80463*
X49189*
G75*
G02X41762Y79765I-3900J1630*
G01*
Y74420*
G75*
G02X49516Y72093I3528J-2328*
G01*
G75*
G02X47715Y68632I-4226J0*
G01*
X60707*
X62262Y70187*
G75*
G02X63892Y71781I1630J-36*
G01*
X84035*
Y72311*
X89732*
Y67992*
X84035*
Y68522*
X65187*
G75*
G02X65043Y68358I-1296J992*
G01*
X62536Y65851*
G75*
G02X61382Y65372I-1154J1151*
G01*
X48510*
G75*
G02X45289Y57496I-3220J-3280*
G01*
G75*
G02X42069Y65372J4596*
G01*
X41287*
G75*
G02X40131Y65850I-4J1630*
G01*
X38980Y67001*
G75*
G02X38502Y68154I1152J1153*
G01*
G75*
G02Y68157I1008J2*
G01*
Y69346*
G75*
G02X31063Y72093I-3213J2746*
G01*
G75*
G02X38502Y74839I4226*
G01*
Y78805*
G75*
G02X30693Y82093I-3213J3287*
G01*
G75*
G02X38502Y85380I4596*
G01*
Y88805*
G75*
G02X30693Y92093I-3213J3287*
G01*
G75*
G02X38502Y95380I4596*
G01*
Y98805*
G75*
G02X30693Y102093I-3213J3287*
G01*
G75*
G02X38502Y105380I4596*
G01*
Y108805*
G75*
G02X30693Y112093I-3213J3287*
G01*
G75*
G02X38502Y115380I4596*
G01*
Y117425*
G75*
G02X38981Y118579I1630*
G01*
X41250Y120848*
G75*
G02X45289Y126319I4039J1244*
G01*
G75*
G02Y117866J-4226*
G01*
G75*
G02X43350Y118338I0J4226*
G01*
X41762Y116750*
Y114420*
G75*
G02X49516Y112093I3528J-2328*
G01*
G75*
G02X41762Y109765I-4226*
G01*
Y104420*
G75*
G02X49516Y102093I3528J-2328*
G01*
G75*
G02X41762Y99765I-4226*
G01*
Y94420*
G75*
G02X49189Y93722I3528J-2328*
G01*
X55161*
G75*
G02X56663Y92727J-1630*
G01*
X61703Y87687*
X114772*
X161889Y55580D02*
G75*
G02X170015Y53950I3900J-1630D01*
G01*
G75*
G02X161889Y52320I-4226*
G01*
X159689*
G75*
G02X151889I-3900J1630*
G01*
X140079*
Y33134*
G75*
G02X139600Y31980I-1630*
G01*
X131327Y23707*
Y21516*
X125630*
Y22045*
X123404*
Y19783*
X119085*
Y25677*
X123404*
Y25305*
X125630*
Y25835*
X128844*
X136819Y33809*
Y63472*
X135260*
G75*
G02X134114Y63943J1630*
G01*
Y50270*
G75*
G02X133590Y49005I-1787*
G01*
X125903Y41328*
G75*
G02X124639Y40805I-1263J1265*
G01*
X103163*
G75*
G02Y44380J1787*
G01*
X120722*
G75*
G02X120997Y47826I591J1687*
G01*
X128266Y55095*
Y59352*
G75*
G02X125520Y60860I-959J1509*
G01*
Y62988*
G75*
G02X122203Y63913I-1530J925*
G01*
Y65493*
G75*
G02X119560Y67063I-855J1570*
G01*
Y140769*
X96803Y163526*
G75*
G02X96278Y164793I1262J1266*
G01*
Y171358*
G75*
G02X98065Y179414I1787J3830*
G01*
G75*
G02X99852Y171358J-4226*
G01*
Y165533*
X122203Y143183*
Y143388*
G75*
G02X122193Y143398I1237J1247*
G01*
X106803Y158787*
G75*
G02X106278Y160053I1262J1266*
G01*
Y171371*
G75*
G02X108065Y179427I1787J3830*
G01*
G75*
G02X109852Y171371J-4226*
G01*
Y160794*
X116322Y154324*
G75*
G02X116278Y154719I1743J394*
G01*
G75*
G02Y154722I641J2*
G01*
Y171358*
G75*
G02X118065Y179414I1787J3830*
G01*
G75*
G02X119852Y171358J-4226*
G01*
Y155459*
X128266Y147046*
Y152580*
X126811Y154035*
G75*
G02X126287Y155299I1264J1264*
G01*
G75*
G02Y155300I635J0*
G01*
G75*
G02Y155302I641J1*
G01*
Y171354*
G75*
G02X128065Y179414I1778J3834*
G01*
G75*
G02X129862Y171363J-4226*
G01*
Y156040*
X131317Y154585*
G75*
G02X131841Y153321I-1264J-1264*
G01*
G75*
G02Y153320I-635J0*
G01*
G75*
G02Y153318I-641J-1*
G01*
Y140097*
X136278Y144534*
Y171358*
G75*
G02X138065Y179414I1787J3830*
G01*
G75*
G02X139852Y171358J-4226*
G01*
Y143796*
G75*
G02Y143794I-651J-1*
G01*
G75*
G02Y143793I-663J0*
G01*
G75*
G02X139329Y142530I-1787*
G01*
X134114Y137315*
Y79102*
X137419*
Y73406*
X136890*
Y66732*
X138449*
G75*
G02X140079Y65102J-1630*
G01*
Y55580*
X151889*
G75*
G02X159689I3900J-1630*
G01*
X161889*
X138281Y79472D02*
X143341D01*
Y73035*
X138281*
Y79472*
X125260Y20654D02*
X131697D01*
Y15594*
X125260*
Y20654*
X111526Y25677D02*
X115844D01*
Y19783*
X111526*
Y21396*
X109201*
Y20866*
X103504*
Y25185*
X104565*
Y35309*
G75*
G02X108140I1787*
G01*
Y25185*
X109201*
Y24656*
X111526*
Y25677*
X114935Y34709D02*
X119994D01*
Y28075*
X114935*
Y34709*
X103134Y20004D02*
X109571D01*
Y14945*
X103134*
Y20004*
X83665Y67130D02*
X90102D01*
Y62071*
X83665*
Y67130*
X41063Y52093D02*
G75*
G02X49516I4226D01*
G01*
G75*
G02X41063I-4226*
G01*
X81402Y47195D02*
G75*
G02X83421Y45565I351J-1630D01*
G01*
G75*
G02X81402Y43935I-1667*
G01*
X29364*
G75*
G02X27734Y45565J1630*
G01*
Y55565*
G75*
G02X28213Y56719I1630*
G01*
X31573Y60079*
G75*
G02X35289Y66319I3716J2013*
G01*
G75*
G02Y57866J-4226*
G01*
G75*
G02X34132Y58028I0J4227*
G01*
X30994Y54890*
Y47195*
X81402*
X31063Y52093D02*
G75*
G02X39516I4226D01*
G01*
G75*
G02X31063I-4226*
G01*
X41063Y132093D02*
G75*
G02X49516I4226D01*
G01*
G75*
G02X41063I-4226*
G01*
Y142093D02*
G75*
G02X49516I4226D01*
G01*
G75*
G02X41063I-4226*
G01*
X109111Y92333D02*
G75*
G02X111130Y90703I351J-1630D01*
G01*
G75*
G02X109111Y89073I-1667*
G01*
X64492*
G75*
G02X63338Y89552J1630*
G01*
X57337Y95553*
G75*
G02X56860Y96633I1151J1154*
G01*
G75*
G02X60106Y97393I1628J359*
G01*
X65167Y92333*
X98331*
G75*
G02X98226Y92937I1682J604*
G01*
Y129569*
X67016Y160858*
G75*
G02X66494Y162120I1265J1262*
G01*
Y171371*
G75*
G02X68281Y179427I1787J3830*
G01*
G75*
G02X70069Y171371J-4226*
G01*
Y162859*
X100525Y132327*
G75*
G02X101376Y131772I-511J-1713*
G01*
Y133404*
X76806Y157839*
G75*
G02X76278Y159108I1259J1269*
G01*
Y171371*
G75*
G02X78065Y179427I1787J3830*
G01*
G75*
G02X79852Y171371J-4226*
G01*
Y159852*
X104422Y135417*
G75*
G02X104526Y135304I-1259J-1270*
G01*
Y136045*
X104381Y136189*
X86804Y153698*
G75*
G02X86278Y154965I1262J1267*
G01*
Y171358*
G75*
G02X88065Y179414I1787J3830*
G01*
G75*
G02X89852Y171358J-4226*
G01*
Y155707*
X106905Y138721*
G75*
G02X106908Y138718I-621J-624*
G01*
X107576Y138050*
G75*
G02X108100Y136785I-1263J-1265*
G01*
Y95654*
G75*
G02X104950Y94497I-1787*
G01*
Y94285*
G75*
G02X101801Y93128I-1787*
G01*
Y92937*
G75*
G02X101696Y92333I-1787J0*
G01*
X109111*
X79325Y126943D02*
G75*
G02X88518I4596D01*
G01*
G75*
G02X79325I-4596*
G01*
X79695Y136785D02*
G75*
G02X88148I4226D01*
G01*
G75*
G02X79695I-4226*
G01*
X63685Y195201D02*
G75*
G02X72878I4596D01*
G01*
G75*
G02X63685I-4596*
G01*
X64055Y185201D02*
G75*
G02X72508I4226D01*
G01*
G75*
G02X64055I-4226*
G01*
X73469Y195201D02*
G75*
G02X82661I4596D01*
G01*
G75*
G02X73469I-4596*
G01*
X73839Y185201D02*
G75*
G02X82291I4226D01*
G01*
G75*
G02X73839I-4226*
G01*
X83469Y195188D02*
G75*
G02X92661I4596D01*
G01*
G75*
G02X83469I-4596*
G01*
X83839Y185188D02*
G75*
G02X92291I4226D01*
G01*
G75*
G02X83839I-4226*
G01*
X93469Y195188D02*
G75*
G02X102661I4596D01*
G01*
G75*
G02X93469I-4596*
G01*
X93839Y185188D02*
G75*
G02X102291I4226D01*
G01*
G75*
G02X93839I-4226*
G01*
X103469Y195201D02*
G75*
G02X112661I4596D01*
G01*
G75*
G02X103469I-4596*
G01*
X103839Y185201D02*
G75*
G02X112291I4226D01*
G01*
G75*
G02X103839I-4226*
G01*
X113469Y195188D02*
G75*
G02X122661I4596D01*
G01*
G75*
G02X113469I-4596*
G01*
X113839Y185188D02*
G75*
G02X122291I4226D01*
G01*
G75*
G02X113839I-4226*
G01*
X123469Y195188D02*
G75*
G02X132661I4596D01*
G01*
G75*
G02X123469I-4596*
G01*
X123839Y185188D02*
G75*
G02X132291I4226D01*
G01*
G75*
G02X123839I-4226*
G01*
X133469Y195188D02*
G75*
G02X142661I4596D01*
G01*
G75*
G02X133469I-4596*
G01*
X133839Y185188D02*
G75*
G02X142291I4226D01*
G01*
G75*
G02X133839I-4226*
G01*
X144124Y77862D02*
X149821D01*
Y73543*
X144124*
Y77862*
Y83413D02*
X149821D01*
Y79094*
X144124*
Y83413*
X151193Y63950D02*
G75*
G02X160385I4596D01*
G01*
G75*
G02X151193I-4596*
G01*
X151563Y73950D02*
G75*
G02X160015I4226D01*
G01*
G75*
G02X151563I-4226*
G01*
Y83950D02*
G75*
G02X160015I4226D01*
G01*
G75*
G02X151563I-4226*
G01*
Y93950D02*
G75*
G02X160015I4226D01*
G01*
G75*
G02X151563I-4226*
G01*
X160093Y150132D02*
X173222D01*
Y137002*
X160093*
Y150132*
X160463Y127976D02*
G75*
G02X172852I6195D01*
G01*
G75*
G02X160463I-6195*
G01*
X161193Y63950D02*
G75*
G02X170385I4596D01*
G01*
G75*
G02X161193I-4596*
G01*
X161563Y73950D02*
G75*
G02X170015I4226D01*
G01*
G75*
G02X161563I-4226*
G01*
Y83950D02*
G75*
G02X170015I4226D01*
G01*
G75*
G02X161563I-4226*
G01*
Y93950D02*
G75*
G02X170015I4226D01*
G01*
G75*
G02X161563I-4226*
G01*
X30693Y132093D02*
G75*
G02X39886I4596D01*
G01*
G75*
G02X30693I-4596*
G01*
X31063Y122093D02*
G75*
G02X39516I4226D01*
G01*
G75*
G02X31063I-4226*
G01*
X30693Y142093D02*
G75*
G02X39886I4596D01*
G01*
G75*
G02X30693I-4596*
G01*
X164759Y18124D02*
G36*
X131697D01*
Y15594*
X125260*
Y18124*
X109571*
Y14945*
X103134*
Y18124*
X38559*
G75*
G02X35175Y14061I-7145J2510*
G01*
X168143*
G75*
G02X164759Y18124I3761J6573*
G01*
G37*
X178476Y24395D02*
G36*
Y28440D01*
X136060*
X131327Y23707*
Y21516*
X125630*
Y22045*
X123404*
Y19783*
X119085*
Y25677*
X123404*
Y25305*
X125630*
Y25835*
X128844*
X131450Y28440*
X119994*
Y28075*
X114935*
Y28440*
X108140*
Y25185*
X109201*
Y24656*
X111526*
Y25677*
X115844*
Y19783*
X111526*
Y21396*
X109201*
Y20866*
X103504*
Y25185*
X104565*
Y28440*
X24858*
Y24425*
G75*
G02X38987Y20634I6556J-3791*
G01*
G75*
G02X38559Y18124I-7573*
G01*
X103134*
Y20004*
X109571*
Y18124*
X125260*
Y20654*
X131697*
Y18124*
X164759*
G75*
G02X164331Y20634I7145J2510*
G01*
G75*
G02X178476Y24395I7573*
G01*
G37*
X136819Y52093D02*
G36*
X134114D01*
Y50270*
G75*
G02Y50269I-2148J0*
G01*
G75*
G02X133590Y49005I-1785*
G01*
X125903Y41328*
G75*
G02X124639Y40805I-1263J1265*
G01*
X103163*
G75*
G02X101376Y42593J1787*
G01*
G75*
G02X103163Y44380I1787*
G01*
X120722*
G75*
G02X119526Y46067I591J1687*
G01*
G75*
G02X120997Y47826I1787*
G01*
X125263Y52093*
X49516*
G75*
G02X41063I-4226*
G01*
X39516*
G75*
G02X31063I-4226*
G01*
X30994*
Y47195*
X81402*
G75*
G02X83421Y45565I352J-1630*
G01*
Y45565*
Y45565*
G75*
G02X81402Y43935I-1667*
G01*
X29364*
G75*
G02X27734Y45565J1630*
G01*
Y52093*
X24858*
Y28440*
X104565*
Y35309*
G75*
G02X108140I1787*
G01*
Y28440*
X114935*
Y34709*
X119994*
Y28440*
X131450*
X136819Y33809*
Y52093*
G37*
X169585D02*
G36*
G75*
G02X161993I-3796J1857D01*
G01*
X159585*
G75*
G02X151993I-3796J1858*
G01*
X140079*
Y33134*
Y33133*
G75*
G02X139600Y31980I-1629*
G01*
X136060Y28440*
X178476*
Y52093*
X169585*
G37*
X31887Y64600D02*
G36*
X24858D01*
Y52093*
X27734*
Y55565*
Y55565*
G75*
G02X28213Y56719I1629*
G01*
X31573Y60079*
G75*
G02X31063Y62093I3715J2014*
G01*
G75*
G02X31887Y64600I4226*
G01*
G37*
X122203D02*
G36*
X90102D01*
Y62071*
X83665*
Y64600*
X49141*
G75*
G02X49886Y62093I-3852J-2508*
G01*
G75*
G02X45289Y57496I-4596*
G01*
G75*
G02X40693Y62093J4596*
G01*
G75*
G02X41437Y64600I4597*
G01*
X38691*
G75*
G02X39516Y62093I-3402J-2508*
G01*
G75*
G02X35289Y57866I-4226*
G01*
G75*
G02X34132Y58028I0J4232*
G01*
X30994Y54890*
Y52093*
X31063*
G75*
G02X39516I4226*
G01*
X41063*
G75*
G02X49516I4226*
G01*
X125263*
X128266Y55095*
Y59352*
G75*
G02X125520Y60860I-959J1509*
G01*
Y62988*
G75*
G02X122203Y63913I-1530J925*
G01*
Y64600*
G37*
X136819Y52093D02*
G36*
Y63472D01*
X135260*
G75*
G02X134114Y63943I-1J1628*
G01*
Y52093*
X136819*
G37*
X151993D02*
G36*
G75*
G02X151889Y52320I3796J1855D01*
G01*
X140079*
Y52093*
X151993*
G37*
X169585D02*
G36*
X178476D01*
Y64600*
X170339*
G75*
G02X170385Y63950I-4551J-649*
G01*
G75*
G02X161193I-4596*
G01*
G75*
G02X161239Y64600I4597J1*
G01*
X160339*
G75*
G02X160385Y63950I-4551J-649*
G01*
G75*
G02X151193I-4596*
G01*
G75*
G02X151239Y64600I4597J1*
G01*
X140079*
Y55580*
X151889*
G75*
G02X159689I3900J-1630*
G01*
X161889*
G75*
G02X170015Y53951I3900J-1630*
G01*
Y53950*
Y53950*
G75*
G02X169585Y52093I-4226J0*
G01*
G37*
X161993D02*
G36*
G75*
G02X161889Y52320I3796J1855D01*
G01*
X159689*
G75*
G02X159585Y52093I-3900J1627*
G01*
X161993*
G37*
X41437Y64600D02*
G36*
G75*
G02X42069Y65372I3852J-2508D01*
G01*
X41287*
G75*
G02X40131Y65850I-4J1629*
G01*
X38980Y67001*
G75*
G02X38502Y68153I1151J1152*
G01*
Y68154*
Y68154*
Y68157*
Y69346*
G75*
G02X31063Y72092I-3213J2746*
G01*
Y72093*
Y72093*
G75*
G02X34550Y76254I4226*
G01*
X24858*
Y64600*
X31887*
G75*
G02X35289Y66319I3402J-2508*
G01*
G75*
G02X38691Y64600J-4226*
G01*
X41437*
G37*
X38502Y76254D02*
G36*
X36028D01*
G75*
G02X38502Y74839I-739J-4161*
G01*
Y76254*
G37*
X44550D02*
G36*
X41762D01*
Y74420*
G75*
G02X44550Y76254I3528J-2328*
G01*
G37*
X122203Y64600D02*
G36*
Y65493D01*
G75*
G02X119560Y67062I-856J1569*
G01*
Y67063*
Y76254*
X90962*
G75*
G02X87668I-1647J257*
G01*
X46028*
G75*
G02X49516Y72093I-739J-4161*
G01*
G75*
G02X47715Y68632I-4228J1*
G01*
X60707*
X62262Y70187*
G75*
G02X63892Y71781I1630J-36*
G01*
X84035*
Y72311*
X89732*
Y67992*
X84035*
Y68522*
X65187*
G75*
G02X65043Y68358I-1352J1041*
G01*
X62536Y65851*
G75*
G02X61382Y65372I-1154J1150*
G01*
X48510*
G75*
G02X49141Y64600I-3220J-3280*
G01*
X83665*
Y67130*
X90102*
Y64600*
X122203*
G37*
X149821Y76254D02*
G36*
Y73543D01*
X144124*
Y76254*
X143341*
Y73035*
X138281*
Y76254*
X137419*
Y73406*
X136890*
Y66732*
X138449*
G75*
G02X140079Y65102J-1630*
G01*
Y64600*
X151239*
G75*
G02X160339I4550J-650*
G01*
X161239*
G75*
G02X170339I4550J-650*
G01*
X178476*
Y76254*
X169332*
G75*
G02X170015Y73950I-3543J-2304*
G01*
G75*
G02X161563I-4226*
G01*
G75*
G02X162246Y76254I4226J0*
G01*
X159332*
G75*
G02X160015Y73950I-3543J-2304*
G01*
G75*
G02X151563I-4226*
G01*
G75*
G02X152246Y76254I4226J0*
G01*
X149821*
G37*
X30770Y81254D02*
G36*
X24858D01*
Y76254*
X34550*
G75*
G02X36028I739J-4161*
G01*
X38502*
Y78805*
G75*
G02X30770Y81254I-3213J3287*
G01*
G37*
X87668Y76254D02*
G36*
G75*
G02X87648Y76511I1647J258D01*
G01*
G75*
G02X87685Y76863I1677J-1*
G01*
Y80463*
X49189*
G75*
G02X41762Y79765I-3900J1630*
G01*
Y76254*
X44550*
G75*
G02X46028I739J-4161*
G01*
X87668*
G37*
X119560D02*
G36*
Y81254D01*
X90945*
Y76863*
G75*
G02X90982Y76511I-1639J-352*
G01*
G75*
G02X90962Y76254I-1667J0*
G01*
X119560*
G37*
X169043Y81254D02*
G36*
G75*
G02X162535I-3254J2696D01*
G01*
X159043*
G75*
G02X152535I-3254J2696*
G01*
X149821*
Y79094*
X144124*
Y81254*
X134114*
Y79102*
X137419*
Y76254*
X138281*
Y79472*
X143341*
Y76254*
X144124*
Y77862*
X149821*
Y76254*
X152246*
G75*
G02X159332I3543J-2304*
G01*
X162246*
G75*
G02X169332I3543J-2304*
G01*
X178476*
Y81254*
X169043*
G37*
X30770D02*
G36*
G75*
G02X30693Y82092I4519J839D01*
G01*
Y82093*
G75*
G02X38502Y85380I4596J0*
G01*
Y88805*
G75*
G02X30696Y91907I-3213J3287*
G01*
X24858*
Y81254*
X30770*
G37*
X119560Y91907D02*
G36*
X110615D01*
G75*
G02X111130Y90703I-1152J-1204*
G01*
Y90703*
Y90702*
G75*
G02X109111Y89073I-1667*
G01*
X64492*
G75*
G02X63338Y89552I0J1629*
G01*
X60982Y91907*
X57482*
X61703Y87687*
X114772*
G75*
G02X116791Y86057I352J-1630*
G01*
Y86057*
Y86057*
G75*
G02X114772Y84427I-1667*
G01*
X61028*
G75*
G02X59874Y84906I0J1629*
G01*
X54317Y90463*
X49189*
G75*
G02X41762Y89765I-3900J1630*
G01*
Y84420*
G75*
G02X49189Y83722I3528J-2328*
G01*
X89315*
G75*
G02X90945Y82093J-1630*
G01*
Y81254*
X119560*
Y91907*
G37*
X169489D02*
G36*
G75*
G02X162089I-3700J2043D01*
G01*
X159489*
G75*
G02X152089I-3700J2043*
G01*
X134114*
Y81254*
X144124*
Y83413*
X149821*
Y81254*
X152535*
G75*
G02X151563Y83950I3254J2696*
G01*
G75*
G02X160015I4226*
G01*
G75*
G02X159043Y81254I-4226*
G01*
X162535*
G75*
G02X161563Y83950I3254J2696*
G01*
G75*
G02X170015I4226*
G01*
G75*
G02X169043Y81254I-4226*
G01*
X178476*
Y91907*
X169489*
G37*
X30696D02*
G36*
G75*
G02X30693Y92092I4593J180D01*
G01*
Y92093*
G75*
G02X38502Y95380I4596J0*
G01*
Y98805*
G75*
G02X30693Y102092I-3213J3287*
G01*
Y102093*
G75*
G02X38502Y105380I4596J0*
G01*
Y108805*
G75*
G02X30693Y112092I-3213J3287*
G01*
Y112093*
G75*
G02X38502Y115380I4596J0*
G01*
Y117425*
Y117426*
G75*
G02X38981Y118579I1629*
G01*
X41250Y120848*
G75*
G02X41063Y122093I4039J1244*
G01*
X39516*
G75*
G02X31063I-4226*
G01*
X24858*
Y91907*
X30696*
G37*
X60982D02*
G36*
X57337Y95553D01*
G75*
G02X56860Y96633I1154J1155*
G01*
G75*
G02X56821Y96992I1629J359*
G01*
G75*
G02X60106Y97393I1667*
G01*
X65167Y92333*
X98331*
G75*
G02X98226Y92936I1678J603*
G01*
G75*
G02Y92937I1991J1*
G01*
Y122093*
X49516*
G75*
G02X45289Y117866I-4226*
G01*
G75*
G02X43350Y118338I1J4228*
G01*
X41762Y116750*
Y114420*
G75*
G02X49516Y112093I3528J-2328*
G01*
G75*
G02X41762Y109765I-4226*
G01*
Y104420*
G75*
G02X49516Y102093I3528J-2328*
G01*
G75*
G02X41762Y99765I-4226*
G01*
Y94420*
G75*
G02X49189Y93722I3528J-2328*
G01*
X55161*
G75*
G02X56663Y92727I0J-1631*
G01*
X57482Y91907*
X60982*
G37*
X119560Y122093D02*
G36*
X108100D01*
Y95654*
G75*
G02X104950Y94497I-1787*
G01*
Y94285*
G75*
G02X101801Y93128I-1787*
G01*
Y92937*
G75*
G02Y92936I-1991J0*
G01*
G75*
G02X101696Y92333I-1783*
G01*
X109111*
G75*
G02X110615Y91907I351J-1630*
G01*
X119560*
Y122093*
G37*
X168596D02*
G36*
G75*
G02X164719I-1938J5884D01*
G01*
X134114*
Y91907*
X152089*
G75*
G02X151563Y93950I3700J2043*
G01*
G75*
G02X160015I4226*
G01*
G75*
G02X159489Y91907I-4226J0*
G01*
X162089*
G75*
G02X161563Y93950I3700J2043*
G01*
G75*
G02X170015I4226*
G01*
G75*
G02X169489Y91907I-4226J0*
G01*
X178476*
Y122093*
X168596*
G37*
X98226Y126943D02*
G36*
X88518D01*
G75*
G02X79325I-4596*
G01*
X24858*
Y122093*
X31063*
G75*
G02X39516I4226*
G01*
X41063*
G75*
G02X45289Y126319I4226*
G01*
G75*
G02X49516Y122093J-4226*
G01*
X98226*
Y126943*
G37*
X119560D02*
G36*
X108100D01*
Y122093*
X119560*
Y126943*
G37*
X160550D02*
G36*
X134114D01*
Y122093*
X164719*
G75*
G02X160550Y126943I1939J5884*
G01*
G37*
X172765D02*
G36*
G75*
G02X168596Y122093I-6108J1033D01*
G01*
X178476*
Y126943*
X172765*
G37*
X98226D02*
G36*
Y129569D01*
X95709Y132093*
X49516*
G75*
G02X41063I-4226*
G01*
X39886*
G75*
G02X30693I-4596*
G01*
X24858*
Y126943*
X79325*
G75*
G02X88518I4596*
G01*
X98226*
G37*
X101376Y132093D02*
G36*
X101019D01*
G75*
G02X101376Y131772I-1004J-1476*
G01*
Y132093*
G37*
X119560D02*
G36*
X108100D01*
Y126943*
X119560*
Y132093*
G37*
X160550Y126943D02*
G36*
G75*
G02X160463Y127976I6108J1035D01*
G01*
G75*
G02X162028Y132093I6195J0*
G01*
X134114*
Y126943*
X160550*
G37*
X172765D02*
G36*
X178476D01*
Y132093*
X171287*
G75*
G02X172852Y127976I-4630J-4117*
G01*
G75*
G02X172765Y126943I-6195J1*
G01*
G37*
X95709Y132093D02*
G36*
X91028Y136785D01*
X88148*
G75*
G02X79695I-4226*
G01*
X24858*
Y132093*
X30693*
G75*
G02X39886I4596*
G01*
X41063*
G75*
G02X49516I4226*
G01*
X95709*
G37*
X101376D02*
G36*
Y133404D01*
X97976Y136785*
X96078*
X100525Y132327*
G75*
G02X101019Y132093I-509J-1710*
G01*
X101376*
G37*
X103783Y136785D02*
G36*
X103045D01*
X104422Y135417*
G75*
G02X104526Y135304I-1345J-1350*
G01*
Y136045*
X104381Y136189*
X103783Y136785*
G37*
X119560D02*
G36*
X108100D01*
Y132093*
X119560*
Y136785*
G37*
X134114D02*
G36*
Y132093D01*
X162028*
G75*
G02X171287I4630J-4116*
G01*
X178476*
Y136785*
X134114*
G37*
X91028D02*
G36*
X85735Y142093D01*
X49516*
G75*
G02X41063I-4226*
G01*
X39886*
G75*
G02X30693I-4596*
G01*
X24858*
Y136785*
X79695*
G75*
G02X88148I4226*
G01*
X91028*
G37*
X97976D02*
G36*
X92640Y142093D01*
X90784*
X96078Y136785*
X97976*
G37*
X103783D02*
G36*
X98455Y142093D01*
X97709*
X103045Y136785*
X103783*
G37*
X119560D02*
G36*
Y140769D01*
X118237Y142093*
X103520*
X106905Y138721*
X106908Y138718*
X107576Y138050*
G75*
G02X108100Y136785I-1263J-1264*
G01*
X119560*
G37*
X133836Y142093D02*
G36*
X131841D01*
Y140097*
X133836Y142093*
G37*
X173222D02*
G36*
Y137002D01*
X160093*
Y142093*
X138892*
X134114Y137315*
Y136785*
X178476*
Y142093*
X173222*
G37*
X138892D02*
G36*
X160093D01*
Y150132*
X173222*
Y142093*
X178476*
Y185201*
X142291*
G75*
G02Y185188I-4230J-6*
G01*
G75*
G02X133839I-4226*
G01*
G75*
G02Y185201I4230J7*
G01*
X132291*
G75*
G02Y185188I-4230J-6*
G01*
G75*
G02X123839I-4226*
G01*
G75*
G02Y185201I4230J7*
G01*
X122291*
G75*
G02Y185188I-4230J-6*
G01*
G75*
G02X113839I-4226*
G01*
G75*
G02Y185201I4230J7*
G01*
X112291*
G75*
G02X103839I-4226*
G01*
X102291*
G75*
G02Y185188I-4230J-6*
G01*
G75*
G02X93839I-4226*
G01*
G75*
G02Y185201I4230J7*
G01*
X92291*
G75*
G02Y185188I-4230J-6*
G01*
G75*
G02X83839I-4226*
G01*
G75*
G02Y185201I4230J7*
G01*
X82291*
G75*
G02X73839I-4226*
G01*
X72508*
G75*
G02X64055I-4226*
G01*
X24858*
Y142093*
X30693*
G75*
G02X39886I4596*
G01*
X41063*
G75*
G02X49516I4226*
G01*
X85735*
X67016Y160858*
G75*
G02X66494Y162120I1266J1263*
G01*
Y171371*
G75*
G02X64055Y175201I1788J3830*
G01*
G75*
G02X68281Y179427I4226*
G01*
G75*
G02X72508Y175201J-4226*
G01*
G75*
G02X70069Y171371I-4227*
G01*
Y162859*
X90784Y142093*
X92640*
X76806Y157839*
G75*
G02X76278Y159108I1257J1269*
G01*
Y159108*
Y171371*
G75*
G02X73839Y175201I1788J3830*
G01*
G75*
G02X78065Y179427I4226*
G01*
G75*
G02X82291Y175201J-4226*
G01*
G75*
G02X79852Y171371I-4227*
G01*
Y159852*
X97709Y142093*
X98455*
X86804Y153698*
G75*
G02X86278Y154964I1260J1266*
G01*
G75*
G02Y154965I1961J0*
G01*
Y171358*
G75*
G02X83839Y175188I1788J3830*
G01*
G75*
G02X88065Y179414I4226*
G01*
G75*
G02X92291Y175188J-4226*
G01*
G75*
G02X89852Y171358I-4227*
G01*
Y155707*
X103520Y142093*
X118237*
X96803Y163526*
G75*
G02X96278Y164793I1262J1266*
G01*
Y171358*
G75*
G02X93839Y175188I1788J3830*
G01*
G75*
G02X98065Y179414I4226*
G01*
G75*
G02X102291Y175188J-4226*
G01*
G75*
G02X99852Y171358I-4227*
G01*
Y165533*
X122203Y143183*
Y143388*
G75*
G02X122193Y143398I57J67*
G01*
X106803Y158787*
G75*
G02X106278Y160053I1262J1266*
G01*
Y171371*
G75*
G02X103839Y175201I1788J3830*
G01*
G75*
G02X108065Y179427I4226*
G01*
G75*
G02X112291Y175201J-4226*
G01*
G75*
G02X109852Y171371I-4227*
G01*
Y160794*
X116322Y154324*
G75*
G02X116278Y154718I1731J393*
G01*
G75*
G02Y154719I1556J0*
G01*
Y154719*
Y154722*
Y171358*
G75*
G02X113839Y175188I1788J3830*
G01*
G75*
G02X118065Y179414I4226*
G01*
G75*
G02X122291Y175188J-4226*
G01*
G75*
G02X119852Y171358I-4227*
G01*
Y155459*
X128266Y147046*
Y152580*
X126811Y154035*
G75*
G02X126287Y155299I1265J1265*
G01*
Y155300*
Y155302*
Y171354*
G75*
G02X123839Y175188I1778J3834*
G01*
G75*
G02X128065Y179414I4226*
G01*
G75*
G02X132291Y175188J-4226*
G01*
G75*
G02X129862Y171363I-4226*
G01*
Y156040*
X131317Y154585*
G75*
G02X131841Y153321I-1265J-1265*
G01*
Y153320*
Y153318*
Y142093*
X133836*
X136278Y144534*
Y171358*
G75*
G02X133839Y175188I1788J3830*
G01*
G75*
G02X138065Y179414I4226*
G01*
G75*
G02X142291Y175188J-4226*
G01*
G75*
G02X139852Y171358I-4227*
G01*
Y143796*
Y143794*
Y143793*
G75*
G02X139329Y142530I-1789J1*
G01*
X138892Y142093*
G37*
X166470Y195201D02*
G36*
X142661D01*
G75*
G02Y195188I-4624J-6*
G01*
G75*
G02X133469I-4596*
G01*
G75*
G02Y195201I4624J7*
G01*
X132661*
G75*
G02Y195188I-4624J-6*
G01*
G75*
G02X123469I-4596*
G01*
G75*
G02Y195201I4624J7*
G01*
X122661*
G75*
G02Y195188I-4624J-6*
G01*
G75*
G02X113469I-4596*
G01*
G75*
G02Y195201I4624J7*
G01*
X112661*
G75*
G02X103469I-4596*
G01*
X102661*
G75*
G02Y195188I-4624J-6*
G01*
G75*
G02X93469I-4596*
G01*
G75*
G02Y195201I4624J7*
G01*
X92661*
G75*
G02Y195188I-4624J-6*
G01*
G75*
G02X83469I-4596*
G01*
G75*
G02Y195201I4624J7*
G01*
X82661*
G75*
G02X73469I-4596*
G01*
X72878*
G75*
G02X63685I-4596*
G01*
X36846*
G75*
G02X25981I-5433J5276*
G01*
X24858*
Y185201*
X64055*
G75*
G02X72508I4226*
G01*
X73839*
G75*
G02X82291I4226*
G01*
X83839*
G75*
G02X92291I4226J-13*
G01*
X93839*
G75*
G02X102291I4226J-13*
G01*
X103839*
G75*
G02X112291I4226*
G01*
X113839*
G75*
G02X122291I4226J-13*
G01*
X123839*
G75*
G02X132291I4226J-13*
G01*
X133839*
G75*
G02X142291I4226J-13*
G01*
X178476*
Y195201*
X177337*
G75*
G02X166470I-5433J5276*
G01*
G37*
X25981D02*
G36*
G75*
G02X24858Y196685I5433J5276D01*
G01*
Y195201*
X25981*
G37*
X168143Y207049D02*
G36*
X35175D01*
G75*
G02X38987Y200476I-3761J-6573*
G01*
G75*
G02X36846Y195201I-7573J0*
G01*
X63685*
G75*
G02X72878I4596*
G01*
X73469*
G75*
G02X82661I4596*
G01*
X83469*
G75*
G02X92661I4596J-13*
G01*
X93469*
G75*
G02X102661I4596J-13*
G01*
X103469*
G75*
G02X112661I4596*
G01*
X113469*
G75*
G02X122661I4596J-13*
G01*
X123469*
G75*
G02X132661I4596J-13*
G01*
X133469*
G75*
G02X142661I4596J-13*
G01*
X166470*
G75*
G02X164331Y200476I5433J5276*
G01*
G75*
G02X168143Y207049I7573*
G01*
G37*
X178476Y196715D02*
G36*
G75*
G02X177337Y195201I-6573J3761D01*
G01*
X178476*
Y196715*
G37*
X336207Y197191D02*
G75*
G02X321811Y200476I-6823J3286D01*
G01*
G75*
G02X326098Y207299I7573*
G01*
X192180*
G75*
G02X196467Y200476I-3286J-6823*
G01*
G75*
G02X182089Y197155I-7573*
G01*
Y23956*
G75*
G02X196467Y20634I6806J-3322*
G01*
G75*
G02X192180Y13811I-7573*
G01*
X326098*
G75*
G02X321811Y20634I3286J6823*
G01*
G75*
G02X336207Y23920I7573*
G01*
Y197191*
X272253Y87687D02*
G75*
G02X274271Y86057I351J-1630D01*
G01*
G75*
G02X272253Y84427I-1667*
G01*
X218508*
G75*
G02X217354Y84906J1630*
G01*
X211797Y90463*
X206669*
G75*
G02X199242Y89765I-3900J1630*
G01*
Y84420*
G75*
G02X206669Y83722I3528J-2328*
G01*
X246795*
G75*
G02X248425Y82093J-1630*
G01*
Y76863*
G75*
G02X248463Y76511I-1630J-351*
G01*
G75*
G02X245128I-1667*
G01*
G75*
G02X245165Y76863I1667*
G01*
Y80463*
X206669*
G75*
G02X199242Y79765I-3900J1630*
G01*
Y74420*
G75*
G02X206996Y72093I3528J-2328*
G01*
G75*
G02X205196Y68632I-4226J0*
G01*
X218187*
X219743Y70187*
G75*
G02X221372Y71781I1630J-36*
G01*
X241516*
Y72311*
X247213*
Y67992*
X241516*
Y68522*
X222667*
G75*
G02X222523Y68358I-1296J992*
G01*
X220016Y65851*
G75*
G02X218862Y65372I-1154J1151*
G01*
X205990*
G75*
G02X202770Y57496I-3220J-3280*
G01*
G75*
G02X199549Y65372J4596*
G01*
X198768*
G75*
G02X197611Y65850I-4J1630*
G01*
X196460Y67001*
G75*
G02X195982Y68154I1152J1153*
G01*
G75*
G02Y68157I1008J2*
G01*
Y69346*
G75*
G02X188543Y72093I-3213J2746*
G01*
G75*
G02X195982Y74839I4226*
G01*
Y78805*
G75*
G02X188173Y82093I-3213J3287*
G01*
G75*
G02X195982Y85380I4596*
G01*
Y88805*
G75*
G02X188173Y92093I-3213J3287*
G01*
G75*
G02X195982Y95380I4596*
G01*
Y98805*
G75*
G02X188173Y102093I-3213J3287*
G01*
G75*
G02X195982Y105380I4596*
G01*
Y108805*
G75*
G02X188173Y112093I-3213J3287*
G01*
G75*
G02X195982Y115380I4596*
G01*
Y117425*
G75*
G02X196461Y118579I1630*
G01*
X198731Y120848*
G75*
G02X202770Y126319I4039J1244*
G01*
G75*
G02Y117866J-4226*
G01*
G75*
G02X200830Y118338I0J4226*
G01*
X199242Y116750*
Y114420*
G75*
G02X206996Y112093I3528J-2328*
G01*
G75*
G02X199242Y109765I-4226*
G01*
Y104420*
G75*
G02X206996Y102093I3528J-2328*
G01*
G75*
G02X199242Y99765I-4226*
G01*
Y94420*
G75*
G02X206669Y93722I3528J-2328*
G01*
X212642*
G75*
G02X214143Y92727J-1630*
G01*
X219183Y87687*
X272253*
X319370Y55580D02*
G75*
G02X327496Y53950I3900J-1630D01*
G01*
G75*
G02X319370Y52320I-4226*
G01*
X317169*
G75*
G02X309370I-3900J1630*
G01*
X297559*
Y33134*
G75*
G02X297080Y31980I-1630*
G01*
X288807Y23707*
Y21516*
X283110*
Y22045*
X280884*
Y19783*
X276565*
Y25677*
X280884*
Y25305*
X283110*
Y25835*
X286325*
X294299Y33809*
Y63472*
X292740*
G75*
G02X291594Y63943J1630*
G01*
Y50270*
G75*
G02X291070Y49005I-1787*
G01*
X283383Y41328*
G75*
G02X282119Y40805I-1263J1265*
G01*
X260643*
G75*
G02Y44380J1787*
G01*
X278203*
G75*
G02X278478Y47826I591J1687*
G01*
X285746Y55095*
Y59352*
G75*
G02X283000Y60860I-959J1509*
G01*
Y62988*
G75*
G02X279683Y63913I-1530J925*
G01*
Y65493*
G75*
G02X277041Y67063I-855J1570*
G01*
Y140769*
X254283Y163526*
G75*
G02X253758Y164793I1262J1266*
G01*
Y171358*
G75*
G02X255545Y179414I1787J3830*
G01*
G75*
G02X257333Y171358J-4226*
G01*
Y165533*
X279683Y143183*
Y143388*
G75*
G02X279673Y143398I1237J1247*
G01*
X264283Y158787*
G75*
G02X263758Y160053I1262J1266*
G01*
Y171371*
G75*
G02X265545Y179427I1787J3830*
G01*
G75*
G02X267333Y171371J-4226*
G01*
Y160794*
X273802Y154324*
G75*
G02X273758Y154719I1743J394*
G01*
G75*
G02Y154722I641J2*
G01*
Y171358*
G75*
G02X275545Y179414I1787J3830*
G01*
G75*
G02X277333Y171358J-4226*
G01*
Y155459*
X285746Y147046*
Y152580*
X284291Y154035*
G75*
G02X283768Y155299I1264J1264*
G01*
G75*
G02Y155300I635J0*
G01*
G75*
G02Y155302I641J1*
G01*
Y171354*
G75*
G02X285545Y179414I1778J3834*
G01*
G75*
G02X287343Y171363J-4226*
G01*
Y156040*
X288797Y154585*
G75*
G02X289321Y153321I-1264J-1264*
G01*
G75*
G02Y153320I-635J0*
G01*
G75*
G02Y153318I-641J-1*
G01*
Y140097*
X293758Y144534*
Y171358*
G75*
G02X295545Y179414I1787J3830*
G01*
G75*
G02X297333Y171358J-4226*
G01*
Y143796*
G75*
G02Y143794I-651J-1*
G01*
G75*
G02Y143793I-663J0*
G01*
G75*
G02X296809Y142530I-1787*
G01*
X291594Y137315*
Y79102*
X294900*
Y73406*
X294370*
Y66732*
X295929*
G75*
G02X297559Y65102J-1630*
G01*
Y55580*
X309370*
G75*
G02X317169I3900J-1630*
G01*
X319370*
X295762Y79472D02*
X300821D01*
Y73035*
X295762*
Y79472*
X282740Y20654D02*
X289177D01*
Y15594*
X282740*
Y20654*
X269006Y25677D02*
X273325D01*
Y19783*
X269006*
Y21396*
X266681*
Y20866*
X260984*
Y25185*
X262045*
Y35309*
G75*
G02X265620I1787*
G01*
Y25185*
X266681*
Y24656*
X269006*
Y25677*
X272415Y34709D02*
X277474D01*
Y28075*
X272415*
Y34709*
X260614Y20004D02*
X267051D01*
Y14945*
X260614*
Y20004*
X241146Y67130D02*
X247583D01*
Y62071*
X241146*
Y67130*
X198543Y52093D02*
G75*
G02X206996I4226D01*
G01*
G75*
G02X198543I-4226*
G01*
X238883Y47195D02*
G75*
G02X240901Y45565I351J-1630D01*
G01*
G75*
G02X238883Y43935I-1667*
G01*
X186844*
G75*
G02X185215Y45565J1630*
G01*
Y55565*
G75*
G02X185693Y56719I1630*
G01*
X189054Y60079*
G75*
G02X192770Y66319I3716J2013*
G01*
G75*
G02Y57866J-4226*
G01*
G75*
G02X191612Y58028I0J4227*
G01*
X188474Y54890*
Y47195*
X238883*
X188543Y52093D02*
G75*
G02X196996I4226D01*
G01*
G75*
G02X188543I-4226*
G01*
X198543Y132093D02*
G75*
G02X206996I4226D01*
G01*
G75*
G02X198543I-4226*
G01*
Y142093D02*
G75*
G02X206996I4226D01*
G01*
G75*
G02X198543I-4226*
G01*
X266591Y92333D02*
G75*
G02X268610Y90703I351J-1630D01*
G01*
G75*
G02X266591Y89073I-1667*
G01*
X221972*
G75*
G02X220819Y89552J1630*
G01*
X214817Y95553*
G75*
G02X214340Y96633I1151J1154*
G01*
G75*
G02X217587Y97393I1628J359*
G01*
X222648Y92333*
X255812*
G75*
G02X255707Y92937I1682J604*
G01*
Y129569*
X224496Y160858*
G75*
G02X223974Y162120I1265J1262*
G01*
Y171371*
G75*
G02X225762Y179427I1787J3830*
G01*
G75*
G02X227549Y171371J-4226*
G01*
Y162859*
X258005Y132327*
G75*
G02X258856Y131772I-511J-1713*
G01*
Y133404*
X234287Y157839*
G75*
G02X233758Y159108I1259J1269*
G01*
Y171371*
G75*
G02X235545Y179427I1787J3830*
G01*
G75*
G02X237333Y171371J-4226*
G01*
Y159852*
X261902Y135417*
G75*
G02X262006Y135304I-1259J-1270*
G01*
Y136045*
X261861Y136189*
X244284Y153698*
G75*
G02X243758Y154965I1262J1267*
G01*
Y171358*
G75*
G02X245545Y179414I1787J3830*
G01*
G75*
G02X247333Y171358J-4226*
G01*
Y155707*
X264385Y138721*
G75*
G02X264388Y138718I-621J-624*
G01*
X265057Y138050*
G75*
G02X265581Y136785I-1263J-1265*
G01*
Y95654*
G75*
G02X262431Y94497I-1787*
G01*
Y94285*
G75*
G02X259281Y93128I-1787*
G01*
Y92937*
G75*
G02X259176Y92333I-1787J0*
G01*
X266591*
X236805Y126943D02*
G75*
G02X245998I4596D01*
G01*
G75*
G02X236805I-4596*
G01*
X237175Y136785D02*
G75*
G02X245628I4226D01*
G01*
G75*
G02X237175I-4226*
G01*
X221165Y195201D02*
G75*
G02X230358I4596D01*
G01*
G75*
G02X221165I-4596*
G01*
X221535Y185201D02*
G75*
G02X229988I4226D01*
G01*
G75*
G02X221535I-4226*
G01*
X230949Y195201D02*
G75*
G02X240142I4596D01*
G01*
G75*
G02X230949I-4596*
G01*
X231319Y185201D02*
G75*
G02X239772I4226D01*
G01*
G75*
G02X231319I-4226*
G01*
X240949Y195188D02*
G75*
G02X250142I4596D01*
G01*
G75*
G02X240949I-4596*
G01*
X241319Y185188D02*
G75*
G02X249772I4226D01*
G01*
G75*
G02X241319I-4226*
G01*
X250949Y195188D02*
G75*
G02X260142I4596D01*
G01*
G75*
G02X250949I-4596*
G01*
X251319Y185188D02*
G75*
G02X259772I4226D01*
G01*
G75*
G02X251319I-4226*
G01*
X260949Y195201D02*
G75*
G02X270142I4596D01*
G01*
G75*
G02X260949I-4596*
G01*
X261319Y185201D02*
G75*
G02X269772I4226D01*
G01*
G75*
G02X261319I-4226*
G01*
X270949Y195188D02*
G75*
G02X280142I4596D01*
G01*
G75*
G02X270949I-4596*
G01*
X271319Y185188D02*
G75*
G02X279772I4226D01*
G01*
G75*
G02X271319I-4226*
G01*
X280949Y195188D02*
G75*
G02X290142I4596D01*
G01*
G75*
G02X280949I-4596*
G01*
X281319Y185188D02*
G75*
G02X289772I4226D01*
G01*
G75*
G02X281319I-4226*
G01*
X290949Y195188D02*
G75*
G02X300142I4596D01*
G01*
G75*
G02X290949I-4596*
G01*
X291319Y185188D02*
G75*
G02X299772I4226D01*
G01*
G75*
G02X291319I-4226*
G01*
X301604Y77862D02*
X307301D01*
Y73543*
X301604*
Y77862*
Y83413D02*
X307301D01*
Y79094*
X301604*
Y83413*
X308673Y63950D02*
G75*
G02X317866I4596D01*
G01*
G75*
G02X308673I-4596*
G01*
X309043Y73950D02*
G75*
G02X317496I4226D01*
G01*
G75*
G02X309043I-4226*
G01*
Y83950D02*
G75*
G02X317496I4226D01*
G01*
G75*
G02X309043I-4226*
G01*
Y93950D02*
G75*
G02X317496I4226D01*
G01*
G75*
G02X309043I-4226*
G01*
X317573Y150132D02*
X330703D01*
Y137002*
X317573*
Y150132*
X317943Y127976D02*
G75*
G02X330333I6195D01*
G01*
G75*
G02X317943I-6195*
G01*
X318673Y63950D02*
G75*
G02X327866I4596D01*
G01*
G75*
G02X318673I-4596*
G01*
X319043Y73950D02*
G75*
G02X327496I4226D01*
G01*
G75*
G02X319043I-4226*
G01*
Y83950D02*
G75*
G02X327496I4226D01*
G01*
G75*
G02X319043I-4226*
G01*
Y93950D02*
G75*
G02X327496I4226D01*
G01*
G75*
G02X319043I-4226*
G01*
X188173Y132093D02*
G75*
G02X197366I4596D01*
G01*
G75*
G02X188173I-4596*
G01*
X188543Y122093D02*
G75*
G02X196996I4226D01*
G01*
G75*
G02X188543I-4226*
G01*
X188173Y142093D02*
G75*
G02X197366I4596D01*
G01*
G75*
G02X188173I-4596*
G01*
X322239Y18124D02*
G36*
X289177D01*
Y15594*
X282740*
Y18124*
X267051*
Y14945*
X260614*
Y18124*
X196039*
G75*
G02X192655Y14061I-7145J2510*
G01*
X325623*
G75*
G02X322239Y18124I3761J6573*
G01*
G37*
X335957Y24395D02*
G36*
Y28440D01*
X293540*
X288807Y23707*
Y21516*
X283110*
Y22045*
X280884*
Y19783*
X276565*
Y25677*
X280884*
Y25305*
X283110*
Y25835*
X286325*
X288930Y28440*
X277474*
Y28075*
X272415*
Y28440*
X265620*
Y25185*
X266681*
Y24656*
X269006*
Y25677*
X273325*
Y19783*
X269006*
Y21396*
X266681*
Y20866*
X260984*
Y25185*
X262045*
Y28440*
X182339*
Y24425*
G75*
G02X196467Y20634I6556J-3791*
G01*
G75*
G02X196039Y18124I-7573*
G01*
X260614*
Y20004*
X267051*
Y18124*
X282740*
Y20654*
X289177*
Y18124*
X322239*
G75*
G02X321811Y20634I7145J2510*
G01*
G75*
G02X335957Y24395I7573*
G01*
G37*
X294299Y52093D02*
G36*
X291594D01*
Y50270*
G75*
G02Y50269I-2148J0*
G01*
G75*
G02X291070Y49005I-1785*
G01*
X283383Y41328*
G75*
G02X282119Y40805I-1263J1265*
G01*
X260643*
G75*
G02X258856Y42593J1787*
G01*
G75*
G02X260643Y44380I1787*
G01*
X278203*
G75*
G02X277006Y46067I591J1687*
G01*
G75*
G02X278478Y47826I1787*
G01*
X282744Y52093*
X206996*
G75*
G02X198543I-4226*
G01*
X196996*
G75*
G02X188543I-4226*
G01*
X188474*
Y47195*
X238883*
G75*
G02X240901Y45565I352J-1630*
G01*
Y45565*
Y45565*
G75*
G02X238883Y43935I-1667*
G01*
X186844*
G75*
G02X185215Y45565J1630*
G01*
Y52093*
X182339*
Y28440*
X262045*
Y35309*
G75*
G02X265620I1787*
G01*
Y28440*
X272415*
Y34709*
X277474*
Y28440*
X288930*
X294299Y33809*
Y52093*
G37*
X327065D02*
G36*
G75*
G02X319473I-3796J1857D01*
G01*
X317066*
G75*
G02X309473I-3796J1858*
G01*
X297559*
Y33134*
Y33133*
G75*
G02X297080Y31980I-1629*
G01*
X293540Y28440*
X335957*
Y52093*
X327065*
G37*
X189367Y64600D02*
G36*
X182339D01*
Y52093*
X185215*
Y55565*
Y55565*
G75*
G02X185693Y56719I1629*
G01*
X189054Y60079*
G75*
G02X188543Y62093I3715J2014*
G01*
G75*
G02X189367Y64600I4226*
G01*
G37*
X279683D02*
G36*
X247583D01*
Y62071*
X241146*
Y64600*
X206622*
G75*
G02X207366Y62093I-3852J-2508*
G01*
G75*
G02X202770Y57496I-4596*
G01*
G75*
G02X198173Y62093J4596*
G01*
G75*
G02X198918Y64600I4597*
G01*
X196172*
G75*
G02X196996Y62093I-3402J-2508*
G01*
G75*
G02X192770Y57866I-4226*
G01*
G75*
G02X191612Y58028I0J4232*
G01*
X188474Y54890*
Y52093*
X188543*
G75*
G02X196996I4226*
G01*
X198543*
G75*
G02X206996I4226*
G01*
X282744*
X285746Y55095*
Y59352*
G75*
G02X283000Y60860I-959J1509*
G01*
Y62988*
G75*
G02X279683Y63913I-1530J925*
G01*
Y64600*
G37*
X294299Y52093D02*
G36*
Y63472D01*
X292740*
G75*
G02X291594Y63943I-1J1628*
G01*
Y52093*
X294299*
G37*
X309473D02*
G36*
G75*
G02X309370Y52320I3796J1855D01*
G01*
X297559*
Y52093*
X309473*
G37*
X327065D02*
G36*
X335957D01*
Y64600*
X327820*
G75*
G02X327866Y63950I-4551J-649*
G01*
G75*
G02X318673I-4596*
G01*
G75*
G02X318719Y64600I4597J1*
G01*
X317820*
G75*
G02X317866Y63950I-4551J-649*
G01*
G75*
G02X308673I-4596*
G01*
G75*
G02X308719Y64600I4597J1*
G01*
X297559*
Y55580*
X309370*
G75*
G02X317169I3900J-1630*
G01*
X319370*
G75*
G02X327496Y53951I3900J-1630*
G01*
Y53950*
Y53950*
G75*
G02X327065Y52093I-4226J0*
G01*
G37*
X319473D02*
G36*
G75*
G02X319370Y52320I3796J1855D01*
G01*
X317169*
G75*
G02X317066Y52093I-3900J1627*
G01*
X319473*
G37*
X198918Y64600D02*
G36*
G75*
G02X199549Y65372I3852J-2508D01*
G01*
X198768*
G75*
G02X197611Y65850I-4J1629*
G01*
X196460Y67001*
G75*
G02X195982Y68153I1151J1152*
G01*
Y68154*
Y68154*
Y68157*
Y69346*
G75*
G02X188543Y72092I-3213J2746*
G01*
Y72093*
Y72093*
G75*
G02X192031Y76254I4226*
G01*
X182339*
Y64600*
X189367*
G75*
G02X192770Y66319I3402J-2508*
G01*
G75*
G02X196172Y64600J-4226*
G01*
X198918*
G37*
X195982Y76254D02*
G36*
X193508D01*
G75*
G02X195982Y74839I-739J-4161*
G01*
Y76254*
G37*
X202031D02*
G36*
X199242D01*
Y74420*
G75*
G02X202031Y76254I3528J-2328*
G01*
G37*
X279683Y64600D02*
G36*
Y65493D01*
G75*
G02X277041Y67062I-856J1569*
G01*
Y67063*
Y76254*
X248443*
G75*
G02X245148I-1647J257*
G01*
X203509*
G75*
G02X206996Y72093I-739J-4161*
G01*
G75*
G02X205196Y68632I-4228J1*
G01*
X218187*
X219743Y70187*
G75*
G02X221372Y71781I1630J-36*
G01*
X241516*
Y72311*
X247213*
Y67992*
X241516*
Y68522*
X222667*
G75*
G02X222523Y68358I-1352J1041*
G01*
X220016Y65851*
G75*
G02X218862Y65372I-1154J1150*
G01*
X205990*
G75*
G02X206622Y64600I-3220J-3280*
G01*
X241146*
Y67130*
X247583*
Y64600*
X279683*
G37*
X307301Y76254D02*
G36*
Y73543D01*
X301604*
Y76254*
X300821*
Y73035*
X295762*
Y76254*
X294900*
Y73406*
X294370*
Y66732*
X295929*
G75*
G02X297559Y65102J-1630*
G01*
Y64600*
X308719*
G75*
G02X317820I4550J-650*
G01*
X318719*
G75*
G02X327820I4550J-650*
G01*
X335957*
Y76254*
X326813*
G75*
G02X327496Y73950I-3543J-2304*
G01*
G75*
G02X319043I-4226*
G01*
G75*
G02X319726Y76254I4226J0*
G01*
X316813*
G75*
G02X317496Y73950I-3543J-2304*
G01*
G75*
G02X309043I-4226*
G01*
G75*
G02X309726Y76254I4226J0*
G01*
X307301*
G37*
X188250Y81254D02*
G36*
X182339D01*
Y76254*
X192031*
G75*
G02X193508I739J-4161*
G01*
X195982*
Y78805*
G75*
G02X188250Y81254I-3213J3287*
G01*
G37*
X245148Y76254D02*
G36*
G75*
G02X245128Y76511I1647J258D01*
G01*
G75*
G02X245165Y76863I1677J-1*
G01*
Y80463*
X206669*
G75*
G02X199242Y79765I-3900J1630*
G01*
Y76254*
X202031*
G75*
G02X203509I739J-4161*
G01*
X245148*
G37*
X277041D02*
G36*
Y81254D01*
X248425*
Y76863*
G75*
G02X248463Y76511I-1639J-352*
G01*
G75*
G02X248443Y76254I-1667J0*
G01*
X277041*
G37*
X326524Y81254D02*
G36*
G75*
G02X320015I-3254J2696D01*
G01*
X316524*
G75*
G02X310015I-3254J2696*
G01*
X307301*
Y79094*
X301604*
Y81254*
X291594*
Y79102*
X294900*
Y76254*
X295762*
Y79472*
X300821*
Y76254*
X301604*
Y77862*
X307301*
Y76254*
X309726*
G75*
G02X316813I3543J-2304*
G01*
X319726*
G75*
G02X326813I3543J-2304*
G01*
X335957*
Y81254*
X326524*
G37*
X188250D02*
G36*
G75*
G02X188173Y82092I4519J839D01*
G01*
Y82093*
G75*
G02X195982Y85380I4596J0*
G01*
Y88805*
G75*
G02X188177Y91907I-3213J3287*
G01*
X182339*
Y81254*
X188250*
G37*
X277041Y91907D02*
G36*
X268095D01*
G75*
G02X268610Y90703I-1152J-1204*
G01*
Y90703*
Y90702*
G75*
G02X266591Y89073I-1667*
G01*
X221972*
G75*
G02X220819Y89552I0J1629*
G01*
X218463Y91907*
X214963*
X219183Y87687*
X272253*
G75*
G02X274271Y86057I352J-1630*
G01*
Y86057*
Y86057*
G75*
G02X272253Y84427I-1667*
G01*
X218508*
G75*
G02X217354Y84906I0J1629*
G01*
X211797Y90463*
X206669*
G75*
G02X199242Y89765I-3900J1630*
G01*
Y84420*
G75*
G02X206669Y83722I3528J-2328*
G01*
X246795*
G75*
G02X248425Y82093J-1630*
G01*
Y81254*
X277041*
Y91907*
G37*
X326969D02*
G36*
G75*
G02X319569I-3700J2043D01*
G01*
X316969*
G75*
G02X309569I-3700J2043*
G01*
X291594*
Y81254*
X301604*
Y83413*
X307301*
Y81254*
X310015*
G75*
G02X309043Y83950I3254J2696*
G01*
G75*
G02X317496I4226*
G01*
G75*
G02X316524Y81254I-4226*
G01*
X320015*
G75*
G02X319043Y83950I3254J2696*
G01*
G75*
G02X327496I4226*
G01*
G75*
G02X326524Y81254I-4226*
G01*
X335957*
Y91907*
X326969*
G37*
X188177D02*
G36*
G75*
G02X188173Y92092I4593J180D01*
G01*
Y92093*
G75*
G02X195982Y95380I4596J0*
G01*
Y98805*
G75*
G02X188173Y102092I-3213J3287*
G01*
Y102093*
G75*
G02X195982Y105380I4596J0*
G01*
Y108805*
G75*
G02X188173Y112092I-3213J3287*
G01*
Y112093*
G75*
G02X195982Y115380I4596J0*
G01*
Y117425*
Y117426*
G75*
G02X196461Y118579I1629*
G01*
X198731Y120848*
G75*
G02X198543Y122093I4039J1244*
G01*
X196996*
G75*
G02X188543I-4226*
G01*
X182339*
Y91907*
X188177*
G37*
X218463D02*
G36*
X214817Y95553D01*
G75*
G02X214340Y96633I1154J1155*
G01*
G75*
G02X214301Y96992I1629J359*
G01*
G75*
G02X217587Y97393I1667*
G01*
X222648Y92333*
X255812*
G75*
G02X255707Y92936I1678J603*
G01*
G75*
G02Y92937I1991J1*
G01*
Y122093*
X206996*
G75*
G02X202770Y117866I-4226*
G01*
G75*
G02X200830Y118338I1J4228*
G01*
X199242Y116750*
Y114420*
G75*
G02X206996Y112093I3528J-2328*
G01*
G75*
G02X199242Y109765I-4226*
G01*
Y104420*
G75*
G02X206996Y102093I3528J-2328*
G01*
G75*
G02X199242Y99765I-4226*
G01*
Y94420*
G75*
G02X206669Y93722I3528J-2328*
G01*
X212642*
G75*
G02X214143Y92727I0J-1631*
G01*
X214963Y91907*
X218463*
G37*
X277041Y122093D02*
G36*
X265581D01*
Y95654*
G75*
G02X262431Y94497I-1787*
G01*
Y94285*
G75*
G02X259281Y93128I-1787*
G01*
Y92937*
G75*
G02Y92936I-1991J0*
G01*
G75*
G02X259176Y92333I-1783*
G01*
X266591*
G75*
G02X268095Y91907I351J-1630*
G01*
X277041*
Y122093*
G37*
X326076D02*
G36*
G75*
G02X322200I-1938J5884D01*
G01*
X291594*
Y91907*
X309569*
G75*
G02X309043Y93950I3700J2043*
G01*
G75*
G02X317496I4226*
G01*
G75*
G02X316969Y91907I-4226J0*
G01*
X319569*
G75*
G02X319043Y93950I3700J2043*
G01*
G75*
G02X327496I4226*
G01*
G75*
G02X326969Y91907I-4226J0*
G01*
X335957*
Y122093*
X326076*
G37*
X255707Y126943D02*
G36*
X245998D01*
G75*
G02X236805I-4596*
G01*
X182339*
Y122093*
X188543*
G75*
G02X196996I4226*
G01*
X198543*
G75*
G02X202770Y126319I4226*
G01*
G75*
G02X206996Y122093J-4226*
G01*
X255707*
Y126943*
G37*
X277041D02*
G36*
X265581D01*
Y122093*
X277041*
Y126943*
G37*
X318030D02*
G36*
X291594D01*
Y122093*
X322200*
G75*
G02X318030Y126943I1939J5884*
G01*
G37*
X330246D02*
G36*
G75*
G02X326076Y122093I-6108J1033D01*
G01*
X335957*
Y126943*
X330246*
G37*
X255707D02*
G36*
Y129569D01*
X253190Y132093*
X206996*
G75*
G02X198543I-4226*
G01*
X197366*
G75*
G02X188173I-4596*
G01*
X182339*
Y126943*
X236805*
G75*
G02X245998I4596*
G01*
X255707*
G37*
X258856Y132093D02*
G36*
X258499D01*
G75*
G02X258856Y131772I-1004J-1476*
G01*
Y132093*
G37*
X277041D02*
G36*
X265581D01*
Y126943*
X277041*
Y132093*
G37*
X318030Y126943D02*
G36*
G75*
G02X317943Y127976I6108J1035D01*
G01*
G75*
G02X319508Y132093I6195J0*
G01*
X291594*
Y126943*
X318030*
G37*
X330246D02*
G36*
X335957D01*
Y132093*
X328767*
G75*
G02X330333Y127976I-4630J-4117*
G01*
G75*
G02X330246Y126943I-6195J1*
G01*
G37*
X253190Y132093D02*
G36*
X248509Y136785D01*
X245628*
G75*
G02X237175I-4226*
G01*
X182339*
Y132093*
X188173*
G75*
G02X197366I4596*
G01*
X198543*
G75*
G02X206996I4226*
G01*
X253190*
G37*
X258856D02*
G36*
Y133404D01*
X255456Y136785*
X253558*
X258005Y132327*
G75*
G02X258499Y132093I-509J-1710*
G01*
X258856*
G37*
X261263Y136785D02*
G36*
X260526D01*
X261902Y135417*
G75*
G02X262006Y135304I-1345J-1350*
G01*
Y136045*
X261861Y136189*
X261263Y136785*
G37*
X277041D02*
G36*
X265581D01*
Y132093*
X277041*
Y136785*
G37*
X291594D02*
G36*
Y132093D01*
X319508*
G75*
G02X328767I4630J-4116*
G01*
X335957*
Y136785*
X291594*
G37*
X248509D02*
G36*
X243215Y142093D01*
X206996*
G75*
G02X198543I-4226*
G01*
X197366*
G75*
G02X188173I-4596*
G01*
X182339*
Y136785*
X237175*
G75*
G02X245628I4226*
G01*
X248509*
G37*
X255456D02*
G36*
X250120Y142093D01*
X248264*
X253558Y136785*
X255456*
G37*
X261263D02*
G36*
X255935Y142093D01*
X255189*
X260526Y136785*
X261263*
G37*
X277041D02*
G36*
Y140769D01*
X275717Y142093*
X261000*
X264385Y138721*
X264388Y138718*
X265057Y138050*
G75*
G02X265581Y136785I-1263J-1264*
G01*
X277041*
G37*
X291317Y142093D02*
G36*
X289321D01*
Y140097*
X291317Y142093*
G37*
X330703D02*
G36*
Y137002D01*
X317573*
Y142093*
X296372*
X291594Y137315*
Y136785*
X335957*
Y142093*
X330703*
G37*
X296372D02*
G36*
X317573D01*
Y150132*
X330703*
Y142093*
X335957*
Y185201*
X299772*
G75*
G02Y185188I-4230J-6*
G01*
G75*
G02X291319I-4226*
G01*
G75*
G02Y185201I4230J7*
G01*
X289772*
G75*
G02Y185188I-4230J-6*
G01*
G75*
G02X281319I-4226*
G01*
G75*
G02Y185201I4230J7*
G01*
X279772*
G75*
G02Y185188I-4230J-6*
G01*
G75*
G02X271319I-4226*
G01*
G75*
G02Y185201I4230J7*
G01*
X269772*
G75*
G02X261319I-4226*
G01*
X259772*
G75*
G02Y185188I-4230J-6*
G01*
G75*
G02X251319I-4226*
G01*
G75*
G02Y185201I4230J7*
G01*
X249772*
G75*
G02Y185188I-4230J-6*
G01*
G75*
G02X241319I-4226*
G01*
G75*
G02Y185201I4230J7*
G01*
X239772*
G75*
G02X231319I-4226*
G01*
X229988*
G75*
G02X221535I-4226*
G01*
X182339*
Y142093*
X188173*
G75*
G02X197366I4596*
G01*
X198543*
G75*
G02X206996I4226*
G01*
X243215*
X224496Y160858*
G75*
G02X223974Y162120I1266J1263*
G01*
Y171371*
G75*
G02X221535Y175201I1788J3830*
G01*
G75*
G02X225762Y179427I4226*
G01*
G75*
G02X229988Y175201J-4226*
G01*
G75*
G02X227549Y171371I-4227*
G01*
Y162859*
X248264Y142093*
X250120*
X234287Y157839*
G75*
G02X233758Y159108I1257J1269*
G01*
Y159108*
Y171371*
G75*
G02X231319Y175201I1788J3830*
G01*
G75*
G02X235545Y179427I4226*
G01*
G75*
G02X239772Y175201J-4226*
G01*
G75*
G02X237333Y171371I-4227*
G01*
Y159852*
X255189Y142093*
X255935*
X244284Y153698*
G75*
G02X243758Y154964I1260J1266*
G01*
G75*
G02Y154965I1961J0*
G01*
Y171358*
G75*
G02X241319Y175188I1788J3830*
G01*
G75*
G02X245545Y179414I4226*
G01*
G75*
G02X249772Y175188J-4226*
G01*
G75*
G02X247333Y171358I-4227*
G01*
Y155707*
X261000Y142093*
X275717*
X254283Y163526*
G75*
G02X253758Y164793I1262J1266*
G01*
Y171358*
G75*
G02X251319Y175188I1788J3830*
G01*
G75*
G02X255545Y179414I4226*
G01*
G75*
G02X259772Y175188J-4226*
G01*
G75*
G02X257333Y171358I-4227*
G01*
Y165533*
X279683Y143183*
Y143388*
G75*
G02X279673Y143398I57J67*
G01*
X264283Y158787*
G75*
G02X263758Y160053I1262J1266*
G01*
Y171371*
G75*
G02X261319Y175201I1788J3830*
G01*
G75*
G02X265545Y179427I4226*
G01*
G75*
G02X269772Y175201J-4226*
G01*
G75*
G02X267333Y171371I-4227*
G01*
Y160794*
X273802Y154324*
G75*
G02X273758Y154718I1731J393*
G01*
G75*
G02Y154719I1556J0*
G01*
Y154719*
Y154722*
Y171358*
G75*
G02X271319Y175188I1788J3830*
G01*
G75*
G02X275545Y179414I4226*
G01*
G75*
G02X279772Y175188J-4226*
G01*
G75*
G02X277333Y171358I-4227*
G01*
Y155459*
X285746Y147046*
Y152580*
X284291Y154035*
G75*
G02X283768Y155299I1265J1265*
G01*
Y155300*
Y155302*
Y171354*
G75*
G02X281319Y175188I1778J3834*
G01*
G75*
G02X285545Y179414I4226*
G01*
G75*
G02X289772Y175188J-4226*
G01*
G75*
G02X287343Y171363I-4226*
G01*
Y156040*
X288797Y154585*
G75*
G02X289321Y153321I-1265J-1265*
G01*
Y153320*
Y153318*
Y142093*
X291317*
X293758Y144534*
Y171358*
G75*
G02X291319Y175188I1788J3830*
G01*
G75*
G02X295545Y179414I4226*
G01*
G75*
G02X299772Y175188J-4226*
G01*
G75*
G02X297333Y171358I-4227*
G01*
Y143796*
Y143794*
Y143793*
G75*
G02X296809Y142530I-1789J1*
G01*
X296372Y142093*
G37*
X323951Y195201D02*
G36*
X300142D01*
G75*
G02Y195188I-4624J-6*
G01*
G75*
G02X290949I-4596*
G01*
G75*
G02Y195201I4624J7*
G01*
X290142*
G75*
G02Y195188I-4624J-6*
G01*
G75*
G02X280949I-4596*
G01*
G75*
G02Y195201I4624J7*
G01*
X280142*
G75*
G02Y195188I-4624J-6*
G01*
G75*
G02X270949I-4596*
G01*
G75*
G02Y195201I4624J7*
G01*
X270142*
G75*
G02X260949I-4596*
G01*
X260142*
G75*
G02Y195188I-4624J-6*
G01*
G75*
G02X250949I-4596*
G01*
G75*
G02Y195201I4624J7*
G01*
X250142*
G75*
G02Y195188I-4624J-6*
G01*
G75*
G02X240949I-4596*
G01*
G75*
G02Y195201I4624J7*
G01*
X240142*
G75*
G02X230949I-4596*
G01*
X230358*
G75*
G02X221165I-4596*
G01*
X194327*
G75*
G02X183461I-5433J5276*
G01*
X182339*
Y185201*
X221535*
G75*
G02X229988I4226*
G01*
X231319*
G75*
G02X239772I4226*
G01*
X241319*
G75*
G02X249772I4226J-13*
G01*
X251319*
G75*
G02X259772I4226J-13*
G01*
X261319*
G75*
G02X269772I4226*
G01*
X271319*
G75*
G02X279772I4226J-13*
G01*
X281319*
G75*
G02X289772I4226J-13*
G01*
X291319*
G75*
G02X299772I4226J-13*
G01*
X335957*
Y195201*
X334817*
G75*
G02X323951I-5433J5276*
G01*
G37*
X183461D02*
G36*
G75*
G02X182339Y196685I5433J5276D01*
G01*
Y195201*
X183461*
G37*
X325623Y207049D02*
G36*
X192655D01*
G75*
G02X196467Y200476I-3761J-6573*
G01*
G75*
G02X194327Y195201I-7573J0*
G01*
X221165*
G75*
G02X230358I4596*
G01*
X230949*
G75*
G02X240142I4596*
G01*
X240949*
G75*
G02X250142I4596J-13*
G01*
X250949*
G75*
G02X260142I4596J-13*
G01*
X260949*
G75*
G02X270142I4596*
G01*
X270949*
G75*
G02X280142I4596J-13*
G01*
X280949*
G75*
G02X290142I4596J-13*
G01*
X290949*
G75*
G02X300142I4596J-13*
G01*
X323951*
G75*
G02X321811Y200476I5433J5276*
G01*
G75*
G02X325623Y207049I7573*
G01*
G37*
X335957Y196715D02*
G36*
G75*
G02X334817Y195201I-6573J3761D01*
G01*
X335957*
Y196715*
G37*
D02*
D71*
X32443Y82093D02*
X30443D01*
X32443Y92093D02*
X30443D01*
X32443Y102093D02*
X30443D01*
X32443Y112093D02*
X30443D01*
X32443Y132093D02*
X30443D01*
X32443Y142093D02*
X30443D01*
X35289Y79246D02*
Y77246D01*
Y84939D02*
Y86939D01*
Y89246D02*
Y87246D01*
Y94939D02*
Y96939D01*
Y99246D02*
Y97246D01*
Y104939D02*
Y106939D01*
Y109246D02*
Y107246D01*
Y114939D02*
Y116939D01*
Y129246D02*
Y127246D01*
Y134939D02*
Y136939D01*
Y139246D02*
Y137246D01*
Y144939D02*
Y146939D01*
X38136Y132093D02*
X40136D01*
X38136Y142093D02*
X40136D01*
X42443Y62093D02*
X40443D01*
X45289Y59246D02*
Y57246D01*
X48136Y62093D02*
X50136D01*
X65435Y195201D02*
X63435D01*
X68281Y192354D02*
Y190354D01*
Y198047D02*
Y200047D01*
X71128Y195201D02*
X73128D01*
X75219D02*
X73219D01*
X78065Y192354D02*
Y190354D01*
Y198047D02*
Y200047D01*
X80911Y195201D02*
X82911D01*
X81075Y126943D02*
X79075D01*
X83921Y124096D02*
Y122096D01*
Y129789D02*
Y131789D01*
X85219Y195188D02*
X83219D01*
X85415Y64600D02*
X83415D01*
X86768Y126943D02*
X88768D01*
X86884Y63821D02*
Y61821D01*
Y65380D02*
Y67380D01*
X88065Y192341D02*
Y190341D01*
Y198034D02*
Y200034D01*
X88352Y64600D02*
X90352D01*
X90911Y195188D02*
X92911D01*
X95219D02*
X93219D01*
X98065Y192341D02*
Y190341D01*
Y198034D02*
Y200034D01*
X100911Y195188D02*
X102911D01*
X104884Y17474D02*
X102884D01*
X105219Y195201D02*
X103219D01*
X106352Y16695D02*
Y14695D01*
Y18254D02*
Y20254D01*
X107821Y17474D02*
X109821D01*
X108065Y192354D02*
Y190354D01*
Y198047D02*
Y200047D01*
X110911Y195201D02*
X112911D01*
X115219Y195188D02*
X113219D01*
X116685Y31392D02*
X114685D01*
X117465Y29825D02*
Y27825D01*
Y32959D02*
Y34959D01*
X118065Y192341D02*
Y190341D01*
Y198034D02*
Y200034D01*
X118244Y31392D02*
X120244D01*
X120911Y195188D02*
X122911D01*
X125219D02*
X123219D01*
X127010Y18124D02*
X125010D01*
X128065Y192341D02*
Y190341D01*
Y198034D02*
Y200034D01*
X128478Y17344D02*
Y15344D01*
Y18904D02*
Y20904D01*
X129947Y18124D02*
X131947D01*
X130911Y195188D02*
X132911D01*
X135219D02*
X133219D01*
X138065Y192341D02*
Y190341D01*
Y198034D02*
Y200034D01*
X140031Y76254D02*
X138031D01*
X140811Y74785D02*
Y72785D01*
Y77722D02*
Y79722D01*
X140911Y195188D02*
X142911D01*
X141591Y76254D02*
X143591D01*
X152943Y63950D02*
X150943D01*
X155789Y61104D02*
Y59104D01*
Y66797D02*
Y68797D01*
X158635Y63950D02*
X160635D01*
X161843Y143567D02*
X159843D01*
X162943Y63950D02*
X160943D01*
X165789Y61104D02*
Y59104D01*
Y66797D02*
Y68797D01*
X166657Y138752D02*
Y136752D01*
Y148382D02*
Y150382D01*
X168635Y63950D02*
X170635D01*
X171472Y143567D02*
X173472D01*
X189923Y82093D02*
X187923D01*
X189923Y92093D02*
X187923D01*
X189923Y102093D02*
X187923D01*
X189923Y112093D02*
X187923D01*
X189923Y132093D02*
X187923D01*
X189923Y142093D02*
X187923D01*
X192770Y79246D02*
Y77246D01*
Y84939D02*
Y86939D01*
Y89246D02*
Y87246D01*
Y94939D02*
Y96939D01*
Y99246D02*
Y97246D01*
Y104939D02*
Y106939D01*
Y109246D02*
Y107246D01*
Y114939D02*
Y116939D01*
Y129246D02*
Y127246D01*
Y134939D02*
Y136939D01*
Y139246D02*
Y137246D01*
Y144939D02*
Y146939D01*
X195616Y132093D02*
X197616D01*
X195616Y142093D02*
X197616D01*
X199923Y62093D02*
X197923D01*
X202770Y59246D02*
Y57246D01*
X205616Y62093D02*
X207616D01*
X222915Y195201D02*
X220915D01*
X225762Y192354D02*
Y190354D01*
Y198047D02*
Y200047D01*
X228608Y195201D02*
X230608D01*
X232699D02*
X230699D01*
X235545Y192354D02*
Y190354D01*
Y198047D02*
Y200047D01*
X238392Y195201D02*
X240392D01*
X238555Y126943D02*
X236555D01*
X241402Y124096D02*
Y122096D01*
Y129789D02*
Y131789D01*
X242699Y195188D02*
X240699D01*
X242896Y64600D02*
X240896D01*
X244248Y126943D02*
X246248D01*
X244364Y63821D02*
Y61821D01*
Y65380D02*
Y67380D01*
X245545Y192341D02*
Y190341D01*
Y198034D02*
Y200034D01*
X245833Y64600D02*
X247833D01*
X248392Y195188D02*
X250392D01*
X252699D02*
X250699D01*
X255545Y192341D02*
Y190341D01*
Y198034D02*
Y200034D01*
X258392Y195188D02*
X260392D01*
X262364Y17474D02*
X260364D01*
X262699Y195201D02*
X260699D01*
X263833Y16695D02*
Y14695D01*
Y18254D02*
Y20254D01*
X265301Y17474D02*
X267301D01*
X265545Y192354D02*
Y190354D01*
Y198047D02*
Y200047D01*
X268392Y195201D02*
X270392D01*
X272699Y195188D02*
X270699D01*
X274165Y31392D02*
X272165D01*
X274945Y29825D02*
Y27825D01*
Y32959D02*
Y34959D01*
X275545Y192341D02*
Y190341D01*
Y198034D02*
Y200034D01*
X275724Y31392D02*
X277724D01*
X278392Y195188D02*
X280392D01*
X282699D02*
X280699D01*
X284490Y18124D02*
X282490D01*
X285545Y192341D02*
Y190341D01*
Y198034D02*
Y200034D01*
X285959Y17344D02*
Y15344D01*
Y18904D02*
Y20904D01*
X287427Y18124D02*
X289427D01*
X288392Y195188D02*
X290392D01*
X292699D02*
X290699D01*
X295545Y192341D02*
Y190341D01*
Y198034D02*
Y200034D01*
X297512Y76254D02*
X295512D01*
X298291Y74785D02*
Y72785D01*
Y77722D02*
Y79722D01*
X298392Y195188D02*
X300392D01*
X299071Y76254D02*
X301071D01*
X310423Y63950D02*
X308423D01*
X313269Y61104D02*
Y59104D01*
Y66797D02*
Y68797D01*
X316116Y63950D02*
X318116D01*
X319323Y143567D02*
X317323D01*
X320423Y63950D02*
X318423D01*
X323269Y61104D02*
Y59104D01*
Y66797D02*
Y68797D01*
X324138Y138752D02*
Y136752D01*
Y148382D02*
Y150382D01*
X326116Y63950D02*
X328116D01*
X328953Y143567D02*
X330953D01*
D02*
D22*
X58488Y96992D03*
X81754Y45565D03*
X86884Y70152D03*
X89315Y76511D03*
X100013Y92937D03*
X103163Y42593D03*
Y94285D03*
X106283Y35309D03*
X106313Y95654D03*
X109462Y90703D03*
X115124Y86057D03*
X121313Y46067D03*
X121362Y67063D03*
X123990Y63913D03*
X127268Y60860D03*
X135467Y75872D03*
X145885D03*
Y80872D03*
X215969Y96992D03*
X239234Y45565D03*
X244364Y70152D03*
X246795Y76511D03*
X257494Y92937D03*
X260643Y42593D03*
Y94285D03*
X263764Y35309D03*
X263793Y95654D03*
X266943Y90703D03*
X272604Y86057D03*
X278793Y46067D03*
X278843Y67063D03*
X281470Y63913D03*
X284748Y60860D03*
X292947Y75872D03*
X303366D03*
Y80872D03*
D02*
D25*
X135260Y76254D03*
X140811D03*
X292740D03*
X298291D03*
D02*
D26*
X86884Y64600D03*
Y70152D03*
X106352Y17474D03*
Y23026D03*
X128478Y18124D03*
Y23675D03*
X146972Y75703D03*
Y81254D03*
X244364Y64600D03*
Y70152D03*
X263833Y17474D03*
Y23026D03*
X285959Y18124D03*
Y23675D03*
X304453Y75703D03*
Y81254D03*
D02*
D74*
X35289Y52093D03*
Y62093D03*
Y72093D03*
Y82093D03*
Y92093D03*
Y102093D03*
Y112093D03*
Y122093D03*
Y132093D03*
Y142093D03*
X45289Y52093D03*
Y62093D03*
Y72093D03*
Y82093D03*
Y92093D03*
Y102093D03*
Y112093D03*
Y122093D03*
Y132093D03*
Y142093D03*
X68281Y175201D03*
Y185201D03*
Y195201D03*
X78065Y175201D03*
Y185201D03*
Y195201D03*
X83921Y126943D03*
Y136785D03*
X88065Y175188D03*
Y185188D03*
Y195188D03*
X98065Y175188D03*
Y185188D03*
Y195188D03*
X108065Y175201D03*
Y185201D03*
Y195201D03*
X118065Y175188D03*
Y185188D03*
Y195188D03*
X128065Y175188D03*
Y185188D03*
Y195188D03*
X138065Y175188D03*
Y185188D03*
Y195188D03*
X155789Y53950D03*
Y63950D03*
Y73950D03*
Y83950D03*
Y93950D03*
X165789Y53950D03*
Y63950D03*
Y73950D03*
Y83950D03*
Y93950D03*
X192770Y52093D03*
Y62093D03*
Y72093D03*
Y82093D03*
Y92093D03*
Y102093D03*
Y112093D03*
Y122093D03*
Y132093D03*
Y142093D03*
X202770Y52093D03*
Y62093D03*
Y72093D03*
Y82093D03*
Y92093D03*
Y102093D03*
Y112093D03*
Y122093D03*
Y132093D03*
Y142093D03*
X225762Y175201D03*
Y185201D03*
Y195201D03*
X235545Y175201D03*
Y185201D03*
Y195201D03*
X241402Y126943D03*
Y136785D03*
X245545Y175188D03*
Y185188D03*
Y195188D03*
X255545Y175188D03*
Y185188D03*
Y195188D03*
X265545Y175201D03*
Y185201D03*
Y195201D03*
X275545Y175188D03*
Y185188D03*
Y195188D03*
X285545Y175188D03*
Y185188D03*
Y195188D03*
X295545Y175188D03*
Y185188D03*
Y195188D03*
X313269Y53950D03*
Y63950D03*
Y73950D03*
Y83950D03*
Y93950D03*
X323269Y53950D03*
Y63950D03*
Y73950D03*
Y83950D03*
Y93950D03*
D02*
D77*
X43134Y165801D03*
X56018Y61608D03*
X58596Y133094D03*
X67898Y108124D03*
X92573Y59610D03*
Y63675D03*
Y67425D03*
Y71480D03*
X93793Y41431D03*
X96559Y59610D03*
Y63675D03*
Y67425D03*
Y71480D03*
X100093Y59610D03*
Y63675D03*
Y67425D03*
Y71480D03*
X104069Y59610D03*
Y63675D03*
Y67425D03*
Y71480D03*
X107907Y59610D03*
Y63675D03*
Y67425D03*
Y71480D03*
X113321Y26904D03*
X113419Y31047D03*
X117415Y26904D03*
X117484Y22671D03*
X121372Y26972D03*
X121569Y31126D03*
X136372Y81402D03*
Y85161D03*
X138980Y71185D03*
X157622Y106972D03*
X159482Y170230D03*
X200614Y165801D03*
X213498Y61608D03*
X216077Y133094D03*
X225378Y108124D03*
X250053Y59610D03*
Y63675D03*
Y67425D03*
Y71480D03*
X251274Y41431D03*
X254039Y59610D03*
Y63675D03*
Y67425D03*
Y71480D03*
X257573Y59610D03*
Y63675D03*
Y67425D03*
Y71480D03*
X261549Y59610D03*
Y63675D03*
Y67425D03*
Y71480D03*
X265388Y59610D03*
Y63675D03*
Y67425D03*
Y71480D03*
X270801Y26904D03*
X270900Y31047D03*
X274896Y26904D03*
X274965Y22671D03*
X278852Y26972D03*
X279049Y31126D03*
X293852Y81402D03*
Y85161D03*
X296461Y71185D03*
X315102Y106972D03*
X316963Y170230D03*
D02*
D78*
X35289Y62093D02*
Y61490D01*
X29364Y55565*
Y45565*
X81754*
X45289Y82093D02*
X89315D01*
Y76511*
X45289Y92093D02*
X55161D01*
Y91923*
X61028Y86057*
X115124*
X45289Y122093D02*
X44799D01*
X40132Y117425*
Y68154*
X41283Y67002*
X61382*
X63892Y69512*
Y70152*
X86884*
X58488Y96992D02*
Y96707D01*
X64492Y90703*
X109462*
X86884Y70152D02*
X98065Y175188*
Y164793D01*
X121348Y141510*
X121362*
Y67063*
X100013Y92937D02*
Y130615D01*
X99935Y130693*
X99709*
X68281Y162120*
Y175201*
X103163Y94285D02*
Y134148D01*
X103026*
X78065Y159108*
Y175201*
X106313Y95654D02*
Y136785D01*
X105643Y137455*
X105575*
X88065Y154965*
Y175188*
X106352Y23026D02*
Y31943D01*
X106283*
Y35309*
X108065Y175201D02*
Y160053D01*
X123459Y144659*
X123606*
X123990Y144276*
Y63913*
X113685Y22730D02*
Y23026D01*
X106352*
X118065Y175188D02*
Y154719D01*
X127307Y145476*
X127268*
Y60860*
X121313Y46067D02*
X121766D01*
X130053Y54354*
Y153321*
X128075Y155299*
X128065*
Y175188*
X129531*
X128478Y23675D02*
X121244D01*
Y22730*
X128478Y23675D02*
X128990D01*
X138449Y33134*
Y53950*
X135467Y75872D02*
Y75850D01*
X135260*
Y76254*
X138065Y175188D02*
Y143793D01*
X132327Y138055*
X132317*
Y50270*
X124640Y42593*
X103163*
X138449Y53950D02*
Y65102D01*
X135260*
Y76254*
X146972Y75703D02*
X145885D01*
Y75872*
X146972Y81254D02*
X145885D01*
Y80872*
X155789Y53950D02*
X138449D01*
X165789D02*
X155789D01*
X192770Y62093D02*
Y61490D01*
X186844Y55565*
Y45565*
X239234*
X202770Y82093D02*
X246795D01*
Y76511*
X202770Y92093D02*
X212642D01*
Y91923*
X218508Y86057*
X272604*
X202770Y122093D02*
X202280D01*
X197612Y117425*
Y68154*
X198764Y67002*
X218862*
X221372Y69512*
Y70152*
X244364*
X215969Y96992D02*
Y96707D01*
X221972Y90703*
X266943*
X244364Y70152D02*
X255545Y175188*
Y164793D01*
X278828Y141510*
X278843*
Y67063*
X257494Y92937D02*
Y130615D01*
X257415Y130693*
X257189*
X225762Y162120*
Y175201*
X260643Y94285D02*
Y134148D01*
X260506*
X235545Y159108*
Y175201*
X263793Y95654D02*
Y136785D01*
X263124Y137455*
X263055*
X245545Y154965*
Y175188*
X263833Y23026D02*
Y31943D01*
X263764*
Y35309*
X265545Y175201D02*
Y160053D01*
X280939Y144659*
X281087*
X281470Y144276*
Y63913*
X271165Y22730D02*
Y23026D01*
X263833*
X275545Y175188D02*
Y154719D01*
X284787Y145476*
X284748*
Y60860*
X278793Y46067D02*
X279246D01*
X287533Y54354*
Y153321*
X285555Y155299*
X285545*
Y175188*
X287012*
X285959Y23675D02*
X278724D01*
Y22730*
X285959Y23675D02*
X286470D01*
X295929Y33134*
Y53950*
X292947Y75872D02*
Y75850D01*
X292740*
Y76254*
X295545Y175188D02*
Y143793D01*
X289807Y138055*
X289797*
Y50270*
X282120Y42593*
X260643*
X295929Y53950D02*
Y65102D01*
X292740*
Y76254*
X304453Y75703D02*
X303366D01*
Y75872*
X304453Y81254D02*
X303366D01*
Y80872*
X313269Y53950D02*
X295929D01*
X323269D02*
X313269D01*
D02*
D91*
X31414Y20634D03*
Y200476D03*
X171904Y20634D03*
Y200476D03*
X188894Y20634D03*
Y200476D03*
X329384Y20634D03*
Y200476D03*
D02*
D95*
X166657Y143567D03*
X324138D03*
D02*
D96*
X166657Y127976D03*
X324138D03*
D02*
D114*
X113685Y22730D03*
X117465Y31392D03*
X121244Y22730D03*
X271165D03*
X274945Y31392D03*
X278724Y22730D03*
X0Y0D02*
M02*
