G04 EasyPC Gerber Version 21.0.3 Build 4286 *
G04 #@! TF.Part,Single*
G04 #@! TF.FileFunction,Legend,Top *
G04 #@! TF.FilePolarity,Positive *
%FSLAX45Y45*%
%MOIN*%
%ADD19C,0.00100*%
%ADD21C,0.00197*%
%ADD113C,0.00472*%
%ADD70C,0.00500*%
%ADD20C,0.00787*%
%ADD71C,0.01000*%
%ADD22C,0.01575*%
X0Y0D02*
D02*
D19*
X181654Y215244D02*
X182435Y213369D01*
X183217Y215244*
X184154Y213994D02*
X185404D01*
X188217Y213681D02*
X188060Y213525D01*
X187748Y213369*
X187279*
X186967Y213525*
X186810Y213681*
X186654Y213994*
Y214619*
X186810Y214931*
X186967Y215087*
X187279Y215244*
X187748*
X188060Y215087*
X188217Y214931*
X189154Y215244D02*
Y213837D01*
X189310Y213525*
X189623Y213369*
X190248*
X190560Y213525*
X190717Y213837*
Y215244*
X192435Y213369D02*
Y215244D01*
X191654D02*
X193217D01*
D02*
D70*
X69300Y174104D02*
Y176230D01*
X67174*
Y174104*
X69300Y184104D02*
Y186230D01*
X67174*
Y184104*
X69300Y194104D02*
Y196230D01*
X67174*
Y194104*
X69486Y95541D02*
Y84880D01*
X75423*
Y95541*
X69486*
X69497Y173907D02*
X69300Y174104D01*
X67174*
X66977Y173907*
X69497*
Y183907D02*
X69300Y184104D01*
X67174*
X66977Y183907*
X69497*
Y193907D02*
X69300Y194104D01*
X67174*
X66977Y193907*
X69497*
X73281Y197701D02*
Y172701D01*
X65781Y165201*
X63281*
Y200201*
X73281*
Y197701*
X74574Y58564D02*
Y69226D01*
X68637*
Y58564*
X74574*
X75264Y20241D02*
X85925D01*
Y26178*
X75264*
Y20241*
X79083Y174104D02*
Y176230D01*
X76957*
Y174104*
X79083Y184104D02*
Y186230D01*
X76957*
Y184104*
X79083Y194104D02*
Y196230D01*
X76957*
Y194104*
X79280Y173907D02*
X79083Y174104D01*
X76957*
X76761Y173907*
X79280*
Y183907D02*
X79083Y184104D01*
X76957*
X76761Y183907*
X79280*
Y193907D02*
X79083Y194104D01*
X76957*
X76761Y193907*
X79280*
X81247Y147032D02*
G75*
G03X86596I2674J-15167D01*
G01*
Y150969*
X81247*
Y147032*
X83065Y197701D02*
Y172701D01*
X75565Y165201*
X73065*
Y200201*
X83065*
Y197701*
X89083Y174091D02*
Y176217D01*
X86957*
Y174091*
X89083Y184091D02*
Y186217D01*
X86957*
Y184091*
X89083Y194091D02*
Y196217D01*
X86957*
Y194091*
X89280Y173894D02*
X89083Y174091D01*
X86957*
X86761Y173894*
X89280*
Y183894D02*
X89083Y184091D01*
X86957*
X86761Y183894*
X89280*
Y193894D02*
X89083Y194091D01*
X86957*
X86761Y193894*
X89280*
X91220Y105807D02*
X80559D01*
Y99870*
X91220*
Y105807*
X93065Y197688D02*
Y172688D01*
X85565Y165188*
X83065*
Y200188*
X93065*
Y197688*
X99083Y174091D02*
Y176217D01*
X96957*
Y174091*
X99083Y184091D02*
Y186217D01*
X96957*
Y184091*
X99083Y194091D02*
Y196217D01*
X96957*
Y194091*
X99280Y173894D02*
X99083Y174091D01*
X96957*
X96761Y173894*
X99280*
Y183894D02*
X99083Y184091D01*
X96957*
X96761Y183894*
X99280*
Y193894D02*
X99083Y194091D01*
X96957*
X96761Y193894*
X99280*
X103065Y197688D02*
Y172688D01*
X95565Y165188*
X93065*
Y200188*
X103065*
Y197688*
X105039Y113632D02*
X94378D01*
Y107695*
X105039*
Y113632*
X105246Y106142D02*
X94585D01*
Y100205*
X105246*
Y106142*
X109083Y174104D02*
Y176230D01*
X106957*
Y174104*
X109083Y184104D02*
Y186230D01*
X106957*
Y184104*
X109083Y194104D02*
Y196230D01*
X106957*
Y194104*
X109280Y173907D02*
X109083Y174104D01*
X106957*
X106761Y173907*
X109280*
Y183907D02*
X109083Y184104D01*
X106957*
X106761Y183907*
X109280*
Y193907D02*
X109083Y194104D01*
X106957*
X106761Y193907*
X109280*
X113065Y197701D02*
Y172701D01*
X105565Y165201*
X103065*
Y200201*
X113065*
Y197701*
X119083Y174091D02*
Y176217D01*
X116957*
Y174091*
X119083Y184091D02*
Y186217D01*
X116957*
Y184091*
X119083Y194091D02*
Y196217D01*
X116957*
Y194091*
X119280Y173894D02*
X119083Y174091D01*
X116957*
X116761Y173894*
X119280*
Y183894D02*
X119083Y184091D01*
X116957*
X116761Y183894*
X119280*
Y193894D02*
X119083Y194091D01*
X116957*
X116761Y193894*
X119280*
X121180Y60365D02*
Y49703D01*
X127117*
Y60365*
X121180*
X123065Y197688D02*
Y172688D01*
X115565Y165188*
X113065*
Y200188*
X123065*
Y197688*
X129083Y174091D02*
Y176217D01*
X126957*
Y174091*
X129083Y184091D02*
Y186217D01*
X126957*
Y184091*
X129083Y194091D02*
Y196217D01*
X126957*
Y194091*
X129250Y124801D02*
X139911D01*
Y130738*
X129250*
Y124801*
X129280Y173894D02*
X129083Y174091D01*
X126957*
X126761Y173894*
X129280*
Y183894D02*
X129083Y184091D01*
X126957*
X126761Y183894*
X129280*
Y193894D02*
X129083Y194091D01*
X126957*
X126761Y193894*
X129280*
X133065Y197688D02*
Y172688D01*
X125565Y165188*
X123065*
Y200188*
X133065*
Y197688*
X139083Y174091D02*
Y176217D01*
X136957*
Y174091*
X139083Y184091D02*
Y186217D01*
X136957*
Y184091*
X139083Y194091D02*
Y196217D01*
X136957*
Y194091*
X139280Y173894D02*
X139083Y174091D01*
X136957*
X136761Y173894*
X139280*
Y183894D02*
X139083Y184091D01*
X136957*
X136761Y183894*
X139280*
Y193894D02*
X139083Y194091D01*
X136957*
X136761Y193894*
X139280*
X143065Y197688D02*
Y172688D01*
X135565Y165188*
X133065*
Y200188*
X143065*
Y197688*
X146368Y93679D02*
Y104341D01*
X140431*
Y93679*
X146368*
X154845Y52897D02*
X156813D01*
Y54866*
X154845*
Y52897*
Y62897D02*
X156813D01*
Y64866*
X154845*
Y62897*
Y72897D02*
X156813D01*
Y74866*
X154845*
Y72897*
Y74866D02*
X171853D01*
X154845Y82898D02*
X156813D01*
Y84866*
X154845*
Y82898*
Y92898D02*
X156813D01*
Y94866*
X154845*
Y92898*
Y94866D02*
X171853D01*
X156813Y52897D02*
X171853D01*
X156813Y54866D02*
X171853D01*
X156813Y62897D02*
X171853D01*
X156813Y64866D02*
X171853D01*
X156813Y72897D02*
X171853D01*
X156813Y82898D02*
X171853D01*
X156813Y84866D02*
X171853D01*
X156813Y92898D02*
X171853D01*
X164845Y52897D02*
X171853D01*
X164845D02*
X166813D01*
Y54866*
X164845*
Y52897*
Y54866D02*
X171853D01*
X164845Y62897D02*
X171853D01*
X164845D02*
X166813D01*
Y64866*
X164845*
Y62897*
Y64866D02*
X171853D01*
X164845Y72897D02*
X171853D01*
X164845D02*
X166813D01*
Y74866*
X164845*
Y72897*
Y74866D02*
X171853D01*
X164845Y82898D02*
X171853D01*
X164845D02*
X166813D01*
Y84866*
X164845*
Y82898*
Y84866D02*
X171853D01*
X164845Y92898D02*
X171853D01*
X164845D02*
X166813D01*
Y94866*
X164845*
Y92898*
Y94866D02*
X171853D01*
Y52897D02*
X166813D01*
X171853Y54866D02*
X166813D01*
X171853Y62897D02*
X166813D01*
X171853Y64866D02*
X166813D01*
X171853Y72897D02*
X166813D01*
X171853Y74866D02*
X166813D01*
X171853Y82898D02*
X166813D01*
X171853Y84866D02*
X166813D01*
X171853Y92898D02*
X166813D01*
X171853Y94866D02*
X166813D01*
X226780Y174104D02*
Y176230D01*
X224654*
Y174104*
X226780Y184104D02*
Y186230D01*
X224654*
Y184104*
X226780Y194104D02*
Y196230D01*
X224654*
Y194104*
X226967Y95541D02*
Y84880D01*
X232904*
Y95541*
X226967*
X226977Y173907D02*
X226780Y174104D01*
X224654*
X224457Y173907*
X226977*
Y183907D02*
X226780Y184104D01*
X224654*
X224457Y183907*
X226977*
Y193907D02*
X226780Y194104D01*
X224654*
X224457Y193907*
X226977*
X230762Y197701D02*
Y172701D01*
X223262Y165201*
X220762*
Y200201*
X230762*
Y197701*
X232055Y58564D02*
Y69226D01*
X226118*
Y58564*
X232055*
X232744Y20241D02*
X243406D01*
Y26178*
X232744*
Y20241*
X236564Y174104D02*
Y176230D01*
X234438*
Y174104*
X236564Y184104D02*
Y186230D01*
X234438*
Y184104*
X236564Y194104D02*
Y196230D01*
X234438*
Y194104*
X236761Y173907D02*
X236564Y174104D01*
X234438*
X234241Y173907*
X236761*
Y183907D02*
X236564Y184104D01*
X234438*
X234241Y183907*
X236761*
Y193907D02*
X236564Y194104D01*
X234438*
X234241Y193907*
X236761*
X238727Y147032D02*
G75*
G03X244076I2674J-15167D01*
G01*
Y150969*
X238727*
Y147032*
X240545Y197701D02*
Y172701D01*
X233045Y165201*
X230545*
Y200201*
X240545*
Y197701*
X246564Y174091D02*
Y176217D01*
X244438*
Y174091*
X246564Y184091D02*
Y186217D01*
X244438*
Y184091*
X246564Y194091D02*
Y196217D01*
X244438*
Y194091*
X246761Y173894D02*
X246564Y174091D01*
X244438*
X244241Y173894*
X246761*
Y183894D02*
X246564Y184091D01*
X244438*
X244241Y183894*
X246761*
Y193894D02*
X246564Y194091D01*
X244438*
X244241Y193894*
X246761*
X248701Y105807D02*
X238039D01*
Y99870*
X248701*
Y105807*
X250545Y197688D02*
Y172688D01*
X243045Y165188*
X240545*
Y200188*
X250545*
Y197688*
X256564Y174091D02*
Y176217D01*
X254438*
Y174091*
X256564Y184091D02*
Y186217D01*
X254438*
Y184091*
X256564Y194091D02*
Y196217D01*
X254438*
Y194091*
X256761Y173894D02*
X256564Y174091D01*
X254438*
X254241Y173894*
X256761*
Y183894D02*
X256564Y184091D01*
X254438*
X254241Y183894*
X256761*
Y193894D02*
X256564Y194091D01*
X254438*
X254241Y193894*
X256761*
X260545Y197688D02*
Y172688D01*
X253045Y165188*
X250545*
Y200188*
X260545*
Y197688*
X262520Y113632D02*
X251858D01*
Y107695*
X262520*
Y113632*
X262726Y106142D02*
X252065D01*
Y100205*
X262726*
Y106142*
X266564Y174104D02*
Y176230D01*
X264438*
Y174104*
X266564Y184104D02*
Y186230D01*
X264438*
Y184104*
X266564Y194104D02*
Y196230D01*
X264438*
Y194104*
X266761Y173907D02*
X266564Y174104D01*
X264438*
X264241Y173907*
X266761*
Y183907D02*
X266564Y184104D01*
X264438*
X264241Y183907*
X266761*
Y193907D02*
X266564Y194104D01*
X264438*
X264241Y193907*
X266761*
X270545Y197701D02*
Y172701D01*
X263045Y165201*
X260545*
Y200201*
X270545*
Y197701*
X276564Y174091D02*
Y176217D01*
X274438*
Y174091*
X276564Y184091D02*
Y186217D01*
X274438*
Y184091*
X276564Y194091D02*
Y196217D01*
X274438*
Y194091*
X276761Y173894D02*
X276564Y174091D01*
X274438*
X274241Y173894*
X276761*
Y183894D02*
X276564Y184091D01*
X274438*
X274241Y183894*
X276761*
Y193894D02*
X276564Y194091D01*
X274438*
X274241Y193894*
X276761*
X278660Y60365D02*
Y49703D01*
X284597*
Y60365*
X278660*
X280545Y197688D02*
Y172688D01*
X273045Y165188*
X270545*
Y200188*
X280545*
Y197688*
X286564Y174091D02*
Y176217D01*
X284438*
Y174091*
X286564Y184091D02*
Y186217D01*
X284438*
Y184091*
X286564Y194091D02*
Y196217D01*
X284438*
Y194091*
X286730Y124801D02*
X297392D01*
Y130738*
X286730*
Y124801*
X286761Y173894D02*
X286564Y174091D01*
X284438*
X284241Y173894*
X286761*
Y183894D02*
X286564Y184091D01*
X284438*
X284241Y183894*
X286761*
Y193894D02*
X286564Y194091D01*
X284438*
X284241Y193894*
X286761*
X290545Y197688D02*
Y172688D01*
X283045Y165188*
X280545*
Y200188*
X290545*
Y197688*
X296564Y174091D02*
Y176217D01*
X294438*
Y174091*
X296564Y184091D02*
Y186217D01*
X294438*
Y184091*
X296564Y194091D02*
Y196217D01*
X294438*
Y194091*
X296761Y173894D02*
X296564Y174091D01*
X294438*
X294241Y173894*
X296761*
Y183894D02*
X296564Y184091D01*
X294438*
X294241Y183894*
X296761*
Y193894D02*
X296564Y194091D01*
X294438*
X294241Y193894*
X296761*
X300545Y197688D02*
Y172688D01*
X293045Y165188*
X290545*
Y200188*
X300545*
Y197688*
X303848Y93679D02*
Y104341D01*
X297911*
Y93679*
X303848*
X312325Y52897D02*
X314294D01*
Y54866*
X312325*
Y52897*
Y62897D02*
X314294D01*
Y64866*
X312325*
Y62897*
Y72897D02*
X314294D01*
Y74866*
X312325*
Y72897*
Y74866D02*
X329333D01*
X312325Y82898D02*
X314294D01*
Y84866*
X312325*
Y82898*
Y92898D02*
X314294D01*
Y94866*
X312325*
Y92898*
Y94866D02*
X329333D01*
X314294Y52897D02*
X329333D01*
X314294Y54866D02*
X329333D01*
X314294Y62897D02*
X329333D01*
X314294Y64866D02*
X329333D01*
X314294Y72897D02*
X329333D01*
X314294Y82898D02*
X329333D01*
X314294Y84866D02*
X329333D01*
X314294Y92898D02*
X329333D01*
X322325Y52897D02*
X329333D01*
X322325D02*
X324294D01*
Y54866*
X322325*
Y52897*
Y54866D02*
X329333D01*
X322325Y62897D02*
X329333D01*
X322325D02*
X324294D01*
Y64866*
X322325*
Y62897*
Y64866D02*
X329333D01*
X322325Y72897D02*
X329333D01*
X322325D02*
X324294D01*
Y74866*
X322325*
Y72897*
Y74866D02*
X329333D01*
X322325Y82898D02*
X329333D01*
X322325D02*
X324294D01*
Y84866*
X322325*
Y82898*
Y84866D02*
X329333D01*
X322325Y92898D02*
X329333D01*
X322325D02*
X324294D01*
Y94866*
X322325*
Y92898*
Y94866D02*
X329333D01*
Y52897D02*
X324294D01*
X329333Y54866D02*
X324294D01*
X329333Y62897D02*
X324294D01*
X329333Y64866D02*
X324294D01*
X329333Y72897D02*
X324294D01*
X329333Y74866D02*
X324294D01*
X329333Y82898D02*
X324294D01*
X329333Y84866D02*
X324294D01*
X329333Y92898D02*
X324294D01*
X329333Y94866D02*
X324294D01*
D02*
D71*
X67435Y76010D02*
Y74518D01*
Y80734D02*
Y79242D01*
Y83951D02*
X72553D01*
Y71352D02*
X67435D01*
X72553Y76010D02*
Y74518D01*
Y80829D02*
Y79337D01*
X74829Y83608D02*
G75*
G02Y83971J181D01*
G01*
X224915Y76010D02*
Y74518D01*
Y80734D02*
Y79242D01*
Y83951D02*
X230033D01*
Y71352D02*
X224915D01*
X230033Y76010D02*
Y74518D01*
Y80829D02*
Y79337D01*
X232309Y83608D02*
G75*
G02Y83971J181D01*
G01*
D02*
D20*
X68518Y26582D02*
X59168D01*
Y20086*
X68518*
X86037Y81039D02*
X110840D01*
Y56236*
X86037*
Y81039*
X120339Y102907D02*
Y93557D01*
X126835*
Y102907*
X121673Y88530D02*
X127578D01*
X123429Y131195D02*
X114079D01*
Y124699*
X123429*
X128055Y102809D02*
Y93459D01*
X134551*
Y102809*
X128956Y88018D02*
X141555D01*
Y68726*
X128956*
Y88018*
X149925Y143567D02*
Y120299D01*
X183390*
Y151244*
X166657*
X225998Y26582D02*
X216648D01*
Y20086*
X225998*
X243517Y81039D02*
X268320D01*
Y56236*
X243517*
Y81039*
X277819Y102907D02*
Y93557D01*
X284315*
Y102907*
X279153Y88530D02*
X285059D01*
X280909Y131195D02*
X271559D01*
Y124699*
X280909*
X285535Y102809D02*
Y93459D01*
X292031*
Y102809*
X286437Y88018D02*
X299035D01*
Y68726*
X286437*
Y88018*
X307406Y143567D02*
Y120299D01*
X340870*
Y151244*
X324138*
D02*
D21*
X120689Y89002D02*
X149822D01*
Y67742*
X120689*
Y89002*
X278169D02*
X307303D01*
Y67742*
X278169*
Y89002*
D02*
D22*
X81214Y84385D02*
G75*
G02X79639I-787D01*
G01*
X81214D02*
G75*
G02X79639I-787D01*
G01*
G75*
G02X81214I787*
G01*
X238694D02*
G75*
G02X237120I-787D01*
G01*
X238694D02*
G75*
G02X237120I-787D01*
G01*
G75*
G02X238694I787*
G01*
D02*
D113*
X35368Y174438D02*
X35681Y173813D01*
X36306Y173500*
X37556*
X38181Y173813*
X38493Y174438*
X38181Y175063*
X37556Y175376*
X36306*
X35681Y175688*
X35368Y176313*
X35681Y176938*
X36306Y177250*
X37556*
X38181Y176938*
X38493Y176313*
X41618Y173500D02*
Y176000D01*
Y176938D02*
X47868Y175063*
X47556Y175688D01*
X46931Y176000*
X46306*
X45681Y175688*
X45368Y175063*
Y174750*
X45681Y174126*
X46306Y173813*
X46931*
X47556Y174126*
X47868Y174750*
Y176000D02*
Y173500D01*
X47556Y172876*
X46931Y172563*
X45993*
X45368Y172876*
X50368Y173500D02*
Y176000D01*
Y175063D02*
X50681Y175688D01*
X51306Y176000*
X51931*
X52556Y175688*
X52868Y175063*
Y173500*
X55368Y175688D02*
X55993Y176000D01*
X56931*
X57556Y175688*
X57868Y175063*
Y174126*
X57556Y173813*
X56931Y173500*
X56306*
X55681Y173813*
X55368Y174126*
Y174438*
X55681Y174750*
X56306Y175063*
X56931*
X57556Y174750*
X57868Y174438*
Y174126D02*
Y173500D01*
X61931D02*
X61618D01*
Y177250*
X50223Y194827D02*
X51161D01*
Y194514*
X50848Y193889*
X50535Y193577*
X49911Y193264*
X49285*
X48661Y193577*
X48348Y193889*
X48035Y194514*
Y195764*
X48348Y196389*
X48661Y196702*
X49285Y197014*
X49911*
X50535Y196702*
X50848Y196389*
X51161Y195764*
X53035Y193264D02*
Y197014D01*
X56161Y193264*
Y197014*
X58035Y193264D02*
Y197014D01*
X59911*
X60535Y196702*
X60848Y196389*
X61161Y195764*
Y194514*
X60848Y193889*
X60535Y193577*
X59911Y193264*
X58035*
X49108Y187014D02*
X50671Y183264D01*
X52233Y187014*
X56608Y184827D02*
X56296Y185452D01*
X55671Y185764*
X55046*
X54421Y185452*
X54108Y184827*
Y184202*
X54421Y183577*
X55046Y183264*
X55671*
X56296Y183577*
X56608Y184202*
Y183264D02*
Y187014D01*
X61608Y184827D02*
X61296Y185452D01*
X60671Y185764*
X60046*
X59421Y185452*
X59108Y184827*
Y184202*
X59421Y183577*
X60046Y183264*
X60671*
X61296Y183577*
X61608Y184202*
Y183264D02*
Y187014D01*
X58016Y29347D02*
Y33097D01*
X60203*
X60828Y32785*
X61141Y32159*
X60828Y31535*
X60203Y31222*
X58016*
X63016Y30597D02*
Y31847D01*
X63328Y32472*
X63641Y32785*
X64266Y33097*
X64891*
X65516Y32785*
X65828Y32472*
X66141Y31847*
Y30597*
X65828Y29972*
X65516Y29659*
X64891Y29347*
X64266*
X63641Y29659*
X63328Y29972*
X63016Y30597*
X68016Y33097D02*
X68328Y29347D01*
X69578Y31222*
X70828Y29347*
X71141Y33097*
X73016Y29347D02*
Y33097D01*
X76141*
X75516Y31222D02*
X73016D01*
Y29347D02*
X76141D01*
X78016D02*
Y33097D01*
X80203*
X80828Y32785*
X81141Y32159*
X80828Y31535*
X80203Y31222*
X78016*
X80203D02*
X81141Y29347D01*
X61180Y133596D02*
X60555Y133284D01*
X60243Y132659*
Y131409*
X60555Y130784*
X61180Y130471*
X61805Y130784*
X62118Y131409*
Y132659*
X62430Y133284*
X63055Y133596*
X63680Y133284*
X63993Y132659*
Y131409*
X63680Y130784*
X63055Y130471*
X60243Y127034D02*
X63993D01*
Y128596D02*
Y125471D01*
X61493Y123596D02*
Y121096D01*
X63993Y118596D02*
X60243D01*
Y115471*
Y112346D02*
X62743D01*
X63680D02*
X60243Y108596*
X62743D01*
X61805D02*
X62430Y108284D01*
X62743Y107659*
Y107034*
X62430Y106409*
X61805Y106096*
X60243*
Y103596D02*
X63993D01*
X61493D02*
Y102659D01*
X62743Y101096*
X61493Y102659D02*
X60243Y101096D01*
X66328Y158609D02*
X67578D01*
X66953D02*
Y162359D01*
X66328Y161734*
X78045Y158510D02*
X75545D01*
X77733Y160698*
X78045Y161323*
X77733Y161948*
X77108Y162260*
X76170*
X75545Y161948*
X85868Y158823D02*
X86493Y158510D01*
X87118*
X87743Y158823*
X88055Y159448*
X87743Y160073*
X87118Y160385*
X86493*
X87118D02*
X87743Y160698D01*
X88055Y161323*
X87743Y161948*
X87118Y162260*
X86493*
X85868Y161948*
X96931Y158510D02*
Y162260D01*
X95368Y159760*
X97868*
X105594Y158744D02*
X106220Y158431D01*
X107157*
X107782Y158744*
X108094Y159369*
Y159681*
X107782Y160307*
X107157Y160619*
X105594*
Y162181*
X108094*
X113685Y133530D02*
X116185Y137280D01*
X113685*
X118685D02*
X120248Y133530D01*
X121810Y137280*
X126185Y133530D02*
X123685D01*
X125872Y135718*
X126185Y136343*
X125872Y136968*
X125248Y137280*
X124310*
X123685Y136968*
X115693Y159448D02*
X116006Y160073D01*
X116630Y160385*
X117256*
X117880Y160073*
X118193Y159448*
X117880Y158823*
X117256Y158510*
X116630*
X116006Y158823*
X115693Y159448*
Y160385*
X116006Y161323*
X116630Y161948*
X117256Y162260*
X120853Y114859D02*
X124603D01*
Y116421D02*
Y113296D01*
X120853Y111421D02*
X124603Y108296D01*
Y111421D02*
X120853Y108296D01*
X125496Y158510D02*
X127996Y162260D01*
X125496*
X129721Y116569D02*
X133471D01*
Y114381*
X133159Y113756*
X132533Y113444*
X131909Y113756*
X131596Y114381*
Y116569*
Y114381D02*
X129721Y113444D01*
Y111569D02*
X133471Y108444D01*
Y111569D02*
X129721Y108444D01*
X136660Y160602D02*
X137285D01*
X137910Y160915*
X138222Y161539*
X137910Y162165*
X137285Y162477*
X136660*
X136035Y162165*
X135722Y161539*
X136035Y160915*
X136660Y160602*
X136035Y160289*
X135722Y159665*
X136035Y159039*
X136660Y158727*
X137285*
X137910Y159039*
X138222Y159665*
X137910Y160289*
X137285Y160602*
X157974Y123222D02*
Y120722D01*
X155786Y122910*
X155161Y123222*
X154536Y122910*
X154224Y122285*
Y121348*
X154536Y120722*
X157036Y125722D02*
X157661Y126035D01*
X157974Y126660*
Y127910*
X157661Y128535*
X157036Y128848*
X156411Y128535*
X156099Y127910*
Y126660*
X155786Y126035*
X155161Y125722*
X154536Y126035*
X154224Y126660*
Y127910*
X154536Y128535*
X155161Y128848*
X154224Y130722D02*
X157974D01*
Y133848*
Y136972D02*
X155474D01*
X154536D02*
X157974Y140722*
X154224D01*
Y142910*
X154536Y143535*
X155161Y143848*
X155786Y143535*
X156099Y142910*
Y140722*
X157036Y145722D02*
X157661Y146035D01*
X157974Y146660*
Y147285*
X157661Y147910*
X157036Y148222*
X156411*
X155786Y147910*
X155474Y147285*
Y146660*
X155786Y146035*
X156411Y145722*
X157036*
X192848Y174438D02*
X193161Y173813D01*
X193786Y173500*
X195036*
X195661Y173813*
X195974Y174438*
X195661Y175063*
X195036Y175376*
X193786*
X193161Y175688*
X192848Y176313*
X193161Y176938*
X193786Y177250*
X195036*
X195661Y176938*
X195974Y176313*
X199098Y173500D02*
Y176000D01*
Y176938D02*
X205348Y175063*
X205036Y175688D01*
X204411Y176000*
X203786*
X203161Y175688*
X202848Y175063*
Y174750*
X203161Y174126*
X203786Y173813*
X204411*
X205036Y174126*
X205348Y174750*
Y176000D02*
Y173500D01*
X205036Y172876*
X204411Y172563*
X203474*
X202848Y172876*
X207848Y173500D02*
Y176000D01*
Y175063D02*
X208161Y175688D01*
X208786Y176000*
X209411*
X210036Y175688*
X210348Y175063*
Y173500*
X212848Y175688D02*
X213474Y176000D01*
X214411*
X215036Y175688*
X215348Y175063*
Y174126*
X215036Y173813*
X214411Y173500*
X213786*
X213161Y173813*
X212848Y174126*
Y174438*
X213161Y174750*
X213786Y175063*
X214411*
X215036Y174750*
X215348Y174438*
Y174126D02*
Y173500D01*
X219411D02*
X219098D01*
Y177250*
X207703Y194827D02*
X208641D01*
Y194514*
X208328Y193889*
X208016Y193577*
X207391Y193264*
X206766*
X206141Y193577*
X205828Y193889*
X205516Y194514*
Y195764*
X205828Y196389*
X206141Y196702*
X206766Y197014*
X207391*
X208016Y196702*
X208328Y196389*
X208641Y195764*
X210516Y193264D02*
Y197014D01*
X213641Y193264*
Y197014*
X215516Y193264D02*
Y197014D01*
X217391*
X218016Y196702*
X218328Y196389*
X218641Y195764*
Y194514*
X218328Y193889*
X218016Y193577*
X217391Y193264*
X215516*
X206589Y187014D02*
X208151Y183264D01*
X209714Y187014*
X214089Y184827D02*
X213776Y185452D01*
X213151Y185764*
X212526*
X211901Y185452*
X211589Y184827*
Y184202*
X211901Y183577*
X212526Y183264*
X213151*
X213776Y183577*
X214089Y184202*
Y183264D02*
Y187014D01*
X219089Y184827D02*
X218776Y185452D01*
X218151Y185764*
X217526*
X216901Y185452*
X216589Y184827*
Y184202*
X216901Y183577*
X217526Y183264*
X218151*
X218776Y183577*
X219089Y184202*
Y183264D02*
Y187014D01*
X215496Y29347D02*
Y33097D01*
X217683*
X218309Y32785*
X218621Y32159*
X218309Y31535*
X217683Y31222*
X215496*
X220496Y30597D02*
Y31847D01*
X220809Y32472*
X221121Y32785*
X221746Y33097*
X222371*
X222996Y32785*
X223309Y32472*
X223621Y31847*
Y30597*
X223309Y29972*
X222996Y29659*
X222371Y29347*
X221746*
X221121Y29659*
X220809Y29972*
X220496Y30597*
X225496Y33097D02*
X225809Y29347D01*
X227059Y31222*
X228309Y29347*
X228621Y33097*
X230496Y29347D02*
Y33097D01*
X233621*
X232996Y31222D02*
X230496D01*
Y29347D02*
X233621D01*
X235496D02*
Y33097D01*
X237683*
X238309Y32785*
X238621Y32159*
X238309Y31535*
X237683Y31222*
X235496*
X237683D02*
X238621Y29347D01*
X218661Y133596D02*
X218035Y133284D01*
X217723Y132659*
Y131409*
X218035Y130784*
X218661Y130471*
X219285Y130784*
X219598Y131409*
Y132659*
X219911Y133284*
X220535Y133596*
X221161Y133284*
X221473Y132659*
Y131409*
X221161Y130784*
X220535Y130471*
X217723Y127034D02*
X221473D01*
Y128596D02*
Y125471D01*
X218973Y123596D02*
Y121096D01*
X221473Y118596D02*
X217723D01*
Y115471*
Y112346D02*
X220223D01*
X221161D02*
X217723Y108596*
X220223D01*
X219285D02*
X219911Y108284D01*
X220223Y107659*
Y107034*
X219911Y106409*
X219285Y106096*
X217723*
Y103596D02*
X221473D01*
X218973D02*
Y102659D01*
X220223Y101096*
X218973Y102659D02*
X217723Y101096D01*
X223808Y158609D02*
X225058D01*
X224433D02*
Y162359D01*
X223808Y161734*
X235526Y158510D02*
X233026D01*
X235213Y160698*
X235526Y161323*
X235213Y161948*
X234588Y162260*
X233651*
X233026Y161948*
X243348Y158823D02*
X243973Y158510D01*
X244598*
X245223Y158823*
X245535Y159448*
X245223Y160073*
X244598Y160385*
X243973*
X244598D02*
X245223Y160698D01*
X245535Y161323*
X245223Y161948*
X244598Y162260*
X243973*
X243348Y161948*
X254411Y158510D02*
Y162260D01*
X252848Y159760*
X255348*
X263075Y158744D02*
X263700Y158431D01*
X264637*
X265262Y158744*
X265575Y159369*
Y159681*
X265262Y160307*
X264637Y160619*
X263075*
Y162181*
X265575*
X271165Y133530D02*
X273665Y137280D01*
X271165*
X276165D02*
X277728Y133530D01*
X279291Y137280*
X283665Y133530D02*
X281165D01*
X283353Y135718*
X283665Y136343*
X283353Y136968*
X282728Y137280*
X281791*
X281165Y136968*
X273173Y159448D02*
X273486Y160073D01*
X274111Y160385*
X274736*
X275361Y160073*
X275673Y159448*
X275361Y158823*
X274736Y158510*
X274111*
X273486Y158823*
X273173Y159448*
Y160385*
X273486Y161323*
X274111Y161948*
X274736Y162260*
X278333Y114859D02*
X282083D01*
Y116421D02*
Y113296D01*
X278333Y111421D02*
X282083Y108296D01*
Y111421D02*
X278333Y108296D01*
X282976Y158510D02*
X285476Y162260D01*
X282976*
X287201Y116569D02*
X290951D01*
Y114381*
X290639Y113756*
X290014Y113444*
X289389Y113756*
X289076Y114381*
Y116569*
Y114381D02*
X287201Y113444D01*
Y111569D02*
X290951Y108444D01*
Y111569D02*
X287201Y108444D01*
X294140Y160602D02*
X294765D01*
X295390Y160915*
X295703Y161539*
X295390Y162165*
X294765Y162477*
X294140*
X293515Y162165*
X293203Y161539*
X293515Y160915*
X294140Y160602*
X293515Y160289*
X293203Y159665*
X293515Y159039*
X294140Y158727*
X294765*
X295390Y159039*
X295703Y159665*
X295390Y160289*
X294765Y160602*
X315454Y123222D02*
Y120722D01*
X313267Y122910*
X312642Y123222*
X312017Y122910*
X311704Y122285*
Y121348*
X312017Y120722*
X314517Y125722D02*
X315142Y126035D01*
X315454Y126660*
Y127910*
X315142Y128535*
X314517Y128848*
X313892Y128535*
X313579Y127910*
Y126660*
X313267Y126035*
X312642Y125722*
X312017Y126035*
X311704Y126660*
Y127910*
X312017Y128535*
X312642Y128848*
X311704Y130722D02*
X315454D01*
Y133848*
Y136972D02*
X312954D01*
X312017D02*
X315454Y140722*
X311704D01*
Y142910*
X312017Y143535*
X312642Y143848*
X313267Y143535*
X313579Y142910*
Y140722*
X314517Y145722D02*
X315142Y146035D01*
X315454Y146660*
Y147285*
X315142Y147910*
X314517Y148222*
X313892*
X313267Y147910*
X312954Y147285*
Y146660*
X313267Y146035*
X313892Y145722*
X314517*
X0Y0D02*
M02*
