G04 EasyPC Gerber Version 21.0.3 Build 4286 *
G04 #@! TF.Part,Single*
G04 #@! TF.FileFunction,Legend,Bot *
G04 #@! TF.FilePolarity,Positive *
%FSLAX45Y45*%
%MOIN*%
%ADD18C,0.00276*%
%ADD17C,0.00394*%
%ADD70C,0.00500*%
%ADD20C,0.00787*%
%ADD71C,0.01000*%
X0Y0D02*
D02*
D17*
X98372Y147070D02*
G75*
G03X98320Y147086I-56J-90D01*
G01*
G75*
G03X98243Y147081I-14J-400*
G01*
G75*
G03X98157Y147059I81J-507*
G01*
G75*
G03X98072Y147022I189J-547*
G01*
G75*
G03X97965Y146930I150J-282*
G01*
G75*
G03X97905Y146797I289J-211*
G01*
G75*
G03X97876Y146574I1145J-259*
G01*
G75*
G03X97870Y146125I15190J-438*
G01*
G75*
G03X97878Y145731I9811J-1*
G01*
G75*
G03X97905Y145471I2016J79*
G01*
G75*
G03X97955Y145293I906J156*
G01*
G75*
G03X98033Y145172I327J127*
G01*
G75*
G03X98213Y145106I161J161*
G01*
G75*
G03X98348Y145208I-12J158*
G01*
G75*
G03X98429Y145575I-1191J453*
G01*
G75*
G03X98458Y146291I-14062J939*
G01*
G75*
G03X98456Y146570I-5456J86*
G01*
G75*
G03X98438Y146816I-3279J-113*
G01*
G75*
G03X98410Y147014I-3420J-383*
G01*
G75*
G03X98372Y147070I-81J-14*
G01*
X98386Y102661D02*
G75*
G03X98339Y102671I-37J-60D01*
G01*
G75*
G03X98263Y102654I59J-426*
G01*
G75*
G03X98175Y102616I188J-561*
G01*
G75*
G03X98086Y102562I378J-723*
G01*
G75*
G03X97972Y102448I276J-394*
G01*
G75*
G03X97907Y102309I327J-235*
G01*
G75*
G03X97877Y102091I1052J-257*
G01*
G75*
G03X97870Y101674I11775J-409*
G01*
G75*
G03X97874Y101380I9706J-4*
G01*
G75*
G03X97888Y101107I7283J220*
G01*
G75*
G03X97907Y100880I7169J481*
G01*
G75*
G03X97931Y100780I386J39*
G01*
G75*
G03X98019Y100661I255J98*
G01*
G75*
G03X98143Y100629I99J128*
G01*
G75*
G03X98271Y100696I-33J220*
G01*
G75*
G03X98367Y100846I-349J330*
G01*
G75*
G03X98438Y101167I-943J378*
G01*
G75*
G03X98461Y101835I-14143J826*
G01*
G75*
G03X98460Y102532I-26763J288*
G01*
G75*
G03X98386Y102661I-155J-2*
G01*
X98531Y152622D02*
G75*
G03X98104Y152615I5J-13927D01*
G01*
G75*
G03X97854Y152590I58J-1861*
G01*
G75*
G03X97704Y152546I102J-617*
G01*
G75*
G03X97634Y152472I54J-122*
G01*
G75*
G03X97653Y152396I63J-24*
G01*
G75*
G03X97752Y152349I135J157*
G01*
G75*
G03X97980Y152326I260J1446*
G01*
G75*
G03X98473Y152322I480J24408*
G01*
G75*
G03X98948Y152327I7J19906*
G01*
G75*
G03X99195Y152351I-43J1750*
G01*
G75*
G03X99325Y152396I-67J403*
G01*
G75*
G03X99327Y152546I-42J76*
G01*
G75*
G03X99205Y152592I-187J-314*
G01*
G75*
G03X98972Y152616I-273J-1530*
G01*
G75*
G03X98531Y152622I-446J-16880*
G01*
X98564Y100496D02*
G75*
G02X98404Y100367I-254J151D01*
G01*
G75*
G02X98129Y100319I-294J871*
G01*
G75*
G02X97863Y100356I-17J849*
G01*
G75*
G02X97731Y100480I61J197*
G01*
G75*
G02X97707Y100587I350J135*
G01*
G75*
G02X97688Y100894I14573J1052*
G01*
G75*
G02X97674Y101261I12571J642*
G01*
G75*
G02X97670Y101667I18617J402*
G01*
G75*
G02X97688Y102417I15503*
G01*
G75*
G02X97772Y102739I806J-39*
G01*
G75*
G02X97954Y102881I242J-121*
G01*
G75*
G02X98288Y102903I235J-1015*
G01*
X98620Y102872*
X98644Y101772*
G75*
G02X98646Y101328I-12929J-279*
G01*
G75*
G02X98631Y100937I-7857J104*
G01*
G75*
G02X98604Y100620I-7697J481*
G01*
G75*
G02X98564Y100496I-302J31*
G01*
X98601Y145046D02*
G75*
G02X98559Y144931I-407J80D01*
G01*
G75*
G02X98491Y144864I-143J77*
G01*
G75*
G02X98375Y144830I-143J276*
G01*
G75*
G02X98165Y144822I-207J2482*
G01*
G75*
G02X97878Y144878I0J765*
G01*
G75*
G02X97731Y145035I96J237*
G01*
G75*
G02X97676Y145377I1037J340*
G01*
G75*
G02X97691Y146272I33278J-80*
G01*
X97720Y147272*
X98620*
X98633Y146272*
G75*
G02X98635Y145872I-22780J-290*
G01*
G75*
G02X98629Y145499I-17328J88*
G01*
G75*
G02X98618Y145186I-17348J454*
G01*
G75*
G02X98601Y145046I-920J41*
G01*
X98623Y109222D02*
G75*
G02X98046Y109256I0J4816D01*
G01*
G75*
G02X97803Y109396I43J358*
G01*
G75*
G02X97693Y109693I431J329*
G01*
G75*
G02X97670Y110472I13444J777*
G01*
G75*
G02X97693Y111250I13460J2*
G01*
G75*
G02X97803Y111547I541J-31*
G01*
G75*
G02X98046Y111687I287J-219*
G01*
G75*
G02X98623Y111722I580J-4781*
G01*
G75*
G03X99011Y111728I2J12596*
G01*
G75*
G03X99220Y111752I-39J1257*
G01*
G75*
G03X99330Y111797I-59J298*
G01*
G75*
G03X99370Y111872I-50J74*
G01*
G75*
G03X99336Y111944I-94J0*
G01*
G75*
G03X99244Y111990I-148J-178*
G01*
G75*
G03X99071Y112015I-209J-846*
G01*
G75*
G03X98763Y112022I-314J-7361*
G01*
G75*
G03X98102Y111945I1J-2911*
G01*
G75*
G03X97721Y111704I155J-665*
G01*
G75*
G03X97524Y111237I744J-588*
G01*
G75*
G03X97470Y110384I6618J-850*
G01*
G75*
G03X97478Y109887I15049J-11*
G01*
G75*
G03X97511Y109624I1416J46*
G01*
G75*
G03X97586Y109432I663J149*
G01*
G75*
G03X97729Y109229I1224J707*
G01*
G75*
G03X97901Y109053I1270J1070*
G01*
G75*
G03X98052Y108967I282J319*
G01*
G75*
G03X98257Y108930I238J733*
G01*
G75*
G03X98679Y108922I413J10287*
G01*
G75*
G03X99035Y108928I7J10349*
G01*
G75*
G03X99230Y108952I-39J1094*
G01*
G75*
G03X99333Y108998I-57J268*
G01*
G75*
G03X99370Y109072I-54J74*
G01*
G75*
G03X99330Y109146I-89J0*
G01*
G75*
G03X99220Y109191I-169J-252*
G01*
G75*
G03X99011Y109215I-248J-1233*
G01*
G75*
G03X98623Y109222I-398J-12590*
G01*
X98685Y108722D02*
G75*
G02X97818Y108762I-1J9276D01*
G01*
G75*
G02X97491Y108943I44J467*
G01*
G75*
G02X97346Y109335I550J425*
G01*
G75*
G02X97320Y110491I25185J1153*
G01*
G75*
G02X97349Y111605I21196J3*
G01*
G75*
G02X97501Y111999I679J-35*
G01*
G75*
G02X97842Y112181I387J-315*
G01*
G75*
G02X98731Y112222I889J-9636*
G01*
X99670*
Y111522*
X98926*
G75*
G03X98343Y111483I0J-4429*
G01*
G75*
G03X98052Y111340I67J-502*
G01*
G75*
G03X97909Y111051I355J-356*
G01*
G75*
G03X97870Y110472I4300J-577*
G01*
G75*
G03X97909Y109892I4342J-2*
G01*
G75*
G03X98052Y109603I498J67*
G01*
G75*
G03X98343Y109460I357J359*
G01*
G75*
G03X98926Y109422I580J4391*
G01*
X99670*
Y108722*
X98685*
X98761Y93972D02*
G75*
G03X98144Y93966I9J-35527D01*
G01*
G75*
G03X97835Y93943I47J-2741*
G01*
G75*
G03X97672Y93899I84J-637*
G01*
G75*
G03X97620Y93822I32J-78*
G01*
G75*
G03X97669Y93744I86*
G01*
G75*
G03X97824Y93695I255J543*
G01*
G75*
G03X98111Y93664I403J2351*
G01*
G75*
G03X98663Y93643I1285J26658*
G01*
G75*
G03X99389Y93631I842J30466*
G01*
G75*
G03X99747Y93659I8J2228*
G01*
G75*
G03X99909Y93730I-56J352*
G01*
G75*
G03X99945Y93846I-65J83*
G01*
G75*
G03X99877Y93907I-87J-29*
G01*
G75*
G03X99651Y93943I-459J-2168*
G01*
G75*
G03X99304Y93965I-448J-4229*
G01*
G75*
G03X98761Y93972I-542J-23333*
G01*
X98904Y91439D02*
G75*
G03X98698Y91580I-400J-362D01*
G01*
G75*
G03X98443Y91619I-217J-564*
G01*
G75*
G03X98198Y91548I38J-589*
G01*
G75*
G03X98018Y91382I242J-442*
G01*
G75*
G03X97946Y91229I503J-330*
G01*
G75*
G03X97903Y91031I1152J-354*
G01*
G75*
G03X97885Y90769I2147J-280*
G01*
G75*
G03X97890Y90407I7472J-67*
G01*
X97920Y89672*
X98366Y89640*
G75*
G03X98730Y89661I101J1414*
G01*
G75*
G03X98937Y89792I-61J326*
G01*
G75*
G03X99043Y90068I-459J335*
G01*
G75*
G03X99070Y90608I-5279J540*
G01*
G75*
G03X99061Y90919I-5332J-7*
G01*
G75*
G03X99031Y91148I-1669J-96*
G01*
G75*
G03X98981Y91317I-919J-183*
G01*
G75*
G03X98904Y91439I-381J-156*
G01*
X98967Y125328D02*
G75*
G03X98895Y125418I-285J-153D01*
G01*
G75*
G03X98796Y125478I-217J-246*
G01*
G75*
G03X98658Y125511I-195J-509*
G01*
G75*
G03X98464Y125522I-197J-1828*
G01*
G75*
G03X98246Y125511I0J-2322*
G01*
G75*
G03X98120Y125474I32J-343*
G01*
G75*
G03X98036Y125399I104J-200*
G01*
G75*
G03X97967Y125265I563J-374*
G01*
G75*
G03X97894Y124952I1132J-430*
G01*
G75*
G03X97873Y124505I4388J-429*
G01*
G75*
G03X97896Y124068I4534J18*
G01*
G75*
G03X97973Y123815I678J69*
G01*
G75*
G03X98148Y123667I273J146*
G01*
G75*
G03X98464Y123613I336J1007*
G01*
G75*
G03X98781Y123656I19J1060*
G01*
G75*
G03X98962Y123796I-87J296*
G01*
G75*
G03X99042Y124052I-525J305*
G01*
G75*
G03X99064Y124556I-6313J524*
G01*
G75*
G03X99045Y125060I-6219J20*
G01*
G75*
G03X98967Y125328I-678J-53*
G01*
Y156428D02*
G75*
G03X98895Y156518I-285J-153D01*
G01*
G75*
G03X98797Y156578I-218J-246*
G01*
G75*
G03X98660Y156611I-195J-502*
G01*
G75*
G03X98470Y156622I-193J-1739*
G01*
G75*
G03X98167Y156575J-1008*
G01*
G75*
G03X97987Y156436I100J-315*
G01*
G75*
G03X97894Y156168I522J-330*
G01*
G75*
G03X97870Y155672I4974J-493*
G01*
G75*
G03X97894Y155190I4794J-2*
G01*
G75*
G03X97982Y154917I682J69*
G01*
G75*
G03X98150Y154772I290J167*
G01*
G75*
G03X98418Y154722I268J681*
G01*
G75*
G03X98712Y154782I0J744*
G01*
G75*
G03X98916Y154952I-185J429*
G01*
G75*
G03X99033Y155251I-631J420*
G01*
G75*
G03X99070Y155700I-2759J451*
G01*
G75*
G03X99062Y155919I-3144J-4*
G01*
G75*
G03X99039Y156135I-3018J-210*
G01*
G75*
G03X99006Y156319I-2585J-368*
G01*
G75*
G03X98967Y156428I-408J-88*
G01*
X99009Y97663D02*
G75*
G03X98916Y97781I-234J-89D01*
G01*
G75*
G03X98835Y97754I-30J-44*
G01*
G75*
G03X98783Y97484I927J-320*
G01*
G75*
G03X98770Y96972I9994J-510*
G01*
G75*
G03X98783Y96475I9096J-4*
G01*
G75*
G03X98835Y96195I1108J61*
G01*
G75*
G03X98914Y96157I57J18*
G01*
G75*
G03X99004Y96246I-59J149*
G01*
G75*
G03X99049Y96457I-589J238*
G01*
G75*
G03X99061Y96953I-13046J548*
G01*
G75*
G03X99053Y97448I-12867J53*
G01*
G75*
G03X99009Y97663I-666J-24*
G01*
Y118363D02*
G75*
G03X98916Y118481I-234J-89D01*
G01*
G75*
G03X98835Y118454I-30J-44*
G01*
G75*
G03X98783Y118184I927J-320*
G01*
G75*
G03X98770Y117672I9994J-510*
G01*
G75*
G03X98779Y117165I13865J-6*
G01*
G75*
G03X98819Y116920I981J36*
G01*
G75*
G03X98897Y116853I91J28*
G01*
G75*
G03X99003Y116888I19J123*
G01*
G75*
G03X99059Y117017I-134J134*
G01*
G75*
G03X99068Y117577I-21537J643*
G01*
G75*
G03X99059Y118119I-13092J52*
G01*
G75*
G03X99009Y118363I-761J-28*
G01*
Y142163D02*
G75*
G03X98916Y142281I-234J-89D01*
G01*
G75*
G03X98835Y142254I-30J-44*
G01*
G75*
G03X98783Y141984I927J-320*
G01*
G75*
G03X98770Y141472I9994J-510*
G01*
G75*
G03X98783Y140975I9096J-4*
G01*
G75*
G03X98835Y140695I1108J61*
G01*
G75*
G03X98914Y140657I57J18*
G01*
G75*
G03X99004Y140746I-59J149*
G01*
G75*
G03X99049Y140957I-589J238*
G01*
G75*
G03X99061Y141453I-13046J548*
G01*
G75*
G03X99053Y141948I-12867J53*
G01*
G75*
G03X99009Y142163I-666J-24*
G01*
X99124Y147493D02*
G75*
G03X98800Y147679I-648J-754D01*
G01*
G75*
G03X98433Y147731I-316J-914*
G01*
G75*
G03X98069Y147641I52J-994*
G01*
G75*
G03X97754Y147420I459J-994*
G01*
X97452Y147119*
X97486Y146031*
G75*
G03X97537Y145248I11751J364*
G01*
G75*
G03X97650Y144822I1344J131*
G01*
G75*
G03X97854Y144603I432J196*
G01*
G75*
G03X98492Y144606I316J574*
G01*
G75*
G03X98694Y144832I-230J410*
G01*
G75*
G03X98805Y145280I-1354J572*
G01*
G75*
G03X98854Y146137I-14973J1283*
G01*
G75*
G02X98878Y146824I47959J-1335*
G01*
G75*
G02X98909Y147124I2360J-99*
G01*
G75*
G02X98964Y147263I367J-63*
G01*
G75*
G02X99054Y147301I73J-47*
G01*
G75*
G02X99133Y147259I-27J-146*
G01*
G75*
G02X99189Y147170I-192J-185*
G01*
G75*
G02X99228Y147023I-604J-235*
G01*
G75*
G02X99250Y146796I-3115J-428*
G01*
G75*
G03X99270Y146614I2147J136*
G01*
G75*
G03X99304Y146461I1158J176*
G01*
G75*
G03X99345Y146350I787J230*
G01*
G75*
G03X99388Y146322I43J20*
G01*
G75*
G03X99431Y146351J46*
G01*
G75*
G03X99454Y146444I-348J136*
G01*
G75*
G03X99459Y146591I-894J102*
G01*
G75*
G03X99443Y146793I-3199J-153*
G01*
G75*
G03X99403Y147028I-2148J-244*
G01*
G75*
G03X99342Y147210I-917J-207*
G01*
G75*
G03X99251Y147359I-682J-311*
G01*
G75*
G03X99124Y147493I-733J-569*
G01*
X99125Y116526D02*
G75*
G02X99056Y116482I-204J246D01*
G01*
G75*
G02X98969Y116450I-220J469*
G01*
G75*
G02X98879Y116435I-131J494*
G01*
G75*
G02X98800Y116440I-22J296*
G01*
G75*
G02X98703Y116509I27J140*
G01*
G75*
G02X98649Y116665I389J221*
G01*
G75*
G02X98625Y116970I2326J340*
G01*
G75*
G02X98620Y117672I48517J678*
G01*
G75*
G02X98625Y118395I53707J11*
G01*
G75*
G02X98650Y118690I2084J-27*
G01*
G75*
G02X98707Y118836I356J-56*
G01*
G75*
G02X98813Y118906I137J-93*
G01*
G75*
G02X99026Y118862I53J-278*
G01*
G75*
G02X99170Y118674I-214J-315*
G01*
G75*
G02X99249Y118289I-1340J-473*
G01*
G75*
G02X99270Y117615I-10870J-680*
G01*
G75*
G02X99263Y117138I-16181J2*
G01*
G75*
G02X99238Y116832I-2981J87*
G01*
G75*
G02X99195Y116632I-1283J173*
G01*
G75*
G02X99125Y116526I-211J63*
G01*
Y140326D02*
G75*
G02X99056Y140282I-204J246D01*
G01*
G75*
G02X98969Y140250I-220J469*
G01*
G75*
G02X98879Y140235I-131J494*
G01*
G75*
G02X98800Y140240I-22J296*
G01*
G75*
G02X98703Y140309I27J140*
G01*
G75*
G02X98649Y140465I389J221*
G01*
G75*
G02X98625Y140770I2326J340*
G01*
G75*
G02X98620Y141472I48517J678*
G01*
G75*
G02X98625Y142195I53707J11*
G01*
G75*
G02X98650Y142490I2084J-27*
G01*
G75*
G02X98707Y142636I356J-56*
G01*
G75*
G02X98813Y142706I137J-93*
G01*
G75*
G02X99026Y142662I53J-278*
G01*
G75*
G02X99170Y142474I-214J-315*
G01*
G75*
G02X99249Y142089I-1340J-473*
G01*
G75*
G02X99270Y141415I-10870J-680*
G01*
G75*
G02X99263Y140938I-16181J2*
G01*
G75*
G02X99238Y140632I-2981J87*
G01*
G75*
G02X99195Y140432I-1283J173*
G01*
G75*
G02X99125Y140326I-211J63*
G01*
X99139Y125880D02*
G75*
G03X98753Y126084I-640J-745D01*
G01*
G75*
G03X98307Y126106I-274J-1022*
G01*
G75*
G03X97902Y125944I164J-998*
G01*
G75*
G03X97625Y125631I481J-705*
G01*
G75*
G03X97511Y125255I948J-491*
G01*
G75*
G03X97471Y124607I7123J-767*
G01*
G75*
G03X97490Y123957I7117J-123*
G01*
G75*
G03X97589Y123569I1139J85*
G01*
G75*
G03X97807Y123280I760J346*
G01*
G75*
G03X98137Y123093I648J760*
G01*
G75*
G03X98522Y123039I336J1000*
G01*
G75*
G03X98896Y123129I-48J1015*
G01*
G75*
G03X99181Y123330I-387J852*
G01*
G75*
G03X99356Y123613I-557J538*
G01*
G75*
G03X99439Y124037I-1448J507*
G01*
G75*
G03X99447Y124705I-8074J429*
G01*
G75*
G03X99423Y125281I-23668J-698*
G01*
G75*
G03X99383Y125539I-1286J-69*
G01*
G75*
G03X99300Y125709I-470J-124*
G01*
G75*
G03X99139Y125880I-885J-669*
G01*
Y156980D02*
G75*
G03X98991Y157088I-710J-826D01*
G01*
G75*
G03X98832Y157163I-463J-769*
G01*
G75*
G03X98661Y157207I-313J-869*
G01*
G75*
G03X98470Y157222I-193J-1230*
G01*
G75*
G03X98279Y157207I2J-1247*
G01*
G75*
G03X98107Y157163I141J-913*
G01*
G75*
G03X97949Y157088I304J-844*
G01*
G75*
G03X97800Y156980I561J-934*
G01*
G75*
G03X97640Y156809I715J-831*
G01*
G75*
G03X97556Y156637I399J-301*
G01*
G75*
G03X97514Y156376I1278J-341*
G01*
G75*
G03X97486Y155799I23639J-1433*
G01*
G75*
G03X97472Y155213I24263J-880*
G01*
G75*
G03X97495Y154946I1371J-15*
G01*
G75*
G03X97567Y154756I572J106*
G01*
G75*
G03X97720Y154540I1389J822*
G01*
G75*
G03X97884Y154368I1446J1218*
G01*
G75*
G03X98025Y154277I332J359*
G01*
G75*
G03X98196Y154234I223J526*
G01*
G75*
G03X98470Y154222I272J3022*
G01*
G75*
G03X98743Y154234I2J3030*
G01*
G75*
G03X98915Y154277I-51J569*
G01*
G75*
G03X99056Y154368I-192J450*
G01*
G75*
G03X99220Y154540I-1281J1390*
G01*
G75*
G03X99373Y154756I-1236J1038*
G01*
G75*
G03X99445Y154946I-501J297*
G01*
G75*
G03X99468Y155213I-1348J252*
G01*
G75*
G03X99454Y155799I-24277J-295*
G01*
G75*
G03X99426Y156376I-23667J-856*
G01*
G75*
G03X99384Y156637I-1320J-80*
G01*
G75*
G03X99300Y156809I-483J-128*
G01*
G75*
G03X99139Y156980I-876J-660*
G01*
X99162Y154696D02*
G75*
G02X99081Y154611I-217J126D01*
G01*
G75*
G02X98957Y154558I-225J353*
G01*
G75*
G02X98769Y154530I-243J957*
G01*
G75*
G02X98469Y154522I-296J5577*
G01*
G75*
G02X98012Y154562I0J2587*
G01*
G75*
G02X97793Y154704I59J329*
G01*
G75*
G02X97692Y155002I498J335*
G01*
G75*
G02X97670Y155707I11195J703*
G01*
G75*
G02X97685Y156442I18315J5*
G01*
G75*
G02X97768Y156685I447J-18*
G01*
G75*
G02X97961Y156796I220J-157*
G01*
G75*
G02X98470Y156822I510J-5064*
G01*
G75*
G02X98814Y156815I-1J-8400*
G01*
G75*
G02X99019Y156789I-50J-1220*
G01*
G75*
G02X99144Y156740I-90J-414*
G01*
G75*
G02X99209Y156663I-76J-131*
G01*
G75*
G02X99267Y156361I-821J-315*
G01*
G75*
G02X99264Y155654I-18252J-273*
G01*
G75*
G02X99235Y154939I-21459J518*
G01*
G75*
G02X99162Y154696I-544J31*
G01*
X99164Y102978D02*
G75*
G03X98861Y103172I-536J-504D01*
G01*
G75*
G03X98448Y103239I-412J-1233*
G01*
G75*
G03X98031Y103171I2J-1327*
G01*
G75*
G03X97715Y102976I254J-765*
G01*
G75*
G03X97578Y102798I636J-636*
G01*
G75*
G03X97507Y102611I500J-296*
G01*
G75*
G03X97476Y102321I1711J-326*
G01*
G75*
G03X97470Y101684I31210J-627*
G01*
G75*
G03X97477Y101045I29203J-13*
G01*
G75*
G03X97508Y100747I1799J39*
G01*
G75*
G03X97583Y100542I680J131*
G01*
G75*
G03X97729Y100329I1165J644*
G01*
G75*
G03X97841Y100211I987J831*
G01*
G75*
G03X97965Y100112I793J858*
G01*
G75*
G03X98082Y100042I539J774*
G01*
G75*
G03X98170Y100022I87J176*
G01*
G75*
G03X98257Y100042I0J195*
G01*
G75*
G03X98375Y100112I-422J844*
G01*
G75*
G03X98498Y100211I-670J958*
G01*
G75*
G03X98611Y100329I-874J949*
G01*
G75*
G03X98758Y100543I-1005J847*
G01*
G75*
G03X98832Y100751I-611J335*
G01*
G75*
G03X98863Y101056I-1850J343*
G01*
G75*
G03X98870Y101723I-32739J681*
G01*
G75*
G02X98877Y102189I15731J7*
G01*
G75*
G02X98899Y102543I5341J-161*
G01*
G75*
G02X98932Y102804I4522J-433*
G01*
G75*
G02X98981Y102878I106J-16*
G01*
G75*
G02X99091Y102882I58J-94*
G01*
G75*
G02X99184Y102787I-100J-192*
G01*
G75*
G02X99248Y102585I-596J-298*
G01*
G75*
G02X99269Y102302I-2022J-291*
G01*
G75*
G03X99278Y102156I1281J6*
G01*
G75*
G03X99303Y102021I980J116*
G01*
G75*
G03X99340Y101914I733J193*
G01*
G75*
G03X99385Y101862I104J45*
G01*
G75*
G03X99483Y101916I34J55*
G01*
G75*
G03X99450Y102270I-1724J19*
G01*
G75*
G03X99330Y102707I-3004J-593*
G01*
G75*
G03X99164Y102978I-732J-262*
G01*
X99170Y118936D02*
G75*
G03X99028Y119063I-1113J-1115D01*
G01*
G75*
G03X98890Y119150I-521J-665*
G01*
G75*
G03X98761Y119198I-267J-524*
G01*
G75*
G03X98646Y119204I-72J-300*
G01*
G75*
G03X98517Y119136I31J-217*
G01*
G75*
G03X98444Y118997I211J-198*
G01*
G75*
G03X98406Y118701I1889J-392*
G01*
G75*
G03X98370Y117872I74994J-3693*
G01*
G75*
G02X98335Y117098I-59069J2286*
G01*
G75*
G02X98297Y116774I-2541J131*
G01*
G75*
G02X98234Y116611I-459J83*
G01*
G75*
G02X98126Y116537I-139J86*
G01*
G75*
G02X97947Y116563I-51J270*
G01*
G75*
G02X97799Y116698I183J350*
G01*
G75*
G02X97702Y116933I584J379*
G01*
G75*
G02X97670Y117241I1456J306*
G01*
G75*
G03X97662Y117390I-1402J-3*
G01*
G75*
G03X97637Y117512I-684J-73*
G01*
G75*
G03X97602Y117596I-374J-109*
G01*
G75*
G03X97511Y117590I-44J-25*
G01*
G75*
G03X97485Y117493I346J-143*
G01*
G75*
G03X97478Y117333I983J-121*
G01*
G75*
G03X97494Y117102I4204J178*
G01*
G75*
G03X97591Y116671I1756J167*
G01*
G75*
G03X97787Y116365I779J282*
G01*
G75*
G03X98085Y116184I526J531*
G01*
G75*
G03X98483Y116122I398J1241*
G01*
G75*
G03X98695Y116137I0J1499*
G01*
G75*
G03X98862Y116183I-95J672*
G01*
G75*
G03X99014Y116270I-269J640*
G01*
G75*
G03X99178Y116414I-986J1292*
G01*
G75*
G03X99348Y116616I-1094J1094*
G01*
G75*
G03X99430Y116798I-426J301*
G01*
G75*
G03X99463Y117062I-1259J292*
G01*
G75*
G03X99470Y117672I-26935J618*
G01*
G75*
G03X99463Y118285I-27207J-8*
G01*
G75*
G03X99430Y118547I-1261J-28*
G01*
G75*
G03X99346Y118729I-503J-119*
G01*
G75*
G03X99170Y118936I-1355J-973*
G01*
Y142736D02*
G75*
G03X99028Y142863I-1113J-1115D01*
G01*
G75*
G03X98890Y142950I-521J-665*
G01*
G75*
G03X98761Y142998I-267J-524*
G01*
G75*
G03X98646Y143004I-72J-300*
G01*
G75*
G03X98517Y142936I31J-217*
G01*
G75*
G03X98444Y142797I211J-198*
G01*
G75*
G03X98406Y142501I1889J-392*
G01*
G75*
G03X98370Y141672I74994J-3693*
G01*
G75*
G02X98335Y140898I-59069J2286*
G01*
G75*
G02X98297Y140574I-2541J131*
G01*
G75*
G02X98234Y140411I-459J83*
G01*
G75*
G02X98126Y140337I-139J86*
G01*
G75*
G02X97947Y140363I-51J270*
G01*
G75*
G02X97799Y140498I183J350*
G01*
G75*
G02X97702Y140733I584J379*
G01*
G75*
G02X97670Y141041I1456J306*
G01*
G75*
G03X97662Y141190I-1402J-3*
G01*
G75*
G03X97637Y141312I-684J-73*
G01*
G75*
G03X97602Y141396I-374J-109*
G01*
G75*
G03X97557Y141422I-44J-26*
G01*
G75*
G03X97451Y141313I0J-106*
G01*
G75*
G03X97491Y140897I2740J49*
G01*
G75*
G03X97605Y140448I2902J498*
G01*
G75*
G03X97773Y140168I731J248*
G01*
G75*
G03X98076Y139967I580J545*
G01*
G75*
G03X98458Y139905I349J942*
G01*
G75*
G03X98849Y139991I-35J1084*
G01*
G75*
G03X99178Y140214I-411J962*
G01*
G75*
G03X99348Y140416I-1094J1094*
G01*
G75*
G03X99430Y140598I-426J301*
G01*
G75*
G03X99463Y140862I-1259J292*
G01*
G75*
G03X99470Y141472I-26935J618*
G01*
G75*
G03X99463Y142085I-27207J-8*
G01*
G75*
G03X99430Y142347I-1261J-28*
G01*
G75*
G03X99346Y142529I-503J-119*
G01*
G75*
G03X99170Y142736I-1355J-973*
G01*
X99182Y95938D02*
G75*
G02X99132Y95889I-128J80D01*
G01*
G75*
G02X99052Y95853I-188J313*
G01*
G75*
G02X98956Y95835I-131J424*
G01*
G75*
G02X98859Y95838I-35J443*
G01*
G75*
G02X98722Y95898I39J274*
G01*
G75*
G02X98651Y96016I130J158*
G01*
G75*
G02X98624Y96267I1324J266*
G01*
G75*
G02X98620Y97020I65246J752*
G01*
G75*
G02X98625Y97712I48394J15*
G01*
G75*
G02X98650Y97996I1938J-29*
G01*
G75*
G02X98708Y98138I337J-55*
G01*
G75*
G02X98813Y98206I137J-97*
G01*
G75*
G02X99024Y98164I54J-278*
G01*
G75*
G02X99168Y97981I-208J-312*
G01*
G75*
G02X99248Y97610I-1241J-460*
G01*
G75*
G02X99269Y96977I-9211J-620*
G01*
G75*
G02X99261Y96620I-10324J27*
G01*
G75*
G02X99243Y96298I-6924J245*
G01*
G75*
G02X99215Y96032I-7573J637*
G01*
G75*
G02X99182Y95938I-224J27*
G01*
X99184Y89541D02*
G75*
G02X99109Y89483I-118J75D01*
G01*
G75*
G02X98958Y89450I-260J805*
G01*
G75*
G02X98733Y89435I-230J1757*
G01*
G75*
G02X98411Y89441I-12J7191*
G01*
X97720Y89472*
X97691Y90446*
G75*
G02X97688Y91274I16259J476*
G01*
G75*
G02X97780Y91612I730J-16*
G01*
G75*
G02X97997Y91773I286J-159*
G01*
G75*
G02X98454Y91822I457J-2135*
G01*
G75*
G02X98683Y91813I-4J-2999*
G01*
G75*
G02X98896Y91786I-174J-2274*
G01*
G75*
G02X99069Y91748I-330J-1913*
G01*
G75*
G02X99150Y91702I-46J-174*
G01*
G75*
G02X99242Y91492I-224J-224*
G01*
G75*
G02X99269Y90648I-28021J-1298*
G01*
G75*
G02X99267Y89815I-23146J-373*
G01*
G75*
G02X99184Y89541I-531J11*
G01*
X99204Y123546D02*
G75*
G02X99037Y123426I-180J72D01*
G01*
G75*
G02X98466Y123412I-432J6259*
G01*
G75*
G02X97896Y123451I141J6246*
G01*
G75*
G02X97731Y123580I23J200*
G01*
G75*
G02X97672Y123883I834J320*
G01*
G75*
G02X97672Y124574I16979J326*
G01*
G75*
G02X97701Y125270I19056J-428*
G01*
G75*
G02X97773Y125528I622J-36*
G01*
G75*
G02X97857Y125626I267J-143*
G01*
G75*
G02X97978Y125685I207J-274*
G01*
G75*
G02X98170Y125714I233J-891*
G01*
G75*
G02X98513Y125722I349J-7743*
G01*
G75*
G02X98831Y125714I-5J-7014*
G01*
G75*
G02X99026Y125688I-50J-1106*
G01*
G75*
G02X99145Y125640I-88J-389*
G01*
G75*
G02X99209Y125563I-80J-131*
G01*
G75*
G02X99256Y125324I-652J-251*
G01*
G75*
G02X99261Y124552I-40691J-656*
G01*
G75*
G02X99252Y123779I-41680J102*
G01*
G75*
G02X99204Y123546I-659J15*
G01*
X99206Y98219D02*
G75*
G03X99068Y98365I-1312J-1103D01*
G01*
G75*
G03X98943Y98455I-406J-432*
G01*
G75*
G03X98819Y98498I-194J-360*
G01*
G75*
G03X98681Y98502I-82J-475*
G01*
X98420Y98472*
X98370Y97172*
G75*
G02X98335Y96398I-59069J2286*
G01*
G75*
G02X98297Y96074I-2541J131*
G01*
G75*
G02X98234Y95911I-459J83*
G01*
G75*
G02X98126Y95837I-139J86*
G01*
G75*
G02X97947Y95863I-51J270*
G01*
G75*
G02X97799Y95998I183J350*
G01*
G75*
G02X97702Y96233I584J379*
G01*
G75*
G02X97670Y96541I1456J306*
G01*
G75*
G03X97663Y96687I-1475J-2*
G01*
G75*
G03X97641Y96809I-789J-78*
G01*
G75*
G03X97609Y96897I-481J-126*
G01*
G75*
G03X97531Y96896I-39J-18*
G01*
G75*
G03X97499Y96801I543J-235*
G01*
G75*
G03X97477Y96669I889J-216*
G01*
G75*
G03X97470Y96511I1702J-156*
G01*
G75*
G03X97551Y96124I964J0*
G01*
G75*
G03X97785Y95765I1198J526*
G01*
G75*
G03X98115Y95510I910J835*
G01*
G75*
G03X98470Y95422I355J668*
G01*
G75*
G03X98637Y95441I0J717*
G01*
G75*
G03X98794Y95500I-163J680*
G01*
G75*
G03X98954Y95604I-431J836*
G01*
G75*
G03X99130Y95761I-1387J1723*
G01*
G75*
G03X99335Y95993I-1815J1815*
G01*
G75*
G03X99426Y96174I-404J316*
G01*
G75*
G03X99463Y96421I-999J274*
G01*
G75*
G03X99470Y97004I-22799J584*
G01*
G75*
G03X99462Y97543I-18514J-1*
G01*
G75*
G03X99429Y97815I-1489J-45*
G01*
G75*
G03X99353Y98010I-661J-143*
G01*
G75*
G03X99206Y98219I-1266J-733*
G01*
X99230Y161511D02*
G75*
G03X99096Y161620I-428J-389D01*
G01*
G75*
G03X98939Y161683I-278J-468*
G01*
G75*
G03X98708Y161713I-282J-1239*
G01*
G75*
G03X98304Y161722I-409J-10135*
G01*
G75*
G03X97923Y161715I9J-12080*
G01*
G75*
G03X97717Y161691I38J-1221*
G01*
G75*
G03X97609Y161645I60J-291*
G01*
G75*
G03X97611Y161497I50J-74*
G01*
G75*
G03X97726Y161451I177J279*
G01*
G75*
G03X97946Y161427I260J1364*
G01*
G75*
G03X98359Y161422I400J14487*
G01*
G75*
G02X98768Y161415I-3J-12678*
G01*
G75*
G02X99002Y161389I-52J-1549*
G01*
G75*
G02X99139Y161342I-89J-482*
G01*
G75*
G02X99209Y161263I-69J-132*
G01*
G75*
G02X99260Y161005I-717J-275*
G01*
G75*
G02X99269Y160222I-36471J-795*
G01*
G75*
G02X99260Y159438I-36498J12*
G01*
G75*
G02X99209Y159180I-768J17*
G01*
G75*
G02X99139Y159101I-139J53*
G01*
G75*
G02X99002Y159054I-226J435*
G01*
G75*
G02X98768Y159028I-285J1523*
G01*
G75*
G02X98359Y159022I-400J12671*
G01*
G75*
G03X97946Y159016I1J-14492*
G01*
G75*
G03X97726Y158992I41J-1388*
G01*
G75*
G03X97611Y158946I62J-325*
G01*
G75*
G03X97570Y158872I47J-74*
G01*
G75*
G03X97608Y158798I91J0*
G01*
G75*
G03X97712Y158752I162J228*
G01*
G75*
G03X97911Y158728I237J1111*
G01*
G75*
G03X98274Y158722I358J10857*
G01*
G75*
G03X98678Y158730I3J9272*
G01*
G75*
G03X98903Y158765I-46J1053*
G01*
G75*
G03X99067Y158839I-139J526*
G01*
G75*
G03X99233Y158976I-622J926*
G01*
G75*
G03X99379Y159159I-736J737*
G01*
G75*
G03X99448Y159339I-420J263*
G01*
G75*
G03X99469Y159613I-1481J255*
G01*
G75*
G03X99454Y160266I-34862J-493*
G01*
G75*
G03X99428Y160818I-20562J-676*
G01*
G75*
G03X99390Y161141I-2742J-163*
G01*
G75*
G03X99328Y161354I-1054J-191*
G01*
G75*
G03X99230Y161511I-493J-200*
G01*
X99370Y114722D02*
G75*
G03X99331Y114701I0J-46D01*
G01*
G75*
G03X99299Y114636I234J-157*
G01*
G75*
G03X99277Y114541I460J-157*
G01*
G75*
G03X99270Y114430I855J-110*
G01*
G75*
G02X99241Y114074I-2202J1*
G01*
G75*
G02X99136Y113911I-240J40*
G01*
G75*
G02X98914Y113837I-246J369*
G01*
G75*
G02X98359Y113822I-554J9989*
G01*
G75*
G03X97946Y113816I1J-14492*
G01*
G75*
G03X97726Y113792I41J-1388*
G01*
G75*
G03X97611Y113746I62J-325*
G01*
G75*
G03X97570Y113672I47J-74*
G01*
G75*
G03X97608Y113598I91J0*
G01*
G75*
G03X97712Y113552I162J228*
G01*
G75*
G03X97911Y113528I237J1111*
G01*
G75*
G03X98274Y113522I358J10857*
G01*
G75*
G03X98674Y113530I2J9148*
G01*
G75*
G03X98900Y113564I-47J1090*
G01*
G75*
G03X99063Y113636I-138J534*
G01*
G75*
G03X99224Y113767I-548J840*
G01*
G75*
G03X99380Y114003I-493J493*
G01*
G75*
G03X99470Y114338I-1430J567*
G01*
G75*
G03X99475Y114628I-1080J164*
G01*
G75*
G03X99370Y114722I-106J-12*
G01*
Y138522D02*
G75*
G03X99331Y138501I0J-46D01*
G01*
G75*
G03X99299Y138436I234J-157*
G01*
G75*
G03X99277Y138341I460J-157*
G01*
G75*
G03X99270Y138230I855J-110*
G01*
G75*
G02X99241Y137874I-2202J1*
G01*
G75*
G02X99136Y137711I-240J40*
G01*
G75*
G02X98914Y137637I-246J369*
G01*
G75*
G02X98359Y137622I-554J9989*
G01*
G75*
G03X97946Y137616I1J-14492*
G01*
G75*
G03X97726Y137592I41J-1388*
G01*
G75*
G03X97611Y137546I62J-325*
G01*
G75*
G03X97570Y137472I47J-74*
G01*
G75*
G03X97608Y137398I91J0*
G01*
G75*
G03X97712Y137352I162J228*
G01*
G75*
G03X97911Y137328I237J1111*
G01*
G75*
G03X98274Y137322I358J10857*
G01*
G75*
G03X98674Y137330I2J9148*
G01*
G75*
G03X98900Y137364I-47J1090*
G01*
G75*
G03X99063Y137436I-138J534*
G01*
G75*
G03X99224Y137567I-548J840*
G01*
G75*
G03X99380Y137803I-493J493*
G01*
G75*
G03X99470Y138138I-1430J567*
G01*
G75*
G03X99475Y138428I-1080J164*
G01*
G75*
G03X99370Y138522I-106J-12*
G01*
X99375Y106022D02*
G75*
G03X99337Y105995J-42D01*
G01*
G75*
G03X99300Y105882I928J-367*
G01*
G75*
G03X99269Y105729I1271J-335*
G01*
G75*
G03X99250Y105547I2425J-339*
G01*
G75*
G02X99226Y105304I-3621J234*
G01*
G75*
G02X99187Y105162I-520J68*
G01*
G75*
G02X99123Y105080I-193J85*
G01*
G75*
G02X99026Y105037I-138J179*
G01*
G75*
G02X98821Y105076I-53J278*
G01*
G75*
G02X98676Y105250I202J315*
G01*
G75*
G02X98593Y105596I1089J443*
G01*
G75*
G02X98570Y106159I6787J562*
G01*
G75*
G03X98562Y106604I-12293J-6*
G01*
G75*
G03X98531Y106857I-1484J-54*
G01*
G75*
G03X98466Y107032I-637J-135*
G01*
G75*
G03X98352Y107190I-666J-360*
G01*
G75*
G03X98159Y107361I-1017J-956*
G01*
G75*
G03X98005Y107407I-143J-195*
G01*
G75*
G03X97856Y107347I12J-243*
G01*
G75*
G03X97677Y107158I944J-1072*
G01*
G75*
G03X97568Y106972I639J-502*
G01*
G75*
G03X97506Y106759I844J-359*
G01*
G75*
G03X97477Y106442I2365J-377*
G01*
G75*
G03X97470Y105858I23454J-577*
G01*
G75*
G03X97476Y105434I13751J-8*
G01*
G75*
G03X97497Y105106I5035J155*
G01*
G75*
G03X97527Y104859I5243J510*
G01*
G75*
G03X97613Y104858I43J6*
G01*
G75*
G03X97643Y105103I-5118J758*
G01*
G75*
G03X97664Y105428I-4919J485*
G01*
G75*
G03X97671Y105846I-13339J435*
G01*
G75*
G02X97678Y106249I13146J-30*
G01*
G75*
G02X97697Y106610I8556J-267*
G01*
G75*
G02X97724Y106909I10048J-750*
G01*
G75*
G02X97758Y107005I222J-24*
G01*
G75*
G02X97807Y107054I128J-80*
G01*
G75*
G02X97888Y107090I188J-313*
G01*
G75*
G02X97983Y107108I131J-424*
G01*
G75*
G02X98081Y107105I35J-443*
G01*
G75*
G02X98217Y107052I-43J-308*
G01*
G75*
G02X98293Y106947I-115J-163*
G01*
G75*
G02X98333Y106732I-934J-287*
G01*
G75*
G02X98370Y106166I-30134J-2234*
G01*
G75*
G03X98403Y105739I9952J546*
G01*
G75*
G03X98450Y105413I3534J349*
G01*
G75*
G03X98514Y105166I2074J401*
G01*
G75*
G03X98597Y104991I685J220*
G01*
G75*
G03X98750Y104800I1105J726*
G01*
G75*
G03X98885Y104736I152J146*
G01*
G75*
G03X99033Y104775I19J231*
G01*
G75*
G03X99239Y104939I-926J1370*
G01*
G75*
G03X99348Y105066I-552J585*
G01*
G75*
G03X99419Y105204I-479J334*
G01*
G75*
G03X99457Y105371I-707J251*
G01*
G75*
G03X99470Y105589I-1928J221*
G01*
G75*
G03X99463Y105755I-2015J-3*
G01*
G75*
G03X99442Y105894I-1061J-87*
G01*
G75*
G03X99412Y105996I-719J-156*
G01*
G75*
G03X99375Y106022I-37J-14*
G01*
X99378Y91550D02*
G75*
G03X99238Y91821I-1256J-479D01*
G01*
G75*
G03X99060Y91995I-506J-339*
G01*
G75*
G03X98819Y92089I-361J-564*
G01*
G75*
G03X98488Y92118I-319J-1755*
G01*
G75*
G03X97976Y92030I11J-1581*
G01*
G75*
G03X97670Y91779I192J-548*
G01*
G75*
G03X97512Y91298I990J-591*
G01*
G75*
G03X97470Y90413I9289J-881*
G01*
G75*
G02X97465Y89839I-30328J5*
G01*
G75*
G02X97435Y89624I-925J18*
G01*
G75*
G02X97361Y89506I-224J58*
G01*
G75*
G02X97212Y89419I-331J391*
G01*
G75*
G03X97116Y89372I209J-549*
G01*
G75*
G03X97042Y89313I193J-320*
G01*
G75*
G03X96999Y89251I166J-161*
G01*
G75*
G03X96996Y89196I67J-31*
G01*
G75*
G03X97059Y89137I85J29*
G01*
G75*
G03X97254Y89101I394J1576*
G01*
G75*
G03X97550Y89078I391J3134*
G01*
G75*
G03X97996Y89072I436J15096*
G01*
G75*
G03X98567Y89079I1J22907*
G01*
G75*
G03X98844Y89109I-39J1629*
G01*
G75*
G03X99032Y89180I-121J606*
G01*
G75*
G03X99212Y89314I-484J840*
G01*
G75*
G03X99356Y89483I-698J740*
G01*
G75*
G03X99431Y89653I-415J283*
G01*
G75*
G03X99463Y89904I-1241J285*
G01*
G75*
G03X99470Y90432I-19326J538*
G01*
G75*
G03X99463Y90785I-9284J-10*
G01*
G75*
G03X99443Y91122I-7699J-290*
G01*
G75*
G03X99414Y91406I-7023J-579*
G01*
G75*
G03X99378Y91550I-613J-74*
G01*
X99386Y123122D02*
G75*
G02X99201Y122960I-1324J1321D01*
G01*
G75*
G02X99041Y122874I-351J459*
G01*
G75*
G02X98846Y122833I-249J709*
G01*
G75*
G02X98532Y122822I-313J4296*
G01*
G75*
G02X98089Y122848I-2J3754*
G01*
G75*
G02X97764Y122931I149J1256*
G01*
G75*
G02X97534Y123076I288J711*
G01*
G75*
G02X97381Y123287I440J481*
G01*
G75*
G02X97337Y123439I481J220*
G01*
G75*
G02X97302Y123768I7883J1007*
G01*
G75*
G02X97278Y124161I8379J717*
G01*
G75*
G02X97270Y124581I10846J413*
G01*
G75*
G02X97311Y125577I11953J3*
G01*
G75*
G02X97485Y126033I874J-73*
G01*
G75*
G02X97849Y126255I465J-351*
G01*
G75*
G02X98584Y126320I744J-4233*
G01*
G75*
G02X98860Y126310I9J-3627*
G01*
G75*
G02X99072Y126278I-99J-1351*
G01*
G75*
G02X99242Y126219I-207J-870*
G01*
G75*
G02X99384Y126131I-285J-617*
G01*
G75*
G02X99517Y125976I-361J-446*
G01*
G75*
G02X99590Y125782I-514J-303*
G01*
G75*
G02X99627Y125454I-2281J-423*
G01*
G75*
G02X99653Y124681I-51897J-2158*
G01*
X99686Y123422*
X99386Y123122*
X99395Y146003D02*
G75*
G03X99235Y145961I67J-574D01*
G01*
G75*
G03X99150Y145879I64J-151*
G01*
G75*
G03X99104Y145714I489J-226*
G01*
G75*
G03X99061Y145280I15465J-1763*
G01*
G75*
G02X98975Y144746I-3668J316*
G01*
G75*
G02X98813Y144437I-686J162*
G01*
G75*
G02X98541Y144274I-400J361*
G01*
G75*
G02X98107Y144222I-433J1761*
G01*
G75*
G02X97855Y144233I-1J2685*
G01*
G75*
G02X97708Y144276I38J407*
G01*
G75*
G02X97595Y144368I159J311*
G01*
G75*
G02X97469Y144546I1285J1039*
G01*
G75*
G02X97364Y144776I901J549*
G01*
G75*
G02X97306Y145045I1409J448*
G01*
G75*
G02X97278Y145445I3919J475*
G01*
G75*
G02X97270Y146179I38465J759*
G01*
G75*
G02X97276Y146989I58617J6*
G01*
G75*
G02X97304Y147328I2488J-35*
G01*
G75*
G02X97370Y147533I637J-96*
G01*
G75*
G02X97501Y147704I578J-306*
G01*
G75*
G02X97655Y147816I528J-561*
G01*
G75*
G02X97824Y147881I313J-563*
G01*
G75*
G02X98061Y147913I295J-1294*
G01*
G75*
G02X98456Y147922I395J-9015*
G01*
G75*
G02X98869Y147913I-2J-9936*
G01*
G75*
G02X99097Y147880I-47J-1120*
G01*
G75*
G02X99262Y147807I-136J-534*
G01*
G75*
G02X99424Y147676I-543J-838*
G01*
G75*
G02X99555Y147515I-710J-710*
G01*
G75*
G02X99627Y147352I-463J-302*
G01*
G75*
G02X99661Y147128I-1046J-273*
G01*
G75*
G02X99670Y146733I-8861J-401*
G01*
G75*
G02X99665Y146280I-19263J8*
G01*
G75*
G02X99634Y146122I-478J11*
G01*
G75*
G02X99557Y146044I-126J48*
G01*
G75*
G02X99395Y146003I-235J592*
G01*
X99406Y101504D02*
G75*
G03X99238Y101464I81J-715D01*
G01*
G75*
G03X99153Y101389I54J-147*
G01*
G75*
G03X99107Y101240I383J-199*
G01*
G75*
G03X99070Y100857I11270J-1293*
G01*
G75*
G02X98989Y100339I-3545J289*
G01*
G75*
G02X98833Y100035I-683J159*
G01*
G75*
G02X98572Y99874I-393J344*
G01*
G75*
G02X98162Y99822I-409J1573*
G01*
G75*
G02X97902Y99833I-2J3025*
G01*
G75*
G02X97735Y99871I53J607*
G01*
G75*
G02X97606Y99949I154J403*
G01*
G75*
G02X97477Y100085I666J761*
G01*
G75*
G02X97365Y100283I602J474*
G01*
G75*
G02X97304Y100521I965J372*
G01*
G75*
G02X97276Y100897I3283J430*
G01*
G75*
G02X97270Y101666I46886J769*
G01*
G75*
G02X97297Y102767I22430J5*
G01*
G75*
G02X97434Y103179I804J-39*
G01*
G75*
G02X97743Y103371I371J-252*
G01*
G75*
G02X98458Y103422I716J-5060*
G01*
G75*
G02X99104Y103382J-5317*
G01*
G75*
G02X99419Y103232I-67J-546*
G01*
G75*
G02X99582Y102922I-389J-404*
G01*
G75*
G02X99654Y102270I-5503J-935*
G01*
X99691Y101537*
X99406Y101504*
X99414Y135683D02*
G75*
G03X99326Y135683I-44J-5D01*
G01*
G75*
G03X99297Y135398I7452J-917*
G01*
G75*
G03X99276Y135022I6516J-543*
G01*
G75*
G03X99270Y134530I18874J-488*
G01*
G75*
G02X99265Y134061I-24813J17*
G01*
G75*
G02X99252Y133641I-16138J304*
G01*
G75*
G02X99233Y133290I-20478J926*
G01*
G75*
G02X99209Y133180I-373J23*
G01*
G75*
G02X99144Y133103I-142J54*
G01*
G75*
G02X99019Y133054I-214J366*
G01*
G75*
G02X98814Y133028I-256J1194*
G01*
G75*
G02X98470Y133022I-335J8393*
G01*
G75*
G02X98126Y133028I-9J8409*
G01*
G75*
G02X97920Y133054I50J1220*
G01*
G75*
G02X97796Y133103I90J414*
G01*
G75*
G02X97731Y133180I76J131*
G01*
G75*
G02X97707Y133290I349J133*
G01*
G75*
G02X97688Y133641I20459J1277*
G01*
G75*
G02X97674Y134061I16124J724*
G01*
G75*
G02X97670Y134530I24808J464*
G01*
G75*
G03X97663Y135022I-18881J-10*
G01*
G75*
G03X97643Y135398I-6536J-167*
G01*
G75*
G03X97613Y135683I-7481J-632*
G01*
G75*
G03X97526Y135683I-44J-6*
G01*
G75*
G03X97497Y135387I8193J-957*
G01*
G75*
G03X97476Y134998I6986J-562*
G01*
G75*
G03X97470Y134485I20506J-508*
G01*
G75*
G03X97476Y133769I39133J-13*
G01*
G75*
G03X97504Y133411I3024J55*
G01*
G75*
G03X97565Y133180I987J137*
G01*
G75*
G03X97677Y132985I724J287*
G01*
G75*
G03X97813Y132843I783J616*
G01*
G75*
G03X97949Y132767I265J309*
G01*
G75*
G03X98137Y132731I228J686*
G01*
G75*
G03X98470Y132722I328J5939*
G01*
G75*
G03X98803Y132731I5J5941*
G01*
G75*
G03X98991Y132767I-41J722*
G01*
G75*
G03X99126Y132843I-129J386*
G01*
G75*
G03X99263Y132985I-647J758*
G01*
G75*
G03X99374Y133180I-613J481*
G01*
G75*
G03X99435Y133411I-926J368*
G01*
G75*
G03X99463Y133769I-2996J414*
G01*
G75*
G03X99470Y134485I-39127J724*
G01*
G75*
G03X99463Y134998I-20512J-11*
G01*
G75*
G03X99443Y135387I-7007J-172*
G01*
G75*
G03X99414Y135683I-8222J-662*
G01*
X99425Y139986D02*
G75*
G02X99265Y139843I-855J791D01*
G01*
G75*
G02X99111Y139766I-294J396*
G01*
G75*
G02X98904Y139731I-252J849*
G01*
G75*
G02X98533Y139722I-368J7455*
G01*
G75*
G02X98273Y139726I-6J7397*
G01*
G75*
G02X98029Y139740I209J5887*
G01*
G75*
G02X97823Y139759I425J5517*
G01*
G75*
G02X97724Y139783I45J402*
G01*
G75*
G02X97536Y139930I148J385*
G01*
G75*
G02X97392Y140208I930J659*
G01*
G75*
G02X97300Y140594I1750J620*
G01*
G75*
G02X97270Y141067I3715J472*
G01*
Y141722*
X97570*
G75*
G02X97743Y141710I-3J-1365*
G01*
G75*
G02X97823Y141668I-16J-126*
G01*
G75*
G02X97861Y141580I-117J-103*
G01*
G75*
G02X97870Y141380I-2211J-200*
G01*
G75*
G03X97884Y141110I2607J-2*
G01*
G75*
G03X97928Y140902I1030J107*
G01*
G75*
G03X97994Y140766I481J154*
G01*
G75*
G03X98081Y140722I86J61*
G01*
G75*
G03X98117Y140754J36*
G01*
G75*
G03X98144Y141089I-17085J1557*
G01*
G75*
G03X98163Y141492I-9052J644*
G01*
G75*
G03X98170Y141972I-17894J490*
G01*
Y143222*
X98656*
G75*
G02X98893Y143209I-1J-2317*
G01*
G75*
G02X99090Y143172I-122J-1195*
G01*
G75*
G02X99258Y143108I-253J-906*
G01*
G75*
G02X99406Y143014I-380J-766*
G01*
G75*
G02X99560Y142851I-467J-594*
G01*
G75*
G02X99636Y142668I-381J-264*
G01*
G75*
G02X99665Y142360I-1867J-330*
G01*
G75*
G02X99670Y141529I-66442J-856*
G01*
G75*
G02X99664Y140732I-54033J2*
G01*
G75*
G02X99635Y140395I-2367J35*
G01*
G75*
G02X99564Y140183I-677J108*
G01*
G75*
G02X99425Y139986I-817J431*
G01*
X99426Y104627D02*
G75*
G02X99284Y104513I-827J879D01*
G01*
G75*
G02X99159Y104455I-232J337*
G01*
G75*
G02X99019Y104440I-115J424*
G01*
G75*
G02X98826Y104464I88J1521*
G01*
G75*
G02X98513Y104598I143J766*
G01*
G75*
G02X98310Y104847I364J502*
G01*
G75*
G02X98201Y105260I1195J536*
G01*
G75*
G02X98170Y105925I7049J663*
G01*
G75*
G03X98164Y106320I-13604J-6*
G01*
G75*
G03X98142Y106550I-1754J-53*
G01*
G75*
G03X98104Y106671I-442J-70*
G01*
G75*
G03X98045Y106697I-44J-21*
G01*
G75*
G03X97985Y106631I29J-87*
G01*
G75*
G03X97943Y106411I2202J-531*
G01*
G75*
G03X97911Y106080I3927J-541*
G01*
G75*
G03X97891Y105588I18154J-987*
G01*
X97863Y104522*
X97270*
Y105849*
G75*
G02X97291Y106887I25626J4*
G01*
G75*
G02X97390Y107334I1294J-52*
G01*
G75*
G02X97609Y107547I359J-150*
G01*
G75*
G02X98010Y107622I402J-1042*
G01*
G75*
G02X98402Y107569I0J-1491*
G01*
G75*
G02X98626Y107409I-104J-383*
G01*
G75*
G02X98740Y107094I-567J-383*
G01*
G75*
G02X98770Y106497I-5922J-600*
G01*
G75*
G03X98774Y106194I10295J-4*
G01*
G75*
G03X98788Y105914I7646J225*
G01*
G75*
G03X98807Y105680I7622J498*
G01*
G75*
G03X98831Y105580I383J38*
G01*
G75*
G03X98915Y105442I412J158*
G01*
G75*
G03X98994Y105444I39J35*
G01*
G75*
G03X99054Y105587I-211J173*
G01*
G75*
G03X99070Y105872I-2564J285*
G01*
G75*
G02X99077Y106153I5796J3*
G01*
G75*
G02X99111Y106259I209J-10*
G01*
G75*
G02X99190Y106308I94J-63*
G01*
G75*
G02X99370Y106322I183J-1237*
G01*
X99670*
Y105589*
G75*
G02X99662Y105168I-10730J0*
G01*
G75*
G02X99629Y104941I-1097J44*
G01*
G75*
G02X99557Y104781I-493J126*
G01*
G75*
G02X99426Y104627I-757J510*
G01*
X99439Y113539D02*
G75*
G02X99272Y113422I-495J528D01*
G01*
G75*
G02X99083Y113358I-312J609*
G01*
G75*
G02X98796Y113328I-335J1850*
G01*
G75*
G02X98239Y113322I-542J21918*
G01*
X97270*
Y114022*
X98067*
G75*
G03X98633Y114044I2J6993*
G01*
G75*
G03X98899Y114139I-44J545*
G01*
G75*
G03X99030Y114336I-182J263*
G01*
G75*
G03X99070Y114715I-1785J379*
G01*
G75*
G02X99080Y114889I1491J2*
G01*
G75*
G02X99119Y114971I140J-17*
G01*
G75*
G02X99200Y115011I98J-96*
G01*
G75*
G02X99370Y115022I171J-1368*
G01*
X99670*
Y114389*
G75*
G02X99661Y114042I-6576J5*
G01*
G75*
G02X99627Y113833I-993J52*
G01*
G75*
G02X99558Y113681I-507J138*
G01*
G75*
G02X99439Y113539I-670J443*
G01*
Y158739D02*
G75*
G02X99272Y158622I-495J528D01*
G01*
G75*
G02X99083Y158558I-312J609*
G01*
G75*
G02X98796Y158528I-335J1850*
G01*
G75*
G02X98239Y158522I-542J21918*
G01*
X97270*
Y159222*
X98067*
G75*
G03X98669Y159249I4J6503*
G01*
G75*
G03X98922Y159369I-39J413*
G01*
G75*
G03X99042Y159622I-291J292*
G01*
G75*
G03X99070Y160222I-6394J603*
G01*
G75*
G03X99042Y160821I-6418J-3*
G01*
G75*
G03X98922Y161074I-410J-39*
G01*
G75*
G03X98669Y161194I-293J-293*
G01*
G75*
G03X98067Y161222I-602J-6476*
G01*
X97270*
Y161928*
X98342Y161900*
G75*
G02X99019Y161876I-1122J-41816*
G01*
G75*
G02X99282Y161841I-61J-1435*
G01*
G75*
G02X99430Y161765I-76J-331*
G01*
G75*
G02X99541Y161622I-315J-358*
G01*
G75*
G02X99596Y161449I-510J-258*
G01*
G75*
G02X99634Y161122I-5300J-791*
G01*
G75*
G02X99660Y160694I-7598J-669*
G01*
G75*
G02X99669Y160164I-17701J-554*
G01*
G75*
G02X99663Y159423I-46911J-46*
G01*
G75*
G02X99635Y159103I-2211J32*
G01*
G75*
G02X99569Y158907I-604J97*
G01*
G75*
G02X99439Y158739I-591J323*
G01*
X99460Y89062D02*
G75*
G02X99293Y88960I-349J386D01*
G01*
G75*
G02X99067Y88904I-356J950*
G01*
G75*
G02X98703Y88878I-423J3270*
G01*
G75*
G02X97985Y88872I-696J41018*
G01*
X96720*
Y89217*
G75*
G02X96730Y89401I1643J1*
G01*
G75*
G02X96767Y89508I257J-29*
G01*
G75*
G02X96841Y89575I152J-95*
G01*
G75*
G02X96970Y89621I269J-545*
G01*
G75*
G03X97115Y89695I-77J331*
G01*
G75*
G03X97193Y89822I-163J188*
G01*
G75*
G03X97233Y90080I-1331J335*
G01*
G75*
G03X97270Y90809I-55081J3188*
G01*
G75*
G02X97342Y91722I13140J-579*
G01*
G75*
G02X97502Y92098I712J-81*
G01*
G75*
G02X97823Y92275I387J-320*
G01*
G75*
G02X98524Y92322I701J-5266*
G01*
G75*
G02X98960Y92314I-3J-12267*
G01*
G75*
G02X99174Y92280I-33J-911*
G01*
G75*
G02X99319Y92205I-107J-384*
G01*
G75*
G02X99463Y92058I-602J-733*
G01*
G75*
G02X99575Y91862I-609J-478*
G01*
G75*
G02X99635Y91628I-942J-369*
G01*
G75*
G02X99663Y91262I-3117J-422*
G01*
G75*
G02X99670Y90524I-42333J-753*
G01*
G75*
G02X99664Y89763I-49954J8*
G01*
G75*
G02X99637Y89422I-2688J42*
G01*
G75*
G02X99576Y89218I-704J101*
G01*
G75*
G02X99460Y89062I-452J214*
G01*
X99463Y137385D02*
G75*
G02X99309Y137233I-668J524D01*
G01*
G75*
G02X99146Y137158I-252J333*
G01*
G75*
G02X98886Y137128I-285J1301*
G01*
G75*
G02X98263Y137122I-611J31644*
G01*
X97270*
Y137822*
X98067*
G75*
G03X98633Y137844I2J6993*
G01*
G75*
G03X98899Y137939I-44J545*
G01*
G75*
G03X99030Y138136I-182J263*
G01*
G75*
G03X99070Y138515I-1785J379*
G01*
G75*
G02X99080Y138689I1491J2*
G01*
G75*
G02X99119Y138771I140J-17*
G01*
G75*
G02X99200Y138811I98J-96*
G01*
G75*
G02X99370Y138822I171J-1368*
G01*
G75*
G02X99554Y138806I0J-1062*
G01*
G75*
G02X99632Y138748I-19J-107*
G01*
G75*
G02X99665Y138621I-263J-135*
G01*
G75*
G02X99670Y138235I-13707J-389*
G01*
G75*
G02X99659Y137938I-4139J5*
G01*
G75*
G02X99625Y137719I-1327J94*
G01*
G75*
G02X99561Y137543I-853J209*
G01*
G75*
G02X99463Y137385I-783J380*
G01*
Y154285D02*
G75*
G02X99317Y154137I-731J576D01*
G01*
G75*
G02X99169Y154061I-253J311*
G01*
G75*
G02X98946Y154029I-252J945*
G01*
G75*
G02X98478Y154022I-459J14850*
G01*
G75*
G02X97787Y154069I-2J5041*
G01*
G75*
G02X97484Y154252I62J444*
G01*
G75*
G02X97341Y154643I628J452*
G01*
G75*
G02X97287Y155678I20174J1578*
G01*
G75*
G02X97271Y156474I57844J1543*
G01*
G75*
G02X97292Y156784I1946J25*
G01*
G75*
G02X97361Y156979I533J-79*
G01*
G75*
G02X97507Y157168I819J-482*
G01*
G75*
G02X97674Y157305I778J-779*
G01*
G75*
G02X97838Y157379I303J-453*
G01*
G75*
G02X98063Y157413I270J-1031*
G01*
G75*
G02X98470Y157422I414J-9447*
G01*
G75*
G02X98873Y157413I-8J-9331*
G01*
G75*
G02X99099Y157379I-47J-1099*
G01*
G75*
G02X99263Y157307I-138J-533*
G01*
G75*
G02X99424Y157176I-547J-840*
G01*
G75*
G02X99564Y156993I-606J-606*
G01*
G75*
G02X99635Y156794I-531J-301*
G01*
G75*
G02X99664Y156479I-2042J-348*
G01*
G75*
G02X99670Y155739I-45769J-759*
G01*
G75*
G02X99663Y155054I-35161J0*
G01*
G75*
G02X99635Y154705I-2873J57*
G01*
G75*
G02X99574Y154478I-967J138*
G01*
G75*
G02X99463Y154285I-730J294*
G01*
X99514Y132744D02*
G75*
G02X99393Y132622I-400J280D01*
G01*
G75*
G02X99241Y132557I-239J344*
G01*
G75*
G02X98994Y132528I-281J1319*
G01*
G75*
G02X98470Y132522I-515J21064*
G01*
G75*
G02X97714Y132569I-1J6015*
G01*
G75*
G02X97416Y132762I51J405*
G01*
G75*
G02X97291Y133183I737J448*
G01*
G75*
G02X97270Y134494I40766J1304*
G01*
Y136022*
X97870*
Y134815*
G75*
G03X97878Y134339I15024J-2*
G01*
G75*
G03X97900Y133906I10292J326*
G01*
G75*
G03X97933Y133547I11123J820*
G01*
G75*
G03X97973Y133415I359J38*
G01*
G75*
G03X98044Y133325I285J153*
G01*
G75*
G03X98143Y133265I218J246*
G01*
G75*
G03X98280Y133232I195J502*
G01*
G75*
G03X98470Y133222I189J1743*
G01*
G75*
G03X98660Y133232I1J1749*
G01*
G75*
G03X98797Y133265I-58J535*
G01*
G75*
G03X98895Y133325I-120J306*
G01*
G75*
G03X98967Y133415I-213J243*
G01*
G75*
G03X99007Y133547I-319J170*
G01*
G75*
G03X99039Y133906I-11091J1179*
G01*
G75*
G03X99062Y134339I-10269J759*
G01*
G75*
G03X99070Y134815I-15017J487*
G01*
Y136022*
X99670*
Y134494*
G75*
G02X99663Y133696I-48752J11*
G01*
G75*
G02X99639Y133228I-6491J108*
G01*
G75*
G02X99593Y132926I-2525J225*
G01*
G75*
G02X99514Y132744I-487J103*
G01*
X99554Y116372D02*
G75*
G02X99501Y116286I-796J433D01*
G01*
G75*
G02X99431Y116193I-1284J900*
G01*
G75*
G02X99356Y116109I-1172J960*
G01*
G75*
G02X99288Y116046I-488J466*
G01*
G75*
G02X99081Y115962I-246J309*
G01*
G75*
G02X98554Y115925I-877J8720*
G01*
G75*
G02X98024Y115923I-298J7293*
G01*
G75*
G02X97724Y115983I30J919*
G01*
G75*
G02X97536Y116130I148J385*
G01*
G75*
G02X97392Y116408I930J659*
G01*
G75*
G02X97300Y116794I1750J620*
G01*
G75*
G02X97270Y117267I3715J472*
G01*
Y117922*
X97570*
G75*
G02X97743Y117910I-3J-1365*
G01*
G75*
G02X97823Y117868I-16J-126*
G01*
G75*
G02X97861Y117780I-117J-103*
G01*
G75*
G02X97870Y117580I-2211J-200*
G01*
G75*
G03X97884Y117310I2607J-2*
G01*
G75*
G03X97928Y117102I1030J107*
G01*
G75*
G03X97994Y116966I481J154*
G01*
G75*
G03X98081Y116922I86J61*
G01*
G75*
G03X98117Y116954J36*
G01*
G75*
G03X98144Y117289I-17085J1557*
G01*
G75*
G03X98163Y117692I-9052J644*
G01*
G75*
G03X98170Y118172I-17894J490*
G01*
Y119422*
X98674*
G75*
G02X98941Y119410I-4J-3109*
G01*
G75*
G02X99127Y119372I-70J-822*
G01*
G75*
G02X99277Y119298I-184J-565*
G01*
G75*
G02X99424Y119176I-579J-848*
G01*
G75*
G02X99564Y118993I-610J-610*
G01*
G75*
G02X99634Y118796I-522J-298*
G01*
G75*
G02X99663Y118484I-2002J-339*
G01*
G75*
G02X99667Y117751I-44894J-632*
G01*
G75*
G02X99658Y117280I-14162J36*
G01*
G75*
G02X99633Y116856I-9344J334*
G01*
G75*
G02X99598Y116508I-9422J773*
G01*
G75*
G02X99554Y116372I-374J45*
G01*
X99571Y95757D02*
G75*
G02X99417Y95518I-706J285D01*
G01*
G75*
G02X99186Y95351I-563J534*
G01*
G75*
G02X98865Y95253I-491J1035*
G01*
G75*
G02X98440Y95222I-422J2852*
G01*
G75*
G02X98106Y95232I-2J5202*
G01*
G75*
G02X97905Y95271I50J796*
G01*
G75*
G02X97744Y95356I178J533*
G01*
G75*
G02X97562Y95514I1034J1375*
G01*
G75*
G02X97398Y95704I1193J1193*
G01*
G75*
G02X97315Y95871I428J317*
G01*
G75*
G02X97279Y96093I895J262*
G01*
G75*
G02X97270Y96514I9806J412*
G01*
Y97222*
X97570*
G75*
G02X97747Y97209I-3J-1326*
G01*
G75*
G02X97826Y97164I-16J-119*
G01*
G75*
G02X97862Y97068I-140J-107*
G01*
G75*
G02X97870Y96834I-3463J-239*
G01*
G75*
G03X97881Y96672I1227J-1*
G01*
G75*
G03X97913Y96521I1005J133*
G01*
G75*
G03X97961Y96397I755J222*
G01*
G75*
G03X98020Y96322I205J100*
G01*
G75*
G03X98096Y96327I35J42*
G01*
G75*
G03X98144Y96433I-146J131*
G01*
G75*
G03X98166Y96731I-2482J327*
G01*
G75*
G03X98170Y97459I-63288J741*
G01*
Y98722*
X98713*
G75*
G02X99017Y98711I-4J-4631*
G01*
G75*
G02X99196Y98675I-44J-674*
G01*
G75*
G02X99329Y98598I-137J-391*
G01*
G75*
G02X99463Y98458I-656J-761*
G01*
G75*
G02X99573Y98269I-632J-497*
G01*
G75*
G02X99633Y98050I-846J-351*
G01*
G75*
G02X99660Y97720I-2543J-372*
G01*
G75*
G02X99663Y97083I-29460J-464*
G01*
G75*
G02X99655Y96642I-15632J86*
G01*
G75*
G02X99634Y96235I-11326J377*
G01*
G75*
G02X99605Y95896I-11616J815*
G01*
G75*
G02X99571Y95757I-504J50*
G01*
X99720Y149822D02*
G75*
G02X99594Y149887I221J584D01*
G01*
G75*
G02X99519Y149967I131J196*
G01*
G75*
G02X99481Y150084I279J156*
G01*
G75*
G02X99470Y150269I1506J183*
G01*
G75*
G03X99452Y150552I-2196J-2*
G01*
G75*
G03X99375Y150613I-69J-9*
G01*
G75*
G03X99293Y150538I9J-94*
G01*
G75*
G03X99251Y150246I2419J-495*
G01*
X99220Y149872*
X98420Y149822*
G75*
G03X98015Y149790I806J-12832*
G01*
G75*
G03X97787Y149751I144J-1530*
G01*
G75*
G03X97662Y149697I106J-418*
G01*
G75*
G03X97661Y149546I47J-76*
G01*
G75*
G03X97783Y149496I206J328*
G01*
G75*
G03X98008Y149463I324J1441*
G01*
G75*
G03X98417Y149442I919J13489*
G01*
G75*
G02X98726Y149424I-255J-7005*
G01*
G75*
G02X98997Y149393I-342J-4174*
G01*
G75*
G02X99217Y149355I-699J-4761*
G01*
G75*
G02X99274Y149315I-17J-85*
G01*
G75*
G03X99379Y149276I78J49*
G01*
G75*
G03X99648Y149376I-611J2042*
G01*
G75*
G03X99906Y149515I-891J1964*
G01*
G75*
G03X99970Y149631I-73J117*
G01*
G75*
G03X99953Y149674I-65J0*
G01*
G75*
G03X99896Y149726I-311J-282*
G01*
G75*
G03X99816Y149778I-357J-469*
G01*
G75*
G03X99720Y149822I-399J-747*
G01*
X99976Y128722D02*
G75*
G03X99937Y128698J-44D01*
G01*
G75*
G03X99900Y128611I513J-270*
G01*
G75*
G03X99870Y128490I817J-272*
G01*
G75*
G03X99851Y128346I1522J-273*
G01*
G75*
G02X99828Y128180I-1633J135*
G01*
G75*
G02X99791Y128064I-453J85*
G01*
G75*
G02X99737Y127996I-185J90*
G01*
G75*
G02X99602I-67J81*
G01*
G75*
G02X99549Y128064I132J158*
G01*
G75*
G02X99511Y128180I415J200*
G01*
G75*
G02X99489Y128346I1611J302*
G01*
G75*
G03X99470Y128490I-1647J-139*
G01*
G75*
G03X99441Y128611I-899J-155*
G01*
G75*
G03X99406Y128699I-606J-191*
G01*
G75*
G03X99334I-36J-18*
G01*
G75*
G03X99299Y128611I570J-278*
G01*
G75*
G03X99269Y128490I870J-276*
G01*
G75*
G03X99251Y128346I1628J-283*
G01*
X99220Y127972*
X98395Y127943*
G75*
G03X97976Y127922I496J-14178*
G01*
G75*
G03X97741Y127889I109J-1640*
G01*
G75*
G03X97613Y127841I94J-444*
G01*
G75*
G03X97570Y127767I41J-73*
G01*
G75*
G03X97618Y127693I81J0*
G01*
G75*
G03X97767Y127650I230J515*
G01*
G75*
G03X98045Y127627I324J2243*
G01*
G75*
G03X98574Y127622I526J25070*
G01*
G75*
G03X99182Y127628I0J27578*
G01*
G75*
G03X99464Y127659I-35J1649*
G01*
G75*
G03X99649Y127730I-111J565*
G01*
G75*
G03X99824Y127867I-469J781*
G01*
G75*
G03X99976Y128088I-513J513*
G01*
G75*
G03X100066Y128385I-1192J524*
G01*
G75*
G03X100072Y128636I-832J148*
G01*
G75*
G03X99976Y128722I-96J-12*
G01*
X100070Y127622D02*
G75*
G02X99907Y127513I-356J356D01*
G01*
G75*
G02X99690Y127454I-330J796*
G01*
G75*
G02X99330Y127428I-409J3065*
G01*
G75*
G02X98570Y127422I-757J48477*
G01*
X97270*
Y128122*
X99059*
X99089Y128596*
X99120Y129072*
X99695Y129102*
X100270Y129131*
Y128476*
G75*
G02X100261Y128134I-6571J2*
G01*
G75*
G02X100230Y127913I-1256J67*
G01*
G75*
G02X100169Y127754I-618J144*
G01*
G75*
G02X100070Y127622I-508J276*
G01*
X100146Y93468D02*
G75*
G02X100046Y93448I-109J282D01*
G01*
G75*
G02X99655Y93439I-913J32430*
G01*
G75*
G02X99190Y93437I-340J21123*
G01*
G75*
G02X98665Y93443I176J34432*
G01*
X97320Y93472*
Y94172*
X100220*
X100251Y93846*
G75*
G02X100256Y93704I-1105J-108*
G01*
G75*
G02X100239Y93592I-476J16*
G01*
G75*
G02X100202Y93512I-262J73*
G01*
G75*
G02X100146Y93468I-98J67*
G01*
X100200Y152098D02*
G75*
G02X100136Y152081I-65J124D01*
G01*
G75*
G02X99723Y152081I-328J63719*
G01*
G75*
G02X99243Y152086I44J26621*
G01*
G75*
G02X98689Y152100I931J47236*
G01*
X97259Y152144*
X97289Y152458*
X97320Y152772*
X100220*
X100250Y152456*
G75*
G02X100256Y152332I-1244J-121*
G01*
G75*
G02X100248Y152220I-821J2*
G01*
G75*
G02X100230Y152134I-607J84*
G01*
G75*
G02X100200Y152098I-57J17*
G01*
X100208Y149293D02*
G75*
G02X100168Y149265I-93J92D01*
G01*
G75*
G02X100103Y149243I-195J451*
G01*
G75*
G02X100027Y149227I-156J563*
G01*
G75*
G02X99950Y149222I-76J556*
G01*
G75*
G03X99874Y149210I1J-261*
G01*
G75*
G03X99802Y149178I90J-298*
G01*
G75*
G03X99742Y149129I152J-246*
G01*
G75*
G03X99706Y149072I128J-121*
G01*
G75*
G02X99594Y148963I-172J66*
G01*
G75*
G02X99370Y148925I-228J662*
G01*
G75*
G02X99148Y148960I-4J696*
G01*
G75*
G02X99035Y149067I57J172*
G01*
G75*
G03X98966Y149139I-118J-46*
G01*
G75*
G03X98807Y149187I-318J-752*
G01*
G75*
G03X98553Y149221I-397J-2012*
G01*
G75*
G03X98150Y149243I-816J-11637*
G01*
X97320Y149272*
Y149972*
X99020Y150072*
X99070Y150522*
G75*
G02X99106Y150779I4296J-473*
G01*
G75*
G02X99153Y150896I300J-52*
G01*
G75*
G02X99232Y150953I115J-77*
G01*
G75*
G02X99370Y150972I139J-509*
G01*
G75*
G02X99508Y150953I-1J-529*
G01*
G75*
G02X99587Y150897I-36J-133*
G01*
G75*
G02X99633Y150780I-252J-169*
G01*
G75*
G02X99670Y150526I-4131J-724*
G01*
G75*
G03X99706Y150284I3136J347*
G01*
G75*
G03X99757Y150151I404J78*
G01*
G75*
G03X99838Y150072I187J111*
G01*
G75*
G03X99970Y150022I246J441*
G01*
G75*
G02X100091Y149978I-121J-520*
G01*
G75*
G02X100172Y149911I-109J-216*
G01*
G75*
G02X100222Y149811I-225J-175*
G01*
G75*
G02X100250Y149664I-849J-235*
G01*
G75*
G02X100256Y149544I-1249J-126*
G01*
G75*
G02X100250Y149431I-980J-2*
G01*
G75*
G02X100234Y149339I-786J87*
G01*
G75*
G02X100208Y149293I-94J22*
G01*
X102996Y83026D02*
G75*
G03X102677Y83150I-976J-2039D01*
G01*
G75*
G03X102356Y83217I-549J-1820*
G01*
G75*
G03X101905Y83250I-559J-4595*
G01*
G75*
G03X101053Y83262I-1161J-49678*
G01*
G75*
G03X100111Y83263I-541J-83949*
G01*
G75*
G03X99746Y83237I16J-2750*
G01*
G75*
G03X99524Y83166I94J-687*
G01*
G75*
G03X99319Y83022I419J-811*
G01*
G75*
G03X99030Y82635I932J-996*
G01*
G75*
G03X98878Y82154I1443J-720*
G01*
G75*
G03X98784Y81265I10127J-1521*
G01*
G75*
G03X98606Y78272I723555J-44613*
G01*
G75*
G03X98592Y77441I10197J-590*
G01*
G75*
G03X98655Y76739I5318J126*
G01*
G75*
G03X98787Y76191I3504J552*
G01*
G75*
G03X98987Y75853I859J281*
G01*
G75*
G03X99243Y75744I250J235*
G01*
G75*
G03X99407Y75887I-3J169*
G01*
G75*
G03X99467Y76585I-4832J766*
G01*
G75*
G03X99494Y79046I-398372J5564*
G01*
X99520Y82472*
X101520Y82529*
G75*
G03X102289Y82552I-7219J247509*
G01*
G75*
G03X102941Y82575I-4107J128899*
G01*
G75*
G03X103524Y82596I-39730J1076944*
G01*
G75*
G03X103551Y82604I-2J59*
G01*
G75*
G03X103563Y82662I-19J34*
G01*
G75*
G03X103466Y82758I-407J-311*
G01*
G75*
G03X103275Y82882I-939J-1237*
G01*
G75*
G03X102996Y83026I-2613J-4746*
G01*
X105274Y65222D02*
G75*
G03X105170Y66494I-31378J-1913D01*
G01*
G75*
G03X105026Y67532I-14298J-1456*
G01*
G75*
G03X104826Y68443I-10890J-1918*
G01*
G75*
G03X104551Y69322I-10150J-2692*
G01*
G75*
G03X104306Y69934I-9128J-3294*
G01*
G75*
G03X104019Y70533I-9107J-4011*
G01*
G75*
G03X103868Y70748I-913J-477*
G01*
G75*
G03X103820Y70722I-21J-19*
G01*
G75*
G02X103850Y70606I-4252J-1161*
G01*
G75*
G02X103884Y70464I-9485J-2335*
G01*
G75*
G02X103916Y70319I-9678J-2212*
G01*
G75*
G02X103941Y70195I-5178J-1117*
G01*
G75*
G03X103967Y70085I1110J209*
G01*
G75*
G03X104004Y69984I896J264*
G01*
G75*
G03X104044Y69903I700J296*
G01*
G75*
G03X104081Y69864I96J55*
G01*
G75*
G02X104116Y69822I-43J-70*
G01*
G75*
G02X104144Y69726I-730J-265*
G01*
G75*
G02X104163Y69605I-963J-219*
G01*
G75*
G02X104170Y69472I-1371J-136*
G01*
G75*
G03X104177Y69337I1228J-2*
G01*
G75*
G03X104199Y69215I917J101*
G01*
G75*
G03X104231Y69117I691J172*
G01*
G75*
G03X104270Y69072I89J37*
G01*
G75*
G02X104309Y69011I-45J-72*
G01*
G75*
G02X104341Y68767I-5725J-852*
G01*
G75*
G02X104363Y68466I-4776J-501*
G01*
G75*
G02X104370Y68122I-8188J-350*
G01*
G75*
G03X104377Y67777I8205J-4*
G01*
G75*
G03X104399Y67476I4798J200*
G01*
G75*
G03X104430Y67231I5756J608*
G01*
G75*
G03X104470Y67172I84J13*
G01*
G75*
G02X104509Y67111I-45J-72*
G01*
G75*
G02X104541Y66867I-5725J-852*
G01*
G75*
G02X104563Y66566I-4776J-501*
G01*
G75*
G02X104570Y66222I-8188J-350*
G01*
G75*
G03X104577Y65877I8205J-4*
G01*
G75*
G03X104599Y65576I4798J200*
G01*
G75*
G03X104630Y65331I5756J608*
G01*
G75*
G03X104670Y65272I84J13*
G01*
G75*
G02X104709Y65226I-51J-82*
G01*
G75*
G02X104741Y65128I-659J-269*
G01*
G75*
G02X104763Y65006I-894J-224*
G01*
G75*
G02X104770Y64872I-1218J-135*
G01*
G75*
G03X104777Y64737I1228J-2*
G01*
G75*
G03X104799Y64615I917J101*
G01*
G75*
G03X104831Y64517I691J172*
G01*
G75*
G03X104870Y64472I89J37*
G01*
G75*
G02X104908Y64431I-58J-93*
G01*
G75*
G02X104941Y64358I-381J-211*
G01*
G75*
G02X104963Y64267I-528J-176*
G01*
G75*
G02X104970Y64172I-616J-96*
G01*
G75*
G03X104977Y64076I626J-2*
G01*
G75*
G03X104999Y63985I550J86*
G01*
G75*
G03X105031Y63912I413J138*
G01*
G75*
G03X105070Y63872I96J54*
G01*
G75*
G02X105108Y63831I-59J-94*
G01*
G75*
G02X105141Y63760I-367J-208*
G01*
G75*
G02X105163Y63671I-509J-174*
G01*
G75*
G02X105170Y63578I-585J-94*
G01*
G75*
G03X105182Y63479I406*
G01*
G75*
G03X105219Y63374I613J152*
G01*
G75*
G03X105272Y63278I559J253*
G01*
G75*
G03X105336Y63209I280J191*
G01*
G75*
G03X105433Y63135I945J1143*
G01*
G75*
G03X105465Y63142I13J19*
G01*
G75*
G03X105473Y63189I-57J35*
G01*
G75*
G03X105435Y63372I-6579J-1269*
G01*
G75*
G02X105405Y63564I1578J351*
G01*
G75*
G02X105361Y64039I41574J4100*
G01*
G75*
G02X105315Y64606I38952J3394*
G01*
G75*
G02X105274Y65222I53841J3924*
G01*
X111445Y58345D02*
G75*
G02X110882Y58381I604J13926D01*
G01*
G75*
G02X110417Y58437I561J6617*
G01*
G75*
G02X110009Y58517I783J5056*
G01*
G75*
G02X109620Y58629I1071J4457*
G01*
G75*
G02X108896Y58940I1528J4546*
G01*
G75*
G02X108149Y59397I3434J6462*
G01*
G75*
G02X107457Y59943I4223J6068*
G01*
G75*
G02X106900Y60522I3402J3820*
G01*
G75*
G03X106663Y60813I-296990J-243152*
G01*
G75*
G03X106386Y61150I-537130J-440327*
G01*
G75*
G03X106115Y61480I-525222J-431559*
G01*
G75*
G03X105894Y61747I-225352J-185301*
G01*
G75*
G02X105710Y61977I9402J7753*
G01*
G75*
G02X105548Y62190I6578J5168*
G01*
G75*
G02X105418Y62372I7558J5536*
G01*
G75*
G02X105381Y62447I227J159*
G01*
G75*
G03X105354Y62512I-383J-121*
G01*
G75*
G03X105298Y62613I-2370J-1234*
G01*
G75*
G03X105230Y62726I-2610J-1514*
G01*
G75*
G03X105156Y62837I-2609J-1659*
G01*
G75*
G02X105085Y62954I889J621*
G01*
G75*
G02X105024Y63084I1183J624*
G01*
G75*
G02X104983Y63209I1100J437*
G01*
G75*
G02X104970Y63306I356J96*
G01*
G75*
G03X104963Y63389I-464J0*
G01*
G75*
G03X104941Y63468I-449J-81*
G01*
G75*
G03X104908Y63533I-344J-130*
G01*
G75*
G03X104870Y63572I-102J-62*
G01*
G75*
G02X104831Y63612I57J94*
G01*
G75*
G02X104799Y63685I381J211*
G01*
G75*
G02X104777Y63776I528J176*
G01*
G75*
G02X104770Y63872I619J94*
G01*
G75*
G03X104763Y63967I-624J-1*
G01*
G75*
G03X104741Y64058I-550J-86*
G01*
G75*
G03X104708Y64131I-413J-138*
G01*
G75*
G03X104670Y64172I-96J-53*
G01*
G75*
G02X104631Y64217I50J83*
G01*
G75*
G02X104599Y64315I659J269*
G01*
G75*
G02X104577Y64437I894J224*
G01*
G75*
G02X104570Y64572I1221J132*
G01*
G75*
G03X104563Y64706I-1225J-1*
G01*
G75*
G03X104541Y64828I-917J-101*
G01*
G75*
G03X104509Y64926I-691J-172*
G01*
G75*
G03X104470Y64972I-90J-37*
G01*
G75*
G02X104430Y65031I44J73*
G01*
G75*
G02X104399Y65276I5725J852*
G01*
G75*
G02X104377Y65577I4776J501*
G01*
G75*
G02X104370Y65922I8198J341*
G01*
G75*
G03X104363Y66266I-8196J-6*
G01*
G75*
G03X104341Y66567I-4798J-200*
G01*
G75*
G03X104309Y66811I-5756J-608*
G01*
G75*
G03X104270Y66872I-85J-12*
G01*
G75*
G02X104230Y66931I44J73*
G01*
G75*
G02X104199Y67176I5725J852*
G01*
G75*
G02X104177Y67477I4776J501*
G01*
G75*
G02X104170Y67822I8198J341*
G01*
G75*
G03X104163Y68166I-8196J-6*
G01*
G75*
G03X104141Y68467I-4798J-200*
G01*
G75*
G03X104109Y68711I-5756J-608*
G01*
G75*
G03X104070Y68772I-85J-12*
G01*
G75*
G02X104031Y68817I50J83*
G01*
G75*
G02X103999Y68915I659J269*
G01*
G75*
G02X103977Y69037I894J224*
G01*
G75*
G02X103970Y69172I1221J132*
G01*
G75*
G03X103963Y69306I-1225J-1*
G01*
G75*
G03X103941Y69428I-917J-101*
G01*
G75*
G03X103909Y69526I-691J-172*
G01*
G75*
G03X103870Y69572I-90J-37*
G01*
G75*
G02X103831Y69611I58J95*
G01*
G75*
G02X103799Y69683I367J208*
G01*
G75*
G02X103777Y69772I511J174*
G01*
G75*
G02X103770Y69865I583J91*
G01*
G75*
G03X103737Y70105I-884J-1*
G01*
G75*
G03X103625Y70442I-3745J-1054*
G01*
G75*
G03X103428Y70910I-7565J-2900*
G01*
G75*
G03X103104Y71600I-35467J-16230*
G01*
G75*
G03X102533Y72511I-4325J-2080*
G01*
G75*
G03X101784Y73248I-3435J-2739*
G01*
G75*
G03X100920Y73757I-2438J-3153*
G01*
G75*
G03X100008Y73994I-1232J-2868*
G01*
X99470Y74050*
Y74566*
G75*
G03X99457Y74887I-4126J-2*
G01*
G75*
G03X99409Y75054I-426J-33*
G01*
G75*
G03X99296Y75191I-396J-210*
G01*
G75*
G03X99031Y75393I-2988J-3663*
G01*
G75*
G02X98771Y75595I1922J2731*
G01*
G75*
G02X98638Y75759I400J461*
G01*
G75*
G02X98554Y75975I718J403*
G01*
G75*
G02X98467Y76399I8236J1912*
G01*
G75*
G02X98400Y77002I4541J812*
G01*
G75*
G02X98390Y77774I11968J539*
G01*
G75*
G02X98433Y78953I33686J-648*
G01*
G75*
G02X98558Y81122I334956J-18190*
G01*
G75*
G02X98632Y82128I38850J-2365*
G01*
G75*
G02X98718Y82659I3658J-319*
G01*
G75*
G02X98852Y83000I1274J-303*
G01*
G75*
G02X99069Y83272I940J-529*
G01*
G75*
G02X99259Y83383I364J-404*
G01*
G75*
G02X99522Y83440I383J-1130*
G01*
G75*
G02X99974Y83464I484J-4848*
G01*
G75*
G02X101006Y83466I744J-99493*
G01*
G75*
G02X102113Y83456I-314J-93904*
G01*
G75*
G02X102582Y83422I-61J-4101*
G01*
G75*
G02X102930Y83338I-218J-1670*
G01*
G75*
G02X103370Y83158I-1713J-4809*
G01*
G75*
G02X103629Y83030I-2569J-5520*
G01*
G75*
G02X103869Y82895I-2346J-4474*
G01*
G75*
G02X104066Y82771I-2335J-3912*
G01*
G75*
G02X104157Y82688I-234J-349*
G01*
G75*
G03X104216Y82624I576J474*
G01*
G75*
G03X104280Y82570I444J463*
G01*
G75*
G03X104340Y82532I305J412*
G01*
G75*
G03X104383Y82522I43J80*
G01*
G75*
G02X104567Y82457J-292*
G01*
G75*
G02X105109Y82007I-15613J-19390*
G01*
G75*
G02X105639Y81531I-8738J-10253*
G01*
G75*
G02X106006Y81138I-3057J-3222*
G01*
G75*
G02X106636Y80198I-4360J-3604*
G01*
G75*
G02X107058Y79163I-4764J-2546*
G01*
G75*
G02X107321Y77869I-7724J-2246*
G01*
G75*
G02X107469Y76110I-24931J-2972*
G01*
G75*
G03X107570Y74776I24689J1201*
G01*
G75*
G03X107746Y73375I30418J3128*
G01*
G75*
G03X107959Y72137I29444J4411*
G01*
G75*
G03X108164Y71472I3183J617*
G01*
G75*
G02X108205Y71371I-3481J-1487*
G01*
G75*
G02X108261Y71228I-13543J-5404*
G01*
G75*
G02X108321Y71070I-15008J-5756*
G01*
G75*
G02X108375Y70922I-11784J-4366*
G01*
G75*
G03X108715Y70161I5090J1824*
G01*
G75*
G03X109172Y69453I4978J2706*
G01*
G75*
G03X109679Y68882I3841J2901*
G01*
G75*
G03X110170Y68546I1259J1313*
G01*
G75*
G02X110332Y68454I-500J-1068*
G01*
G75*
G02X110535Y68307I-2081J-3080*
G01*
G75*
G02X110741Y68134I-2506J-3207*
G01*
G75*
G02X110920Y67961I-1991J-2239*
G01*
G75*
G03X111158Y67734I2450J2327*
G01*
G75*
G03X111361Y67594I715J824*
G01*
G75*
G03X111597Y67500I557J1048*
G01*
G75*
G03X111945Y67418I1203J4311*
G01*
X112570Y67295*
Y58296*
X111445Y58345*
X114193Y82289D02*
G75*
G03X113594Y82487I-1187J-2580D01*
G01*
G75*
G03X112739Y82629I-2017J-9544*
G01*
G75*
G03X111772Y82704I-1367J-11379*
G01*
G75*
G03X110806Y82696I-396J-11248*
G01*
G75*
G03X110068Y82636I630J-12272*
G01*
G75*
G03X109648Y82530I179J-1600*
G01*
G75*
G03X109341Y82335I367J-917*
G01*
G75*
G03X109026Y81983I1827J-1951*
G01*
G75*
G03X108905Y81715I546J-407*
G01*
G75*
G03X108848Y81290I2830J-594*
G01*
G75*
G03X108824Y80510I14488J-837*
G01*
G75*
G03X108820Y78433I491785J-2064*
G01*
G75*
G03X108825Y76422I409888J-42*
G01*
G75*
G03X108850Y75583I17069J84*
G01*
G75*
G03X108906Y75096I4033J219*
G01*
G75*
G03X109020Y74741I1356J241*
G01*
G75*
G03X109245Y74504I479J229*
G01*
G75*
G03X109403Y74584I51J94*
G01*
G75*
G03X109466Y75409I-6468J912*
G01*
G75*
G03X109494Y78096I-414956J5600*
G01*
X109520Y81872*
X112095Y81898*
G75*
G03X113082Y81914I-983J92599*
G01*
G75*
G03X113913Y81939I-978J46674*
G01*
G75*
G03X114640Y81968I-8932J228811*
G01*
G75*
G03X114668Y81998I-1J30*
G01*
G75*
G03X114647Y82036I-48J-1*
G01*
G75*
G03X114528Y82114I-1570J-2284*
G01*
G75*
G03X114374Y82200I-1292J-2111*
G01*
G75*
G03X114193Y82289I-1965J-3787*
G01*
X114615Y68476D02*
G75*
G03X114476Y68930I-5253J-1367D01*
G01*
G75*
G03X114260Y69499I-13590J-4825*
G01*
G75*
G03X114024Y70073I-42635J-17222*
G01*
G75*
G03X113950Y70122I-73J-31*
G01*
G75*
G03X113889Y70060J-62*
G01*
G75*
G03X113949Y65531I12355036J159934*
G01*
G75*
G03X114010Y61028I8601165J115047*
G01*
G75*
G03X114074Y60878I217J3*
G01*
G75*
G02X114111Y60820I-116J-117*
G01*
G75*
G02X114142Y60722I-750J-288*
G01*
G75*
G02X114163Y60604I-951J-233*
G01*
G75*
G02X114170Y60483I-1036J-121*
G01*
G75*
G03X114216Y60257I578J-1*
G01*
G75*
G03X114357Y59998I1396J594*
G01*
G75*
G03X114535Y59784I1190J808*
G01*
G75*
G03X114687Y59722I152J154*
G01*
G75*
G03X114721Y59754J33*
G01*
G75*
G03X114746Y60920I-725747J15784*
G01*
G75*
G03X114764Y62236I-104177J2091*
G01*
G75*
G03X114770Y63800I-206495J1614*
G01*
G75*
G03X114764Y65989I-399426J-55*
G01*
G75*
G03X114740Y67213I-44353J-244*
G01*
G75*
G03X114696Y67993I-16843J-553*
G01*
G75*
G03X114615Y68476I-2799J-222*
G01*
X115217Y156626D02*
G75*
G03X115120Y156782I-1008J-520D01*
G01*
G75*
G03X115022Y156867I-245J-183*
G01*
G75*
G03X114891Y156909I-172J-314*
G01*
G75*
G03X114681Y156922I-213J-1793*
G01*
G75*
G03X113614Y156594I0J-1904*
G01*
G75*
G03X112366Y155545I4420J-6526*
G01*
G75*
G03X111108Y153989I8143J-7868*
G01*
G75*
G03X109995Y152072I14127J-9485*
G01*
G75*
G03X109611Y151258I19790J-9827*
G01*
G75*
G03X109354Y150609I7433J-3321*
G01*
G75*
G03X109208Y150102I4645J-1615*
G01*
G75*
G03X109188Y149750I1011J-234*
G01*
G75*
G03X109221Y149597I796J93*
G01*
G75*
G03X109281Y149513I159J51*
G01*
G75*
G03X109390Y149467I152J206*
G01*
G75*
G03X109608Y149440I422J2501*
G01*
G75*
G03X109765Y149435I118J1443*
G01*
G75*
G03X109914Y149448I-30J1210*
G01*
G75*
G03X110037Y149476I-148J958*
G01*
G75*
G03X110103Y149515I-42J148*
G01*
G75*
G02X110177Y149556I111J-111*
G01*
G75*
G02X110347Y149590I499J-2062*
G01*
G75*
G02X110556Y149614I376J-2392*
G01*
G75*
G02X110784Y149622I228J-3308*
G01*
G75*
G03X111008Y149629I3J3461*
G01*
G75*
G03X111207Y149651I-142J2197*
G01*
G75*
G03X111366Y149682I-311J1976*
G01*
G75*
G03X111420Y149722I-21J86*
G01*
G75*
G02X111465Y149760I82J-50*
G01*
G75*
G02X111563Y149792I269J-659*
G01*
G75*
G02X111686Y149814I224J-894*
G01*
G75*
G02X111820Y149822I135J-1221*
G01*
G75*
G03X111954Y149829I2J1225*
G01*
G75*
G03X112077Y149851I-101J917*
G01*
G75*
G03X112174Y149883I-172J691*
G01*
G75*
G03X112220Y149922I-37J90*
G01*
G75*
G02X112265Y149960I82J-50*
G01*
G75*
G02X112363Y149992I269J-659*
G01*
G75*
G02X112486Y150014I224J-894*
G01*
G75*
G02X112620Y150022I135J-1221*
G01*
G75*
G03X112754Y150029I2J1225*
G01*
G75*
G03X112877Y150051I-101J917*
G01*
G75*
G03X112974Y150083I-172J691*
G01*
G75*
G03X113020Y150122I-37J90*
G01*
G75*
G02X113055Y150160I117J-72*
G01*
G75*
G02X113110Y150192I180J-244*
G01*
G75*
G02X113175Y150214I143J-314*
G01*
G75*
G02X113241Y150222I66J-284*
G01*
G75*
G03X113327Y150242I0J194*
G01*
G75*
G03X113478Y150324I-988J1989*
G01*
G75*
G03X113651Y150437I-1305J2185*
G01*
G75*
G03X113826Y150571I-1909J2674*
G01*
G75*
G03X114198Y150972I-1281J1564*
G01*
G75*
G03X114581Y151592I-5053J3554*
G01*
G75*
G03X114882Y152235I-5434J2931*
G01*
G75*
G03X114970Y152691I-1144J458*
G01*
G75*
G02X114977Y152818I1090J2*
G01*
G75*
G02X114999Y152934I836J-98*
G01*
G75*
G02X115031Y153027I624J-163*
G01*
G75*
G02X115070Y153072I91J-40*
G01*
G75*
G03X115109Y153119I-52J82*
G01*
G75*
G03X115143Y153224I-796J318*
G01*
G75*
G03X115169Y153357I-1057J269*
G01*
G75*
G03X115180Y153502I-1470J189*
G01*
G75*
G02X115189Y153662I2386J-61*
G01*
G75*
G02X115210Y153837I3474J-326*
G01*
G75*
G02X115239Y154000I3198J-472*
G01*
G75*
G02X115270Y154122I1082J-214*
G01*
G75*
G03X115354Y154599I-1711J547*
G01*
G75*
G03X115362Y155428I-13724J545*
G01*
G75*
G03X115322Y156254I-15609J-330*
G01*
G75*
G03X115217Y156626I-963J-71*
G01*
X115867Y129802D02*
G75*
G03X115753Y129971I-1829J-1117D01*
G01*
G75*
G03X115661Y130055I-269J-200*
G01*
G75*
G03X115565Y130083I-98J-159*
G01*
G75*
G03X115443Y130065I-4J-405*
G01*
G75*
G03X114217Y129484I1353J-4432*
G01*
G75*
G03X113059Y128514I3933J-5874*
G01*
G75*
G03X111958Y127143I7061J-6799*
G01*
G75*
G03X110903Y125352I15809J-10516*
G01*
G75*
G03X110580Y124688I13734J-7103*
G01*
G75*
G03X110415Y124236I2700J-1239*
G01*
G75*
G03X110377Y123935I1030J-282*
G01*
G75*
G03X110470Y123771I196J4*
G01*
G75*
G02X110515Y123723I-65J-106*
G01*
G75*
G02X110573Y123599I-1529J-791*
G01*
G75*
G02X110631Y123444I-1799J-759*
G01*
G75*
G02X110680Y123272I-2535J-820*
G01*
G75*
G03X110779Y122979I1910J481*
G01*
G75*
G03X110904Y122814I392J167*
G01*
G75*
G03X111060Y122764I143J179*
G01*
G75*
G03X111249Y122817I-23J448*
G01*
G75*
G02X111362Y122863I279J-519*
G01*
G75*
G02X111649Y122944I4202J-14321*
G01*
G75*
G02X111994Y123033I3693J-13602*
G01*
G75*
G02X112370Y123121I4644J-18972*
G01*
G75*
G03X113547Y123442I-2915J13023*
G01*
G75*
G03X114429Y123819I-1594J4944*
G01*
G75*
G03X115047Y124259I-1487J2744*
G01*
G75*
G03X115415Y124772I-1028J1125*
G01*
G75*
G03X115715Y125564I-7534J3309*
G01*
G75*
G03X115906Y126326I-5780J1857*
G01*
G75*
G03X116013Y127181I-7472J1366*
G01*
G75*
G03X116056Y128272I-19211J1302*
G01*
G75*
G03X116056Y128950I-32093J358*
G01*
G75*
G03X116031Y129320I-3301J-35*
G01*
G75*
G03X115974Y129574I-1280J-156*
G01*
G75*
G03X115867Y129802I-1075J-363*
G01*
X118820Y151672D02*
G75*
G02X118647Y150578I-35301J5028D01*
G01*
G75*
G02X118465Y149672I-17104J2979*
G01*
G75*
G02X118213Y148680I-22146J5090*
G01*
G75*
G02X117809Y147272I-88698J24648*
G01*
G75*
G02X117225Y145607I-16563J4884*
G01*
G75*
G02X116503Y144116I-12457J5106*
G01*
G75*
G02X115742Y142950I-9120J5127*
G01*
G75*
G02X115050Y142363I-1650J1243*
G01*
G75*
G02X114707Y142244I-572J1093*
G01*
G75*
G02X114329Y142222I-272J1440*
G01*
G75*
G02X113980Y142296I93J1302*
G01*
G75*
G02X113724Y142459I237J655*
G01*
G75*
G02X113568Y142667I648J648*
G01*
G75*
G02X113419Y142983I2573J1405*
G01*
G75*
G02X113307Y143319I2738J1099*
G01*
G75*
G02X113270Y143589I1030J276*
G01*
G75*
G03X113253Y143648I-111J-1*
G01*
G75*
G03X113190Y143735I-742J-471*
G01*
G75*
G03X113102Y143830I-848J-693*
G01*
G75*
G03X112998Y143921I-973J-1016*
G01*
G75*
G02X112769Y144156I770J979*
G01*
G75*
G02X112603Y144448I1092J813*
G01*
G75*
G02X112503Y144796I1481J614*
G01*
G75*
G02X112470Y145197I2387J399*
G01*
Y145649*
X111845Y145589*
G75*
G02X110106Y145449I-5186J53637*
G01*
G75*
G02X108387Y145368I-3265J50942*
G01*
G75*
G02X106841Y145349I-1302J43218*
G01*
G75*
G02X105654Y145402I87J15324*
G01*
G75*
G02X105070Y145456I2848J34266*
G01*
G75*
G02X104502Y145518I3098J30891*
G01*
G75*
G02X104016Y145580I3331J27972*
G01*
G75*
G02X103747Y145629I420J3076*
G01*
G75*
G02X103316Y145781I439J1924*
G01*
G75*
G02X102971Y146020I622J1267*
G01*
G75*
G02X102748Y146319I744J790*
G01*
G75*
G02X102670Y146643I637J324*
G01*
G75*
G03X102653Y146818I-905J-1*
G01*
G75*
G03X102602Y146972I-635J-125*
G01*
G75*
G03X102510Y147118I-681J-325*
G01*
G75*
G03X102370Y147272I-1230J-982*
G01*
G75*
G02X102161Y147553I728J761*
G01*
G75*
G02X102072Y147870I743J379*
G01*
G75*
G02X102112Y148204I868J64*
G01*
G75*
G02X102277Y148531I1149J-374*
G01*
X102483Y148822*
X104071*
G75*
G03X104721Y148828I16J31907*
G01*
G75*
G03X105238Y148849I-261J12865*
G01*
G75*
G03X105649Y148878I-1204J19658*
G01*
G75*
G03X105720Y148922I-7J92*
G01*
G75*
G02X105778Y148961I73J-45*
G01*
G75*
G02X105995Y148992I714J-4204*
G01*
G75*
G02X106263Y149014I450J-3837*
G01*
G75*
G02X106570Y149022I311J-6472*
G01*
G75*
G03X106876Y149029I4J6471*
G01*
G75*
G03X107145Y149051I-182J3859*
G01*
G75*
G03X107361Y149082I-498J4235*
G01*
G75*
G03X107420Y149122I-15J85*
G01*
G75*
G02X107467Y149160I80J-49*
G01*
G75*
G02X107575Y149192I299J-810*
G01*
G75*
G02X107711Y149214I244J-1080*
G01*
G75*
G02X107861Y149222I151J-1525*
G01*
X108241*
X108301Y150146*
G75*
G02X108397Y150935I7037J-461*
G01*
G75*
G02X108608Y151960I20576J-3699*
G01*
G75*
G02X108880Y153012I21140J-4908*
G01*
G75*
G02X109171Y153896I11311J-3230*
G01*
G75*
G03X109241Y154098I-4117J1533*
G01*
G75*
G03X109288Y154270I-2024J645*
G01*
G75*
G03X109314Y154404I-1967J450*
G01*
G75*
G03X109293Y154431I-24J4*
G01*
G75*
G03X109248Y154435I-45J-322*
G01*
G75*
G03X109146Y154433I21J-6242*
G01*
G75*
G03X109025Y154430I120J-6205*
G01*
G75*
G03X108895Y154424I306J-8165*
G01*
G75*
G02X108694Y154423I-108J1942*
G01*
G75*
G02X108614Y154463I6J112*
G01*
G75*
G02X108577Y154555I119J102*
G01*
G75*
G02X108570Y154808I4357J249*
G01*
G75*
G02X108577Y154966I1715J2*
G01*
G75*
G02X108599Y155110I1207J-111*
G01*
G75*
G02X108631Y155223I939J-203*
G01*
G75*
G02X108670Y155272I88J-31*
G01*
G75*
G03X108708Y155315I-54J86*
G01*
G75*
G03X108741Y155400I-502J239*
G01*
G75*
G03X108763Y155507I-700J200*
G01*
G75*
G03X108770Y155622I-893J116*
G01*
G75*
G02X108777Y155736I897J2*
G01*
G75*
G02X108799Y155843I722J-93*
G01*
G75*
G02X108831Y155928I535J-154*
G01*
G75*
G02X108870Y155972I93J-44*
G01*
G75*
G03X108908Y156008I-67J108*
G01*
G75*
G03X108941Y156068I-274J187*
G01*
G75*
G03X108963Y156140I-365J151*
G01*
G75*
G03X108970Y156213I-359J74*
G01*
G75*
G02X109027Y156469I598J0*
G01*
G75*
G02X109355Y157136I22149J-10451*
G01*
G75*
G02X109728Y157827I14751J-7519*
G01*
G75*
G02X110076Y158383I7065J-4033*
G01*
G75*
G02X110448Y158874I5108J-3489*
G01*
G75*
G02X110945Y159432I10107J-8508*
G01*
G75*
G02X111448Y159950I18157J-17103*
G01*
G75*
G02X111620Y160022I172J-171*
G01*
G75*
G03X111677Y160034I0J136*
G01*
G75*
G03X111754Y160077I-263J567*
G01*
G75*
G03X111835Y160138I-419J641*
G01*
G75*
G03X111909Y160209I-529J620*
G01*
G75*
G02X112014Y160293I309J-280*
G01*
G75*
G02X112211Y160393I1334J-2383*
G01*
G75*
G02X112448Y160491I1331J-2898*
G01*
G75*
G02X112697Y160571I1181J-3232*
G01*
G75*
G02X113271Y160676I844J-3015*
G01*
G75*
G02X113904Y160685I379J-4340*
G01*
G75*
G02X114482Y160607I-229J-3896*
G01*
G75*
G02X114870Y160444I-229J-1085*
G01*
G75*
G03X115183Y160242I5674J8477*
G01*
G75*
G03X115506Y160051I5485J8876*
G01*
G75*
G03X115859Y159858I5990J10535*
G01*
G75*
G03X116263Y159651I9211J17486*
G01*
G75*
G02X117057Y159115I-1617J-3254*
G01*
G75*
G02X117739Y158359I-3059J-3446*
G01*
G75*
G02X118291Y157403I-4439J-3196*
G01*
G75*
G02X118694Y156272I-6990J-3133*
G01*
G75*
G02X118852Y155395I-4925J-1335*
G01*
G75*
G02X118926Y154125I-20305J-1827*
G01*
G75*
G02X118920Y152791I-21038J-574*
G01*
G75*
G02X118820Y151672I-10651J384*
G01*
X118916Y123622D02*
G75*
G02X118512Y121149I-33579J4221D01*
G01*
G75*
G02X117970Y119130I-16182J3264*
G01*
G75*
G02X117343Y117647I-10312J3481*
G01*
G75*
G02X116670Y116972I-1392J713*
G01*
G75*
G02X116529Y116914I-394J759*
G01*
G75*
G02X116343Y116866I-629J2055*
G01*
G75*
G02X116144Y116832I-479J2239*
G01*
G75*
G02X115963Y116822I-178J1484*
G01*
G75*
G02X115730Y116837I-3J1706*
G01*
G75*
G02X115561Y116889I77J552*
G01*
G75*
G02X115406Y116994I292J598*
G01*
G75*
G02X115209Y117190I2022J2231*
G01*
G75*
G02X115076Y117355I1277J1170*
G01*
G75*
G02X114953Y117547I1863J1326*
G01*
G75*
G02X114857Y117736I1795J1024*
G01*
G75*
G02X114810Y117889I636J282*
G01*
G75*
G03X114761Y118044I-663J-125*
G01*
G75*
G03X114659Y118241I-2036J-926*
G01*
G75*
G03X114528Y118444I-2170J-1263*
G01*
G75*
G03X114384Y118622I-1645J-1179*
G01*
X114020Y119024*
X112470Y118831*
G75*
G02X110512Y118606I-13614J109562*
G01*
G75*
G02X109076Y118486I-3415J32196*
G01*
G75*
G02X107737Y118437I-1646J26774*
G01*
G75*
G02X106120Y118442I-630J56475*
G01*
G75*
G02X104916Y118469I1920J111812*
G01*
G75*
G02X104209Y118506I414J14847*
G01*
G75*
G02X103750Y118559I454J5973*
G01*
G75*
G02X103468Y118643I162J1052*
G01*
G75*
G02X103162Y118815I917J1994*
G01*
G75*
G02X102943Y119009I603J900*
G01*
G75*
G02X102796Y119241I710J611*
G01*
G75*
G02X102707Y119528I1202J530*
G01*
G75*
G03X102671Y119674I-1250J-233*
G01*
G75*
G03X102615Y119829I-1750J-552*
G01*
G75*
G03X102548Y119970I-1572J-654*
G01*
G75*
G03X102481Y120072I-555J-293*
G01*
G75*
G02X102180Y120524I2291J1851*
G01*
G75*
G02X102072Y120910I806J435*
G01*
G75*
G02X102147Y121261I685J36*
G01*
G75*
G02X102400Y121602I1165J-598*
G01*
X102730Y121922*
X104344*
G75*
G03X105006Y121928I16J33187*
G01*
G75*
G03X105531Y121949I-265J13261*
G01*
G75*
G03X105949Y121978I-1234J20454*
G01*
G75*
G03X106020Y122022I-7J92*
G01*
G75*
G02X106065Y122060I83J-51*
G01*
G75*
G02X106159Y122092I261J-619*
G01*
G75*
G02X106279Y122114I219J-848*
G01*
G75*
G02X106408Y122122I131J-1139*
G01*
G75*
G03X106673Y122175I0J683*
G01*
G75*
G03X106925Y122329I-374J894*
G01*
G75*
G03X107107Y122543I-567J669*
G01*
G75*
G03X107170Y122767I-370J225*
G01*
G75*
G03X107135Y122876I-186J0*
G01*
G75*
G03X106941Y123135I-6042J-4318*
G01*
G75*
G03X106689Y123438I-5295J-4150*
G01*
G75*
G03X106391Y123762I-7902J-6970*
G01*
G75*
G02X106044Y124138I9182J8827*
G01*
G75*
G02X105645Y124599I19239J17032*
G01*
G75*
G02X105257Y125070I19611J16560*
G01*
G75*
G02X104946Y125473I9783J7859*
G01*
G75*
G03X104675Y125838I-97500J-72211*
G01*
G75*
G03X104409Y126193I-87458J-65171*
G01*
G75*
G03X104180Y126497I-79632J-59795*
G01*
G75*
G03X104051Y126664I-8551J-6481*
G01*
G75*
G02X103957Y126787I3375J2675*
G01*
G75*
G02X103865Y126917I3772J2757*
G01*
G75*
G02X103789Y127034I3423J2324*
G01*
G75*
G02X103744Y127114I667J424*
G01*
G75*
G03X103699Y127200I-1254J-604*
G01*
G75*
G03X103616Y127343I-9367J-5349*
G01*
G75*
G03X103518Y127507I-10363J-6101*
G01*
G75*
G03X103415Y127672I-10841J-6638*
G01*
G75*
G02X103300Y127864I3752J2376*
G01*
G75*
G02X103162Y128115I10285J5813*
G01*
G75*
G02X103024Y128381I10989J5858*
G01*
G75*
G02X102909Y128622I6937J3480*
G01*
G75*
G03X102798Y128860I-29837J-13739*
G01*
G75*
G03X102673Y129123I-44185J-20772*
G01*
G75*
G03X102554Y129370I-41240J-19680*
G01*
G75*
G03X102463Y129556I-13678J-6637*
G01*
G75*
G02X102389Y129730I1326J662*
G01*
G75*
G02X102326Y129936I2333J822*
G01*
G75*
G02X102284Y130141I2311J586*
G01*
G75*
G02X102270Y130311I1037J170*
G01*
G75*
G03X102262Y130461I-1407J-3*
G01*
G75*
G03X102238Y130604I-1247J-131*
G01*
G75*
G03X102203Y130724I-1002J-230*
G01*
G75*
G03X102161Y130790I-168J-60*
G01*
G75*
G02X102080Y130954I204J204*
G01*
G75*
G02X102098Y131163I461J63*
G01*
G75*
G02X102213Y131363I549J-181*
G01*
G75*
G02X102395Y131501I426J-373*
G01*
G75*
G03X102536Y131585I-379J793*
G01*
G75*
G03X102617Y131678I-170J231*
G01*
G75*
G03X102659Y131804I-310J172*
G01*
G75*
G03X102672Y132002I-1616J206*
G01*
G75*
G02X102722Y132379I1500J-9*
G01*
G75*
G02X102870Y132789I2461J-656*
G01*
G75*
G02X103076Y133148I2160J-995*
G01*
G75*
G02X103301Y133368I676J-468*
G01*
G75*
G02X103421Y133435I506J-771*
G01*
G75*
G02X103578Y133500I904J-1962*
G01*
G75*
G02X103744Y133554I775J-2110*
G01*
G75*
G02X103896Y133587I370J-1313*
G01*
G75*
G02X104379Y133557I176J-1089*
G01*
G75*
G02X104647Y133310I-113J-392*
G01*
G75*
G02X104632Y132910I-481J-181*
G01*
G75*
G02X104320Y132465I-1422J664*
G01*
G75*
G03X104060Y132054I785J-785*
G01*
G75*
G03X103990Y131559I1164J-417*
G01*
G75*
G03X104120Y130918I2392J153*
G01*
G75*
G03X104475Y130045I9263J3252*
G01*
G75*
G02X104588Y129798I-29704J-13724*
G01*
G75*
G02X104683Y129584I-16535J-7484*
G01*
G75*
G02X104764Y129398I-47170J-20654*
G01*
G75*
G02X104770Y129370I-64J-28*
G01*
G75*
G03X104777Y129343I53J0*
G01*
G75*
G03X104894Y129144I51014J29708*
G01*
G75*
G03X105030Y128916I15945J9330*
G01*
G75*
G03X105191Y128652I28880J17518*
G01*
G75*
G03X106004Y127456I14461J8944*
G01*
G75*
G03X106824Y126484I8194J6090*
G01*
G75*
G03X107569Y125805I5378J5148*
G01*
G75*
G03X108095Y125619I533J670*
G01*
G75*
G02X108364Y125576I-6J-893*
G01*
G75*
G02X108620Y125453I-322J-995*
G01*
G75*
G02X108839Y125261I-612J-923*
G01*
G75*
G02X109003Y125018I-852J-750*
G01*
G75*
G03X109132Y124837I631J315*
G01*
G75*
G03X109293Y124743I256J252*
G01*
G75*
G03X109416Y124770I36J131*
G01*
G75*
G03X109472Y124889I-102J122*
G01*
G75*
G02X109536Y125256I1177J-15*
G01*
G75*
G02X109885Y126234I43208J-14861*
G01*
G75*
G02X110302Y127306I31465J-11631*
G01*
G75*
G02X110735Y128305I24891J-10180*
G01*
G75*
G03X110854Y128584I-5227J2388*
G01*
G75*
G03X110837Y128666I-71J28*
G01*
G75*
G03X110767Y128667I-36J-35*
G01*
G75*
G03X110570Y128471I2878J-3081*
G01*
G75*
G02X110454Y128369I-613J579*
G01*
G75*
G02X110322Y128289I-498J676*
G01*
G75*
G02X110184Y128239I-332J688*
G01*
G75*
G02X110052Y128222I-131J502*
G01*
G75*
G02X109897Y128232I-2J1103*
G01*
G75*
G02X109819Y128272I19J133*
G01*
G75*
G02X109780Y128353I103J99*
G01*
G75*
G02X109770Y128516I1270J161*
G01*
G75*
G02X109777Y128633I934J2*
G01*
G75*
G02X109799Y128741I742J-94*
G01*
G75*
G02X109831Y128828I552J-156*
G01*
G75*
G02X109870Y128872I92J-43*
G01*
G75*
G03X109908Y128909I-66J106*
G01*
G75*
G03X109941Y128970I-283J189*
G01*
G75*
G03X109963Y129043I-378J154*
G01*
G75*
G03X109970Y129119I-382J76*
G01*
G75*
G02X109988Y129226I321J1*
G01*
G75*
G02X110069Y129436I4372J-1553*
G01*
G75*
G02X110177Y129682I4604J-1889*
G01*
G75*
G02X110306Y129938I5822J-2764*
G01*
G75*
G03X110454Y130219I-176419J93592*
G01*
G75*
G03X110623Y130538I-294981J155878*
G01*
G75*
G03X110785Y130846I-285161J150052*
G01*
G75*
G03X110913Y131090I-111640J58771*
G01*
G75*
G02X111028Y131298I4730J-2476*
G01*
G75*
G02X111146Y131491I3935J-2282*
G01*
G75*
G02X111256Y131651I3430J-2229*
G01*
G75*
G02X111327Y131728I336J-241*
G01*
G75*
G03X111382Y131781I-287J346*
G01*
G75*
G03X111428Y131845I-376J321*
G01*
G75*
G03X111460Y131909I-362J221*
G01*
G75*
G03X111470Y131961I-132J53*
G01*
G75*
G02X111561Y132180I306J0*
G01*
G75*
G02X112195Y132782I18739J-19085*
G01*
G75*
G02X112840Y133343I10406J-11310*
G01*
G75*
G02X113264Y133611I1296J-1578*
G01*
G75*
G02X113506Y133707I854J-1806*
G01*
G75*
G02X113761Y133772I646J-2003*
G01*
G75*
G02X114046Y133809I474J-2506*
G01*
G75*
G02X114377Y133822I332J-4504*
G01*
G75*
G02X114830Y133802I-4J-5289*
G01*
G75*
G02X115138Y133737I-111J-1296*
G01*
G75*
G02X115454Y133593I-564J-1652*
G01*
G75*
G02X115963Y133281I-6828J-11719*
G01*
G75*
G03X116155Y133163I3294J5125*
G01*
G75*
G03X116366Y133042I4174J7043*
G01*
G75*
G03X116565Y132936I3607J6545*
G01*
G75*
G03X116713Y132867I995J1927*
G01*
G75*
G02X117379Y132439I-902J-2138*
G01*
G75*
G02X117969Y131756I-2613J-2850*
G01*
G75*
G02X118446Y130863I-4057J-2744*
G01*
G75*
G02X118780Y129812I-6355J-2594*
G01*
G75*
G02X118954Y128650I-7391J-1706*
G01*
G75*
G02X119036Y126907I-34991J-2517*
G01*
G75*
G02X119030Y125090I-35408J-778*
G01*
G75*
G02X118916Y123622I-15400J451*
G01*
X119070Y57922D02*
X114890D01*
X114819Y58629*
G75*
G03X114777Y58971I-7585J-768*
G01*
G75*
G03X114727Y59191I-1459J-214*
G01*
G75*
G03X114665Y59328I-571J-175*
G01*
G75*
G03X114584Y59394I-133J-82*
G01*
G75*
G02X114343Y59520I310J881*
G01*
G75*
G02X114146Y59712I581J796*
G01*
G75*
G02X114015Y59943I719J560*
G01*
G75*
G02X113970Y60183I622J241*
G01*
G75*
G03X113963Y60313I-1146J-1*
G01*
G75*
G03X113941Y60432I-870J-99*
G01*
G75*
G03X113909Y60526I-651J-167*
G01*
G75*
G03X113870Y60572I-91J-38*
G01*
G75*
G02X113823Y60654I52J85*
G01*
G75*
G02X113796Y61776I291089J7604*
G01*
G75*
G02X113776Y63180I89069J1951*
G01*
G75*
G02X113770Y65108I308554J1909*
G01*
G75*
G03X113765Y67570I-600317J-17*
G01*
G75*
G03X113743Y68799I-44979J-193*
G01*
G75*
G03X113707Y69552I-22836J-721*
G01*
G75*
G03X113623Y69777I-417J-26*
G01*
G75*
G02X113567Y69862I683J519*
G01*
G75*
G02X113519Y69956I851J495*
G01*
G75*
G02X113484Y70044I784J353*
G01*
G75*
G02X113473Y70112I227J72*
G01*
G75*
G03X113402Y70418I-774J-18*
G01*
G75*
G03X113163Y70876I-4631J-2131*
G01*
G75*
G03X112868Y71319I-4288J-2529*
G01*
G75*
G03X112596Y71598I-1185J-882*
G01*
G75*
G03X111981Y72002I-2623J-3333*
G01*
G75*
G03X111254Y72330I-2766J-5148*
G01*
G75*
G03X110511Y72549I-1940J-5215*
G01*
G75*
G03X109849Y72622I-664J-3004*
G01*
X109470*
Y73128*
G75*
G03X109448Y73494I-3084J-2*
G01*
G75*
G03X109380Y73777I-1243J-148*
G01*
G75*
G03X109275Y73959I-581J-214*
G01*
G75*
G03X109141Y74022I-135J-113*
G01*
G75*
G02X109082Y74048I1J84*
G01*
G75*
G02X108997Y74146I765J750*
G01*
G75*
G02X108906Y74281I1076J826*
G01*
G75*
G02X108820Y74441I1775J1052*
G01*
G75*
G02X108705Y74804I1226J588*
G01*
G75*
G02X108649Y75320I4433J742*
G01*
G75*
G02X108625Y76219I19589J981*
G01*
G75*
G02X108620Y78419I506315J2187*
G01*
G75*
G02X108625Y80534I464200J20*
G01*
G75*
G02X108648Y81456I22243J-100*
G01*
G75*
G02X108695Y81978I5987J-278*
G01*
G75*
G02X108796Y82250I648J-87*
G01*
G75*
G02X109074Y82570I1319J-865*
G01*
G75*
G02X109394Y82752I604J-686*
G01*
G75*
G02X109879Y82849I650J-1993*
G01*
G75*
G02X110795Y82902I1683J-21256*
G01*
G75*
G02X112116Y82906I720J-20001*
G01*
G75*
G02X113188Y82809I-265J-8926*
G01*
G75*
G02X114097Y82603I-973J-6407*
G01*
G75*
G02X114915Y82277I-1500J-4946*
G01*
G75*
G02X115963Y81644I-3519J-7011*
G01*
G75*
G02X116982Y80812I-6082J-8493*
G01*
G75*
G02X117845Y79902I-6578J-7101*
G01*
G75*
G02X118413Y79035I-3515J-2923*
G01*
G75*
G02X118811Y77956I-4557J-2296*
G01*
G75*
G02X118994Y76737I-6520J-1600*
G01*
G75*
G02X119058Y74588I-39815J-2257*
G01*
G75*
G02X119069Y67496I-2673193J-7553*
G01*
X119070Y57922*
X119574Y95266D02*
G75*
G02X119396Y94992I-794J321D01*
G01*
G75*
G02X119062Y94698I-2004J1939*
G01*
G75*
G02X118656Y94441I-1863J2495*
G01*
G75*
G02X118246Y94273I-1050J1979*
G01*
G75*
G02X115924Y93762I-4646J15582*
G01*
G75*
G02X112920Y93439I-5958J41298*
G01*
G75*
G02X109747Y93327I-3162J44498*
G01*
G75*
G02X106870Y93465I7J30260*
G01*
G75*
G02X105627Y93603I4033J42055*
G01*
G75*
G02X104703Y93752I1695J13474*
G01*
G75*
G02X103983Y93928I1573J7993*
G01*
G75*
G02X103393Y94148I1205J4123*
G01*
G75*
G02X103061Y94339I895J1938*
G01*
G75*
G02X102798Y94572I882J1259*
G01*
G75*
G02X102628Y94824I852J763*
G01*
G75*
G02X102570Y95067I487J244*
G01*
G75*
G03X102552Y95168I-296*
G01*
G75*
G03X102496Y95291I-818J-297*
G01*
G75*
G03X102415Y95415I-877J-485*
G01*
G75*
G03X102320Y95522I-689J-522*
G01*
G75*
G02X102190Y95669I693J741*
G01*
G75*
G02X102116Y95818I424J304*
G01*
G75*
G02X102080Y96012I798J249*
G01*
G75*
G02X102070Y96322I4685J304*
G01*
G75*
G02X102124Y96833I2432*
G01*
G75*
G02X102300Y97126I520J-111*
G01*
G75*
G02X102637Y97278I432J-507*
G01*
G75*
G02X103245Y97322I609J-4254*
G01*
G75*
G02X103523Y97314I-4J-5305*
G01*
G75*
G02X103767Y97292I-168J-3219*
G01*
G75*
G02X103963Y97261I-423J-3293*
G01*
G75*
G02X104020Y97222I-16J-85*
G01*
G75*
G03X104223Y97107I204J126*
G01*
G75*
G03X105389Y97117I188J50890*
G01*
G75*
G03X106510Y97160I-554J28845*
G01*
G75*
G03X106952Y97278I-66J1136*
G01*
G75*
G03X107422Y97623I-768J1538*
G01*
G75*
G03X107643Y98052I-604J582*
G01*
G75*
G03X107596Y98548I-893J166*
G01*
G75*
G03X107288Y99087I-1959J-763*
G01*
G75*
G02X106487Y100112I103483J81718*
G01*
G75*
G02X105801Y101013I60161J46543*
G01*
G75*
G02X105202Y101814I230375J172811*
G01*
G75*
G02X105170Y101911I130J96*
G01*
G75*
G03X105160Y101952I-91J-1*
G01*
G75*
G03X105126Y102007I-398J-202*
G01*
G75*
G03X105079Y102067I-456J-319*
G01*
G75*
G03X105022Y102120I-449J-422*
G01*
G75*
G02X104898Y102252I463J560*
G01*
G75*
G02X104770Y102451I1677J1215*
G01*
G75*
G02X104567Y102826I9930J5613*
G01*
G75*
G02X103994Y103939I468609J241887*
G01*
G75*
G02X103760Y104411I17175J8817*
G01*
G75*
G02X103552Y104864I13874J6650*
G01*
G75*
G02X103389Y105250I13386J5891*
G01*
G75*
G02X103331Y105446I946J386*
G01*
G75*
G02X103313Y105635I1078J201*
G01*
G75*
G02X103315Y105959I8470J111*
G01*
G75*
G02X103332Y106336I9520J-250*
G01*
G75*
G02X103364Y106718I10183J-669*
G01*
G75*
G02X103428Y107244I16119J-1672*
G01*
G75*
G02X103492Y107538I1875J-257*
G01*
G75*
G02X103585Y107744I832J-252*
G01*
G75*
G02X103734Y107936I994J-616*
G01*
G75*
G02X103878Y108066I968J-929*
G01*
G75*
G02X104020Y108154I472J-603*
G01*
G75*
G02X104170Y108204I287J-606*
G01*
G75*
G02X104335Y108222I166J-787*
G01*
G75*
G02X104619Y108165J-744*
G01*
G75*
G02X104786Y108007I-122J-296*
G01*
G75*
G02X104833Y107736I-465J-222*
G01*
G75*
G02X104758Y107335I-2257J218*
G01*
G75*
G03X104710Y107143I3015J-857*
G01*
G75*
G03X104674Y106949I3020J-652*
G01*
G75*
G03X104654Y106778I2658J-400*
G01*
G75*
G03X104658Y106672I440J-39*
G01*
G75*
G03X104752Y106354I1244J197*
G01*
G75*
G03X105031Y105763I14342J6409*
G01*
G75*
G03X105355Y105151I12519J6229*
G01*
G75*
G03X105654Y104672I5411J3037*
G01*
G75*
G03X106502Y103538I14699J10113*
G01*
G75*
G03X107526Y102348I20935J16989*
G01*
G75*
G03X108512Y101318I22807J20836*
G01*
G75*
G03X109046Y100957I1203J1205*
G01*
G75*
G03X109239Y100887I740J1735*
G01*
G75*
G03X109374Y100871I113J371*
G01*
G75*
G03X109509Y100902I-23J417*
G01*
G75*
G03X109707Y100994I-895J2166*
G01*
G75*
G03X110045Y101239I-698J1322*
G01*
G75*
G03X110808Y101989I-30869J32167*
G01*
G75*
G03X111598Y102793I-66914J66460*
G01*
G75*
G03X111670Y102971I-183J178*
G01*
G75*
G02X111684Y103017I83*
G01*
G75*
G02X111780Y103159I5679J-3746*
G01*
G75*
G02X111901Y103325I4089J-2857*
G01*
G75*
G02X112045Y103508I6502J-4956*
G01*
G75*
G03X112196Y103698I-12837J10356*
G01*
G75*
G03X112339Y103883I-11426J8960*
G01*
G75*
G03X112459Y104044I-10618J8043*
G01*
G75*
G03X112520Y104135I-1073J792*
G01*
G75*
G02X112596Y104241I769J-471*
G01*
G75*
G02X112870Y104565I44552J-37254*
G01*
G75*
G02X113199Y104948I32972J-27996*
G01*
G75*
G02X113570Y105372I50333J-43737*
G01*
G75*
G03X113939Y105796I-27491J24286*
G01*
G75*
G03X114260Y106179I-17525J15023*
G01*
G75*
G03X114524Y106506I-25271J20731*
G01*
G75*
G03X114585Y106609I-318J254*
G01*
G75*
G02X114707Y106805I600J-238*
G01*
G75*
G02X114960Y107055I2506J-2281*
G01*
G75*
G02X115272Y107306I2557J-2867*
G01*
G75*
G02X115598Y107512I1917J-2666*
G01*
G75*
G02X116012Y107670I758J-1369*
G01*
G75*
G02X116500Y107728I521J-2307*
G01*
G75*
G02X116944Y107685I28J-2050*
G01*
G75*
G02X117209Y107534I-100J-480*
G01*
G75*
G03X117308Y107455I288J261*
G01*
G75*
G03X117461Y107384I559J1010*
G01*
G75*
G03X117646Y107328I516J1363*
G01*
G75*
G03X117846Y107294I396J1709*
G01*
G75*
G02X118096Y107250I-231J-2065*
G01*
G75*
G02X118285Y107180I-194J-812*
G01*
G75*
G02X118454Y107065I-395J-764*
G01*
G75*
G02X118641Y106883I-1502J-1729*
G01*
G75*
G02X118830Y106654I-1985J-1822*
G01*
G75*
G02X118920Y106474I-496J-362*
G01*
G75*
G02X118960Y106249I-858J-268*
G01*
G75*
G02X118970Y105830I-8800J-424*
G01*
G75*
G02X118963Y105546I-5930J7*
G01*
G75*
G02X118943Y105270I-5393J254*
G01*
G75*
G02X118913Y105035I-4748J476*
G01*
G75*
G02X118878Y104903I-589J88*
G01*
G75*
G02X118702Y104613I-947J377*
G01*
G75*
G02X117566Y103309I-195633J169264*
G01*
G75*
G02X116139Y101705I-111835J98045*
G01*
G75*
G02X114308Y99692I-281537J254204*
G01*
G75*
G03X113719Y99038I40278J-36897*
G01*
G75*
G03X113222Y98463I22685J-20111*
G01*
G75*
G03X112805Y97964I54272J-45751*
G01*
G75*
G03X112770Y97867I117J-96*
G01*
G75*
G03X112801Y97799I90*
G01*
G75*
G03X112886Y97753I143J164*
G01*
G75*
G03X113041Y97728I192J705*
G01*
G75*
G03X113300Y97722I257J4922*
G01*
G75*
G03X113510Y97728I6J3304*
G01*
G75*
G03X113702Y97748I-156J2371*
G01*
G75*
G03X113859Y97777I-306J2112*
G01*
G75*
G03X113925Y97813I-30J136*
G01*
G75*
G02X113992Y97851I109J-114*
G01*
G75*
G02X114154Y97891I719J-2552*
G01*
G75*
G02X114352Y97926I596J-2799*
G01*
G75*
G02X114570Y97950I550J-3919*
G01*
G75*
G03X114833Y97977I-735J8666*
G01*
G75*
G03X115179Y98019I-2927J25190*
G01*
G75*
G03X115543Y98069I-3471J26815*
G01*
G75*
G03X115870Y98119I-2539J17730*
G01*
G75*
G02X116566Y98200I1274J-7869*
G01*
G75*
G02X117107Y98189I210J-2868*
G01*
G75*
G02X117531Y98086I-204J-1763*
G01*
G75*
G02X117870Y97887I-415J-1093*
G01*
G75*
G03X118019Y97779I809J959*
G01*
G75*
G03X118181Y97694I657J1066*
G01*
G75*
G03X118343Y97640I431J1006*
G01*
G75*
G03X118487Y97622I144J564*
G01*
G75*
G02X118770Y97569I-1J-799*
G01*
G75*
G02X119068Y97415I-507J-1341*
G01*
G75*
G02X119333Y97187I-871J-1282*
G01*
G75*
G02X119521Y96919I-893J-827*
G01*
G75*
G02X119619Y96609I-835J-433*
G01*
G75*
G02X119659Y96105I-5073J-666*
G01*
G75*
G02X119650Y95597I-5077J-164*
G01*
G75*
G02X119574Y95266I-1074J74*
G01*
X255852Y147070D02*
G75*
G03X255800Y147086I-56J-90D01*
G01*
G75*
G03X255724Y147081I-14J-400*
G01*
G75*
G03X255637Y147059I81J-507*
G01*
G75*
G03X255552Y147022I189J-547*
G01*
G75*
G03X255445Y146930I150J-282*
G01*
G75*
G03X255385Y146797I289J-211*
G01*
G75*
G03X255357Y146574I1145J-259*
G01*
G75*
G03X255350Y146125I15190J-438*
G01*
G75*
G03X255358Y145731I9811J-1*
G01*
G75*
G03X255385Y145471I2016J79*
G01*
G75*
G03X255435Y145293I906J156*
G01*
G75*
G03X255514Y145172I327J127*
G01*
G75*
G03X255693Y145106I161J161*
G01*
G75*
G03X255829Y145208I-12J158*
G01*
G75*
G03X255909Y145575I-1191J453*
G01*
G75*
G03X255939Y146291I-14062J939*
G01*
G75*
G03X255936Y146570I-5456J86*
G01*
G75*
G03X255918Y146816I-3279J-113*
G01*
G75*
G03X255890Y147014I-3420J-383*
G01*
G75*
G03X255852Y147070I-81J-14*
G01*
X255867Y102661D02*
G75*
G03X255820Y102671I-37J-60D01*
G01*
G75*
G03X255744Y102654I59J-426*
G01*
G75*
G03X255656Y102616I188J-561*
G01*
G75*
G03X255567Y102562I378J-723*
G01*
G75*
G03X255452Y102448I276J-394*
G01*
G75*
G03X255388Y102309I327J-235*
G01*
G75*
G03X255357Y102091I1052J-257*
G01*
G75*
G03X255350Y101674I11775J-409*
G01*
G75*
G03X255355Y101380I9706J-4*
G01*
G75*
G03X255368Y101107I7283J220*
G01*
G75*
G03X255387Y100880I7169J481*
G01*
G75*
G03X255411Y100780I386J39*
G01*
G75*
G03X255499Y100661I255J98*
G01*
G75*
G03X255623Y100629I99J128*
G01*
G75*
G03X255751Y100696I-33J220*
G01*
G75*
G03X255847Y100846I-349J330*
G01*
G75*
G03X255919Y101167I-943J378*
G01*
G75*
G03X255942Y101835I-14143J826*
G01*
G75*
G03X255940Y102532I-26763J288*
G01*
G75*
G03X255867Y102661I-155J-2*
G01*
X256011Y152622D02*
G75*
G03X255584Y152615I5J-13927D01*
G01*
G75*
G03X255334Y152590I58J-1861*
G01*
G75*
G03X255185Y152546I102J-617*
G01*
G75*
G03X255114Y152472I54J-122*
G01*
G75*
G03X255133Y152396I63J-24*
G01*
G75*
G03X255232Y152349I135J157*
G01*
G75*
G03X255461Y152326I260J1446*
G01*
G75*
G03X255953Y152322I480J24408*
G01*
G75*
G03X256429Y152327I7J19906*
G01*
G75*
G03X256676Y152351I-43J1750*
G01*
G75*
G03X256806Y152396I-67J403*
G01*
G75*
G03X256807Y152546I-42J76*
G01*
G75*
G03X256685Y152592I-187J-314*
G01*
G75*
G03X256453Y152616I-273J-1530*
G01*
G75*
G03X256011Y152622I-446J-16880*
G01*
X256044Y100496D02*
G75*
G02X255884Y100367I-254J151D01*
G01*
G75*
G02X255609Y100319I-294J871*
G01*
G75*
G02X255343Y100356I-17J849*
G01*
G75*
G02X255211Y100480I61J197*
G01*
G75*
G02X255187Y100587I350J135*
G01*
G75*
G02X255168Y100894I14573J1052*
G01*
G75*
G02X255155Y101261I12571J642*
G01*
G75*
G02X255150Y101667I18617J402*
G01*
G75*
G02X255169Y102417I15503*
G01*
G75*
G02X255253Y102739I806J-39*
G01*
G75*
G02X255434Y102881I242J-121*
G01*
G75*
G02X255769Y102903I235J-1015*
G01*
X256100Y102872*
X256124Y101772*
G75*
G02X256126Y101328I-12929J-279*
G01*
G75*
G02X256111Y100937I-7857J104*
G01*
G75*
G02X256085Y100620I-7697J481*
G01*
G75*
G02X256044Y100496I-302J31*
G01*
X256081Y145046D02*
G75*
G02X256040Y144931I-407J80D01*
G01*
G75*
G02X255971Y144864I-143J77*
G01*
G75*
G02X255855Y144830I-143J276*
G01*
G75*
G02X255645Y144822I-207J2482*
G01*
G75*
G02X255358Y144878I0J765*
G01*
G75*
G02X255211Y145035I96J237*
G01*
G75*
G02X255157Y145377I1037J340*
G01*
G75*
G02X255171Y146272I33278J-80*
G01*
X255200Y147272*
X256100*
X256113Y146272*
G75*
G02X256115Y145872I-22780J-290*
G01*
G75*
G02X256109Y145499I-17328J88*
G01*
G75*
G02X256098Y145186I-17348J454*
G01*
G75*
G02X256081Y145046I-920J41*
G01*
X256104Y109222D02*
G75*
G02X255526Y109256I0J4816D01*
G01*
G75*
G02X255283Y109396I43J358*
G01*
G75*
G02X255173Y109693I431J329*
G01*
G75*
G02X255150Y110472I13444J777*
G01*
G75*
G02X255173Y111250I13460J2*
G01*
G75*
G02X255283Y111547I541J-31*
G01*
G75*
G02X255526Y111687I287J-219*
G01*
G75*
G02X256104Y111722I580J-4781*
G01*
G75*
G03X256492Y111728I2J12596*
G01*
G75*
G03X256701Y111752I-39J1257*
G01*
G75*
G03X256811Y111797I-59J298*
G01*
G75*
G03X256850Y111872I-50J74*
G01*
G75*
G03X256816Y111944I-94J0*
G01*
G75*
G03X256724Y111990I-148J-178*
G01*
G75*
G03X256551Y112015I-209J-846*
G01*
G75*
G03X256244Y112022I-314J-7361*
G01*
G75*
G03X255582Y111945I1J-2911*
G01*
G75*
G03X255201Y111704I155J-665*
G01*
G75*
G03X255005Y111237I744J-588*
G01*
G75*
G03X254950Y110384I6618J-850*
G01*
G75*
G03X254958Y109887I15049J-11*
G01*
G75*
G03X254992Y109624I1416J46*
G01*
G75*
G03X255067Y109432I663J149*
G01*
G75*
G03X255209Y109229I1224J707*
G01*
G75*
G03X255381Y109053I1270J1070*
G01*
G75*
G03X255532Y108967I282J319*
G01*
G75*
G03X255738Y108930I238J733*
G01*
G75*
G03X256159Y108922I413J10287*
G01*
G75*
G03X256515Y108928I7J10349*
G01*
G75*
G03X256710Y108952I-39J1094*
G01*
G75*
G03X256813Y108998I-57J268*
G01*
G75*
G03X256850Y109072I-54J74*
G01*
G75*
G03X256811Y109146I-89J0*
G01*
G75*
G03X256701Y109191I-169J-252*
G01*
G75*
G03X256492Y109215I-248J-1233*
G01*
G75*
G03X256104Y109222I-398J-12590*
G01*
X256166Y108722D02*
G75*
G02X255298Y108762I-1J9276D01*
G01*
G75*
G02X254971Y108943I44J467*
G01*
G75*
G02X254827Y109335I550J425*
G01*
G75*
G02X254800Y110491I25185J1153*
G01*
G75*
G02X254830Y111605I21196J3*
G01*
G75*
G02X254981Y111999I679J-35*
G01*
G75*
G02X255322Y112181I387J-315*
G01*
G75*
G02X256211Y112222I889J-9636*
G01*
X257150*
Y111522*
X256406*
G75*
G03X255823Y111483I0J-4429*
G01*
G75*
G03X255533Y111340I67J-502*
G01*
G75*
G03X255389Y111051I355J-356*
G01*
G75*
G03X255350Y110472I4300J-577*
G01*
G75*
G03X255389Y109892I4342J-2*
G01*
G75*
G03X255533Y109603I498J67*
G01*
G75*
G03X255823Y109460I357J359*
G01*
G75*
G03X256406Y109422I580J4391*
G01*
X257150*
Y108722*
X256166*
X256242Y93972D02*
G75*
G03X255625Y93966I9J-35527D01*
G01*
G75*
G03X255315Y93943I47J-2741*
G01*
G75*
G03X255152Y93899I84J-637*
G01*
G75*
G03X255100Y93822I32J-78*
G01*
G75*
G03X255150Y93744I86*
G01*
G75*
G03X255304Y93695I255J543*
G01*
G75*
G03X255592Y93664I403J2351*
G01*
G75*
G03X256143Y93643I1285J26658*
G01*
G75*
G03X256869Y93631I842J30466*
G01*
G75*
G03X257227Y93659I8J2228*
G01*
G75*
G03X257390Y93730I-56J352*
G01*
G75*
G03X257425Y93846I-65J83*
G01*
G75*
G03X257357Y93907I-87J-29*
G01*
G75*
G03X257131Y93943I-459J-2168*
G01*
G75*
G03X256784Y93965I-448J-4229*
G01*
G75*
G03X256242Y93972I-542J-23333*
G01*
X256385Y91439D02*
G75*
G03X256178Y91580I-400J-362D01*
G01*
G75*
G03X255923Y91619I-217J-564*
G01*
G75*
G03X255678Y91548I38J-589*
G01*
G75*
G03X255498Y91382I242J-442*
G01*
G75*
G03X255426Y91229I503J-330*
G01*
G75*
G03X255383Y91031I1152J-354*
G01*
G75*
G03X255365Y90769I2147J-280*
G01*
G75*
G03X255370Y90407I7472J-67*
G01*
X255400Y89672*
X255846Y89640*
G75*
G03X256210Y89661I101J1414*
G01*
G75*
G03X256417Y89792I-61J326*
G01*
G75*
G03X256523Y90068I-459J335*
G01*
G75*
G03X256550Y90608I-5279J540*
G01*
G75*
G03X256541Y90919I-5332J-7*
G01*
G75*
G03X256512Y91148I-1669J-96*
G01*
G75*
G03X256461Y91317I-919J-183*
G01*
G75*
G03X256385Y91439I-381J-156*
G01*
X256447Y125328D02*
G75*
G03X256375Y125418I-285J-153D01*
G01*
G75*
G03X256276Y125478I-217J-246*
G01*
G75*
G03X256138Y125511I-195J-509*
G01*
G75*
G03X255944Y125522I-197J-1828*
G01*
G75*
G03X255727Y125511I0J-2322*
G01*
G75*
G03X255601Y125474I32J-343*
G01*
G75*
G03X255517Y125399I104J-200*
G01*
G75*
G03X255448Y125265I563J-374*
G01*
G75*
G03X255374Y124952I1132J-430*
G01*
G75*
G03X255354Y124505I4388J-429*
G01*
G75*
G03X255376Y124068I4534J18*
G01*
G75*
G03X255454Y123815I678J69*
G01*
G75*
G03X255629Y123667I273J146*
G01*
G75*
G03X255944Y123613I336J1007*
G01*
G75*
G03X256262Y123656I19J1060*
G01*
G75*
G03X256442Y123796I-87J296*
G01*
G75*
G03X256522Y124052I-525J305*
G01*
G75*
G03X256544Y124556I-6313J524*
G01*
G75*
G03X256525Y125060I-6219J20*
G01*
G75*
G03X256447Y125328I-678J-53*
G01*
Y156428D02*
G75*
G03X256376Y156518I-285J-153D01*
G01*
G75*
G03X256278Y156578I-218J-246*
G01*
G75*
G03X256141Y156611I-195J-502*
G01*
G75*
G03X255950Y156622I-193J-1739*
G01*
G75*
G03X255647Y156575J-1008*
G01*
G75*
G03X255467Y156436I100J-315*
G01*
G75*
G03X255375Y156168I522J-330*
G01*
G75*
G03X255350Y155672I4974J-493*
G01*
G75*
G03X255374Y155190I4794J-2*
G01*
G75*
G03X255463Y154917I682J69*
G01*
G75*
G03X255630Y154772I290J167*
G01*
G75*
G03X255898Y154722I268J681*
G01*
G75*
G03X256193Y154782I0J744*
G01*
G75*
G03X256396Y154952I-185J429*
G01*
G75*
G03X256514Y155251I-631J420*
G01*
G75*
G03X256550Y155700I-2759J451*
G01*
G75*
G03X256543Y155919I-3144J-4*
G01*
G75*
G03X256520Y156135I-3018J-210*
G01*
G75*
G03X256487Y156319I-2585J-368*
G01*
G75*
G03X256447Y156428I-408J-88*
G01*
X256489Y97663D02*
G75*
G03X256396Y97781I-234J-89D01*
G01*
G75*
G03X256316Y97754I-30J-44*
G01*
G75*
G03X256263Y97484I927J-320*
G01*
G75*
G03X256250Y96972I9994J-510*
G01*
G75*
G03X256264Y96475I9096J-4*
G01*
G75*
G03X256316Y96195I1108J61*
G01*
G75*
G03X256394Y96157I57J18*
G01*
G75*
G03X256484Y96246I-59J149*
G01*
G75*
G03X256530Y96457I-589J238*
G01*
G75*
G03X256541Y96953I-13046J548*
G01*
G75*
G03X256533Y97448I-12867J53*
G01*
G75*
G03X256489Y97663I-666J-24*
G01*
Y118363D02*
G75*
G03X256396Y118481I-234J-89D01*
G01*
G75*
G03X256316Y118454I-30J-44*
G01*
G75*
G03X256263Y118184I927J-320*
G01*
G75*
G03X256250Y117672I9994J-510*
G01*
G75*
G03X256259Y117165I13865J-6*
G01*
G75*
G03X256300Y116920I981J36*
G01*
G75*
G03X256377Y116853I91J28*
G01*
G75*
G03X256483Y116888I19J123*
G01*
G75*
G03X256539Y117017I-134J134*
G01*
G75*
G03X256548Y117577I-21537J643*
G01*
G75*
G03X256539Y118119I-13092J52*
G01*
G75*
G03X256489Y118363I-761J-28*
G01*
Y142163D02*
G75*
G03X256396Y142281I-234J-89D01*
G01*
G75*
G03X256316Y142254I-30J-44*
G01*
G75*
G03X256263Y141984I927J-320*
G01*
G75*
G03X256250Y141472I9994J-510*
G01*
G75*
G03X256264Y140975I9096J-4*
G01*
G75*
G03X256316Y140695I1108J61*
G01*
G75*
G03X256394Y140657I57J18*
G01*
G75*
G03X256484Y140746I-59J149*
G01*
G75*
G03X256530Y140957I-589J238*
G01*
G75*
G03X256541Y141453I-13046J548*
G01*
G75*
G03X256533Y141948I-12867J53*
G01*
G75*
G03X256489Y142163I-666J-24*
G01*
X256604Y147493D02*
G75*
G03X256281Y147679I-648J-754D01*
G01*
G75*
G03X255914Y147731I-316J-914*
G01*
G75*
G03X255549Y147641I52J-994*
G01*
G75*
G03X255234Y147420I459J-994*
G01*
X254933Y147119*
X254967Y146031*
G75*
G03X255017Y145248I11751J364*
G01*
G75*
G03X255131Y144822I1344J131*
G01*
G75*
G03X255334Y144603I432J196*
G01*
G75*
G03X255972Y144606I316J574*
G01*
G75*
G03X256174Y144832I-230J410*
G01*
G75*
G03X256285Y145280I-1354J572*
G01*
G75*
G03X256334Y146137I-14973J1283*
G01*
G75*
G02X256358Y146824I47959J-1335*
G01*
G75*
G02X256390Y147124I2360J-99*
G01*
G75*
G02X256444Y147263I367J-63*
G01*
G75*
G02X256534Y147301I73J-47*
G01*
G75*
G02X256613Y147259I-27J-146*
G01*
G75*
G02X256670Y147170I-192J-185*
G01*
G75*
G02X256708Y147023I-604J-235*
G01*
G75*
G02X256731Y146796I-3115J-428*
G01*
G75*
G03X256750Y146614I2147J136*
G01*
G75*
G03X256784Y146461I1158J176*
G01*
G75*
G03X256825Y146350I787J230*
G01*
G75*
G03X256869Y146322I43J20*
G01*
G75*
G03X256911Y146351J46*
G01*
G75*
G03X256935Y146444I-348J136*
G01*
G75*
G03X256939Y146591I-894J102*
G01*
G75*
G03X256923Y146793I-3199J-153*
G01*
G75*
G03X256883Y147028I-2148J-244*
G01*
G75*
G03X256822Y147210I-917J-207*
G01*
G75*
G03X256731Y147359I-682J-311*
G01*
G75*
G03X256604Y147493I-733J-569*
G01*
X256605Y116526D02*
G75*
G02X256536Y116482I-204J246D01*
G01*
G75*
G02X256450Y116450I-220J469*
G01*
G75*
G02X256359Y116435I-131J494*
G01*
G75*
G02X256280Y116440I-22J296*
G01*
G75*
G02X256183Y116509I27J140*
G01*
G75*
G02X256130Y116665I389J221*
G01*
G75*
G02X256105Y116970I2326J340*
G01*
G75*
G02X256100Y117672I48517J678*
G01*
G75*
G02X256105Y118395I53707J11*
G01*
G75*
G02X256130Y118690I2084J-27*
G01*
G75*
G02X256188Y118836I356J-56*
G01*
G75*
G02X256294Y118906I137J-93*
G01*
G75*
G02X256506Y118862I53J-278*
G01*
G75*
G02X256651Y118674I-214J-315*
G01*
G75*
G02X256729Y118289I-1340J-473*
G01*
G75*
G02X256750Y117615I-10870J-680*
G01*
G75*
G02X256743Y117138I-16181J2*
G01*
G75*
G02X256719Y116832I-2981J87*
G01*
G75*
G02X256675Y116632I-1283J173*
G01*
G75*
G02X256605Y116526I-211J63*
G01*
Y140326D02*
G75*
G02X256536Y140282I-204J246D01*
G01*
G75*
G02X256450Y140250I-220J469*
G01*
G75*
G02X256359Y140235I-131J494*
G01*
G75*
G02X256280Y140240I-22J296*
G01*
G75*
G02X256183Y140309I27J140*
G01*
G75*
G02X256130Y140465I389J221*
G01*
G75*
G02X256105Y140770I2326J340*
G01*
G75*
G02X256100Y141472I48517J678*
G01*
G75*
G02X256105Y142195I53707J11*
G01*
G75*
G02X256130Y142490I2084J-27*
G01*
G75*
G02X256188Y142636I356J-56*
G01*
G75*
G02X256294Y142706I137J-93*
G01*
G75*
G02X256506Y142662I53J-278*
G01*
G75*
G02X256651Y142474I-214J-315*
G01*
G75*
G02X256729Y142089I-1340J-473*
G01*
G75*
G02X256750Y141415I-10870J-680*
G01*
G75*
G02X256743Y140938I-16181J2*
G01*
G75*
G02X256719Y140632I-2981J87*
G01*
G75*
G02X256675Y140432I-1283J173*
G01*
G75*
G02X256605Y140326I-211J63*
G01*
X256620Y125880D02*
G75*
G03X256233Y126084I-640J-745D01*
G01*
G75*
G03X255788Y126106I-274J-1022*
G01*
G75*
G03X255382Y125944I164J-998*
G01*
G75*
G03X255105Y125631I481J-705*
G01*
G75*
G03X254992Y125255I948J-491*
G01*
G75*
G03X254952Y124607I7123J-767*
G01*
G75*
G03X254970Y123957I7117J-123*
G01*
G75*
G03X255070Y123569I1139J85*
G01*
G75*
G03X255287Y123280I760J346*
G01*
G75*
G03X255618Y123093I648J760*
G01*
G75*
G03X256003Y123039I336J1000*
G01*
G75*
G03X256377Y123129I-48J1015*
G01*
G75*
G03X256662Y123330I-387J852*
G01*
G75*
G03X256836Y123613I-557J538*
G01*
G75*
G03X256920Y124037I-1448J507*
G01*
G75*
G03X256928Y124705I-8074J429*
G01*
G75*
G03X256904Y125281I-23668J-698*
G01*
G75*
G03X256863Y125539I-1286J-69*
G01*
G75*
G03X256780Y125709I-470J-124*
G01*
G75*
G03X256620Y125880I-885J-669*
G01*
Y156980D02*
G75*
G03X256471Y157088I-710J-826D01*
G01*
G75*
G03X256313Y157163I-463J-769*
G01*
G75*
G03X256141Y157207I-313J-869*
G01*
G75*
G03X255950Y157222I-193J-1230*
G01*
G75*
G03X255759Y157207I2J-1247*
G01*
G75*
G03X255588Y157163I141J-913*
G01*
G75*
G03X255430Y157088I304J-844*
G01*
G75*
G03X255281Y156980I561J-934*
G01*
G75*
G03X255120Y156809I715J-831*
G01*
G75*
G03X255036Y156637I399J-301*
G01*
G75*
G03X254994Y156376I1278J-341*
G01*
G75*
G03X254966Y155799I23639J-1433*
G01*
G75*
G03X254952Y155213I24263J-880*
G01*
G75*
G03X254975Y154946I1371J-15*
G01*
G75*
G03X255047Y154756I572J106*
G01*
G75*
G03X255200Y154540I1389J822*
G01*
G75*
G03X255365Y154368I1446J1218*
G01*
G75*
G03X255505Y154277I332J359*
G01*
G75*
G03X255677Y154234I223J526*
G01*
G75*
G03X255950Y154222I272J3022*
G01*
G75*
G03X256224Y154234I2J3030*
G01*
G75*
G03X256395Y154277I-51J569*
G01*
G75*
G03X256536Y154368I-192J450*
G01*
G75*
G03X256700Y154540I-1281J1390*
G01*
G75*
G03X256854Y154756I-1236J1038*
G01*
G75*
G03X256925Y154946I-501J297*
G01*
G75*
G03X256948Y155213I-1348J252*
G01*
G75*
G03X256934Y155799I-24277J-295*
G01*
G75*
G03X256906Y156376I-23667J-856*
G01*
G75*
G03X256864Y156637I-1320J-80*
G01*
G75*
G03X256780Y156809I-483J-128*
G01*
G75*
G03X256620Y156980I-876J-660*
G01*
X256642Y154696D02*
G75*
G02X256561Y154611I-217J126D01*
G01*
G75*
G02X256437Y154558I-225J353*
G01*
G75*
G02X256249Y154530I-243J957*
G01*
G75*
G02X255949Y154522I-296J5577*
G01*
G75*
G02X255492Y154562I0J2587*
G01*
G75*
G02X255274Y154704I59J329*
G01*
G75*
G02X255172Y155002I498J335*
G01*
G75*
G02X255150Y155707I11195J703*
G01*
G75*
G02X255165Y156442I18315J5*
G01*
G75*
G02X255248Y156685I447J-18*
G01*
G75*
G02X255441Y156796I220J-157*
G01*
G75*
G02X255950Y156822I510J-5064*
G01*
G75*
G02X256294Y156815I-1J-8400*
G01*
G75*
G02X256500Y156789I-50J-1220*
G01*
G75*
G02X256624Y156740I-90J-414*
G01*
G75*
G02X256689Y156663I-76J-131*
G01*
G75*
G02X256748Y156361I-821J-315*
G01*
G75*
G02X256744Y155654I-18252J-273*
G01*
G75*
G02X256715Y154939I-21459J518*
G01*
G75*
G02X256642Y154696I-544J31*
G01*
X256644Y102978D02*
G75*
G03X256341Y103172I-536J-504D01*
G01*
G75*
G03X255928Y103239I-412J-1233*
G01*
G75*
G03X255511Y103171I2J-1327*
G01*
G75*
G03X255196Y102976I254J-765*
G01*
G75*
G03X255058Y102798I636J-636*
G01*
G75*
G03X254987Y102611I500J-296*
G01*
G75*
G03X254957Y102321I1711J-326*
G01*
G75*
G03X254950Y101684I31210J-627*
G01*
G75*
G03X254957Y101045I29203J-13*
G01*
G75*
G03X254989Y100747I1799J39*
G01*
G75*
G03X255063Y100542I680J131*
G01*
G75*
G03X255209Y100329I1165J644*
G01*
G75*
G03X255322Y100211I987J831*
G01*
G75*
G03X255445Y100112I793J858*
G01*
G75*
G03X255563Y100042I539J774*
G01*
G75*
G03X255650Y100022I87J176*
G01*
G75*
G03X255738Y100042I0J195*
G01*
G75*
G03X255855Y100112I-422J844*
G01*
G75*
G03X255979Y100211I-670J958*
G01*
G75*
G03X256091Y100329I-874J949*
G01*
G75*
G03X256238Y100543I-1005J847*
G01*
G75*
G03X256312Y100751I-611J335*
G01*
G75*
G03X256343Y101056I-1850J343*
G01*
G75*
G03X256350Y101723I-32739J681*
G01*
G75*
G02X256357Y102189I15731J7*
G01*
G75*
G02X256380Y102543I5341J-161*
G01*
G75*
G02X256412Y102804I4522J-433*
G01*
G75*
G02X256461Y102878I106J-16*
G01*
G75*
G02X256571Y102882I58J-94*
G01*
G75*
G02X256665Y102787I-100J-192*
G01*
G75*
G02X256728Y102585I-596J-298*
G01*
G75*
G02X256749Y102302I-2022J-291*
G01*
G75*
G03X256758Y102156I1281J6*
G01*
G75*
G03X256783Y102021I980J116*
G01*
G75*
G03X256820Y101914I733J193*
G01*
G75*
G03X256865Y101862I104J45*
G01*
G75*
G03X256963Y101916I34J55*
G01*
G75*
G03X256930Y102270I-1724J19*
G01*
G75*
G03X256810Y102707I-3004J-593*
G01*
G75*
G03X256644Y102978I-732J-262*
G01*
X256651Y118936D02*
G75*
G03X256508Y119063I-1113J-1115D01*
G01*
G75*
G03X256370Y119150I-521J-665*
G01*
G75*
G03X256242Y119198I-267J-524*
G01*
G75*
G03X256126Y119204I-72J-300*
G01*
G75*
G03X255997Y119136I31J-217*
G01*
G75*
G03X255924Y118997I211J-198*
G01*
G75*
G03X255887Y118701I1889J-392*
G01*
G75*
G03X255850Y117872I74994J-3693*
G01*
G75*
G02X255815Y117098I-59069J2286*
G01*
G75*
G02X255778Y116774I-2541J131*
G01*
G75*
G02X255715Y116611I-459J83*
G01*
G75*
G02X255607Y116537I-139J86*
G01*
G75*
G02X255428Y116563I-51J270*
G01*
G75*
G02X255280Y116698I183J350*
G01*
G75*
G02X255182Y116933I584J379*
G01*
G75*
G02X255150Y117241I1456J306*
G01*
G75*
G03X255142Y117390I-1402J-3*
G01*
G75*
G03X255118Y117512I-684J-73*
G01*
G75*
G03X255082Y117596I-374J-109*
G01*
G75*
G03X254991Y117590I-44J-25*
G01*
G75*
G03X254965Y117493I346J-143*
G01*
G75*
G03X254959Y117333I983J-121*
G01*
G75*
G03X254975Y117102I4204J178*
G01*
G75*
G03X255072Y116671I1756J167*
G01*
G75*
G03X255267Y116365I779J282*
G01*
G75*
G03X255565Y116184I526J531*
G01*
G75*
G03X255963Y116122I398J1241*
G01*
G75*
G03X256175Y116137I0J1499*
G01*
G75*
G03X256343Y116183I-95J672*
G01*
G75*
G03X256494Y116270I-269J640*
G01*
G75*
G03X256658Y116414I-986J1292*
G01*
G75*
G03X256828Y116616I-1094J1094*
G01*
G75*
G03X256910Y116798I-426J301*
G01*
G75*
G03X256943Y117062I-1259J292*
G01*
G75*
G03X256950Y117672I-26935J618*
G01*
G75*
G03X256943Y118285I-27207J-8*
G01*
G75*
G03X256910Y118547I-1261J-28*
G01*
G75*
G03X256827Y118729I-503J-119*
G01*
G75*
G03X256651Y118936I-1355J-973*
G01*
Y142736D02*
G75*
G03X256508Y142863I-1113J-1115D01*
G01*
G75*
G03X256370Y142950I-521J-665*
G01*
G75*
G03X256242Y142998I-267J-524*
G01*
G75*
G03X256126Y143004I-72J-300*
G01*
G75*
G03X255997Y142936I31J-217*
G01*
G75*
G03X255924Y142797I211J-198*
G01*
G75*
G03X255887Y142501I1889J-392*
G01*
G75*
G03X255850Y141672I74994J-3693*
G01*
G75*
G02X255815Y140898I-59069J2286*
G01*
G75*
G02X255778Y140574I-2541J131*
G01*
G75*
G02X255715Y140411I-459J83*
G01*
G75*
G02X255607Y140337I-139J86*
G01*
G75*
G02X255428Y140363I-51J270*
G01*
G75*
G02X255280Y140498I183J350*
G01*
G75*
G02X255182Y140733I584J379*
G01*
G75*
G02X255150Y141041I1456J306*
G01*
G75*
G03X255142Y141190I-1402J-3*
G01*
G75*
G03X255118Y141312I-684J-73*
G01*
G75*
G03X255082Y141396I-374J-109*
G01*
G75*
G03X255037Y141422I-44J-26*
G01*
G75*
G03X254931Y141313I0J-106*
G01*
G75*
G03X254971Y140897I2740J49*
G01*
G75*
G03X255085Y140448I2902J498*
G01*
G75*
G03X255253Y140168I731J248*
G01*
G75*
G03X255556Y139967I580J545*
G01*
G75*
G03X255938Y139905I349J942*
G01*
G75*
G03X256329Y139991I-35J1084*
G01*
G75*
G03X256658Y140214I-411J962*
G01*
G75*
G03X256828Y140416I-1094J1094*
G01*
G75*
G03X256910Y140598I-426J301*
G01*
G75*
G03X256943Y140862I-1259J292*
G01*
G75*
G03X256950Y141472I-26935J618*
G01*
G75*
G03X256943Y142085I-27207J-8*
G01*
G75*
G03X256910Y142347I-1261J-28*
G01*
G75*
G03X256827Y142529I-503J-119*
G01*
G75*
G03X256651Y142736I-1355J-973*
G01*
X256662Y95938D02*
G75*
G02X256613Y95889I-128J80D01*
G01*
G75*
G02X256532Y95853I-188J313*
G01*
G75*
G02X256437Y95835I-131J424*
G01*
G75*
G02X256339Y95838I-35J443*
G01*
G75*
G02X256202Y95898I39J274*
G01*
G75*
G02X256131Y96016I130J158*
G01*
G75*
G02X256105Y96267I1324J266*
G01*
G75*
G02X256100Y97020I65246J752*
G01*
G75*
G02X256105Y97712I48394J15*
G01*
G75*
G02X256130Y97996I1938J-29*
G01*
G75*
G02X256188Y98138I337J-55*
G01*
G75*
G02X256294Y98206I137J-97*
G01*
G75*
G02X256504Y98164I54J-278*
G01*
G75*
G02X256648Y97981I-208J-312*
G01*
G75*
G02X256728Y97610I-1241J-460*
G01*
G75*
G02X256749Y96977I-9211J-620*
G01*
G75*
G02X256742Y96620I-10324J27*
G01*
G75*
G02X256723Y96298I-6924J245*
G01*
G75*
G02X256696Y96032I-7573J637*
G01*
G75*
G02X256662Y95938I-224J27*
G01*
X256665Y89541D02*
G75*
G02X256589Y89483I-118J75D01*
G01*
G75*
G02X256438Y89450I-260J805*
G01*
G75*
G02X256214Y89435I-230J1757*
G01*
G75*
G02X255891Y89441I-12J7191*
G01*
X255200Y89472*
X255172Y90446*
G75*
G02X255169Y91274I16259J476*
G01*
G75*
G02X255260Y91612I730J-16*
G01*
G75*
G02X255478Y91773I286J-159*
G01*
G75*
G02X255934Y91822I457J-2135*
G01*
G75*
G02X256163Y91813I-4J-2999*
G01*
G75*
G02X256376Y91786I-174J-2274*
G01*
G75*
G02X256550Y91748I-330J-1913*
G01*
G75*
G02X256630Y91702I-46J-174*
G01*
G75*
G02X256722Y91492I-224J-224*
G01*
G75*
G02X256749Y90648I-28021J-1298*
G01*
G75*
G02X256747Y89815I-23146J-373*
G01*
G75*
G02X256665Y89541I-531J11*
G01*
X256684Y123546D02*
G75*
G02X256517Y123426I-180J72D01*
G01*
G75*
G02X255946Y123412I-432J6259*
G01*
G75*
G02X255376Y123451I141J6246*
G01*
G75*
G02X255211Y123580I23J200*
G01*
G75*
G02X255152Y123883I834J320*
G01*
G75*
G02X255153Y124574I16979J326*
G01*
G75*
G02X255181Y125270I19056J-428*
G01*
G75*
G02X255254Y125528I622J-36*
G01*
G75*
G02X255338Y125626I267J-143*
G01*
G75*
G02X255458Y125685I207J-274*
G01*
G75*
G02X255651Y125714I233J-891*
G01*
G75*
G02X255993Y125722I349J-7743*
G01*
G75*
G02X256312Y125714I-5J-7014*
G01*
G75*
G02X256507Y125688I-50J-1106*
G01*
G75*
G02X256626Y125640I-88J-389*
G01*
G75*
G02X256689Y125563I-80J-131*
G01*
G75*
G02X256736Y125324I-652J-251*
G01*
G75*
G02X256741Y124552I-40691J-656*
G01*
G75*
G02X256732Y123779I-41680J102*
G01*
G75*
G02X256684Y123546I-659J15*
G01*
X256687Y98219D02*
G75*
G03X256548Y98365I-1312J-1103D01*
G01*
G75*
G03X256424Y98455I-406J-432*
G01*
G75*
G03X256299Y98498I-194J-360*
G01*
G75*
G03X256162Y98502I-82J-475*
G01*
X255900Y98472*
X255850Y97172*
G75*
G02X255815Y96398I-59069J2286*
G01*
G75*
G02X255778Y96074I-2541J131*
G01*
G75*
G02X255715Y95911I-459J83*
G01*
G75*
G02X255607Y95837I-139J86*
G01*
G75*
G02X255428Y95863I-51J270*
G01*
G75*
G02X255280Y95998I183J350*
G01*
G75*
G02X255182Y96233I584J379*
G01*
G75*
G02X255150Y96541I1456J306*
G01*
G75*
G03X255143Y96687I-1475J-2*
G01*
G75*
G03X255121Y96809I-789J-78*
G01*
G75*
G03X255089Y96897I-481J-126*
G01*
G75*
G03X255011Y96896I-39J-18*
G01*
G75*
G03X254980Y96801I543J-235*
G01*
G75*
G03X254957Y96669I889J-216*
G01*
G75*
G03X254950Y96511I1702J-156*
G01*
G75*
G03X255031Y96124I964J0*
G01*
G75*
G03X255265Y95765I1198J526*
G01*
G75*
G03X255595Y95510I910J835*
G01*
G75*
G03X255950Y95422I355J668*
G01*
G75*
G03X256118Y95441I0J717*
G01*
G75*
G03X256275Y95500I-163J680*
G01*
G75*
G03X256434Y95604I-431J836*
G01*
G75*
G03X256610Y95761I-1387J1723*
G01*
G75*
G03X256815Y95993I-1815J1815*
G01*
G75*
G03X256906Y96174I-404J316*
G01*
G75*
G03X256943Y96421I-999J274*
G01*
G75*
G03X256950Y97004I-22799J584*
G01*
G75*
G03X256943Y97543I-18514J-1*
G01*
G75*
G03X256909Y97815I-1489J-45*
G01*
G75*
G03X256833Y98010I-661J-143*
G01*
G75*
G03X256687Y98219I-1266J-733*
G01*
X256710Y161511D02*
G75*
G03X256576Y161620I-428J-389D01*
G01*
G75*
G03X256419Y161683I-278J-468*
G01*
G75*
G03X256188Y161713I-282J-1239*
G01*
G75*
G03X255785Y161722I-409J-10135*
G01*
G75*
G03X255404Y161715I9J-12080*
G01*
G75*
G03X255198Y161691I38J-1221*
G01*
G75*
G03X255089Y161645I60J-291*
G01*
G75*
G03X255091Y161497I50J-74*
G01*
G75*
G03X255207Y161451I177J279*
G01*
G75*
G03X255426Y161427I260J1364*
G01*
G75*
G03X255839Y161422I400J14487*
G01*
G75*
G02X256248Y161415I-3J-12678*
G01*
G75*
G02X256482Y161389I-52J-1549*
G01*
G75*
G02X256619Y161342I-89J-482*
G01*
G75*
G02X256689Y161263I-69J-132*
G01*
G75*
G02X256740Y161005I-717J-275*
G01*
G75*
G02X256749Y160222I-36471J-795*
G01*
G75*
G02X256740Y159438I-36498J12*
G01*
G75*
G02X256689Y159180I-768J17*
G01*
G75*
G02X256619Y159101I-139J53*
G01*
G75*
G02X256482Y159054I-226J435*
G01*
G75*
G02X256248Y159028I-285J1523*
G01*
G75*
G02X255839Y159022I-400J12671*
G01*
G75*
G03X255426Y159016I1J-14492*
G01*
G75*
G03X255207Y158992I41J-1388*
G01*
G75*
G03X255091Y158946I62J-325*
G01*
G75*
G03X255050Y158872I47J-74*
G01*
G75*
G03X255088Y158798I91J0*
G01*
G75*
G03X255193Y158752I162J228*
G01*
G75*
G03X255391Y158728I237J1111*
G01*
G75*
G03X255755Y158722I358J10857*
G01*
G75*
G03X256159Y158730I3J9272*
G01*
G75*
G03X256383Y158765I-46J1053*
G01*
G75*
G03X256547Y158839I-139J526*
G01*
G75*
G03X256714Y158976I-622J926*
G01*
G75*
G03X256859Y159159I-736J737*
G01*
G75*
G03X256928Y159339I-420J263*
G01*
G75*
G03X256950Y159613I-1481J255*
G01*
G75*
G03X256934Y160266I-34862J-493*
G01*
G75*
G03X256909Y160818I-20562J-676*
G01*
G75*
G03X256870Y161141I-2742J-163*
G01*
G75*
G03X256808Y161354I-1054J-191*
G01*
G75*
G03X256710Y161511I-493J-200*
G01*
X256850Y114722D02*
G75*
G03X256812Y114701I0J-46D01*
G01*
G75*
G03X256780Y114636I234J-157*
G01*
G75*
G03X256757Y114541I460J-157*
G01*
G75*
G03X256750Y114430I855J-110*
G01*
G75*
G02X256721Y114074I-2202J1*
G01*
G75*
G02X256616Y113911I-240J40*
G01*
G75*
G02X256394Y113837I-246J369*
G01*
G75*
G02X255839Y113822I-554J9989*
G01*
G75*
G03X255426Y113816I1J-14492*
G01*
G75*
G03X255207Y113792I41J-1388*
G01*
G75*
G03X255091Y113746I62J-325*
G01*
G75*
G03X255050Y113672I47J-74*
G01*
G75*
G03X255088Y113598I91J0*
G01*
G75*
G03X255193Y113552I162J228*
G01*
G75*
G03X255391Y113528I237J1111*
G01*
G75*
G03X255755Y113522I358J10857*
G01*
G75*
G03X256155Y113530I2J9148*
G01*
G75*
G03X256380Y113564I-47J1090*
G01*
G75*
G03X256543Y113636I-138J534*
G01*
G75*
G03X256705Y113767I-548J840*
G01*
G75*
G03X256860Y114003I-493J493*
G01*
G75*
G03X256950Y114338I-1430J567*
G01*
G75*
G03X256956Y114628I-1080J164*
G01*
G75*
G03X256850Y114722I-106J-12*
G01*
Y138522D02*
G75*
G03X256812Y138501I0J-46D01*
G01*
G75*
G03X256780Y138436I234J-157*
G01*
G75*
G03X256757Y138341I460J-157*
G01*
G75*
G03X256750Y138230I855J-110*
G01*
G75*
G02X256721Y137874I-2202J1*
G01*
G75*
G02X256616Y137711I-240J40*
G01*
G75*
G02X256394Y137637I-246J369*
G01*
G75*
G02X255839Y137622I-554J9989*
G01*
G75*
G03X255426Y137616I1J-14492*
G01*
G75*
G03X255207Y137592I41J-1388*
G01*
G75*
G03X255091Y137546I62J-325*
G01*
G75*
G03X255050Y137472I47J-74*
G01*
G75*
G03X255088Y137398I91J0*
G01*
G75*
G03X255193Y137352I162J228*
G01*
G75*
G03X255391Y137328I237J1111*
G01*
G75*
G03X255755Y137322I358J10857*
G01*
G75*
G03X256155Y137330I2J9148*
G01*
G75*
G03X256380Y137364I-47J1090*
G01*
G75*
G03X256543Y137436I-138J534*
G01*
G75*
G03X256705Y137567I-548J840*
G01*
G75*
G03X256860Y137803I-493J493*
G01*
G75*
G03X256950Y138138I-1430J567*
G01*
G75*
G03X256956Y138428I-1080J164*
G01*
G75*
G03X256850Y138522I-106J-12*
G01*
X256856Y106022D02*
G75*
G03X256817Y105995J-42D01*
G01*
G75*
G03X256780Y105882I928J-367*
G01*
G75*
G03X256749Y105729I1271J-335*
G01*
G75*
G03X256731Y105547I2425J-339*
G01*
G75*
G02X256707Y105304I-3621J234*
G01*
G75*
G02X256667Y105162I-520J68*
G01*
G75*
G02X256603Y105080I-193J85*
G01*
G75*
G02X256507Y105037I-138J179*
G01*
G75*
G02X256301Y105076I-53J278*
G01*
G75*
G02X256156Y105250I202J315*
G01*
G75*
G02X256074Y105596I1089J443*
G01*
G75*
G02X256050Y106159I6787J562*
G01*
G75*
G03X256042Y106604I-12293J-6*
G01*
G75*
G03X256011Y106857I-1484J-54*
G01*
G75*
G03X255946Y107032I-637J-135*
G01*
G75*
G03X255833Y107190I-666J-360*
G01*
G75*
G03X255639Y107361I-1017J-956*
G01*
G75*
G03X255485Y107407I-143J-195*
G01*
G75*
G03X255336Y107347I12J-243*
G01*
G75*
G03X255157Y107158I944J-1072*
G01*
G75*
G03X255048Y106972I639J-502*
G01*
G75*
G03X254987Y106759I844J-359*
G01*
G75*
G03X254957Y106442I2365J-377*
G01*
G75*
G03X254950Y105858I23454J-577*
G01*
G75*
G03X254957Y105434I13751J-8*
G01*
G75*
G03X254978Y105106I5035J155*
G01*
G75*
G03X255007Y104859I5243J510*
G01*
G75*
G03X255093Y104858I43J6*
G01*
G75*
G03X255123Y105103I-5118J758*
G01*
G75*
G03X255144Y105428I-4919J485*
G01*
G75*
G03X255152Y105846I-13339J435*
G01*
G75*
G02X255159Y106249I13146J-30*
G01*
G75*
G02X255178Y106610I8556J-267*
G01*
G75*
G02X255204Y106909I10048J-750*
G01*
G75*
G02X255238Y107005I222J-24*
G01*
G75*
G02X255288Y107054I128J-80*
G01*
G75*
G02X255368Y107090I188J-313*
G01*
G75*
G02X255464Y107108I131J-424*
G01*
G75*
G02X255561Y107105I35J-443*
G01*
G75*
G02X255697Y107052I-43J-308*
G01*
G75*
G02X255773Y106947I-115J-163*
G01*
G75*
G02X255814Y106732I-934J-287*
G01*
G75*
G02X255850Y106166I-30134J-2234*
G01*
G75*
G03X255883Y105739I9952J546*
G01*
G75*
G03X255931Y105413I3534J349*
G01*
G75*
G03X255994Y105166I2074J401*
G01*
G75*
G03X256078Y104991I685J220*
G01*
G75*
G03X256231Y104800I1105J726*
G01*
G75*
G03X256365Y104736I152J146*
G01*
G75*
G03X256514Y104775I19J231*
G01*
G75*
G03X256719Y104939I-926J1370*
G01*
G75*
G03X256828Y105066I-552J585*
G01*
G75*
G03X256899Y105204I-479J334*
G01*
G75*
G03X256938Y105371I-707J251*
G01*
G75*
G03X256950Y105589I-1928J221*
G01*
G75*
G03X256943Y105755I-2015J-3*
G01*
G75*
G03X256922Y105894I-1061J-87*
G01*
G75*
G03X256893Y105996I-719J-156*
G01*
G75*
G03X256856Y106022I-37J-14*
G01*
X256859Y91550D02*
G75*
G03X256718Y91821I-1256J-479D01*
G01*
G75*
G03X256540Y91995I-506J-339*
G01*
G75*
G03X256300Y92089I-361J-564*
G01*
G75*
G03X255968Y92118I-319J-1755*
G01*
G75*
G03X255457Y92030I11J-1581*
G01*
G75*
G03X255150Y91779I192J-548*
G01*
G75*
G03X254992Y91298I990J-591*
G01*
G75*
G03X254950Y90413I9289J-881*
G01*
G75*
G02X254945Y89839I-30328J5*
G01*
G75*
G02X254915Y89624I-925J18*
G01*
G75*
G02X254841Y89506I-224J58*
G01*
G75*
G02X254692Y89419I-331J391*
G01*
G75*
G03X254596Y89372I209J-549*
G01*
G75*
G03X254522Y89313I193J-320*
G01*
G75*
G03X254479Y89251I166J-161*
G01*
G75*
G03X254476Y89196I67J-31*
G01*
G75*
G03X254539Y89137I85J29*
G01*
G75*
G03X254734Y89101I394J1576*
G01*
G75*
G03X255031Y89078I391J3134*
G01*
G75*
G03X255476Y89072I436J15096*
G01*
G75*
G03X256047Y89079I1J22907*
G01*
G75*
G03X256325Y89109I-39J1629*
G01*
G75*
G03X256512Y89180I-121J606*
G01*
G75*
G03X256693Y89314I-484J840*
G01*
G75*
G03X256837Y89483I-698J740*
G01*
G75*
G03X256911Y89653I-415J283*
G01*
G75*
G03X256943Y89904I-1241J285*
G01*
G75*
G03X256950Y90432I-19326J538*
G01*
G75*
G03X256943Y90785I-9284J-10*
G01*
G75*
G03X256923Y91122I-7699J-290*
G01*
G75*
G03X256894Y91406I-7023J-579*
G01*
G75*
G03X256859Y91550I-613J-74*
G01*
X256866Y123122D02*
G75*
G02X256681Y122960I-1324J1321D01*
G01*
G75*
G02X256522Y122874I-351J459*
G01*
G75*
G02X256327Y122833I-249J709*
G01*
G75*
G02X256013Y122822I-313J4296*
G01*
G75*
G02X255570Y122848I-2J3754*
G01*
G75*
G02X255244Y122931I149J1256*
G01*
G75*
G02X255015Y123076I288J711*
G01*
G75*
G02X254861Y123287I440J481*
G01*
G75*
G02X254818Y123439I481J220*
G01*
G75*
G02X254783Y123768I7883J1007*
G01*
G75*
G02X254758Y124161I8379J717*
G01*
G75*
G02X254750Y124581I10846J413*
G01*
G75*
G02X254792Y125577I11953J3*
G01*
G75*
G02X254966Y126033I874J-73*
G01*
G75*
G02X255330Y126255I465J-351*
G01*
G75*
G02X256064Y126320I744J-4233*
G01*
G75*
G02X256340Y126310I9J-3627*
G01*
G75*
G02X256553Y126278I-99J-1351*
G01*
G75*
G02X256722Y126219I-207J-870*
G01*
G75*
G02X256864Y126131I-285J-617*
G01*
G75*
G02X256998Y125976I-361J-446*
G01*
G75*
G02X257070Y125782I-514J-303*
G01*
G75*
G02X257107Y125454I-2281J-423*
G01*
G75*
G02X257133Y124681I-51897J-2158*
G01*
X257167Y123422*
X256866Y123122*
X256875Y146003D02*
G75*
G03X256715Y145961I67J-574D01*
G01*
G75*
G03X256630Y145879I64J-151*
G01*
G75*
G03X256584Y145714I489J-226*
G01*
G75*
G03X256541Y145280I15465J-1763*
G01*
G75*
G02X256455Y144746I-3668J316*
G01*
G75*
G02X256293Y144437I-686J162*
G01*
G75*
G02X256022Y144274I-400J361*
G01*
G75*
G02X255588Y144222I-433J1761*
G01*
G75*
G02X255335Y144233I-1J2685*
G01*
G75*
G02X255188Y144276I38J407*
G01*
G75*
G02X255075Y144368I159J311*
G01*
G75*
G02X254949Y144546I1285J1039*
G01*
G75*
G02X254844Y144776I901J549*
G01*
G75*
G02X254786Y145045I1409J448*
G01*
G75*
G02X254758Y145445I3919J475*
G01*
G75*
G02X254750Y146179I38465J759*
G01*
G75*
G02X254756Y146989I58617J6*
G01*
G75*
G02X254784Y147328I2488J-35*
G01*
G75*
G02X254851Y147533I637J-96*
G01*
G75*
G02X254981Y147704I578J-306*
G01*
G75*
G02X255135Y147816I528J-561*
G01*
G75*
G02X255305Y147881I313J-563*
G01*
G75*
G02X255541Y147913I295J-1294*
G01*
G75*
G02X255936Y147922I395J-9015*
G01*
G75*
G02X256349Y147913I-2J-9936*
G01*
G75*
G02X256578Y147880I-47J-1120*
G01*
G75*
G02X256742Y147807I-136J-534*
G01*
G75*
G02X256905Y147676I-543J-838*
G01*
G75*
G02X257035Y147515I-710J-710*
G01*
G75*
G02X257107Y147352I-463J-302*
G01*
G75*
G02X257141Y147128I-1046J-273*
G01*
G75*
G02X257150Y146733I-8861J-401*
G01*
G75*
G02X257145Y146280I-19263J8*
G01*
G75*
G02X257114Y146122I-478J11*
G01*
G75*
G02X257038Y146044I-126J48*
G01*
G75*
G02X256875Y146003I-235J592*
G01*
X256886Y101504D02*
G75*
G03X256719Y101464I81J-715D01*
G01*
G75*
G03X256633Y101389I54J-147*
G01*
G75*
G03X256588Y101240I383J-199*
G01*
G75*
G03X256550Y100857I11270J-1293*
G01*
G75*
G02X256469Y100339I-3545J289*
G01*
G75*
G02X256313Y100035I-683J159*
G01*
G75*
G02X256053Y99874I-393J344*
G01*
G75*
G02X255642Y99822I-409J1573*
G01*
G75*
G02X255382Y99833I-2J3025*
G01*
G75*
G02X255216Y99871I53J607*
G01*
G75*
G02X255087Y99949I154J403*
G01*
G75*
G02X254957Y100085I666J761*
G01*
G75*
G02X254845Y100283I602J474*
G01*
G75*
G02X254784Y100521I965J372*
G01*
G75*
G02X254757Y100897I3283J430*
G01*
G75*
G02X254750Y101666I46886J769*
G01*
G75*
G02X254777Y102767I22430J5*
G01*
G75*
G02X254915Y103179I804J-39*
G01*
G75*
G02X255223Y103371I371J-252*
G01*
G75*
G02X255939Y103422I716J-5060*
G01*
G75*
G02X256584Y103382J-5317*
G01*
G75*
G02X256899Y103232I-67J-546*
G01*
G75*
G02X257063Y102922I-389J-404*
G01*
G75*
G02X257134Y102270I-5503J-935*
G01*
X257171Y101537*
X256886Y101504*
X256894Y135683D02*
G75*
G03X256807Y135683I-44J-5D01*
G01*
G75*
G03X256777Y135398I7452J-917*
G01*
G75*
G03X256757Y135022I6516J-543*
G01*
G75*
G03X256750Y134530I18874J-488*
G01*
G75*
G02X256746Y134061I-24813J17*
G01*
G75*
G02X256732Y133641I-16138J304*
G01*
G75*
G02X256713Y133290I-20478J926*
G01*
G75*
G02X256689Y133180I-373J23*
G01*
G75*
G02X256624Y133103I-142J54*
G01*
G75*
G02X256500Y133054I-214J366*
G01*
G75*
G02X256294Y133028I-256J1194*
G01*
G75*
G02X255950Y133022I-335J8393*
G01*
G75*
G02X255606Y133028I-9J8409*
G01*
G75*
G02X255401Y133054I50J1220*
G01*
G75*
G02X255276Y133103I90J414*
G01*
G75*
G02X255211Y133180I76J131*
G01*
G75*
G02X255187Y133290I349J133*
G01*
G75*
G02X255168Y133641I20459J1277*
G01*
G75*
G02X255155Y134061I16124J724*
G01*
G75*
G02X255150Y134530I24808J464*
G01*
G75*
G03X255144Y135022I-18881J-10*
G01*
G75*
G03X255123Y135398I-6536J-167*
G01*
G75*
G03X255094Y135683I-7481J-632*
G01*
G75*
G03X255006Y135683I-44J-6*
G01*
G75*
G03X254977Y135387I8193J-957*
G01*
G75*
G03X254957Y134998I6986J-562*
G01*
G75*
G03X254950Y134485I20506J-508*
G01*
G75*
G03X254957Y133769I39133J-13*
G01*
G75*
G03X254985Y133411I3024J55*
G01*
G75*
G03X255046Y133180I987J137*
G01*
G75*
G03X255157Y132985I724J287*
G01*
G75*
G03X255294Y132843I783J616*
G01*
G75*
G03X255430Y132767I265J309*
G01*
G75*
G03X255617Y132731I228J686*
G01*
G75*
G03X255950Y132722I328J5939*
G01*
G75*
G03X256283Y132731I5J5941*
G01*
G75*
G03X256471Y132767I-41J722*
G01*
G75*
G03X256607Y132843I-129J386*
G01*
G75*
G03X256743Y132985I-647J758*
G01*
G75*
G03X256855Y133180I-613J481*
G01*
G75*
G03X256916Y133411I-926J368*
G01*
G75*
G03X256944Y133769I-2996J414*
G01*
G75*
G03X256950Y134485I-39127J724*
G01*
G75*
G03X256944Y134998I-20512J-11*
G01*
G75*
G03X256923Y135387I-7007J-172*
G01*
G75*
G03X256894Y135683I-8222J-662*
G01*
X256905Y139986D02*
G75*
G02X256746Y139843I-855J791D01*
G01*
G75*
G02X256592Y139766I-294J396*
G01*
G75*
G02X256384Y139731I-252J849*
G01*
G75*
G02X256013Y139722I-368J7455*
G01*
G75*
G02X255754Y139726I-6J7397*
G01*
G75*
G02X255509Y139740I209J5887*
G01*
G75*
G02X255304Y139759I425J5517*
G01*
G75*
G02X255205Y139783I45J402*
G01*
G75*
G02X255016Y139930I148J385*
G01*
G75*
G02X254872Y140208I930J659*
G01*
G75*
G02X254780Y140594I1750J620*
G01*
G75*
G02X254750Y141067I3715J472*
G01*
Y141722*
X255050*
G75*
G02X255224Y141710I-3J-1365*
G01*
G75*
G02X255303Y141668I-16J-126*
G01*
G75*
G02X255341Y141580I-117J-103*
G01*
G75*
G02X255350Y141380I-2211J-200*
G01*
G75*
G03X255364Y141110I2607J-2*
G01*
G75*
G03X255408Y140902I1030J107*
G01*
G75*
G03X255475Y140766I481J154*
G01*
G75*
G03X255561Y140722I86J61*
G01*
G75*
G03X255597Y140754J36*
G01*
G75*
G03X255624Y141089I-17085J1557*
G01*
G75*
G03X255644Y141492I-9052J644*
G01*
G75*
G03X255650Y141972I-17894J490*
G01*
Y143222*
X256137*
G75*
G02X256373Y143209I-1J-2317*
G01*
G75*
G02X256570Y143172I-122J-1195*
G01*
G75*
G02X256738Y143108I-253J-906*
G01*
G75*
G02X256887Y143014I-380J-766*
G01*
G75*
G02X257041Y142851I-467J-594*
G01*
G75*
G02X257116Y142668I-381J-264*
G01*
G75*
G02X257145Y142360I-1867J-330*
G01*
G75*
G02X257150Y141529I-66442J-856*
G01*
G75*
G02X257144Y140732I-54033J2*
G01*
G75*
G02X257115Y140395I-2367J35*
G01*
G75*
G02X257044Y140183I-677J108*
G01*
G75*
G02X256905Y139986I-817J431*
G01*
X256906Y104627D02*
G75*
G02X256765Y104513I-827J879D01*
G01*
G75*
G02X256640Y104455I-232J337*
G01*
G75*
G02X256499Y104440I-115J424*
G01*
G75*
G02X256306Y104464I88J1521*
G01*
G75*
G02X255993Y104598I143J766*
G01*
G75*
G02X255791Y104847I364J502*
G01*
G75*
G02X255681Y105260I1195J536*
G01*
G75*
G02X255650Y105925I7049J663*
G01*
G75*
G03X255644Y106320I-13604J-6*
G01*
G75*
G03X255622Y106550I-1754J-53*
G01*
G75*
G03X255585Y106671I-442J-70*
G01*
G75*
G03X255525Y106697I-44J-21*
G01*
G75*
G03X255465Y106631I29J-87*
G01*
G75*
G03X255423Y106411I2202J-531*
G01*
G75*
G03X255392Y106080I3927J-541*
G01*
G75*
G03X255372Y105588I18154J-987*
G01*
X255343Y104522*
X254750*
Y105849*
G75*
G02X254771Y106887I25626J4*
G01*
G75*
G02X254870Y107334I1294J-52*
G01*
G75*
G02X255089Y107547I359J-150*
G01*
G75*
G02X255491Y107622I402J-1042*
G01*
G75*
G02X255882Y107569I0J-1491*
G01*
G75*
G02X256106Y107409I-104J-383*
G01*
G75*
G02X256220Y107094I-567J-383*
G01*
G75*
G02X256250Y106497I-5922J-600*
G01*
G75*
G03X256255Y106194I10295J-4*
G01*
G75*
G03X256268Y105914I7646J225*
G01*
G75*
G03X256287Y105680I7622J498*
G01*
G75*
G03X256311Y105580I383J38*
G01*
G75*
G03X256395Y105442I412J158*
G01*
G75*
G03X256474Y105444I39J35*
G01*
G75*
G03X256535Y105587I-211J173*
G01*
G75*
G03X256550Y105872I-2564J285*
G01*
G75*
G02X256557Y106153I5796J3*
G01*
G75*
G02X256592Y106259I209J-10*
G01*
G75*
G02X256670Y106308I94J-63*
G01*
G75*
G02X256850Y106322I183J-1237*
G01*
X257150*
Y105589*
G75*
G02X257142Y105168I-10730J0*
G01*
G75*
G02X257109Y104941I-1097J44*
G01*
G75*
G02X257037Y104781I-493J126*
G01*
G75*
G02X256906Y104627I-757J510*
G01*
X256919Y113539D02*
G75*
G02X256753Y113422I-495J528D01*
G01*
G75*
G02X256563Y113358I-312J609*
G01*
G75*
G02X256276Y113328I-335J1850*
G01*
G75*
G02X255719Y113322I-542J21918*
G01*
X254750*
Y114022*
X255547*
G75*
G03X256113Y114044I2J6993*
G01*
G75*
G03X256380Y114139I-44J545*
G01*
G75*
G03X256511Y114336I-182J263*
G01*
G75*
G03X256550Y114715I-1785J379*
G01*
G75*
G02X256560Y114889I1491J2*
G01*
G75*
G02X256600Y114971I140J-17*
G01*
G75*
G02X256681Y115011I98J-96*
G01*
G75*
G02X256850Y115022I171J-1368*
G01*
X257150*
Y114389*
G75*
G02X257141Y114042I-6576J5*
G01*
G75*
G02X257107Y113833I-993J52*
G01*
G75*
G02X257039Y113681I-507J138*
G01*
G75*
G02X256919Y113539I-670J443*
G01*
Y158739D02*
G75*
G02X256753Y158622I-495J528D01*
G01*
G75*
G02X256563Y158558I-312J609*
G01*
G75*
G02X256276Y158528I-335J1850*
G01*
G75*
G02X255719Y158522I-542J21918*
G01*
X254750*
Y159222*
X255547*
G75*
G03X256149Y159249I4J6503*
G01*
G75*
G03X256403Y159369I-39J413*
G01*
G75*
G03X256522Y159622I-291J292*
G01*
G75*
G03X256550Y160222I-6394J603*
G01*
G75*
G03X256522Y160821I-6418J-3*
G01*
G75*
G03X256403Y161074I-410J-39*
G01*
G75*
G03X256149Y161194I-293J-293*
G01*
G75*
G03X255547Y161222I-602J-6476*
G01*
X254750*
Y161928*
X255822Y161900*
G75*
G02X256499Y161876I-1122J-41816*
G01*
G75*
G02X256763Y161841I-61J-1435*
G01*
G75*
G02X256910Y161765I-76J-331*
G01*
G75*
G02X257021Y161622I-315J-358*
G01*
G75*
G02X257076Y161449I-510J-258*
G01*
G75*
G02X257115Y161122I-5300J-791*
G01*
G75*
G02X257140Y160694I-7598J-669*
G01*
G75*
G02X257149Y160164I-17701J-554*
G01*
G75*
G02X257144Y159423I-46911J-46*
G01*
G75*
G02X257116Y159103I-2211J32*
G01*
G75*
G02X257049Y158907I-604J97*
G01*
G75*
G02X256919Y158739I-591J323*
G01*
X256940Y89062D02*
G75*
G02X256773Y88960I-349J386D01*
G01*
G75*
G02X256548Y88904I-356J950*
G01*
G75*
G02X256183Y88878I-423J3270*
G01*
G75*
G02X255465Y88872I-696J41018*
G01*
X254200*
Y89217*
G75*
G02X254211Y89401I1643J1*
G01*
G75*
G02X254248Y89508I257J-29*
G01*
G75*
G02X254321Y89575I152J-95*
G01*
G75*
G02X254450Y89621I269J-545*
G01*
G75*
G03X254595Y89695I-77J331*
G01*
G75*
G03X254674Y89822I-163J188*
G01*
G75*
G03X254713Y90080I-1331J335*
G01*
G75*
G03X254750Y90809I-55081J3188*
G01*
G75*
G02X254822Y91722I13140J-579*
G01*
G75*
G02X254983Y92098I712J-81*
G01*
G75*
G02X255303Y92275I387J-320*
G01*
G75*
G02X256004Y92322I701J-5266*
G01*
G75*
G02X256440Y92314I-3J-12267*
G01*
G75*
G02X256654Y92280I-33J-911*
G01*
G75*
G02X256799Y92205I-107J-384*
G01*
G75*
G02X256943Y92058I-602J-733*
G01*
G75*
G02X257055Y91862I-609J-478*
G01*
G75*
G02X257116Y91628I-942J-369*
G01*
G75*
G02X257144Y91262I-3117J-422*
G01*
G75*
G02X257150Y90524I-42333J-753*
G01*
G75*
G02X257144Y89763I-49954J8*
G01*
G75*
G02X257117Y89422I-2688J42*
G01*
G75*
G02X257056Y89218I-704J101*
G01*
G75*
G02X256940Y89062I-452J214*
G01*
X256943Y137385D02*
G75*
G02X256789Y137233I-668J524D01*
G01*
G75*
G02X256626Y137158I-252J333*
G01*
G75*
G02X256367Y137128I-285J1301*
G01*
G75*
G02X255743Y137122I-611J31644*
G01*
X254750*
Y137822*
X255547*
G75*
G03X256113Y137844I2J6993*
G01*
G75*
G03X256380Y137939I-44J545*
G01*
G75*
G03X256511Y138136I-182J263*
G01*
G75*
G03X256550Y138515I-1785J379*
G01*
G75*
G02X256560Y138689I1491J2*
G01*
G75*
G02X256600Y138771I140J-17*
G01*
G75*
G02X256681Y138811I98J-96*
G01*
G75*
G02X256850Y138822I171J-1368*
G01*
G75*
G02X257034Y138806I0J-1062*
G01*
G75*
G02X257113Y138748I-19J-107*
G01*
G75*
G02X257145Y138621I-263J-135*
G01*
G75*
G02X257150Y138235I-13707J-389*
G01*
G75*
G02X257139Y137938I-4139J5*
G01*
G75*
G02X257105Y137719I-1327J94*
G01*
G75*
G02X257042Y137543I-853J209*
G01*
G75*
G02X256943Y137385I-783J380*
G01*
Y154285D02*
G75*
G02X256797Y154137I-731J576D01*
G01*
G75*
G02X256649Y154061I-253J311*
G01*
G75*
G02X256427Y154029I-252J945*
G01*
G75*
G02X255958Y154022I-459J14850*
G01*
G75*
G02X255267Y154069I-2J5041*
G01*
G75*
G02X254965Y154252I62J444*
G01*
G75*
G02X254821Y154643I628J452*
G01*
G75*
G02X254767Y155678I20174J1578*
G01*
G75*
G02X254751Y156474I57844J1543*
G01*
G75*
G02X254772Y156784I1946J25*
G01*
G75*
G02X254841Y156979I533J-79*
G01*
G75*
G02X254987Y157168I819J-482*
G01*
G75*
G02X255154Y157305I778J-779*
G01*
G75*
G02X255318Y157379I303J-453*
G01*
G75*
G02X255544Y157413I270J-1031*
G01*
G75*
G02X255950Y157422I414J-9447*
G01*
G75*
G02X256353Y157413I-8J-9331*
G01*
G75*
G02X256580Y157379I-47J-1099*
G01*
G75*
G02X256743Y157307I-138J-533*
G01*
G75*
G02X256905Y157176I-547J-840*
G01*
G75*
G02X257044Y156993I-606J-606*
G01*
G75*
G02X257115Y156794I-531J-301*
G01*
G75*
G02X257144Y156479I-2042J-348*
G01*
G75*
G02X257150Y155739I-45769J-759*
G01*
G75*
G02X257144Y155054I-35161J0*
G01*
G75*
G02X257115Y154705I-2873J57*
G01*
G75*
G02X257054Y154478I-967J138*
G01*
G75*
G02X256943Y154285I-730J294*
G01*
X256994Y132744D02*
G75*
G02X256873Y132622I-400J280D01*
G01*
G75*
G02X256721Y132557I-239J344*
G01*
G75*
G02X256474Y132528I-281J1319*
G01*
G75*
G02X255950Y132522I-515J21064*
G01*
G75*
G02X255194Y132569I-1J6015*
G01*
G75*
G02X254896Y132762I51J405*
G01*
G75*
G02X254771Y133183I737J448*
G01*
G75*
G02X254750Y134494I40766J1304*
G01*
Y136022*
X255350*
Y134815*
G75*
G03X255358Y134339I15024J-2*
G01*
G75*
G03X255381Y133906I10292J326*
G01*
G75*
G03X255413Y133547I11123J820*
G01*
G75*
G03X255454Y133415I359J38*
G01*
G75*
G03X255525Y133325I285J153*
G01*
G75*
G03X255623Y133265I218J246*
G01*
G75*
G03X255760Y133232I195J502*
G01*
G75*
G03X255950Y133222I189J1743*
G01*
G75*
G03X256141Y133232I1J1749*
G01*
G75*
G03X256278Y133265I-58J535*
G01*
G75*
G03X256376Y133325I-120J306*
G01*
G75*
G03X256447Y133415I-213J243*
G01*
G75*
G03X256487Y133547I-319J170*
G01*
G75*
G03X256520Y133906I-11091J1179*
G01*
G75*
G03X256543Y134339I-10269J759*
G01*
G75*
G03X256550Y134815I-15017J487*
G01*
Y136022*
X257150*
Y134494*
G75*
G02X257144Y133696I-48752J11*
G01*
G75*
G02X257119Y133228I-6491J108*
G01*
G75*
G02X257074Y132926I-2525J225*
G01*
G75*
G02X256994Y132744I-487J103*
G01*
X257035Y116372D02*
G75*
G02X256981Y116286I-796J433D01*
G01*
G75*
G02X256911Y116193I-1284J900*
G01*
G75*
G02X256837Y116109I-1172J960*
G01*
G75*
G02X256769Y116046I-488J466*
G01*
G75*
G02X256562Y115962I-246J309*
G01*
G75*
G02X256034Y115925I-877J8720*
G01*
G75*
G02X255504Y115923I-298J7293*
G01*
G75*
G02X255205Y115983I30J919*
G01*
G75*
G02X255016Y116130I148J385*
G01*
G75*
G02X254872Y116408I930J659*
G01*
G75*
G02X254780Y116794I1750J620*
G01*
G75*
G02X254750Y117267I3715J472*
G01*
Y117922*
X255050*
G75*
G02X255224Y117910I-3J-1365*
G01*
G75*
G02X255303Y117868I-16J-126*
G01*
G75*
G02X255341Y117780I-117J-103*
G01*
G75*
G02X255350Y117580I-2211J-200*
G01*
G75*
G03X255364Y117310I2607J-2*
G01*
G75*
G03X255408Y117102I1030J107*
G01*
G75*
G03X255475Y116966I481J154*
G01*
G75*
G03X255561Y116922I86J61*
G01*
G75*
G03X255597Y116954J36*
G01*
G75*
G03X255624Y117289I-17085J1557*
G01*
G75*
G03X255644Y117692I-9052J644*
G01*
G75*
G03X255650Y118172I-17894J490*
G01*
Y119422*
X256155*
G75*
G02X256421Y119410I-4J-3109*
G01*
G75*
G02X256607Y119372I-70J-822*
G01*
G75*
G02X256757Y119298I-184J-565*
G01*
G75*
G02X256905Y119176I-579J-848*
G01*
G75*
G02X257044Y118993I-610J-610*
G01*
G75*
G02X257115Y118796I-522J-298*
G01*
G75*
G02X257143Y118484I-2002J-339*
G01*
G75*
G02X257147Y117751I-44894J-632*
G01*
G75*
G02X257138Y117280I-14162J36*
G01*
G75*
G02X257113Y116856I-9344J334*
G01*
G75*
G02X257078Y116508I-9422J773*
G01*
G75*
G02X257035Y116372I-374J45*
G01*
X257051Y95757D02*
G75*
G02X256898Y95518I-706J285D01*
G01*
G75*
G02X256667Y95351I-563J534*
G01*
G75*
G02X256345Y95253I-491J1035*
G01*
G75*
G02X255920Y95222I-422J2852*
G01*
G75*
G02X255586Y95232I-2J5202*
G01*
G75*
G02X255385Y95271I50J796*
G01*
G75*
G02X255225Y95356I178J533*
G01*
G75*
G02X255043Y95514I1034J1375*
G01*
G75*
G02X254879Y95704I1193J1193*
G01*
G75*
G02X254796Y95871I428J317*
G01*
G75*
G02X254759Y96093I895J262*
G01*
G75*
G02X254750Y96514I9806J412*
G01*
Y97222*
X255050*
G75*
G02X255227Y97209I-3J-1326*
G01*
G75*
G02X255306Y97164I-16J-119*
G01*
G75*
G02X255342Y97068I-140J-107*
G01*
G75*
G02X255350Y96834I-3463J-239*
G01*
G75*
G03X255361Y96672I1227J-1*
G01*
G75*
G03X255393Y96521I1005J133*
G01*
G75*
G03X255441Y96397I755J222*
G01*
G75*
G03X255500Y96322I205J100*
G01*
G75*
G03X255576Y96327I35J42*
G01*
G75*
G03X255625Y96433I-146J131*
G01*
G75*
G03X255646Y96731I-2482J327*
G01*
G75*
G03X255650Y97459I-63288J741*
G01*
Y98722*
X256193*
G75*
G02X256497Y98711I-4J-4631*
G01*
G75*
G02X256676Y98675I-44J-674*
G01*
G75*
G02X256809Y98598I-137J-391*
G01*
G75*
G02X256943Y98458I-656J-761*
G01*
G75*
G02X257054Y98269I-632J-497*
G01*
G75*
G02X257114Y98050I-846J-351*
G01*
G75*
G02X257141Y97720I-2543J-372*
G01*
G75*
G02X257144Y97083I-29460J-464*
G01*
G75*
G02X257135Y96642I-15632J86*
G01*
G75*
G02X257114Y96235I-11326J377*
G01*
G75*
G02X257085Y95896I-11616J815*
G01*
G75*
G02X257051Y95757I-504J50*
G01*
X257200Y149822D02*
G75*
G02X257074Y149887I221J584D01*
G01*
G75*
G02X257000Y149967I131J196*
G01*
G75*
G02X256961Y150084I279J156*
G01*
G75*
G02X256950Y150269I1506J183*
G01*
G75*
G03X256932Y150552I-2196J-2*
G01*
G75*
G03X256856Y150613I-69J-9*
G01*
G75*
G03X256773Y150538I9J-94*
G01*
G75*
G03X256731Y150246I2419J-495*
G01*
X256700Y149872*
X255900Y149822*
G75*
G03X255495Y149790I806J-12832*
G01*
G75*
G03X255267Y149751I144J-1530*
G01*
G75*
G03X255142Y149697I106J-418*
G01*
G75*
G03X255142Y149546I47J-76*
G01*
G75*
G03X255263Y149496I206J328*
G01*
G75*
G03X255488Y149463I324J1441*
G01*
G75*
G03X255897Y149442I919J13489*
G01*
G75*
G02X256207Y149424I-255J-7005*
G01*
G75*
G02X256478Y149393I-342J-4174*
G01*
G75*
G02X256697Y149355I-699J-4761*
G01*
G75*
G02X256754Y149315I-17J-85*
G01*
G75*
G03X256859Y149276I78J49*
G01*
G75*
G03X257128Y149376I-611J2042*
G01*
G75*
G03X257386Y149515I-891J1964*
G01*
G75*
G03X257450Y149631I-73J117*
G01*
G75*
G03X257433Y149674I-65J0*
G01*
G75*
G03X257377Y149726I-311J-282*
G01*
G75*
G03X257296Y149778I-357J-469*
G01*
G75*
G03X257200Y149822I-399J-747*
G01*
X257456Y128722D02*
G75*
G03X257418Y128698J-44D01*
G01*
G75*
G03X257381Y128611I513J-270*
G01*
G75*
G03X257350Y128490I817J-272*
G01*
G75*
G03X257331Y128346I1522J-273*
G01*
G75*
G02X257309Y128180I-1633J135*
G01*
G75*
G02X257271Y128064I-453J85*
G01*
G75*
G02X257218Y127996I-185J90*
G01*
G75*
G02X257083I-67J81*
G01*
G75*
G02X257030Y128064I132J158*
G01*
G75*
G02X256992Y128180I415J200*
G01*
G75*
G02X256969Y128346I1611J302*
G01*
G75*
G03X256951Y128490I-1647J-139*
G01*
G75*
G03X256921Y128611I-899J-155*
G01*
G75*
G03X256886Y128699I-606J-191*
G01*
G75*
G03X256814I-36J-18*
G01*
G75*
G03X256779Y128611I570J-278*
G01*
G75*
G03X256750Y128490I870J-276*
G01*
G75*
G03X256731Y128346I1628J-283*
G01*
X256700Y127972*
X255875Y127943*
G75*
G03X255456Y127922I496J-14178*
G01*
G75*
G03X255222Y127889I109J-1640*
G01*
G75*
G03X255093Y127841I94J-444*
G01*
G75*
G03X255050Y127767I41J-73*
G01*
G75*
G03X255098Y127693I81J0*
G01*
G75*
G03X255247Y127650I230J515*
G01*
G75*
G03X255525Y127627I324J2243*
G01*
G75*
G03X256055Y127622I526J25070*
G01*
G75*
G03X256663Y127628I0J27578*
G01*
G75*
G03X256944Y127659I-35J1649*
G01*
G75*
G03X257129Y127730I-111J565*
G01*
G75*
G03X257305Y127867I-469J781*
G01*
G75*
G03X257456Y128088I-513J513*
G01*
G75*
G03X257546Y128385I-1192J524*
G01*
G75*
G03X257553Y128636I-832J148*
G01*
G75*
G03X257456Y128722I-96J-12*
G01*
X257550Y127622D02*
G75*
G02X257387Y127513I-356J356D01*
G01*
G75*
G02X257170Y127454I-330J796*
G01*
G75*
G02X256810Y127428I-409J3065*
G01*
G75*
G02X256050Y127422I-757J48477*
G01*
X254750*
Y128122*
X256539*
X256570Y128596*
X256600Y129072*
X257175Y129102*
X257750Y129131*
Y128476*
G75*
G02X257741Y128134I-6571J2*
G01*
G75*
G02X257710Y127913I-1256J67*
G01*
G75*
G02X257650Y127754I-618J144*
G01*
G75*
G02X257550Y127622I-508J276*
G01*
X257626Y93468D02*
G75*
G02X257527Y93448I-109J282D01*
G01*
G75*
G02X257135Y93439I-913J32430*
G01*
G75*
G02X256670Y93437I-340J21123*
G01*
G75*
G02X256145Y93443I176J34432*
G01*
X254800Y93472*
Y94172*
X257700*
X257731Y93846*
G75*
G02X257736Y93704I-1105J-108*
G01*
G75*
G02X257719Y93592I-476J16*
G01*
G75*
G02X257682Y93512I-262J73*
G01*
G75*
G02X257626Y93468I-98J67*
G01*
X257681Y152098D02*
G75*
G02X257616Y152081I-65J124D01*
G01*
G75*
G02X257204Y152081I-328J63719*
G01*
G75*
G02X256724Y152086I44J26621*
G01*
G75*
G02X256170Y152100I931J47236*
G01*
X254739Y152144*
X254770Y152458*
X254800Y152772*
X257700*
X257731Y152456*
G75*
G02X257737Y152332I-1244J-121*
G01*
G75*
G02X257729Y152220I-821J2*
G01*
G75*
G02X257710Y152134I-607J84*
G01*
G75*
G02X257681Y152098I-57J17*
G01*
X257688Y149293D02*
G75*
G02X257648Y149265I-93J92D01*
G01*
G75*
G02X257583Y149243I-195J451*
G01*
G75*
G02X257507Y149227I-156J563*
G01*
G75*
G02X257430Y149222I-76J556*
G01*
G75*
G03X257355Y149210I1J-261*
G01*
G75*
G03X257282Y149178I90J-298*
G01*
G75*
G03X257222Y149129I152J-246*
G01*
G75*
G03X257186Y149072I128J-121*
G01*
G75*
G02X257074Y148963I-172J66*
G01*
G75*
G02X256851Y148925I-228J662*
G01*
G75*
G02X256628Y148960I-4J696*
G01*
G75*
G02X256516Y149067I57J172*
G01*
G75*
G03X256446Y149139I-118J-46*
G01*
G75*
G03X256288Y149187I-318J-752*
G01*
G75*
G03X256033Y149221I-397J-2012*
G01*
G75*
G03X255630Y149243I-816J-11637*
G01*
X254800Y149272*
Y149972*
X256500Y150072*
X256550Y150522*
G75*
G02X256587Y150779I4296J-473*
G01*
G75*
G02X256633Y150896I300J-52*
G01*
G75*
G02X256712Y150953I115J-77*
G01*
G75*
G02X256850Y150972I139J-509*
G01*
G75*
G02X256988Y150953I-1J-529*
G01*
G75*
G02X257067Y150897I-36J-133*
G01*
G75*
G02X257114Y150780I-252J-169*
G01*
G75*
G02X257150Y150526I-4131J-724*
G01*
G75*
G03X257187Y150284I3136J347*
G01*
G75*
G03X257237Y150151I404J78*
G01*
G75*
G03X257319Y150072I187J111*
G01*
G75*
G03X257450Y150022I246J441*
G01*
G75*
G02X257571Y149978I-121J-520*
G01*
G75*
G02X257652Y149911I-109J-216*
G01*
G75*
G02X257702Y149811I-225J-175*
G01*
G75*
G02X257730Y149664I-849J-235*
G01*
G75*
G02X257736Y149544I-1249J-126*
G01*
G75*
G02X257730Y149431I-980J-2*
G01*
G75*
G02X257714Y149339I-786J87*
G01*
G75*
G02X257688Y149293I-94J22*
G01*
X260476Y83026D02*
G75*
G03X260157Y83150I-976J-2039D01*
G01*
G75*
G03X259836Y83217I-549J-1820*
G01*
G75*
G03X259385Y83250I-559J-4595*
G01*
G75*
G03X258533Y83262I-1161J-49678*
G01*
G75*
G03X257591Y83263I-541J-83949*
G01*
G75*
G03X257227Y83237I16J-2750*
G01*
G75*
G03X257004Y83166I94J-687*
G01*
G75*
G03X256799Y83022I419J-811*
G01*
G75*
G03X256511Y82635I932J-996*
G01*
G75*
G03X256359Y82154I1443J-720*
G01*
G75*
G03X256265Y81265I10127J-1521*
G01*
G75*
G03X256086Y78272I723555J-44613*
G01*
G75*
G03X256072Y77441I10197J-590*
G01*
G75*
G03X256135Y76739I5318J126*
G01*
G75*
G03X256267Y76191I3504J552*
G01*
G75*
G03X256468Y75853I859J281*
G01*
G75*
G03X256724Y75744I250J235*
G01*
G75*
G03X256887Y75887I-3J169*
G01*
G75*
G03X256947Y76585I-4832J766*
G01*
G75*
G03X256974Y79046I-398372J5564*
G01*
X257000Y82472*
X259000Y82529*
G75*
G03X259769Y82552I-7219J247509*
G01*
G75*
G03X260422Y82575I-4107J128899*
G01*
G75*
G03X261004Y82596I-39730J1076944*
G01*
G75*
G03X261031Y82604I-2J59*
G01*
G75*
G03X261043Y82662I-19J34*
G01*
G75*
G03X260946Y82758I-407J-311*
G01*
G75*
G03X260756Y82882I-939J-1237*
G01*
G75*
G03X260476Y83026I-2613J-4746*
G01*
X262754Y65222D02*
G75*
G03X262651Y66494I-31378J-1913D01*
G01*
G75*
G03X262507Y67532I-14298J-1456*
G01*
G75*
G03X262306Y68443I-10890J-1918*
G01*
G75*
G03X262031Y69322I-10150J-2692*
G01*
G75*
G03X261787Y69934I-9128J-3294*
G01*
G75*
G03X261499Y70533I-9107J-4011*
G01*
G75*
G03X261348Y70748I-913J-477*
G01*
G75*
G03X261300Y70722I-21J-19*
G01*
G75*
G02X261330Y70606I-4252J-1161*
G01*
G75*
G02X261364Y70464I-9485J-2335*
G01*
G75*
G02X261396Y70319I-9678J-2212*
G01*
G75*
G02X261421Y70195I-5178J-1117*
G01*
G75*
G03X261448Y70085I1110J209*
G01*
G75*
G03X261484Y69984I896J264*
G01*
G75*
G03X261524Y69903I700J296*
G01*
G75*
G03X261562Y69864I96J55*
G01*
G75*
G02X261596Y69822I-43J-70*
G01*
G75*
G02X261624Y69726I-730J-265*
G01*
G75*
G02X261644Y69605I-963J-219*
G01*
G75*
G02X261650Y69472I-1371J-136*
G01*
G75*
G03X261657Y69337I1228J-2*
G01*
G75*
G03X261680Y69215I917J101*
G01*
G75*
G03X261711Y69117I691J172*
G01*
G75*
G03X261750Y69072I89J37*
G01*
G75*
G02X261790Y69011I-45J-72*
G01*
G75*
G02X261821Y68767I-5725J-852*
G01*
G75*
G02X261843Y68466I-4776J-501*
G01*
G75*
G02X261850Y68122I-8188J-350*
G01*
G75*
G03X261857Y67777I8205J-4*
G01*
G75*
G03X261880Y67476I4798J200*
G01*
G75*
G03X261911Y67231I5756J608*
G01*
G75*
G03X261950Y67172I84J13*
G01*
G75*
G02X261990Y67111I-45J-72*
G01*
G75*
G02X262021Y66867I-5725J-852*
G01*
G75*
G02X262043Y66566I-4776J-501*
G01*
G75*
G02X262050Y66222I-8188J-350*
G01*
G75*
G03X262057Y65877I8205J-4*
G01*
G75*
G03X262080Y65576I4798J200*
G01*
G75*
G03X262111Y65331I5756J608*
G01*
G75*
G03X262150Y65272I84J13*
G01*
G75*
G02X262189Y65226I-51J-82*
G01*
G75*
G02X262221Y65128I-659J-269*
G01*
G75*
G02X262243Y65006I-894J-224*
G01*
G75*
G02X262250Y64872I-1218J-135*
G01*
G75*
G03X262257Y64737I1228J-2*
G01*
G75*
G03X262280Y64615I917J101*
G01*
G75*
G03X262311Y64517I691J172*
G01*
G75*
G03X262350Y64472I89J37*
G01*
G75*
G02X262389Y64431I-58J-93*
G01*
G75*
G02X262421Y64358I-381J-211*
G01*
G75*
G02X262443Y64267I-528J-176*
G01*
G75*
G02X262450Y64172I-616J-96*
G01*
G75*
G03X262457Y64076I626J-2*
G01*
G75*
G03X262480Y63985I550J86*
G01*
G75*
G03X262512Y63912I413J138*
G01*
G75*
G03X262550Y63872I96J54*
G01*
G75*
G02X262589Y63831I-59J-94*
G01*
G75*
G02X262621Y63760I-367J-208*
G01*
G75*
G02X262643Y63671I-509J-174*
G01*
G75*
G02X262650Y63578I-585J-94*
G01*
G75*
G03X262663Y63479I406*
G01*
G75*
G03X262699Y63374I613J152*
G01*
G75*
G03X262753Y63278I559J253*
G01*
G75*
G03X262816Y63209I280J191*
G01*
G75*
G03X262913Y63135I945J1143*
G01*
G75*
G03X262945Y63142I13J19*
G01*
G75*
G03X262954Y63189I-57J35*
G01*
G75*
G03X262916Y63372I-6579J-1269*
G01*
G75*
G02X262885Y63564I1578J351*
G01*
G75*
G02X262841Y64039I41574J4100*
G01*
G75*
G02X262796Y64606I38952J3394*
G01*
G75*
G02X262754Y65222I53841J3924*
G01*
X268925Y58345D02*
G75*
G02X268362Y58381I604J13926D01*
G01*
G75*
G02X267898Y58437I561J6617*
G01*
G75*
G02X267489Y58517I783J5056*
G01*
G75*
G02X267100Y58629I1071J4457*
G01*
G75*
G02X266377Y58940I1528J4546*
G01*
G75*
G02X265629Y59397I3434J6462*
G01*
G75*
G02X264937Y59943I4223J6068*
G01*
G75*
G02X264381Y60522I3402J3820*
G01*
G75*
G03X264143Y60813I-296990J-243152*
G01*
G75*
G03X263866Y61150I-537130J-440327*
G01*
G75*
G03X263595Y61480I-525222J-431559*
G01*
G75*
G03X263375Y61747I-225352J-185301*
G01*
G75*
G02X263190Y61977I9402J7753*
G01*
G75*
G02X263028Y62190I6578J5168*
G01*
G75*
G02X262898Y62372I7558J5536*
G01*
G75*
G02X262861Y62447I227J159*
G01*
G75*
G03X262834Y62512I-383J-121*
G01*
G75*
G03X262779Y62613I-2370J-1234*
G01*
G75*
G03X262710Y62726I-2610J-1514*
G01*
G75*
G03X262636Y62837I-2609J-1659*
G01*
G75*
G02X262565Y62954I889J621*
G01*
G75*
G02X262505Y63084I1183J624*
G01*
G75*
G02X262463Y63209I1100J437*
G01*
G75*
G02X262450Y63306I356J96*
G01*
G75*
G03X262443Y63389I-464J0*
G01*
G75*
G03X262421Y63468I-449J-81*
G01*
G75*
G03X262389Y63533I-344J-130*
G01*
G75*
G03X262350Y63572I-102J-62*
G01*
G75*
G02X262312Y63612I57J94*
G01*
G75*
G02X262280Y63685I381J211*
G01*
G75*
G02X262257Y63776I528J176*
G01*
G75*
G02X262250Y63872I619J94*
G01*
G75*
G03X262243Y63967I-624J-1*
G01*
G75*
G03X262221Y64058I-550J-86*
G01*
G75*
G03X262189Y64131I-413J-138*
G01*
G75*
G03X262150Y64172I-96J-53*
G01*
G75*
G02X262111Y64217I50J83*
G01*
G75*
G02X262080Y64315I659J269*
G01*
G75*
G02X262057Y64437I894J224*
G01*
G75*
G02X262050Y64572I1221J132*
G01*
G75*
G03X262043Y64706I-1225J-1*
G01*
G75*
G03X262021Y64828I-917J-101*
G01*
G75*
G03X261989Y64926I-691J-172*
G01*
G75*
G03X261950Y64972I-90J-37*
G01*
G75*
G02X261911Y65031I44J73*
G01*
G75*
G02X261880Y65276I5725J852*
G01*
G75*
G02X261857Y65577I4776J501*
G01*
G75*
G02X261850Y65922I8198J341*
G01*
G75*
G03X261843Y66266I-8196J-6*
G01*
G75*
G03X261821Y66567I-4798J-200*
G01*
G75*
G03X261790Y66811I-5756J-608*
G01*
G75*
G03X261750Y66872I-85J-12*
G01*
G75*
G02X261711Y66931I44J73*
G01*
G75*
G02X261680Y67176I5725J852*
G01*
G75*
G02X261657Y67477I4776J501*
G01*
G75*
G02X261650Y67822I8198J341*
G01*
G75*
G03X261643Y68166I-8196J-6*
G01*
G75*
G03X261621Y68467I-4798J-200*
G01*
G75*
G03X261590Y68711I-5756J-608*
G01*
G75*
G03X261550Y68772I-85J-12*
G01*
G75*
G02X261511Y68817I50J83*
G01*
G75*
G02X261480Y68915I659J269*
G01*
G75*
G02X261457Y69037I894J224*
G01*
G75*
G02X261450Y69172I1221J132*
G01*
G75*
G03X261443Y69306I-1225J-1*
G01*
G75*
G03X261421Y69428I-917J-101*
G01*
G75*
G03X261389Y69526I-691J-172*
G01*
G75*
G03X261350Y69572I-90J-37*
G01*
G75*
G02X261312Y69611I58J95*
G01*
G75*
G02X261280Y69683I367J208*
G01*
G75*
G02X261257Y69772I511J174*
G01*
G75*
G02X261250Y69865I583J91*
G01*
G75*
G03X261217Y70105I-884J-1*
G01*
G75*
G03X261105Y70442I-3745J-1054*
G01*
G75*
G03X260909Y70910I-7565J-2900*
G01*
G75*
G03X260585Y71600I-35467J-16230*
G01*
G75*
G03X260013Y72511I-4325J-2080*
G01*
G75*
G03X259265Y73248I-3435J-2739*
G01*
G75*
G03X258400Y73757I-2438J-3153*
G01*
G75*
G03X257489Y73994I-1232J-2868*
G01*
X256950Y74050*
Y74566*
G75*
G03X256938Y74887I-4126J-2*
G01*
G75*
G03X256889Y75054I-426J-33*
G01*
G75*
G03X256777Y75191I-396J-210*
G01*
G75*
G03X256511Y75393I-2988J-3663*
G01*
G75*
G02X256251Y75595I1922J2731*
G01*
G75*
G02X256118Y75759I400J461*
G01*
G75*
G02X256034Y75975I718J403*
G01*
G75*
G02X255947Y76399I8236J1912*
G01*
G75*
G02X255880Y77002I4541J812*
G01*
G75*
G02X255870Y77774I11968J539*
G01*
G75*
G02X255913Y78953I33686J-648*
G01*
G75*
G02X256038Y81122I334956J-18190*
G01*
G75*
G02X256113Y82128I38850J-2365*
G01*
G75*
G02X256198Y82659I3658J-319*
G01*
G75*
G02X256332Y83000I1274J-303*
G01*
G75*
G02X256549Y83272I940J-529*
G01*
G75*
G02X256739Y83383I364J-404*
G01*
G75*
G02X257002Y83440I383J-1130*
G01*
G75*
G02X257454Y83464I484J-4848*
G01*
G75*
G02X258486Y83466I744J-99493*
G01*
G75*
G02X259594Y83456I-314J-93904*
G01*
G75*
G02X260062Y83422I-61J-4101*
G01*
G75*
G02X260410Y83338I-218J-1670*
G01*
G75*
G02X260850Y83158I-1713J-4809*
G01*
G75*
G02X261109Y83030I-2569J-5520*
G01*
G75*
G02X261350Y82895I-2346J-4474*
G01*
G75*
G02X261546Y82771I-2335J-3912*
G01*
G75*
G02X261637Y82688I-234J-349*
G01*
G75*
G03X261696Y82624I576J474*
G01*
G75*
G03X261761Y82570I444J463*
G01*
G75*
G03X261820Y82532I305J412*
G01*
G75*
G03X261864Y82522I43J80*
G01*
G75*
G02X262047Y82457J-292*
G01*
G75*
G02X262590Y82007I-15613J-19390*
G01*
G75*
G02X263120Y81531I-8738J-10253*
G01*
G75*
G02X263486Y81138I-3057J-3222*
G01*
G75*
G02X264116Y80198I-4360J-3604*
G01*
G75*
G02X264538Y79163I-4764J-2546*
G01*
G75*
G02X264802Y77869I-7724J-2246*
G01*
G75*
G02X264949Y76110I-24931J-2972*
G01*
G75*
G03X265050Y74776I24689J1201*
G01*
G75*
G03X265227Y73375I30418J3128*
G01*
G75*
G03X265439Y72137I29444J4411*
G01*
G75*
G03X265644Y71472I3183J617*
G01*
G75*
G02X265685Y71371I-3481J-1487*
G01*
G75*
G02X265742Y71228I-13543J-5404*
G01*
G75*
G02X265801Y71070I-15008J-5756*
G01*
G75*
G02X265855Y70922I-11784J-4366*
G01*
G75*
G03X266196Y70161I5090J1824*
G01*
G75*
G03X266652Y69453I4978J2706*
G01*
G75*
G03X267159Y68882I3841J2901*
G01*
G75*
G03X267650Y68546I1259J1313*
G01*
G75*
G02X267813Y68454I-500J-1068*
G01*
G75*
G02X268015Y68307I-2081J-3080*
G01*
G75*
G02X268221Y68134I-2506J-3207*
G01*
G75*
G02X268400Y67961I-1991J-2239*
G01*
G75*
G03X268638Y67734I2450J2327*
G01*
G75*
G03X268841Y67594I715J824*
G01*
G75*
G03X269077Y67500I557J1048*
G01*
G75*
G03X269425Y67418I1203J4311*
G01*
X270050Y67295*
Y58296*
X268925Y58345*
X271674Y82289D02*
G75*
G03X271074Y82487I-1187J-2580D01*
G01*
G75*
G03X270220Y82629I-2017J-9544*
G01*
G75*
G03X269252Y82704I-1367J-11379*
G01*
G75*
G03X268287Y82696I-396J-11248*
G01*
G75*
G03X267548Y82636I630J-12272*
G01*
G75*
G03X267129Y82530I179J-1600*
G01*
G75*
G03X266821Y82335I367J-917*
G01*
G75*
G03X266506Y81983I1827J-1951*
G01*
G75*
G03X266385Y81715I546J-407*
G01*
G75*
G03X266329Y81290I2830J-594*
G01*
G75*
G03X266305Y80510I14488J-837*
G01*
G75*
G03X266300Y78433I491785J-2064*
G01*
G75*
G03X266305Y76422I409888J-42*
G01*
G75*
G03X266330Y75583I17069J84*
G01*
G75*
G03X266386Y75096I4033J219*
G01*
G75*
G03X266500Y74741I1356J241*
G01*
G75*
G03X266725Y74504I479J229*
G01*
G75*
G03X266883Y74584I51J94*
G01*
G75*
G03X266946Y75409I-6468J912*
G01*
G75*
G03X266974Y78096I-414956J5600*
G01*
X267000Y81872*
X269575Y81898*
G75*
G03X270563Y81914I-983J92599*
G01*
G75*
G03X271393Y81939I-978J46674*
G01*
G75*
G03X272120Y81968I-8932J228811*
G01*
G75*
G03X272148Y81998I-1J30*
G01*
G75*
G03X272128Y82036I-48J-1*
G01*
G75*
G03X272008Y82114I-1570J-2284*
G01*
G75*
G03X271855Y82200I-1292J-2111*
G01*
G75*
G03X271674Y82289I-1965J-3787*
G01*
X272096Y68476D02*
G75*
G03X271956Y68930I-5253J-1367D01*
G01*
G75*
G03X271740Y69499I-13590J-4825*
G01*
G75*
G03X271504Y70073I-42635J-17222*
G01*
G75*
G03X271431Y70122I-73J-31*
G01*
G75*
G03X271370Y70060J-62*
G01*
G75*
G03X271429Y65531I12355036J159934*
G01*
G75*
G03X271491Y61028I8601165J115047*
G01*
G75*
G03X271554Y60878I217J3*
G01*
G75*
G02X271591Y60820I-116J-117*
G01*
G75*
G02X271622Y60722I-750J-288*
G01*
G75*
G02X271643Y60604I-951J-233*
G01*
G75*
G02X271650Y60483I-1036J-121*
G01*
G75*
G03X271696Y60257I578J-1*
G01*
G75*
G03X271838Y59998I1396J594*
G01*
G75*
G03X272015Y59784I1190J808*
G01*
G75*
G03X272168Y59722I152J154*
G01*
G75*
G03X272202Y59754J33*
G01*
G75*
G03X272226Y60920I-725747J15784*
G01*
G75*
G03X272244Y62236I-104177J2091*
G01*
G75*
G03X272250Y63800I-206495J1614*
G01*
G75*
G03X272244Y65989I-399426J-55*
G01*
G75*
G03X272220Y67213I-44353J-244*
G01*
G75*
G03X272177Y67993I-16843J-553*
G01*
G75*
G03X272096Y68476I-2799J-222*
G01*
X272698Y156626D02*
G75*
G03X272601Y156782I-1008J-520D01*
G01*
G75*
G03X272503Y156867I-245J-183*
G01*
G75*
G03X272372Y156909I-172J-314*
G01*
G75*
G03X272162Y156922I-213J-1793*
G01*
G75*
G03X271094Y156594I0J-1904*
G01*
G75*
G03X269846Y155545I4420J-6526*
G01*
G75*
G03X268589Y153989I8143J-7868*
G01*
G75*
G03X267475Y152072I14127J-9485*
G01*
G75*
G03X267092Y151258I19790J-9827*
G01*
G75*
G03X266835Y150609I7433J-3321*
G01*
G75*
G03X266688Y150102I4645J-1615*
G01*
G75*
G03X266668Y149750I1011J-234*
G01*
G75*
G03X266701Y149597I796J93*
G01*
G75*
G03X266761Y149513I159J51*
G01*
G75*
G03X266870Y149467I152J206*
G01*
G75*
G03X267088Y149440I422J2501*
G01*
G75*
G03X267245Y149435I118J1443*
G01*
G75*
G03X267394Y149448I-30J1210*
G01*
G75*
G03X267517Y149476I-148J958*
G01*
G75*
G03X267583Y149515I-42J148*
G01*
G75*
G02X267657Y149556I111J-111*
G01*
G75*
G02X267828Y149590I499J-2062*
G01*
G75*
G02X268037Y149614I376J-2392*
G01*
G75*
G02X268264Y149622I228J-3308*
G01*
G75*
G03X268489Y149629I3J3461*
G01*
G75*
G03X268688Y149651I-142J2197*
G01*
G75*
G03X268846Y149682I-311J1976*
G01*
G75*
G03X268900Y149722I-21J86*
G01*
G75*
G02X268946Y149760I82J-50*
G01*
G75*
G02X269043Y149792I269J-659*
G01*
G75*
G02X269166Y149814I224J-894*
G01*
G75*
G02X269300Y149822I135J-1221*
G01*
G75*
G03X269434Y149829I2J1225*
G01*
G75*
G03X269557Y149851I-101J917*
G01*
G75*
G03X269655Y149883I-172J691*
G01*
G75*
G03X269700Y149922I-37J90*
G01*
G75*
G02X269746Y149960I82J-50*
G01*
G75*
G02X269843Y149992I269J-659*
G01*
G75*
G02X269966Y150014I224J-894*
G01*
G75*
G02X270100Y150022I135J-1221*
G01*
G75*
G03X270234Y150029I2J1225*
G01*
G75*
G03X270357Y150051I-101J917*
G01*
G75*
G03X270455Y150083I-172J691*
G01*
G75*
G03X270500Y150122I-37J90*
G01*
G75*
G02X270535Y150160I117J-72*
G01*
G75*
G02X270591Y150192I180J-244*
G01*
G75*
G02X270656Y150214I143J-314*
G01*
G75*
G02X270721Y150222I66J-284*
G01*
G75*
G03X270807Y150242I0J194*
G01*
G75*
G03X270958Y150324I-988J1989*
G01*
G75*
G03X271131Y150437I-1305J2185*
G01*
G75*
G03X271306Y150571I-1909J2674*
G01*
G75*
G03X271678Y150972I-1281J1564*
G01*
G75*
G03X272062Y151592I-5053J3554*
G01*
G75*
G03X272362Y152235I-5434J2931*
G01*
G75*
G03X272450Y152691I-1144J458*
G01*
G75*
G02X272457Y152818I1090J2*
G01*
G75*
G02X272480Y152934I836J-98*
G01*
G75*
G02X272511Y153027I624J-163*
G01*
G75*
G02X272550Y153072I91J-40*
G01*
G75*
G03X272589Y153119I-52J82*
G01*
G75*
G03X272624Y153224I-796J318*
G01*
G75*
G03X272649Y153357I-1057J269*
G01*
G75*
G03X272660Y153502I-1470J189*
G01*
G75*
G02X272670Y153662I2386J-61*
G01*
G75*
G02X272691Y153837I3474J-326*
G01*
G75*
G02X272719Y154000I3198J-472*
G01*
G75*
G02X272750Y154122I1082J-214*
G01*
G75*
G03X272834Y154599I-1711J547*
G01*
G75*
G03X272842Y155428I-13724J545*
G01*
G75*
G03X272803Y156254I-15609J-330*
G01*
G75*
G03X272698Y156626I-963J-71*
G01*
X273348Y129802D02*
G75*
G03X273233Y129971I-1829J-1117D01*
G01*
G75*
G03X273142Y130055I-269J-200*
G01*
G75*
G03X273045Y130083I-98J-159*
G01*
G75*
G03X272923Y130065I-4J-405*
G01*
G75*
G03X271698Y129484I1353J-4432*
G01*
G75*
G03X270539Y128514I3933J-5874*
G01*
G75*
G03X269438Y127143I7061J-6799*
G01*
G75*
G03X268383Y125352I15809J-10516*
G01*
G75*
G03X268060Y124688I13734J-7103*
G01*
G75*
G03X267895Y124236I2700J-1239*
G01*
G75*
G03X267857Y123935I1030J-282*
G01*
G75*
G03X267950Y123771I196J4*
G01*
G75*
G02X267995Y123723I-65J-106*
G01*
G75*
G02X268053Y123599I-1529J-791*
G01*
G75*
G02X268111Y123444I-1799J-759*
G01*
G75*
G02X268160Y123272I-2535J-820*
G01*
G75*
G03X268259Y122979I1910J481*
G01*
G75*
G03X268385Y122814I392J167*
G01*
G75*
G03X268540Y122764I143J179*
G01*
G75*
G03X268729Y122817I-23J448*
G01*
G75*
G02X268842Y122863I279J-519*
G01*
G75*
G02X269129Y122944I4202J-14321*
G01*
G75*
G02X269474Y123033I3693J-13602*
G01*
G75*
G02X269850Y123121I4644J-18972*
G01*
G75*
G03X271027Y123442I-2915J13023*
G01*
G75*
G03X271909Y123819I-1594J4944*
G01*
G75*
G03X272528Y124259I-1487J2744*
G01*
G75*
G03X272895Y124772I-1028J1125*
G01*
G75*
G03X273195Y125564I-7534J3309*
G01*
G75*
G03X273387Y126326I-5780J1857*
G01*
G75*
G03X273493Y127181I-7472J1366*
G01*
G75*
G03X273536Y128272I-19211J1302*
G01*
G75*
G03X273537Y128950I-32093J358*
G01*
G75*
G03X273512Y129320I-3301J-35*
G01*
G75*
G03X273454Y129574I-1280J-156*
G01*
G75*
G03X273348Y129802I-1075J-363*
G01*
X276301Y151672D02*
G75*
G02X276128Y150578I-35301J5028D01*
G01*
G75*
G02X275945Y149672I-17104J2979*
G01*
G75*
G02X275693Y148680I-22146J5090*
G01*
G75*
G02X275290Y147272I-88698J24648*
G01*
G75*
G02X274705Y145607I-16563J4884*
G01*
G75*
G02X273983Y144116I-12457J5106*
G01*
G75*
G02X273222Y142950I-9120J5127*
G01*
G75*
G02X272530Y142363I-1650J1243*
G01*
G75*
G02X272187Y142244I-572J1093*
G01*
G75*
G02X271809Y142222I-272J1440*
G01*
G75*
G02X271460Y142296I93J1302*
G01*
G75*
G02X271204Y142459I237J655*
G01*
G75*
G02X271048Y142667I648J648*
G01*
G75*
G02X270899Y142983I2573J1405*
G01*
G75*
G02X270787Y143319I2738J1099*
G01*
G75*
G02X270751Y143589I1030J276*
G01*
G75*
G03X270733Y143648I-111J-1*
G01*
G75*
G03X270670Y143735I-742J-471*
G01*
G75*
G03X270583Y143830I-848J-693*
G01*
G75*
G03X270478Y143921I-973J-1016*
G01*
G75*
G02X270249Y144156I770J979*
G01*
G75*
G02X270083Y144448I1092J813*
G01*
G75*
G02X269983Y144796I1481J614*
G01*
G75*
G02X269950Y145197I2387J399*
G01*
Y145649*
X269325Y145589*
G75*
G02X267586Y145449I-5186J53637*
G01*
G75*
G02X265867Y145368I-3265J50942*
G01*
G75*
G02X264321Y145349I-1302J43218*
G01*
G75*
G02X263134Y145402I87J15324*
G01*
G75*
G02X262550Y145456I2848J34266*
G01*
G75*
G02X261983Y145518I3098J30891*
G01*
G75*
G02X261496Y145580I3331J27972*
G01*
G75*
G02X261228Y145629I420J3076*
G01*
G75*
G02X260796Y145781I439J1924*
G01*
G75*
G02X260451Y146020I622J1267*
G01*
G75*
G02X260228Y146319I744J790*
G01*
G75*
G02X260150Y146643I637J324*
G01*
G75*
G03X260133Y146818I-905J-1*
G01*
G75*
G03X260082Y146972I-635J-125*
G01*
G75*
G03X259991Y147118I-681J-325*
G01*
G75*
G03X259850Y147272I-1230J-982*
G01*
G75*
G02X259641Y147553I728J761*
G01*
G75*
G02X259552Y147870I743J379*
G01*
G75*
G02X259593Y148204I868J64*
G01*
G75*
G02X259757Y148531I1149J-374*
G01*
X259964Y148822*
X261551*
G75*
G03X262202Y148828I16J31907*
G01*
G75*
G03X262718Y148849I-261J12865*
G01*
G75*
G03X263130Y148878I-1204J19658*
G01*
G75*
G03X263200Y148922I-7J92*
G01*
G75*
G02X263259Y148961I73J-45*
G01*
G75*
G02X263475Y148992I714J-4204*
G01*
G75*
G02X263744Y149014I450J-3837*
G01*
G75*
G02X264050Y149022I311J-6472*
G01*
G75*
G03X264357Y149029I4J6471*
G01*
G75*
G03X264625Y149051I-182J3859*
G01*
G75*
G03X264842Y149082I-498J4235*
G01*
G75*
G03X264900Y149122I-15J85*
G01*
G75*
G02X264948Y149160I80J-49*
G01*
G75*
G02X265055Y149192I299J-810*
G01*
G75*
G02X265192Y149214I244J-1080*
G01*
G75*
G02X265341Y149222I151J-1525*
G01*
X265721*
X265781Y150146*
G75*
G02X265878Y150935I7037J-461*
G01*
G75*
G02X266089Y151960I20576J-3699*
G01*
G75*
G02X266361Y153012I21140J-4908*
G01*
G75*
G02X266652Y153896I11311J-3230*
G01*
G75*
G03X266721Y154098I-4117J1533*
G01*
G75*
G03X266768Y154270I-2024J645*
G01*
G75*
G03X266794Y154404I-1967J450*
G01*
G75*
G03X266774Y154431I-24J4*
G01*
G75*
G03X266728Y154435I-45J-322*
G01*
G75*
G03X266626Y154433I21J-6242*
G01*
G75*
G03X266505Y154430I120J-6205*
G01*
G75*
G03X266375Y154424I306J-8165*
G01*
G75*
G02X266175Y154423I-108J1942*
G01*
G75*
G02X266094Y154463I6J112*
G01*
G75*
G02X266057Y154555I119J102*
G01*
G75*
G02X266050Y154808I4357J249*
G01*
G75*
G02X266057Y154966I1715J2*
G01*
G75*
G02X266080Y155110I1207J-111*
G01*
G75*
G02X266111Y155223I939J-203*
G01*
G75*
G02X266150Y155272I88J-31*
G01*
G75*
G03X266189Y155315I-54J86*
G01*
G75*
G03X266221Y155400I-502J239*
G01*
G75*
G03X266243Y155507I-700J200*
G01*
G75*
G03X266250Y155622I-893J116*
G01*
G75*
G02X266257Y155736I897J2*
G01*
G75*
G02X266280Y155843I722J-93*
G01*
G75*
G02X266312Y155928I535J-154*
G01*
G75*
G02X266350Y155972I93J-44*
G01*
G75*
G03X266389Y156008I-67J108*
G01*
G75*
G03X266421Y156068I-274J187*
G01*
G75*
G03X266443Y156140I-365J151*
G01*
G75*
G03X266450Y156213I-359J74*
G01*
G75*
G02X266507Y156469I598J0*
G01*
G75*
G02X266835Y157136I22149J-10451*
G01*
G75*
G02X267208Y157827I14751J-7519*
G01*
G75*
G02X267556Y158383I7065J-4033*
G01*
G75*
G02X267929Y158874I5108J-3489*
G01*
G75*
G02X268426Y159432I10107J-8508*
G01*
G75*
G02X268928Y159950I18157J-17103*
G01*
G75*
G02X269100Y160022I172J-171*
G01*
G75*
G03X269157Y160034I0J136*
G01*
G75*
G03X269234Y160077I-263J567*
G01*
G75*
G03X269315Y160138I-419J641*
G01*
G75*
G03X269389Y160209I-529J620*
G01*
G75*
G02X269494Y160293I309J-280*
G01*
G75*
G02X269691Y160393I1334J-2383*
G01*
G75*
G02X269929Y160491I1331J-2898*
G01*
G75*
G02X270178Y160571I1181J-3232*
G01*
G75*
G02X270751Y160676I844J-3015*
G01*
G75*
G02X271385Y160685I379J-4340*
G01*
G75*
G02X271963Y160607I-229J-3896*
G01*
G75*
G02X272350Y160444I-229J-1085*
G01*
G75*
G03X272664Y160242I5674J8477*
G01*
G75*
G03X272986Y160051I5485J8876*
G01*
G75*
G03X273339Y159858I5990J10535*
G01*
G75*
G03X273743Y159651I9211J17486*
G01*
G75*
G02X274538Y159115I-1617J-3254*
G01*
G75*
G02X275220Y158359I-3059J-3446*
G01*
G75*
G02X275771Y157403I-4439J-3196*
G01*
G75*
G02X276175Y156272I-6990J-3133*
G01*
G75*
G02X276332Y155395I-4925J-1335*
G01*
G75*
G02X276406Y154125I-20305J-1827*
G01*
G75*
G02X276400Y152791I-21038J-574*
G01*
G75*
G02X276301Y151672I-10651J384*
G01*
X276396Y123622D02*
G75*
G02X275992Y121149I-33579J4221D01*
G01*
G75*
G02X275450Y119130I-16182J3264*
G01*
G75*
G02X274824Y117647I-10312J3481*
G01*
G75*
G02X274150Y116972I-1392J713*
G01*
G75*
G02X274009Y116914I-394J759*
G01*
G75*
G02X273823Y116866I-629J2055*
G01*
G75*
G02X273624Y116832I-479J2239*
G01*
G75*
G02X273444Y116822I-178J1484*
G01*
G75*
G02X273210Y116837I-3J1706*
G01*
G75*
G02X273042Y116889I77J552*
G01*
G75*
G02X272887Y116994I292J598*
G01*
G75*
G02X272690Y117190I2022J2231*
G01*
G75*
G02X272556Y117355I1277J1170*
G01*
G75*
G02X272433Y117547I1863J1326*
G01*
G75*
G02X272338Y117736I1795J1024*
G01*
G75*
G02X272290Y117889I636J282*
G01*
G75*
G03X272241Y118044I-663J-125*
G01*
G75*
G03X272139Y118241I-2036J-926*
G01*
G75*
G03X272008Y118444I-2170J-1263*
G01*
G75*
G03X271864Y118622I-1645J-1179*
G01*
X271500Y119024*
X269950Y118831*
G75*
G02X267992Y118606I-13614J109562*
G01*
G75*
G02X266556Y118486I-3415J32196*
G01*
G75*
G02X265217Y118437I-1646J26774*
G01*
G75*
G02X263600Y118442I-630J56475*
G01*
G75*
G02X262396Y118469I1920J111812*
G01*
G75*
G02X261689Y118506I414J14847*
G01*
G75*
G02X261230Y118559I454J5973*
G01*
G75*
G02X260948Y118643I162J1052*
G01*
G75*
G02X260643Y118815I917J1994*
G01*
G75*
G02X260424Y119009I603J900*
G01*
G75*
G02X260277Y119241I710J611*
G01*
G75*
G02X260188Y119528I1202J530*
G01*
G75*
G03X260152Y119674I-1250J-233*
G01*
G75*
G03X260095Y119829I-1750J-552*
G01*
G75*
G03X260028Y119970I-1572J-654*
G01*
G75*
G03X259962Y120072I-555J-293*
G01*
G75*
G02X259661Y120524I2291J1851*
G01*
G75*
G02X259552Y120910I806J435*
G01*
G75*
G02X259627Y121261I685J36*
G01*
G75*
G02X259880Y121602I1165J-598*
G01*
X260210Y121922*
X261824*
G75*
G03X262487Y121928I16J33187*
G01*
G75*
G03X263011Y121949I-265J13261*
G01*
G75*
G03X263430Y121978I-1234J20454*
G01*
G75*
G03X263500Y122022I-7J92*
G01*
G75*
G02X263545Y122060I83J-51*
G01*
G75*
G02X263640Y122092I261J-619*
G01*
G75*
G02X263759Y122114I219J-848*
G01*
G75*
G02X263889Y122122I131J-1139*
G01*
G75*
G03X264153Y122175I0J683*
G01*
G75*
G03X264405Y122329I-374J894*
G01*
G75*
G03X264587Y122543I-567J669*
G01*
G75*
G03X264650Y122767I-370J225*
G01*
G75*
G03X264615Y122876I-186J0*
G01*
G75*
G03X264421Y123135I-6042J-4318*
G01*
G75*
G03X264169Y123438I-5295J-4150*
G01*
G75*
G03X263871Y123762I-7902J-6970*
G01*
G75*
G02X263524Y124138I9182J8827*
G01*
G75*
G02X263125Y124599I19239J17032*
G01*
G75*
G02X262737Y125070I19611J16560*
G01*
G75*
G02X262427Y125473I9783J7859*
G01*
G75*
G03X262155Y125838I-97500J-72211*
G01*
G75*
G03X261889Y126193I-87458J-65171*
G01*
G75*
G03X261660Y126497I-79632J-59795*
G01*
G75*
G03X261531Y126664I-8551J-6481*
G01*
G75*
G02X261437Y126787I3375J2675*
G01*
G75*
G02X261346Y126917I3772J2757*
G01*
G75*
G02X261269Y127034I3423J2324*
G01*
G75*
G02X261224Y127114I667J424*
G01*
G75*
G03X261180Y127200I-1254J-604*
G01*
G75*
G03X261096Y127343I-9367J-5349*
G01*
G75*
G03X260998Y127507I-10363J-6101*
G01*
G75*
G03X260895Y127672I-10841J-6638*
G01*
G75*
G02X260780Y127864I3752J2376*
G01*
G75*
G02X260642Y128115I10285J5813*
G01*
G75*
G02X260504Y128381I10989J5858*
G01*
G75*
G02X260389Y128622I6937J3480*
G01*
G75*
G03X260278Y128860I-29837J-13739*
G01*
G75*
G03X260154Y129123I-44185J-20772*
G01*
G75*
G03X260035Y129370I-41240J-19680*
G01*
G75*
G03X259943Y129556I-13678J-6637*
G01*
G75*
G02X259869Y129730I1326J662*
G01*
G75*
G02X259807Y129936I2333J822*
G01*
G75*
G02X259764Y130141I2311J586*
G01*
G75*
G02X259750Y130311I1037J170*
G01*
G75*
G03X259742Y130461I-1407J-3*
G01*
G75*
G03X259719Y130604I-1247J-131*
G01*
G75*
G03X259683Y130724I-1002J-230*
G01*
G75*
G03X259642Y130790I-168J-60*
G01*
G75*
G02X259560Y130954I204J204*
G01*
G75*
G02X259579Y131163I461J63*
G01*
G75*
G02X259693Y131363I549J-181*
G01*
G75*
G02X259875Y131501I426J-373*
G01*
G75*
G03X260017Y131585I-379J793*
G01*
G75*
G03X260098Y131678I-170J231*
G01*
G75*
G03X260139Y131804I-310J172*
G01*
G75*
G03X260152Y132002I-1616J206*
G01*
G75*
G02X260203Y132379I1500J-9*
G01*
G75*
G02X260350Y132789I2461J-656*
G01*
G75*
G02X260556Y133148I2160J-995*
G01*
G75*
G02X260781Y133368I676J-468*
G01*
G75*
G02X260901Y133435I506J-771*
G01*
G75*
G02X261058Y133500I904J-1962*
G01*
G75*
G02X261225Y133554I775J-2110*
G01*
G75*
G02X261376Y133587I370J-1313*
G01*
G75*
G02X261859Y133557I176J-1089*
G01*
G75*
G02X262128Y133310I-113J-392*
G01*
G75*
G02X262112Y132910I-481J-181*
G01*
G75*
G02X261800Y132465I-1422J664*
G01*
G75*
G03X261540Y132054I785J-785*
G01*
G75*
G03X261470Y131559I1164J-417*
G01*
G75*
G03X261601Y130918I2392J153*
G01*
G75*
G03X261955Y130045I9263J3252*
G01*
G75*
G02X262068Y129798I-29704J-13724*
G01*
G75*
G02X262163Y129584I-16535J-7484*
G01*
G75*
G02X262244Y129398I-47170J-20654*
G01*
G75*
G02X262250Y129370I-64J-28*
G01*
G75*
G03X262257Y129343I53J0*
G01*
G75*
G03X262374Y129144I51014J29708*
G01*
G75*
G03X262510Y128916I15945J9330*
G01*
G75*
G03X262671Y128652I28880J17518*
G01*
G75*
G03X263484Y127456I14461J8944*
G01*
G75*
G03X264305Y126484I8194J6090*
G01*
G75*
G03X265049Y125805I5378J5148*
G01*
G75*
G03X265576Y125619I533J670*
G01*
G75*
G02X265844Y125576I-6J-893*
G01*
G75*
G02X266100Y125453I-322J-995*
G01*
G75*
G02X266320Y125261I-612J-923*
G01*
G75*
G02X266483Y125018I-852J-750*
G01*
G75*
G03X266613Y124837I631J315*
G01*
G75*
G03X266773Y124743I256J252*
G01*
G75*
G03X266896Y124770I36J131*
G01*
G75*
G03X266953Y124889I-102J122*
G01*
G75*
G02X267017Y125256I1177J-15*
G01*
G75*
G02X267365Y126234I43208J-14861*
G01*
G75*
G02X267783Y127306I31465J-11631*
G01*
G75*
G02X268215Y128305I24891J-10180*
G01*
G75*
G03X268334Y128584I-5227J2388*
G01*
G75*
G03X268317Y128666I-71J28*
G01*
G75*
G03X268247Y128667I-36J-35*
G01*
G75*
G03X268050Y128471I2878J-3081*
G01*
G75*
G02X267934Y128369I-613J579*
G01*
G75*
G02X267802Y128289I-498J676*
G01*
G75*
G02X267665Y128239I-332J688*
G01*
G75*
G02X267533Y128222I-131J502*
G01*
G75*
G02X267378Y128232I-2J1103*
G01*
G75*
G02X267299Y128272I19J133*
G01*
G75*
G02X267261Y128353I103J99*
G01*
G75*
G02X267250Y128516I1270J161*
G01*
G75*
G02X267257Y128633I934J2*
G01*
G75*
G02X267280Y128741I742J-94*
G01*
G75*
G02X267312Y128828I552J-156*
G01*
G75*
G02X267350Y128872I92J-43*
G01*
G75*
G03X267389Y128909I-66J106*
G01*
G75*
G03X267421Y128970I-283J189*
G01*
G75*
G03X267443Y129043I-378J154*
G01*
G75*
G03X267450Y129119I-382J76*
G01*
G75*
G02X267469Y129226I321J1*
G01*
G75*
G02X267549Y129436I4372J-1553*
G01*
G75*
G02X267657Y129682I4604J-1889*
G01*
G75*
G02X267786Y129938I5822J-2764*
G01*
G75*
G03X267935Y130219I-176419J93592*
G01*
G75*
G03X268103Y130538I-294981J155878*
G01*
G75*
G03X268265Y130846I-285161J150052*
G01*
G75*
G03X268393Y131090I-111640J58771*
G01*
G75*
G02X268508Y131298I4730J-2476*
G01*
G75*
G02X268627Y131491I3935J-2282*
G01*
G75*
G02X268736Y131651I3430J-2229*
G01*
G75*
G02X268807Y131728I336J-241*
G01*
G75*
G03X268862Y131781I-287J346*
G01*
G75*
G03X268908Y131845I-376J321*
G01*
G75*
G03X268940Y131909I-362J221*
G01*
G75*
G03X268950Y131961I-132J53*
G01*
G75*
G02X269042Y132180I306J0*
G01*
G75*
G02X269675Y132782I18739J-19085*
G01*
G75*
G02X270320Y133343I10406J-11310*
G01*
G75*
G02X270744Y133611I1296J-1578*
G01*
G75*
G02X270986Y133707I854J-1806*
G01*
G75*
G02X271241Y133772I646J-2003*
G01*
G75*
G02X271526Y133809I474J-2506*
G01*
G75*
G02X271857Y133822I332J-4504*
G01*
G75*
G02X272310Y133802I-4J-5289*
G01*
G75*
G02X272618Y133737I-111J-1296*
G01*
G75*
G02X272934Y133593I-564J-1652*
G01*
G75*
G02X273443Y133281I-6828J-11719*
G01*
G75*
G03X273635Y133163I3294J5125*
G01*
G75*
G03X273846Y133042I4174J7043*
G01*
G75*
G03X274045Y132936I3607J6545*
G01*
G75*
G03X274193Y132867I995J1927*
G01*
G75*
G02X274859Y132439I-902J-2138*
G01*
G75*
G02X275449Y131756I-2613J-2850*
G01*
G75*
G02X275926Y130863I-4057J-2744*
G01*
G75*
G02X276260Y129812I-6355J-2594*
G01*
G75*
G02X276435Y128650I-7391J-1706*
G01*
G75*
G02X276517Y126907I-34991J-2517*
G01*
G75*
G02X276510Y125090I-35408J-778*
G01*
G75*
G02X276396Y123622I-15400J451*
G01*
X276550Y57922D02*
X272370D01*
X272300Y58629*
G75*
G03X272257Y58971I-7585J-768*
G01*
G75*
G03X272207Y59191I-1459J-214*
G01*
G75*
G03X272146Y59328I-571J-175*
G01*
G75*
G03X272064Y59394I-133J-82*
G01*
G75*
G02X271824Y59520I310J881*
G01*
G75*
G02X271626Y59712I581J796*
G01*
G75*
G02X271495Y59943I719J560*
G01*
G75*
G02X271450Y60183I622J241*
G01*
G75*
G03X271443Y60313I-1146J-1*
G01*
G75*
G03X271421Y60432I-870J-99*
G01*
G75*
G03X271389Y60526I-651J-167*
G01*
G75*
G03X271350Y60572I-91J-38*
G01*
G75*
G02X271303Y60654I52J85*
G01*
G75*
G02X271276Y61776I291089J7604*
G01*
G75*
G02X271256Y63180I89069J1951*
G01*
G75*
G02X271250Y65108I308554J1909*
G01*
G75*
G03X271245Y67570I-600317J-17*
G01*
G75*
G03X271223Y68799I-44979J-193*
G01*
G75*
G03X271187Y69552I-22836J-721*
G01*
G75*
G03X271104Y69777I-417J-26*
G01*
G75*
G02X271047Y69862I683J519*
G01*
G75*
G02X270999Y69956I851J495*
G01*
G75*
G02X270965Y70044I784J353*
G01*
G75*
G02X270954Y70112I227J72*
G01*
G75*
G03X270883Y70418I-774J-18*
G01*
G75*
G03X270643Y70876I-4631J-2131*
G01*
G75*
G03X270348Y71319I-4288J-2529*
G01*
G75*
G03X270077Y71598I-1185J-882*
G01*
G75*
G03X269461Y72002I-2623J-3333*
G01*
G75*
G03X268735Y72330I-2766J-5148*
G01*
G75*
G03X267992Y72549I-1940J-5215*
G01*
G75*
G03X267329Y72622I-664J-3004*
G01*
X266950*
Y73128*
G75*
G03X266928Y73494I-3084J-2*
G01*
G75*
G03X266861Y73777I-1243J-148*
G01*
G75*
G03X266756Y73959I-581J-214*
G01*
G75*
G03X266622Y74022I-135J-113*
G01*
G75*
G02X266563Y74048I1J84*
G01*
G75*
G02X266477Y74146I765J750*
G01*
G75*
G02X266386Y74281I1076J826*
G01*
G75*
G02X266300Y74441I1775J1052*
G01*
G75*
G02X266185Y74804I1226J588*
G01*
G75*
G02X266130Y75320I4433J742*
G01*
G75*
G02X266105Y76219I19589J981*
G01*
G75*
G02X266100Y78419I506315J2187*
G01*
G75*
G02X266105Y80534I464200J20*
G01*
G75*
G02X266128Y81456I22243J-100*
G01*
G75*
G02X266176Y81978I5987J-278*
G01*
G75*
G02X266277Y82250I648J-87*
G01*
G75*
G02X266555Y82570I1319J-865*
G01*
G75*
G02X266874Y82752I604J-686*
G01*
G75*
G02X267359Y82849I650J-1993*
G01*
G75*
G02X268275Y82902I1683J-21256*
G01*
G75*
G02X269596Y82906I720J-20001*
G01*
G75*
G02X270669Y82809I-265J-8926*
G01*
G75*
G02X271578Y82603I-973J-6407*
G01*
G75*
G02X272395Y82277I-1500J-4946*
G01*
G75*
G02X273443Y81644I-3519J-7011*
G01*
G75*
G02X274462Y80812I-6082J-8493*
G01*
G75*
G02X275325Y79902I-6578J-7101*
G01*
G75*
G02X275893Y79035I-3515J-2923*
G01*
G75*
G02X276292Y77956I-4557J-2296*
G01*
G75*
G02X276474Y76737I-6520J-1600*
G01*
G75*
G02X276538Y74588I-39815J-2257*
G01*
G75*
G02X276549Y67496I-2673193J-7553*
G01*
X276550Y57922*
X277054Y95266D02*
G75*
G02X276876Y94992I-794J321D01*
G01*
G75*
G02X276543Y94698I-2004J1939*
G01*
G75*
G02X276136Y94441I-1863J2495*
G01*
G75*
G02X275727Y94273I-1050J1979*
G01*
G75*
G02X273404Y93762I-4646J15582*
G01*
G75*
G02X270401Y93439I-5958J41298*
G01*
G75*
G02X267228Y93327I-3162J44498*
G01*
G75*
G02X264350Y93465I7J30260*
G01*
G75*
G02X263107Y93603I4033J42055*
G01*
G75*
G02X262183Y93752I1695J13474*
G01*
G75*
G02X261463Y93928I1573J7993*
G01*
G75*
G02X260873Y94148I1205J4123*
G01*
G75*
G02X260542Y94339I895J1938*
G01*
G75*
G02X260279Y94572I882J1259*
G01*
G75*
G02X260108Y94824I852J763*
G01*
G75*
G02X260050Y95067I487J244*
G01*
G75*
G03X260033Y95168I-296*
G01*
G75*
G03X259977Y95291I-818J-297*
G01*
G75*
G03X259896Y95415I-877J-485*
G01*
G75*
G03X259800Y95522I-689J-522*
G01*
G75*
G02X259670Y95669I693J741*
G01*
G75*
G02X259596Y95818I424J304*
G01*
G75*
G02X259560Y96012I798J249*
G01*
G75*
G02X259550Y96322I4685J304*
G01*
G75*
G02X259605Y96833I2432*
G01*
G75*
G02X259780Y97126I520J-111*
G01*
G75*
G02X260117Y97278I432J-507*
G01*
G75*
G02X260726Y97322I609J-4254*
G01*
G75*
G02X261003Y97314I-4J-5305*
G01*
G75*
G02X261247Y97292I-168J-3219*
G01*
G75*
G02X261443Y97261I-423J-3293*
G01*
G75*
G02X261500Y97222I-16J-85*
G01*
G75*
G03X261704Y97107I204J126*
G01*
G75*
G03X262870Y97117I188J50890*
G01*
G75*
G03X263990Y97160I-554J28845*
G01*
G75*
G03X264432Y97278I-66J1136*
G01*
G75*
G03X264903Y97623I-768J1538*
G01*
G75*
G03X265124Y98052I-604J582*
G01*
G75*
G03X265077Y98548I-893J166*
G01*
G75*
G03X264768Y99087I-1959J-763*
G01*
G75*
G02X263967Y100112I103483J81718*
G01*
G75*
G02X263281Y101013I60161J46543*
G01*
G75*
G02X262682Y101814I230375J172811*
G01*
G75*
G02X262650Y101911I130J96*
G01*
G75*
G03X262640Y101952I-91J-1*
G01*
G75*
G03X262607Y102007I-398J-202*
G01*
G75*
G03X262559Y102067I-456J-319*
G01*
G75*
G03X262502Y102120I-449J-422*
G01*
G75*
G02X262378Y102252I463J560*
G01*
G75*
G02X262251Y102451I1677J1215*
G01*
G75*
G02X262048Y102826I9930J5613*
G01*
G75*
G02X261475Y103939I468609J241887*
G01*
G75*
G02X261241Y104411I17175J8817*
G01*
G75*
G02X261033Y104864I13874J6650*
G01*
G75*
G02X260869Y105250I13386J5891*
G01*
G75*
G02X260811Y105446I946J386*
G01*
G75*
G02X260793Y105635I1078J201*
G01*
G75*
G02X260795Y105959I8470J111*
G01*
G75*
G02X260812Y106336I9520J-250*
G01*
G75*
G02X260844Y106718I10183J-669*
G01*
G75*
G02X260908Y107244I16119J-1672*
G01*
G75*
G02X260972Y107538I1875J-257*
G01*
G75*
G02X261065Y107744I832J-252*
G01*
G75*
G02X261214Y107936I994J-616*
G01*
G75*
G02X261358Y108066I968J-929*
G01*
G75*
G02X261500Y108154I472J-603*
G01*
G75*
G02X261650Y108204I287J-606*
G01*
G75*
G02X261815Y108222I166J-787*
G01*
G75*
G02X262099Y108165J-744*
G01*
G75*
G02X262266Y108007I-122J-296*
G01*
G75*
G02X262314Y107736I-465J-222*
G01*
G75*
G02X262238Y107335I-2257J218*
G01*
G75*
G03X262190Y107143I3015J-857*
G01*
G75*
G03X262155Y106949I3020J-652*
G01*
G75*
G03X262135Y106778I2658J-400*
G01*
G75*
G03X262138Y106672I440J-39*
G01*
G75*
G03X262233Y106354I1244J197*
G01*
G75*
G03X262511Y105763I14342J6409*
G01*
G75*
G03X262835Y105151I12519J6229*
G01*
G75*
G03X263134Y104672I5411J3037*
G01*
G75*
G03X263982Y103538I14699J10113*
G01*
G75*
G03X265006Y102348I20935J16989*
G01*
G75*
G03X265992Y101318I22807J20836*
G01*
G75*
G03X266526Y100957I1203J1205*
G01*
G75*
G03X266719Y100887I740J1735*
G01*
G75*
G03X266854Y100871I113J371*
G01*
G75*
G03X266990Y100902I-23J417*
G01*
G75*
G03X267188Y100994I-895J2166*
G01*
G75*
G03X267526Y101239I-698J1322*
G01*
G75*
G03X268289Y101989I-30869J32167*
G01*
G75*
G03X269078Y102793I-66914J66460*
G01*
G75*
G03X269150Y102971I-183J178*
G01*
G75*
G02X269164Y103017I83*
G01*
G75*
G02X269260Y103159I5679J-3746*
G01*
G75*
G02X269381Y103325I4089J-2857*
G01*
G75*
G02X269525Y103508I6502J-4956*
G01*
G75*
G03X269676Y103698I-12837J10356*
G01*
G75*
G03X269819Y103883I-11426J8960*
G01*
G75*
G03X269939Y104044I-10618J8043*
G01*
G75*
G03X270000Y104135I-1073J792*
G01*
G75*
G02X270076Y104241I769J-471*
G01*
G75*
G02X270350Y104565I44552J-37254*
G01*
G75*
G02X270679Y104948I32972J-27996*
G01*
G75*
G02X271050Y105372I50333J-43737*
G01*
G75*
G03X271419Y105796I-27491J24286*
G01*
G75*
G03X271740Y106179I-17525J15023*
G01*
G75*
G03X272005Y106506I-25271J20731*
G01*
G75*
G03X272065Y106609I-318J254*
G01*
G75*
G02X272187Y106805I600J-238*
G01*
G75*
G02X272440Y107055I2506J-2281*
G01*
G75*
G02X272753Y107306I2557J-2867*
G01*
G75*
G02X273078Y107512I1917J-2666*
G01*
G75*
G02X273492Y107670I758J-1369*
G01*
G75*
G02X273981Y107728I521J-2307*
G01*
G75*
G02X274425Y107685I28J-2050*
G01*
G75*
G02X274689Y107534I-100J-480*
G01*
G75*
G03X274789Y107455I288J261*
G01*
G75*
G03X274941Y107384I559J1010*
G01*
G75*
G03X275126Y107328I516J1363*
G01*
G75*
G03X275326Y107294I396J1709*
G01*
G75*
G02X275576Y107250I-231J-2065*
G01*
G75*
G02X275765Y107180I-194J-812*
G01*
G75*
G02X275934Y107065I-395J-764*
G01*
G75*
G02X276122Y106883I-1502J-1729*
G01*
G75*
G02X276310Y106654I-1985J-1822*
G01*
G75*
G02X276400Y106474I-496J-362*
G01*
G75*
G02X276440Y106249I-858J-268*
G01*
G75*
G02X276450Y105830I-8800J-424*
G01*
G75*
G02X276443Y105546I-5930J7*
G01*
G75*
G02X276423Y105270I-5393J254*
G01*
G75*
G02X276394Y105035I-4748J476*
G01*
G75*
G02X276358Y104903I-589J88*
G01*
G75*
G02X276182Y104613I-947J377*
G01*
G75*
G02X275046Y103309I-195633J169264*
G01*
G75*
G02X273619Y101705I-111835J98045*
G01*
G75*
G02X271789Y99692I-281537J254204*
G01*
G75*
G03X271199Y99038I40278J-36897*
G01*
G75*
G03X270702Y98463I22685J-20111*
G01*
G75*
G03X270285Y97964I54272J-45751*
G01*
G75*
G03X270250Y97867I117J-96*
G01*
G75*
G03X270281Y97799I90*
G01*
G75*
G03X270366Y97753I143J164*
G01*
G75*
G03X270521Y97728I192J705*
G01*
G75*
G03X270780Y97722I257J4922*
G01*
G75*
G03X270990Y97728I6J3304*
G01*
G75*
G03X271182Y97748I-156J2371*
G01*
G75*
G03X271339Y97777I-306J2112*
G01*
G75*
G03X271405Y97813I-30J136*
G01*
G75*
G02X271472Y97851I109J-114*
G01*
G75*
G02X271634Y97891I719J-2552*
G01*
G75*
G02X271833Y97926I596J-2799*
G01*
G75*
G02X272050Y97950I550J-3919*
G01*
G75*
G03X272314Y97977I-735J8666*
G01*
G75*
G03X272659Y98019I-2927J25190*
G01*
G75*
G03X273023Y98069I-3471J26815*
G01*
G75*
G03X273350Y98119I-2539J17730*
G01*
G75*
G02X274046Y98200I1274J-7869*
G01*
G75*
G02X274587Y98189I210J-2868*
G01*
G75*
G02X275011Y98086I-204J-1763*
G01*
G75*
G02X275350Y97887I-415J-1093*
G01*
G75*
G03X275499Y97779I809J959*
G01*
G75*
G03X275662Y97694I657J1066*
G01*
G75*
G03X275823Y97640I431J1006*
G01*
G75*
G03X275967Y97622I144J564*
G01*
G75*
G02X276251Y97569I-1J-799*
G01*
G75*
G02X276548Y97415I-507J-1341*
G01*
G75*
G02X276813Y97187I-871J-1282*
G01*
G75*
G02X277002Y96919I-893J-827*
G01*
G75*
G02X277099Y96609I-835J-433*
G01*
G75*
G02X277140Y96105I-5073J-666*
G01*
G75*
G02X277131Y95597I-5077J-164*
G01*
G75*
G02X277054Y95266I-1074J74*
G01*
D02*
D18*
X152661Y201579D02*
X152282Y200821D01*
X151524Y200442*
X150009*
X149251Y200821*
X148872Y201579*
X149251Y202337*
X150009Y202716*
X151524*
X152282Y203094*
X152661Y203852*
X152282Y204610*
X151524Y204989*
X150009*
X149251Y204610*
X148872Y203852*
X146598Y203474D02*
X146219Y201958D01*
X145461Y201200*
X144704*
X143946Y201958*
X143567Y203474*
X143946Y201958D02*
X144325Y200442D01*
X144704Y199684*
X145461Y199305*
X146219Y199684*
X140535Y200442D02*
Y203474D01*
Y203094D02*
X140156Y203474D01*
X139398*
X139020Y203094*
Y201958*
Y203094D02*
X138641Y203474D01*
X137883*
X137504Y203094*
Y200442*
X134472Y203474D02*
Y199305D01*
Y201579D02*
X134093Y200821D01*
X133335Y200442*
X132578*
X131820Y200821*
X131441Y201579*
Y202337*
X131820Y203094*
X132578Y203474*
X133335*
X134093Y203094*
X134472Y202337*
Y201579*
X126515Y200442D02*
X126894D01*
Y204989*
X119315Y200821D02*
X119694Y200442D01*
X120452*
X121209*
X121967Y200821*
X122346Y201579*
Y202716*
X121967Y203094*
X121209Y203474*
X120452*
X119694Y203094*
X119315Y202716*
Y202337*
X119694Y201958*
X120452Y201579*
X121209*
X121967Y201958*
X122346Y202337*
X116283Y201579D02*
X115904Y200821D01*
X115146Y200442*
X113631*
X112873Y200821*
X112494Y201579*
X112873Y202337*
X113631Y202716*
X115146*
X115904Y203094*
X116283Y203852*
X115904Y204610*
X115146Y204989*
X113631*
X112873Y204610*
X112494Y203852*
X107189Y200821D02*
X107568Y200442D01*
X108326*
X109083*
X109841Y200821*
X110220Y201579*
Y202716*
X109841Y203094*
X109083Y203474*
X108326*
X107568Y203094*
X107189Y202716*
Y202337*
X107568Y201958*
X108326Y201579*
X109083*
X109841Y201958*
X110220Y202337*
X104157Y200442D02*
Y203474D01*
Y202337D02*
X103778Y203094D01*
X103020Y203474*
X102263*
X101505Y203094*
X98094Y203474D02*
X96579Y200442D01*
X95063Y203474*
X92031Y201579D02*
X91652Y200821D01*
X90894Y200442*
X90137*
X89379Y200821*
X89000Y201579*
Y202337*
X89379Y203094*
X90137Y203474*
X90894*
X91652Y203094*
X92031Y202337*
Y201579*
X83316Y202716D02*
X82558Y202337D01*
X82179Y201579*
X82558Y200821*
X83316Y200442*
X85969*
Y204989*
X83316*
X82558Y204610*
X82179Y203852*
X82558Y203094*
X83316Y202716*
X85969*
X79906Y201579D02*
X79526Y200821D01*
X78769Y200442*
X78011*
X77253Y200821*
X76874Y201579*
Y202337*
X77253Y203094*
X78011Y203474*
X78769*
X79526Y203094*
X79906Y202337*
Y201579*
X73843Y200442D02*
Y203474D01*
Y202337D02*
X73463Y203094D01*
X72706Y203474*
X71948*
X71190Y203094*
X64748Y202337D02*
X65127Y203094D01*
X65885Y203474*
X66643*
X67400Y203094*
X67780Y202337*
Y201579*
X67400Y200821*
X66643Y200442*
X65885*
X65127Y200821*
X64748Y201579*
Y200442D02*
Y204989D01*
X310142Y201579D02*
X309763Y200821D01*
X309005Y200442*
X307489*
X306731Y200821*
X306352Y201579*
X306731Y202337*
X307489Y202716*
X309005*
X309763Y203094*
X310142Y203852*
X309763Y204610*
X309005Y204989*
X307489*
X306731Y204610*
X306352Y203852*
X304079Y203474D02*
X303700Y201958D01*
X302942Y201200*
X302184*
X301426Y201958*
X301047Y203474*
X301426Y201958D02*
X301805Y200442D01*
X302184Y199684*
X302942Y199305*
X303700Y199684*
X298016Y200442D02*
Y203474D01*
Y203094D02*
X297637Y203474D01*
X296879*
X296500Y203094*
Y201958*
Y203094D02*
X296121Y203474D01*
X295363*
X294984Y203094*
Y200442*
X291953Y203474D02*
Y199305D01*
Y201579D02*
X291574Y200821D01*
X290816Y200442*
X290058*
X289300Y200821*
X288921Y201579*
Y202337*
X289300Y203094*
X290058Y203474*
X290816*
X291574Y203094*
X291953Y202337*
Y201579*
X283995Y200442D02*
X284374D01*
Y204989*
X276795Y200821D02*
X277174Y200442D01*
X277932*
X278690*
X279448Y200821*
X279827Y201579*
Y202716*
X279448Y203094*
X278690Y203474*
X277932*
X277174Y203094*
X276795Y202716*
Y202337*
X277174Y201958*
X277932Y201579*
X278690*
X279448Y201958*
X279827Y202337*
X273764Y201579D02*
X273385Y200821D01*
X272627Y200442*
X271111*
X270353Y200821*
X269974Y201579*
X270353Y202337*
X271111Y202716*
X272627*
X273385Y203094*
X273764Y203852*
X273385Y204610*
X272627Y204989*
X271111*
X270353Y204610*
X269974Y203852*
X264669Y200821D02*
X265048Y200442D01*
X265806*
X266564*
X267322Y200821*
X267701Y201579*
Y202716*
X267322Y203094*
X266564Y203474*
X265806*
X265048Y203094*
X264669Y202716*
Y202337*
X265048Y201958*
X265806Y201579*
X266564*
X267322Y201958*
X267701Y202337*
X261638Y200442D02*
Y203474D01*
Y202337D02*
X261259Y203094D01*
X260501Y203474*
X259743*
X258985Y203094*
X255575Y203474D02*
X254059Y200442D01*
X252543Y203474*
X249512Y201579D02*
X249133Y200821D01*
X248375Y200442*
X247617*
X246859Y200821*
X246480Y201579*
Y202337*
X246859Y203094*
X247617Y203474*
X248375*
X249133Y203094*
X249512Y202337*
Y201579*
X240796Y202716D02*
X240038Y202337D01*
X239659Y201579*
X240038Y200821*
X240796Y200442*
X243449*
Y204989*
X240796*
X240038Y204610*
X239659Y203852*
X240038Y203094*
X240796Y202716*
X243449*
X237386Y201579D02*
X237007Y200821D01*
X236249Y200442*
X235491*
X234733Y200821*
X234354Y201579*
Y202337*
X234733Y203094*
X235491Y203474*
X236249*
X237007Y203094*
X237386Y202337*
Y201579*
X231323Y200442D02*
Y203474D01*
Y202337D02*
X230944Y203094D01*
X230186Y203474*
X229428*
X228670Y203094*
X222228Y202337D02*
X222607Y203094D01*
X223365Y203474*
X224123*
X224881Y203094*
X225260Y202337*
Y201579*
X224881Y200821*
X224123Y200442*
X223365*
X222607Y200821*
X222228Y201579*
Y200442D02*
Y204989D01*
D02*
D70*
X83915Y61770D02*
Y72431D01*
X89852*
Y61770*
X83915*
X103384Y14644D02*
Y25305D01*
X109321*
Y14644*
X103384*
X107241Y37069D02*
X108491D01*
X107866D02*
Y33319D01*
X107241D02*
X108491D01*
X114428Y36443D02*
X114116Y36756D01*
X113491Y37069*
X112553*
X111928Y36756*
X111616Y36443*
X111303Y35819*
Y34569*
X111616Y33943*
X111928Y33631*
X112553Y33319*
X113491*
X114116Y33631*
X114428Y33943*
X118803Y37069D02*
X116303D01*
X118491Y34881*
X118803Y34256*
X118491Y33631*
X117866Y33319*
X116928*
X116303Y33631*
X106303Y43069D02*
X107866Y39319D01*
X109428Y43069*
X106928Y41506D02*
X108803D01*
X111303Y43069D02*
Y39319D01*
X113491*
X114116Y39631*
X114428Y40256*
X114116Y40881*
X113491Y41193*
X111303*
X116303Y43069D02*
X118803Y39319D01*
X116303*
X121616Y42756D02*
X122241Y43069D01*
X122866*
X123491Y42756*
X123803Y42131*
X123491Y41506*
X122866Y41193*
X122241*
X122866D02*
X123491Y40881D01*
X123803Y40256*
X123491Y39631*
X122866Y39319*
X122241*
X121616Y39631*
X126616Y42756D02*
X127241Y43069D01*
X127866*
X128491Y42756*
X128803Y42131*
X128491Y41506*
X127866Y41193*
X127241*
X127866D02*
X128491Y40881D01*
X128803Y40256*
X128491Y39631*
X127866Y39319*
X127241*
X126616Y39631*
X131616Y42756D02*
X132241Y43069D01*
X132866*
X133491Y42756*
X133803Y42131*
X133491Y41506*
X132866Y41193*
X132241*
X132866D02*
X133491Y40881D01*
X133803Y40256*
X133491Y39631*
X132866Y39319*
X132241*
X131616Y39631*
X136303Y41819D02*
X138803D01*
X141616Y42756D02*
X142241Y43069D01*
X142866*
X143491Y42756*
X143803Y42131*
X143491Y41506*
X142866Y41193*
X142241*
X142866D02*
X143491Y40881D01*
X143803Y40256*
X143491Y39631*
X142866Y39319*
X142241*
X141616Y39631*
X146616Y42756D02*
X147241Y43069D01*
X147866*
X148491Y42756*
X148803Y42131*
X148491Y41506*
X147866Y41193*
X147241*
X147866D02*
X148491Y40881D01*
X148803Y40256*
X148491Y39631*
X147866Y39319*
X147241*
X146616Y39631*
X151303Y42131D02*
X151616Y42756D01*
X152241Y43069*
X153491*
X154116Y42756*
X154428Y42131*
X154116Y41506*
X153491Y41193*
X152241*
X151616Y40881*
X151303Y40256*
X151616Y39631*
X152241Y39319*
X153491*
X154116Y39631*
X154428Y40256*
X156303Y43069D02*
X157866Y39319D01*
X159428Y43069*
X156928Y41506D02*
X158803D01*
X163491D02*
X164428D01*
Y41819*
X164116Y42443*
X163803Y42756*
X163178Y43069*
X162553*
X161928Y42756*
X161616Y42443*
X161303Y41819*
Y40569*
X161616Y39943*
X161928Y39631*
X162553Y39319*
X163178*
X163803Y39631*
X164116Y39943*
X164428Y40569*
X166303Y41819D02*
X168803D01*
X171303Y43069D02*
X173803Y39319D01*
X171303*
X125510Y15293D02*
Y25955D01*
X131447*
Y15293*
X125510*
X132429Y79222D02*
X143091D01*
Y73285*
X132429*
Y79222*
X144603Y64874D02*
X148353D01*
Y63311D02*
Y66436D01*
X144603Y68311D02*
X148353D01*
Y70498*
X148041Y71124*
X147415Y71436*
X146791Y71124*
X146478Y70498*
Y68311*
Y70498D02*
X144603Y71436D01*
X144004Y72872D02*
Y83533D01*
X149941*
Y72872*
X144004*
X241396Y61770D02*
Y72431D01*
X247333*
Y61770*
X241396*
X260864Y14644D02*
Y25305D01*
X266801*
Y14644*
X260864*
X264721Y37069D02*
X265971D01*
X265346D02*
Y33319D01*
X264721D02*
X265971D01*
X271909Y36443D02*
X271596Y36756D01*
X270971Y37069*
X270033*
X269409Y36756*
X269096Y36443*
X268783Y35819*
Y34569*
X269096Y33943*
X269409Y33631*
X270033Y33319*
X270971*
X271596Y33631*
X271909Y33943*
X275346Y37069D02*
Y33319D01*
X273783Y35819*
X276283*
X263783Y43069D02*
X265346Y39319D01*
X266909Y43069*
X264409Y41506D02*
X266283D01*
X268783Y43069D02*
Y39319D01*
X270971*
X271596Y39631*
X271909Y40256*
X271596Y40881*
X270971Y41193*
X268783*
X273783Y43069D02*
X276283Y39319D01*
X273783*
X279096Y42756D02*
X279721Y43069D01*
X280346*
X280971Y42756*
X281283Y42131*
X280971Y41506*
X280346Y41193*
X279721*
X280346D02*
X280971Y40881D01*
X281283Y40256*
X280971Y39631*
X280346Y39319*
X279721*
X279096Y39631*
X284096Y42756D02*
X284721Y43069D01*
X285346*
X285971Y42756*
X286283Y42131*
X285971Y41506*
X285346Y41193*
X284721*
X285346D02*
X285971Y40881D01*
X286283Y40256*
X285971Y39631*
X285346Y39319*
X284721*
X284096Y39631*
X289096Y42756D02*
X289721Y43069D01*
X290346*
X290971Y42756*
X291283Y42131*
X290971Y41506*
X290346Y41193*
X289721*
X290346D02*
X290971Y40881D01*
X291283Y40256*
X290971Y39631*
X290346Y39319*
X289721*
X289096Y39631*
X293783Y41819D02*
X296283D01*
X299096Y42756D02*
X299721Y43069D01*
X300346*
X300971Y42756*
X301283Y42131*
X300971Y41506*
X300346Y41193*
X299721*
X300346D02*
X300971Y40881D01*
X301283Y40256*
X300971Y39631*
X300346Y39319*
X299721*
X299096Y39631*
X304096Y42756D02*
X304721Y43069D01*
X305346*
X305971Y42756*
X306283Y42131*
X305971Y41506*
X305346Y41193*
X304721*
X305346D02*
X305971Y40881D01*
X306283Y40256*
X305971Y39631*
X305346Y39319*
X304721*
X304096Y39631*
X308783Y42131D02*
X309096Y42756D01*
X309721Y43069*
X310971*
X311596Y42756*
X311909Y42131*
X311596Y41506*
X310971Y41193*
X309721*
X309096Y40881*
X308783Y40256*
X309096Y39631*
X309721Y39319*
X310971*
X311596Y39631*
X311909Y40256*
X313783Y43069D02*
X315346Y39319D01*
X316909Y43069*
X314409Y41506D02*
X316283D01*
X320971D02*
X321909D01*
Y41819*
X321596Y42443*
X321283Y42756*
X320659Y43069*
X320033*
X319409Y42756*
X319096Y42443*
X318783Y41819*
Y40569*
X319096Y39943*
X319409Y39631*
X320033Y39319*
X320659*
X321283Y39631*
X321596Y39943*
X321909Y40569*
X323783Y41819D02*
X326283D01*
X328783Y43069D02*
X331283Y39319D01*
X328783*
X282990Y15293D02*
Y25955D01*
X288927*
Y15293*
X282990*
X289909Y79222D02*
X300571D01*
Y73285*
X289909*
Y79222*
X302083Y64874D02*
X305833D01*
Y63311D02*
Y66436D01*
X303021Y68311D02*
X302396Y68624D01*
X302083Y69248*
Y70498*
X302396Y71124*
X303021Y71436*
X303646Y71124*
X303958Y70498*
Y69248*
X304271Y68624*
X304896Y68311*
X305521Y68624*
X305833Y69248*
Y70498*
X305521Y71124*
X304896Y71436*
X301484Y72872D02*
Y83533D01*
X307421*
Y72872*
X301484*
D02*
D71*
X74829Y83608D02*
G75*
G02Y83971J181D01*
G01*
G75*
G02Y83608J-181*
G01*
X232309D02*
G75*
G02Y83971J181D01*
G01*
G75*
G02Y83608J-181*
G01*
D02*
D20*
X123173Y26175D02*
Y27947D01*
X111756*
Y26175*
X123173*
X123508Y20663D02*
Y24797D01*
X280654Y26175D02*
Y27947D01*
X269236*
Y26175*
X280654*
X280988Y20663D02*
Y24797D01*
X0Y0D02*
M02*
