G04 EasyPC Gerber Version 21.0.3 Build 4286 *
G04 #@! TF.Part,Single*
G04 #@! TF.FileFunction,Copper,L1,Top *
G04 #@! TF.FilePolarity,Positive *
%FSLAX45Y45*%
%MOIN*%
G04 #@! TA.AperFunction,SMDPad*
%ADD28R,0.02362X0.05807*%
%ADD25R,0.02559X0.03937*%
%ADD93R,0.03346X0.03740*%
G04 #@! TA.AperFunction,ComponentPad*
%ADD95R,0.10630X0.10630*%
G04 #@! TD.AperFunction*
%ADD70C,0.00500*%
%ADD71C,0.01000*%
%ADD78C,0.01500*%
%ADD22C,0.01575*%
G04 #@! TA.AperFunction,ViaPad*
%ADD77C,0.02362*%
G04 #@! TD.AperFunction*
%ADD90C,0.05000*%
G04 #@! TA.AperFunction,ComponentPad*
%ADD74C,0.06693*%
%ADD96C,0.10630*%
G04 #@! TA.AperFunction,WasherPad*
%ADD91C,0.13386*%
G04 #@! TA.AperFunction,SMDPad*
%ADD73R,0.08268X0.01575*%
%ADD27R,0.05807X0.02362*%
%ADD26R,0.03937X0.02559*%
%ADD92R,0.05906X0.02559*%
%ADD29R,0.03740X0.03346*%
X0Y0D02*
D02*
D70*
X56470Y75530D02*
X47749D01*
G75*
G02X45289Y67866I-2459J-3437*
G01*
G75*
G02X41988Y69454J4226*
G01*
Y65291*
G75*
G02X49886Y62093I3301J-3198*
G01*
G75*
G02X41988Y58894I-4596*
G01*
Y54731*
G75*
G02X49189Y53722I3301J-2639*
G01*
X62065*
Y59276*
G75*
G02X62544Y60430I1630*
G01*
X68758Y66644*
Y69106*
X74455*
Y68850*
X77970*
Y71732*
X77136*
G75*
G02X76028Y71297I-1108J1196*
G01*
X75008*
Y71260*
X64980*
Y74594*
X74961*
G75*
G02X75557Y74922I1066J-1233*
G01*
G75*
G02X74559Y75614I362J1589*
G01*
X64610*
Y79689*
X74067*
X73047Y80709*
X64980*
Y83339*
X59976Y78304*
X59973Y78302*
X57739Y76057*
G75*
G02X56470Y75530I-1268J1260*
G01*
G36*
X47749*
G75*
G02X45289Y67866I-2459J-3437*
G01*
G75*
G02X41988Y69454J4226*
G01*
Y65291*
G75*
G02X49886Y62093I3301J-3198*
G01*
G75*
G02X41988Y58894I-4596*
G01*
Y54731*
G75*
G02X49189Y53722I3301J-2639*
G01*
X62065*
Y59276*
G75*
G02X62544Y60430I1630*
G01*
X68758Y66644*
Y69106*
X74455*
Y68850*
X77970*
Y71732*
X77136*
G75*
G02X76028Y71297I-1108J1196*
G01*
X75008*
Y71260*
X64980*
Y74594*
X74961*
G75*
G02X75557Y74922I1066J-1233*
G01*
G75*
G02X74559Y75614I362J1589*
G01*
X64610*
Y79689*
X74067*
X73047Y80709*
X64980*
Y83339*
X59976Y78304*
X59973Y78302*
X57739Y76057*
G75*
G02X56470Y75530I-1268J1260*
G01*
G37*
X85537Y68364D02*
Y55736D01*
X107030*
Y56106*
X111341*
Y74881*
X89666*
G75*
G02X87648Y76511I-351J1630*
G01*
G75*
G02X89666Y78141I1667*
G01*
X111341*
Y81539*
X89844*
Y81169*
X85537*
Y71939*
X86884*
G75*
G02Y68364J-1787*
G01*
X85537*
G36*
Y55736*
X107030*
Y56106*
X111341*
Y74881*
X89666*
G75*
G02X87648Y76511I-351J1630*
G01*
G75*
G02X89666Y78141I1667*
G01*
X111341*
Y81539*
X89844*
Y81169*
X85537*
Y71939*
X86884*
G75*
G02Y68364J-1787*
G01*
X85537*
G37*
X107943Y47799D02*
Y47697D01*
X120962*
G75*
G02X122980Y46067I351J-1630*
G01*
G75*
G02X120962Y44437I-1667*
G01*
X106313*
G75*
G02X104793Y45478J1630*
G01*
Y42944*
G75*
G02X104830Y42593I-1630J-351*
G01*
G75*
G02X101496I-1667*
G01*
G75*
G02X101533Y42944I1667*
G01*
Y48169*
X85352*
Y55551*
X83383*
Y45916*
G75*
G02X83421Y45565I-1630J-351*
G01*
G75*
G02X80086I-1667*
G01*
G75*
G02X80124Y45916I1667*
G01*
Y55551*
X77970*
Y65275*
X74455*
Y64787*
X71512*
X70650Y63925*
X74825*
Y58866*
X68388*
Y61663*
X65325Y58600*
Y52824*
G75*
G02X65498Y52093I-1456J-731*
G01*
Y51657*
X80217Y36939*
X89907*
G75*
G02X91374I733J-1630*
G01*
X105932*
G75*
G02X106635I351J-1630*
G01*
X128571*
Y53059*
X127368Y54263*
Y49453*
X120931*
Y54512*
X127119*
X126257Y55374*
X121301*
Y55746*
X118907*
Y55551*
X111892*
Y47799*
X107943*
G36*
Y47697*
X120962*
G75*
G02X122980Y46067I351J-1630*
G01*
G75*
G02X120962Y44437I-1667*
G01*
X106313*
G75*
G02X104793Y45478J1630*
G01*
Y42944*
G75*
G02X104830Y42593I-1630J-351*
G01*
G75*
G02X101496I-1667*
G01*
G75*
G02X101533Y42944I1667*
G01*
Y48169*
X85352*
Y55551*
X83383*
Y45916*
G75*
G02X83421Y45565I-1630J-351*
G01*
G75*
G02X80086I-1667*
G01*
G75*
G02X80124Y45916I1667*
G01*
Y55551*
X77970*
Y65275*
X74455*
Y64787*
X71512*
X70650Y63925*
X74825*
Y58866*
X68388*
Y61663*
X65325Y58600*
Y52824*
G75*
G02X65498Y52093I-1456J-731*
G01*
Y51657*
X80217Y36939*
X89907*
G75*
G02X91374I733J-1630*
G01*
X105932*
G75*
G02X106635I351J-1630*
G01*
X128571*
Y53059*
X127368Y54263*
Y49453*
X120931*
Y54512*
X127119*
X126257Y55374*
X121301*
Y55746*
X118907*
Y55551*
X111892*
Y47799*
X107943*
G37*
X178726Y197191D02*
G75*
G02X164331Y200476I-6823J3286D01*
G01*
G75*
G02X168618Y207299I7573*
G01*
X34700*
G75*
G02X38987Y200476I-3286J-6823*
G01*
G75*
G02X24608Y197155I-7573*
G01*
Y23956*
G75*
G02X38987Y20634I6806J-3322*
G01*
G75*
G02X34700Y13811I-7573*
G01*
X168618*
G75*
G02X164331Y20634I3286J6823*
G01*
G75*
G02X178726Y23920I7573*
G01*
Y197191*
X135115Y77502D02*
G75*
G02X137134Y75872I351J-1630D01*
G01*
G75*
G02X135115Y74242I-1667*
G01*
X128459*
Y73713*
X121378*
Y73362*
G75*
G02X121344Y73031I-1630J0*
G01*
X128459*
Y68713*
X125264*
G75*
G02X124626Y68582I-639J1500*
G01*
X122048*
G75*
G02Y65543I-686J-1520*
G01*
X123639*
G75*
G02X124952Y62551I351J-1630*
G01*
X127268*
G75*
G02Y58976J-1787*
G01*
X127164*
G75*
G02X127554Y58688I-762J-1440*
G01*
X131354Y54887*
G75*
G02X131831Y53734I-1153J-1152*
G01*
Y35309*
G75*
G02X130201Y33679I-1630*
G01*
X106635*
G75*
G02X105932I-351J1630*
G01*
X92428*
Y29827*
G75*
G02X91898Y28556I-1787*
G01*
X85805Y22530*
Y20362*
X81486*
Y26059*
X84290*
X88854Y30573*
Y33679*
X79541*
G75*
G02X78387Y34158J1630*
G01*
X62717Y49828*
G75*
G02X62323Y50463I1151J1154*
G01*
X49189*
G75*
G02X41390I-3900J1630*
G01*
X40934*
G75*
G02X39467I-733J1630*
G01*
X39189*
G75*
G02X31063Y52093I-3900J1630*
G01*
G75*
G02X38413Y54939I4226*
G01*
Y59246*
G75*
G02X31063Y62093I-3124J2846*
G01*
G75*
G02X38413Y64939I4226*
G01*
Y69246*
G75*
G02X31227Y73257I-3124J2846*
G01*
X27396Y77088*
G75*
G02X26917Y78242I1151J1154*
G01*
Y93803*
G75*
G02X27396Y94957I1630*
G01*
X30582Y98143*
G75*
G02X31736Y98622I1154J-1151*
G01*
X32276*
G75*
G02X35289Y106689I3014J3470*
G01*
G75*
G02X38303Y98622J-4596*
G01*
X42877*
G75*
G02X45289Y106319I2412J3470*
G01*
G75*
G02X47702Y98622J-4226*
G01*
X58137*
G75*
G02X60156Y96992I351J-1630*
G01*
G75*
G02X58137Y95362I-1667*
G01*
X47967*
G75*
G02X45289Y87866I-2678J-3270*
G01*
G75*
G02X42611Y95362J4226*
G01*
X38520*
G75*
G02X35289Y87496I-3231J-3270*
G01*
G75*
G02X31159Y94110I0J4596*
G01*
X30177Y93128*
Y78917*
X33282Y75812*
G75*
G02X38413Y74939I2007J-3719*
G01*
Y77317*
G75*
G02X40201Y79104I1787*
G01*
X42300*
G75*
G02X45289Y86319I2989J2988*
G01*
G75*
G02X48278Y79104J-4226*
G01*
X55728*
X57440Y80824*
X57440*
X64989Y88419*
G75*
G02X66257Y88947I1268J-1260*
G01*
X69606*
Y89319*
X75303*
Y88615*
G75*
G02X75722Y88311I-735J-1455*
G01*
X82313Y81720*
X84982*
Y89476*
X87313*
X87239Y89551*
G75*
G02X86760Y90705I1151J1154*
G01*
Y99990*
X86230*
Y105687*
X90549*
Y99990*
X90020*
Y91380*
X91716Y89684*
G75*
G02X91927Y89425I-1152J-1154*
G01*
Y107789*
G75*
G02X92452Y109056I1787*
G01*
X94498Y111101*
Y113512*
X98817*
Y107815*
X96268*
X95502Y107049*
Y106022*
X99024*
Y100325*
X98651*
Y93898*
G75*
G02X101533Y93623I1362J-961*
G01*
Y93934*
G75*
G02X104683Y94971I1630J351*
G01*
Y95302*
G75*
G02X104645Y95654I1630J351*
G01*
G75*
G02X107980I1667*
G01*
G75*
G02X107943Y95302I-1667*
G01*
Y91389*
G75*
G02X111092Y90352I1520J-686*
G01*
Y89106*
X111522*
Y81720*
X113494*
Y85706*
G75*
G02X113456Y86057I1630J351*
G01*
G75*
G02X116791I1667*
G01*
G75*
G02X116754Y85706I-1667*
G01*
Y81720*
X118118*
Y83569*
G75*
G02X118597Y84723I1630*
G01*
X120793Y86919*
Y88031*
X128459*
Y83713*
X122197*
X121886Y83402*
X128829*
Y78343*
X121378*
Y78031*
X128459*
Y77502*
X135115*
X30693Y82093D02*
G75*
G02X39886I4596D01*
G01*
G75*
G02X30693I-4596*
G01*
X75935Y26059D02*
X80254D01*
Y20362*
X75935*
Y21422*
X71073*
Y20583*
X65967*
Y26083*
X71073*
Y24996*
X75935*
Y26059*
X59297Y26453D02*
X65144D01*
Y20213*
X59297*
Y26453*
X41063Y112093D02*
G75*
G02X49516I4226D01*
G01*
G75*
G02X41063I-4226*
G01*
Y122093D02*
G75*
G02X49516I4226D01*
G01*
G75*
G02X41063I-4226*
G01*
Y132093D02*
G75*
G02X49516I4226D01*
G01*
G75*
G02X41063I-4226*
G01*
Y142093D02*
G75*
G02X49516I4226D01*
G01*
G75*
G02X41063I-4226*
G01*
X161466Y131356D02*
G75*
G02X172852Y127976I5192J-3380D01*
G01*
G75*
G02X161466Y124596I-6195*
G01*
X138796*
G75*
G02X138629Y124540I-1165J3172*
G01*
G75*
G02X135813Y124921I-997J3230*
G01*
X135472*
Y125170*
G75*
G02X134252Y127770I2159J2600*
G01*
Y133406*
X86459*
G75*
G02X79869Y135585I-2537J3380*
G01*
X56494Y158961*
G75*
G02X55502Y161352I2388J2392*
G01*
Y185201*
G75*
G02X58882Y188581I3380*
G01*
X65744*
G75*
G02X70819I2537J-3380*
G01*
X75528*
G75*
G02X80378Y188738I2537J-3380*
G01*
X85772*
G75*
G02X90602Y188568I2293J-3550*
G01*
X95528*
G75*
G02X100378Y188725I2537J-3380*
G01*
X105732*
G75*
G02X110217Y188838I2333J-3524*
G01*
X115935*
G75*
G02X120602Y188568I2130J-3650*
G01*
X125528*
G75*
G02X130602I2537J-3380*
G01*
X135528*
G75*
G02X142291Y185188I2537J-3380*
G01*
G75*
G02X135528Y181808I-4226*
G01*
X130602*
G75*
G02X125528I-2537J3380*
G01*
X120602*
G75*
G02X115891Y181563I-2537J3380*
G01*
X110217*
G75*
G02X105772Y181650I-2152J3638*
G01*
X100378*
G75*
G02X95528Y181808I-2313J3537*
G01*
X90602*
G75*
G02X85732Y181663I-2537J3380*
G01*
X80378*
G75*
G02X75528Y181821I-2313J3537*
G01*
X70819*
G75*
G02X65744I-2537J3380*
G01*
X62262*
Y162752*
X84003Y141011*
G75*
G02X86459Y140165I-82J-4226*
G01*
X137632*
G75*
G02X141012Y136785J-3380*
G01*
Y131356*
X161466*
X133839Y175188D02*
G75*
G02X142291I4226D01*
G01*
G75*
G02X133839I-4226*
G01*
X123839D02*
G75*
G02X132291I4226D01*
G01*
G75*
G02X123839I-4226*
G01*
X113839D02*
G75*
G02X122291I4226D01*
G01*
G75*
G02X113839I-4226*
G01*
X103839Y175201D02*
G75*
G02X112291I4226D01*
G01*
G75*
G02X103839I-4226*
G01*
X93839Y175188D02*
G75*
G02X102291I4226D01*
G01*
G75*
G02X93839I-4226*
G01*
X83839D02*
G75*
G02X92291I4226D01*
G01*
G75*
G02X83839I-4226*
G01*
X73839Y175201D02*
G75*
G02X82291I4226D01*
G01*
G75*
G02X73839I-4226*
G01*
X64055D02*
G75*
G02X72508I4226D01*
G01*
G75*
G02X64055I-4226*
G01*
X167187Y68329D02*
G75*
G02X165789Y59354I-1398J-4379D01*
G01*
G75*
G02X162915Y67537J4596*
G01*
X158663*
G75*
G02X155789Y59354I-2874J-3587*
G01*
G75*
G02X152915Y67537J4596*
G01*
X150575*
G75*
G02X149009Y68713J1630*
G01*
X142053*
Y73031*
X148945*
Y73713*
X142053*
Y78031*
X149719*
Y77502*
X150430*
G75*
G02X149691Y78713I883J1370*
G01*
X142053*
Y83031*
X149719*
Y82502*
X151313*
G75*
G02X151854Y82410I0J-1630*
G01*
G75*
G02X155789Y88177I3935J1541*
G01*
G75*
G02X157043Y79914J-4226*
G01*
G75*
G02X157419Y78872I-1253J-1042*
G01*
Y77850*
G75*
G02X158603Y70797I-1630J-3899*
G01*
X162975*
G75*
G02X165789Y78177I2814J3153*
G01*
G75*
G02X167419Y70051J-4226*
G01*
Y69167*
G75*
G02X167187Y68329I-1630J0*
G01*
X161563Y53950D02*
G75*
G02X170015I4226D01*
G01*
G75*
G02X161563I-4226*
G01*
X151563D02*
G75*
G02X160015I4226D01*
G01*
G75*
G02X151563I-4226*
G01*
X161563Y83950D02*
G75*
G02X170015I4226D01*
G01*
G75*
G02X161563I-4226*
G01*
Y93950D02*
G75*
G02X170015I4226D01*
G01*
G75*
G02X161563I-4226*
G01*
X151563D02*
G75*
G02X160015I4226D01*
G01*
G75*
G02X151563I-4226*
G01*
X140181Y104591D02*
X146618D01*
Y99531*
X140181*
Y104591*
X147515Y88031D02*
X149719D01*
Y83713*
X142053*
Y88031*
X144256*
Y94350*
X140551*
Y98669*
X146248*
Y98099*
G75*
G02X147515Y96510I-363J-1589*
G01*
Y88031*
X131331Y105362D02*
X134053D01*
Y100256*
X128553*
Y103530*
X123049Y109033*
X104368*
Y107815*
X100049*
Y113512*
X104368*
Y112293*
X123724*
G75*
G02X124878Y111815J-1630*
G01*
X131331Y105362*
X128183Y99433D02*
X134423D01*
Y93587*
X128183*
Y99433*
X120837Y105461D02*
X126337D01*
Y100354*
X120837*
Y101543*
X104575*
Y100325*
X100256*
Y106022*
X104575*
Y104803*
X120837*
Y105461*
X120467Y99531D02*
X126707D01*
Y93685*
X120467*
Y99531*
X114207Y131067D02*
X120053D01*
Y124827*
X114207*
Y131067*
X129921Y130618D02*
X134240D01*
Y124921*
X129921*
Y126317*
X125982*
Y125197*
X120876*
Y130697*
X125982*
Y129577*
X129921*
Y130618*
X69236Y95240D02*
X75673D01*
Y90181*
X69236*
Y95240*
X79325Y126943D02*
G75*
G02X88518I4596D01*
G01*
G75*
G02X79325I-4596*
G01*
X80309Y106057D02*
X85368D01*
Y99620*
X80309*
Y106057*
X63685Y195201D02*
G75*
G02X72878I4596D01*
G01*
G75*
G02X63685I-4596*
G01*
X73469D02*
G75*
G02X82661I4596D01*
G01*
G75*
G02X73469I-4596*
G01*
X83469Y195188D02*
G75*
G02X92661I4596D01*
G01*
G75*
G02X83469I-4596*
G01*
X93469D02*
G75*
G02X102661I4596D01*
G01*
G75*
G02X93469I-4596*
G01*
X103469Y195201D02*
G75*
G02X112661I4596D01*
G01*
G75*
G02X103469I-4596*
G01*
X113469Y195188D02*
G75*
G02X122661I4596D01*
G01*
G75*
G02X113469I-4596*
G01*
X123469D02*
G75*
G02X132661I4596D01*
G01*
G75*
G02X123469I-4596*
G01*
X133469D02*
G75*
G02X142661I4596D01*
G01*
G75*
G02X133469I-4596*
G01*
X160093Y150132D02*
X173222D01*
Y137002*
X160093*
Y150132*
X30693Y112093D02*
G75*
G02X39886I4596D01*
G01*
G75*
G02X30693I-4596*
G01*
Y132093D02*
G75*
G02X39886I4596D01*
G01*
G75*
G02X30693I-4596*
G01*
X31063Y122093D02*
G75*
G02X39516I4226D01*
G01*
G75*
G02X31063I-4226*
G01*
X30693Y142093D02*
G75*
G02X39886I4596D01*
G01*
G75*
G02X30693I-4596*
G01*
X164787Y23222D02*
G36*
X86506D01*
X85805Y22530*
Y20362*
X81486*
Y23222*
X80254*
Y20362*
X75935*
Y21422*
X71073*
Y20583*
X65967*
Y23222*
X65144*
Y20213*
X59297*
Y23222*
X38530*
G75*
G02X38987Y20634I-7117J-2589*
G01*
G75*
G02X35175Y14061I-7573*
G01*
X168143*
G75*
G02X164331Y20634I3761J6573*
G01*
G75*
G02X164787Y23222I7573J0*
G01*
G37*
X31493Y53950D02*
G36*
X24858D01*
Y24425*
G75*
G02X38530Y23222I6556J-3791*
G01*
X59297*
Y26453*
X65144*
Y23222*
X65967*
Y26083*
X71073*
Y24996*
X75935*
Y26059*
X80254*
Y23222*
X81486*
Y26059*
X84290*
X88854Y30573*
Y33679*
X79541*
G75*
G02X78387Y34158I0J1629*
G01*
X62717Y49828*
G75*
G02X62323Y50463I1153J1155*
G01*
X49189*
G75*
G02X41390I-3900J1630*
G01*
X40934*
G75*
G02X39467I-733J1630*
G01*
X39189*
G75*
G02X31063Y52092I-3900J1630*
G01*
Y52093*
Y52093*
G75*
G02X31493Y53950I4226J0*
G01*
G37*
X178476Y24395D02*
G36*
Y53950D01*
X170015*
G75*
G02X161563I-4226*
G01*
X160015*
G75*
G02X151563I-4226*
G01*
X131816*
G75*
G02X131831Y53734I-1616J-217*
G01*
Y35309*
G75*
G02X130201Y33679I-1630*
G01*
X106635*
G75*
G02X105932I-351J1630*
G01*
X92428*
Y29827*
Y29826*
G75*
G02X91898Y28556I-1787*
G01*
X86506Y23222*
X164787*
G75*
G02X178476Y24395I7117J-2589*
G01*
G37*
X31493Y53950D02*
G36*
G75*
G02X38413Y54939I3796J-1857D01*
G01*
Y59246*
G75*
G02X31063Y62092I-3124J2846*
G01*
Y62093*
Y62093*
G75*
G02X38413Y64939I4226*
G01*
Y66937*
X24858*
Y53950*
X31493*
G37*
X169283Y66937D02*
G36*
G75*
G02X170385Y63950I-3494J-2987D01*
G01*
G75*
G02X165789Y59354I-4596*
G01*
G75*
G02X161193Y63950J4596*
G01*
G75*
G02X162295Y66937I4596J0*
G01*
X159283*
G75*
G02X160385Y63950I-3494J-2987*
G01*
G75*
G02X155789Y59354I-4596*
G01*
G75*
G02X151193Y63950J4596*
G01*
G75*
G02X152295Y66937I4596J0*
G01*
X123025*
G75*
G02X122048Y65543I-1663J126*
G01*
X123639*
G75*
G02X125657Y63913I351J-1630*
G01*
G75*
G02X124952Y62551I-1667*
G01*
X127268*
G75*
G02X129055Y60763J-1787*
G01*
G75*
G02X127268Y58976I-1787*
G01*
X127164*
G75*
G02X127554Y58688I-762J-1440*
G01*
X131354Y54887*
G75*
G02X131816Y53950I-1153J-1152*
G01*
X151563*
G75*
G02X160015I4226*
G01*
X161563*
G75*
G02X170015I4226*
G01*
X178476*
Y66937*
X169283*
G37*
X38413D02*
G36*
Y69246D01*
G75*
G02X31063Y72093I-3124J2846*
G01*
G75*
G02X31227Y73257I4226*
G01*
X27396Y77088*
G75*
G02X26917Y78242I1150J1154*
G01*
Y78242*
Y82093*
X24858*
Y66937*
X38413*
G37*
X41063Y82093D02*
G36*
X39886D01*
G75*
G02X30693I-4596*
G01*
X30177*
Y78917*
X33282Y75812*
G75*
G02X38413Y74939I2007J-3719*
G01*
Y77317*
G75*
G02X40201Y79104I1787*
G01*
X42300*
G75*
G02X41063Y82093I2989J2989*
G01*
G37*
X58701D02*
G36*
X49516D01*
Y82092*
G75*
G02X48278Y79104I-4226J0*
G01*
X55728*
X57440Y80824*
X57440*
X58701Y82093*
G37*
X84982D02*
G36*
X81941D01*
X82313Y81720*
X84982*
Y82093*
G37*
X113494D02*
G36*
X111522D01*
Y81720*
X113494*
Y82093*
G37*
X118118D02*
G36*
X116754D01*
Y81720*
X118118*
Y82093*
G37*
X142053D02*
G36*
X128829D01*
Y78343*
X121378*
Y78031*
X128459*
Y77502*
X135115*
G75*
G02X137134Y75872I352J-1630*
G01*
Y75872*
Y75872*
G75*
G02X135115Y74242I-1667*
G01*
X128459*
Y73713*
X121378*
Y73362*
G75*
G02X121344Y73031I-1668J4*
G01*
X128459*
Y68713*
X125264*
G75*
G02X124626Y68582I-640J1506*
G01*
X122048*
G75*
G02X123030Y67063I-686J-1520*
G01*
G75*
G02X123025Y66937I-1667*
G01*
X152295*
G75*
G02X152915Y67537I3494J-2986*
G01*
X150575*
G75*
G02X149009Y68713I0J1630*
G01*
X142053*
Y73031*
X148945*
Y73713*
X142053*
Y78031*
X149719*
Y77502*
X150430*
G75*
G02X149691Y78713I882J1369*
G01*
X142053*
Y82093*
G37*
X169585D02*
G36*
G75*
G02X161993I-3796J1858D01*
G01*
X159585*
G75*
G02X157043Y79914I-3796J1858*
G01*
G75*
G02X157419Y78872I-1256J-1043*
G01*
Y77850*
G75*
G02X160015Y73950I-1630J-3899*
G01*
G75*
G02X158603Y70797I-4226*
G01*
X162975*
G75*
G02X161563Y73950I2815J3153*
G01*
G75*
G02X165789Y78177I4226*
G01*
G75*
G02X170015Y73950J-4226*
G01*
G75*
G02X167419Y70051I-4226*
G01*
Y69167*
G75*
G02X167187Y68329I-1625J-1*
G01*
G75*
G02X169283Y66937I-1398J-4379*
G01*
X178476*
Y82093*
X169585*
G37*
X162295Y66937D02*
G36*
G75*
G02X162915Y67537I3494J-2986D01*
G01*
X158663*
G75*
G02X159283Y66937I-2874J-3587*
G01*
X162295*
G37*
X26924Y93950D02*
G36*
X24858D01*
Y82093*
X26917*
Y93803*
Y93804*
G75*
G02X26924Y93950I1630J-1*
G01*
G37*
X84982Y82093D02*
G36*
Y89476D01*
X87313*
X87239Y89551*
G75*
G02X86760Y90705I1150J1154*
G01*
Y90705*
Y93950*
X75673*
Y90181*
X69236*
Y93950*
X49085*
G75*
G02X49516Y92093I-3796J-1858*
G01*
G75*
G02X45289Y87866I-4226*
G01*
G75*
G02X41063Y92093J4226*
G01*
G75*
G02X41493Y93950I4226*
G01*
X39494*
G75*
G02X39886Y92093I-4204J-1858*
G01*
G75*
G02X35289Y87496I-4596*
G01*
G75*
G02X30693Y92093J4596*
G01*
G75*
G02X31085Y93950I4596J0*
G01*
X31000*
X30177Y93128*
Y82093*
X30693*
G75*
G02X39886I4596*
G01*
X41063*
G75*
G02X45289Y86319I4227*
G01*
G75*
G02X49516Y82093J-4226*
G01*
X58701*
X64989Y88419*
G75*
G02X66257Y88947I1268J-1259*
G01*
X69606*
Y89319*
X75303*
Y88615*
G75*
G02X75722Y88311I-732J-1452*
G01*
X81941Y82093*
X84982*
G37*
X91927Y93950D02*
G36*
X90020D01*
Y91380*
X91716Y89684*
G75*
G02X91927Y89425I-1139J-1143*
G01*
Y93950*
G37*
X98689D02*
G36*
X98651D01*
Y93898*
G75*
G02X98689Y93950I1363J-961*
G01*
G37*
X101530D02*
G36*
X101337D01*
G75*
G02X101533Y93623I-1324J-1013*
G01*
Y93934*
G75*
G02X101530Y93950I1632J367*
G01*
G37*
X159585Y82093D02*
G36*
X161993D01*
G75*
G02X161563Y83950I3796J1858*
G01*
G75*
G02X170015I4226*
G01*
G75*
G02X169585Y82093I-4226*
G01*
X178476*
Y93950*
X170015*
G75*
G02X161563I-4226*
G01*
X160015*
G75*
G02X151563I-4226*
G01*
X147515*
Y88031*
X149719*
Y83713*
X142053*
Y88031*
X144256*
Y93950*
X134423*
Y93587*
X128183*
Y93950*
X126707*
Y93685*
X120467*
Y93950*
X107943*
Y91389*
G75*
G02X111130Y90702I1520J-686*
G01*
G75*
G02X111092Y90352I-1667J0*
G01*
Y89106*
X111522*
Y82093*
X113494*
Y85706*
G75*
G02X113456Y86057I1639J352*
G01*
G75*
G02X116791I1667*
G01*
G75*
G02X116754Y85706I-1677J1*
G01*
Y82093*
X118118*
Y83569*
Y83569*
G75*
G02X118597Y84723I1629*
G01*
X120793Y86919*
Y88031*
X128459*
Y83713*
X122197*
X121886Y83402*
X128829*
Y82093*
X142053*
Y83031*
X149719*
Y82502*
X151313*
G75*
G02X151854Y82410I-1J-1636*
G01*
G75*
G02X151563Y83950I3935J1541*
G01*
G75*
G02X155789Y88177I4226*
G01*
G75*
G02X160015Y83950J-4226*
G01*
G75*
G02X159585Y82093I-4226J-1*
G01*
G37*
X30693Y102061D02*
G36*
X24858D01*
Y93950*
X26924*
G75*
G02X27396Y94957I1622J-147*
G01*
X30582Y98143*
G75*
G02X31736Y98622I1154J-1150*
G01*
X32276*
G75*
G02X30693Y102061I3014J3470*
G01*
G37*
X31085Y93950D02*
G36*
G75*
G02X31159Y94110I4205J-1860D01*
G01*
X31000Y93950*
X31085*
G37*
X41063Y102061D02*
G36*
X39886D01*
G75*
G02X38303Y98622I-4596J31*
G01*
X42877*
G75*
G02X41063Y102061I2412J3470*
G01*
G37*
X41493Y93950D02*
G36*
G75*
G02X42611Y95362I3796J-1858D01*
G01*
X38520*
G75*
G02X39494Y93950I-3231J-3270*
G01*
X41493*
G37*
X86230Y102061D02*
G36*
X85368D01*
Y99620*
X80309*
Y102061*
X49516*
G75*
G02X47702Y98622I-4226J31*
G01*
X58137*
G75*
G02X60156Y96993I352J-1630*
G01*
Y96992*
Y96992*
G75*
G02X58137Y95362I-1667*
G01*
X47967*
G75*
G02X49085Y93950I-2678J-3270*
G01*
X69236*
Y95240*
X75673*
Y93950*
X86760*
Y99990*
X86230*
Y102061*
G37*
X91927D02*
G36*
X90549D01*
Y99990*
X90020*
Y93950*
X91927*
Y102061*
G37*
X147515Y93950D02*
G36*
X151563D01*
G75*
G02X160015I4226*
G01*
X161563*
G75*
G02X170015I4226*
G01*
X178476*
Y102061*
X146618*
Y99531*
X140181*
Y102061*
X134053*
Y100256*
X128553*
Y102061*
X126337*
Y100354*
X120837*
Y101543*
X104575*
Y100325*
X100256*
Y102061*
X99024*
Y100325*
X98651*
Y93950*
X98689*
G75*
G02X101337I1324J-1013*
G01*
X101530*
G75*
G02X101496Y94286I1634J334*
G01*
G75*
G02X104683Y94971I1667*
G01*
Y95302*
G75*
G02X104645Y95654I1639J352*
G01*
G75*
G02X107980I1667*
G01*
G75*
G02X107943Y95302I-1677J1*
G01*
Y93950*
X120467*
Y99531*
X126707*
Y93950*
X128183*
Y99433*
X134423*
Y93950*
X144256*
Y94350*
X140551*
Y98669*
X146248*
Y98099*
G75*
G02X147515Y96510I-363J-1589*
G01*
Y93950*
G37*
X91927Y102061D02*
G36*
Y107789D01*
G75*
G02X92452Y109056I1788*
G01*
X94498Y111101*
Y112093*
X49516*
G75*
G02X41063I-4226*
G01*
X39886*
G75*
G02X30693I-4596*
G01*
X24858*
Y102061*
X30693*
G75*
G02Y102093I4592J16*
G01*
G75*
G02X35289Y106689I4596*
G01*
G75*
G02X39886Y102093J-4596*
G01*
G75*
G02Y102061I-4592J-16*
G01*
X41063*
G75*
G02Y102093I4236J16*
G01*
G75*
G02X45289Y106319I4226*
G01*
G75*
G02X49516Y102093J-4226*
G01*
G75*
G02Y102061I-4236J-16*
G01*
X80309*
Y106057*
X85368*
Y102061*
X86230*
Y105687*
X90549*
Y102061*
X91927*
G37*
X128553D02*
G36*
Y103530D01*
X123049Y109033*
X104368*
Y107815*
X100049*
Y112093*
X98817*
Y107815*
X96268*
X95502Y107049*
Y106022*
X99024*
Y102061*
X100256*
Y106022*
X104575*
Y104803*
X120837*
Y105461*
X126337*
Y102061*
X128553*
G37*
X134053D02*
G36*
X140181D01*
Y104591*
X146618*
Y102061*
X178476*
Y112093*
X124508*
G75*
G02X124878Y111815I-783J-1429*
G01*
X131331Y105362*
X134053*
Y102061*
G37*
X168596Y122093D02*
G36*
G75*
G02X164719I-1939J5883D01*
G01*
X49516*
G75*
G02X41063I-4226*
G01*
X39516*
G75*
G02X31063I-4226*
G01*
X24858*
Y112093*
X30693*
G75*
G02X39886I4596*
G01*
X41063*
G75*
G02X49516I4226*
G01*
X94498*
Y113512*
X98817*
Y112093*
X100049*
Y113512*
X104368*
Y112293*
X123724*
G75*
G02X124508Y112093I0J-1629*
G01*
X178476*
Y122093*
X168596*
G37*
X134252Y127947D02*
G36*
X134240D01*
Y124921*
X129921*
Y126317*
X125982*
Y125197*
X120876*
Y127947*
X120053*
Y124827*
X114207*
Y127947*
X88407*
G75*
G02X88518Y126943I-4486J-1004*
G01*
G75*
G02X79325I-4596*
G01*
G75*
G02X79436Y127947I4597J0*
G01*
X46111*
G75*
G02X44467I-822J4146*
G01*
X37274*
G75*
G02X33304I-1985J4146*
G01*
X24858*
Y122093*
X31063*
G75*
G02X39516I4226*
G01*
X41063*
G75*
G02X49516I4226*
G01*
X164719*
G75*
G02X161466Y124596I1939J5884*
G01*
X138796*
G75*
G02X138629Y124540I-1186J3234*
G01*
G75*
G02X135813Y124921I-997J3228*
G01*
X135472*
Y125170*
G75*
G02X134252Y127770I2160J2600*
G01*
Y127947*
G37*
X172852D02*
G36*
G75*
G02X168596Y122093I-6195J30D01*
G01*
X178476*
Y127947*
X172852*
G37*
X30693Y132093D02*
G36*
X24858D01*
Y127947*
X33304*
G75*
G02X30693Y132093I1985J4146*
G01*
G37*
X41063D02*
G36*
X39886D01*
G75*
G02X37274Y127947I-4596*
G01*
X44467*
G75*
G02X41063Y132093I822J4146*
G01*
G37*
X134252Y127947D02*
G36*
Y132093D01*
X49516*
G75*
G02X46111Y127947I-4226*
G01*
X79436*
G75*
G02X88407I4485J-1004*
G01*
X114207*
Y131067*
X120053*
Y127947*
X120876*
Y130697*
X125982*
Y129577*
X129921*
Y130618*
X134240*
Y127947*
X134252*
G37*
X162028Y132093D02*
G36*
X141012D01*
Y131356*
X161466*
G75*
G02X162028Y132093I5192J-3380*
G01*
G37*
X172852Y127947D02*
G36*
X178476D01*
Y132093*
X171287*
G75*
G02X172852Y127976I-4630J-4116*
G01*
G75*
G02Y127947I-6220J-15*
G01*
G37*
X134252Y132093D02*
G36*
Y133406D01*
X86459*
G75*
G02X79869Y135585I-2537J3380*
G01*
X73362Y142093*
X49516*
G75*
G02X41063I-4226*
G01*
X39886*
G75*
G02X30693I-4596*
G01*
X24858*
Y132093*
X30693*
G75*
G02X39886I4596*
G01*
X41063*
G75*
G02X49516I4226*
G01*
X134252*
G37*
X173222Y142093D02*
G36*
Y137002D01*
X160093*
Y142093*
X82922*
X84003Y141011*
G75*
G02X86459Y140165I-81J-4224*
G01*
X137632*
G75*
G02X141012Y136785J-3380*
G01*
Y132093*
X162028*
G75*
G02X171287I4630J-4116*
G01*
X178476*
Y142093*
X173222*
G37*
X73362D02*
G36*
X56494Y158961D01*
G75*
G02X55502Y161352I2390J2393*
G01*
Y175188*
X24858*
Y142093*
X30693*
G75*
G02X39886I4596*
G01*
X41063*
G75*
G02X49516I4226*
G01*
X73362*
G37*
X112291Y175188D02*
G36*
G75*
G02X103839I-4226J13D01*
G01*
X102291*
G75*
G02X93839I-4226*
G01*
X92291*
G75*
G02X83839I-4226*
G01*
X82291*
G75*
G02X73839I-4226J13*
G01*
X72508*
G75*
G02X64055I-4226J13*
G01*
X62262*
Y162752*
X82922Y142093*
X160093*
Y150132*
X173222*
Y142093*
X178476*
Y175188*
X142291*
G75*
G02X133839I-4226*
G01*
X132291*
G75*
G02X123839I-4226*
G01*
X122291*
G75*
G02X113839I-4226*
G01*
X112291*
G37*
X166470Y195201D02*
G36*
X142661D01*
G75*
G02Y195188I-4624J-6*
G01*
G75*
G02X133469I-4596*
G01*
G75*
G02Y195201I4624J7*
G01*
X132661*
G75*
G02Y195188I-4624J-6*
G01*
G75*
G02X123469I-4596*
G01*
G75*
G02Y195201I4624J7*
G01*
X122661*
G75*
G02Y195188I-4624J-6*
G01*
G75*
G02X113469I-4596*
G01*
G75*
G02Y195201I4624J7*
G01*
X112661*
G75*
G02X103469I-4596*
G01*
X102661*
G75*
G02Y195188I-4624J-6*
G01*
G75*
G02X93469I-4596*
G01*
G75*
G02Y195201I4624J7*
G01*
X92661*
G75*
G02Y195188I-4624J-6*
G01*
G75*
G02X83469I-4596*
G01*
G75*
G02Y195201I4624J7*
G01*
X82661*
G75*
G02X73469I-4596*
G01*
X72878*
G75*
G02X63685I-4596*
G01*
X36846*
G75*
G02X25981I-5433J5276*
G01*
X24858*
Y175188*
X55502*
Y185201*
G75*
G02X58882Y188581I3380*
G01*
X65744*
G75*
G02X70819I2537J-3380*
G01*
X75528*
G75*
G02X80378Y188738I2537J-3381*
G01*
X85772*
G75*
G02X90602Y188568I2293J-3551*
G01*
X95528*
G75*
G02X100378Y188725I2537J-3381*
G01*
X105732*
G75*
G02X110217Y188838I2333J-3523*
G01*
X115935*
G75*
G02X120602Y188568I2130J-3650*
G01*
X125528*
G75*
G02X130602I2537J-3380*
G01*
X135528*
G75*
G02X142291Y185188I2537J-3380*
G01*
Y185188*
Y185187*
G75*
G02X135528Y181808I-4226*
G01*
X130602*
G75*
G02X125528I-2537J3380*
G01*
X120602*
G75*
G02X115891Y181563I-2537J3381*
G01*
X110217*
G75*
G02X105772Y181650I-2152J3637*
G01*
X100378*
G75*
G02X95528Y181808I-2313J3539*
G01*
X90602*
G75*
G02X85732Y181663I-2537J3381*
G01*
X80378*
G75*
G02X75528Y181821I-2313J3539*
G01*
X70819*
G75*
G02X65744I-2537J3380*
G01*
X62262*
Y175188*
X64055*
G75*
G02Y175201I4230J7*
G01*
G75*
G02X72508I4226*
G01*
G75*
G02Y175188I-4230J-6*
G01*
X73839*
G75*
G02Y175201I4230J7*
G01*
G75*
G02X82291I4226*
G01*
G75*
G02Y175188I-4230J-6*
G01*
X83839*
G75*
G02X92291I4226*
G01*
X93839*
G75*
G02X102291I4226*
G01*
X103839*
G75*
G02Y175201I4230J7*
G01*
G75*
G02X112291I4226*
G01*
G75*
G02Y175188I-4230J-6*
G01*
X113839*
G75*
G02X122291I4226*
G01*
X123839*
G75*
G02X132291I4226*
G01*
X133839*
G75*
G02X142291I4226*
G01*
X178476*
Y195201*
X177337*
G75*
G02X166470I-5433J5276*
G01*
G37*
X25981D02*
G36*
G75*
G02X24858Y196685I5433J5276D01*
G01*
Y195201*
X25981*
G37*
X168143Y207049D02*
G36*
X35175D01*
G75*
G02X38987Y200476I-3761J-6573*
G01*
G75*
G02X36846Y195201I-7573J0*
G01*
X63685*
G75*
G02X72878I4596*
G01*
X73469*
G75*
G02X82661I4596*
G01*
X83469*
G75*
G02X92661I4596J-13*
G01*
X93469*
G75*
G02X102661I4596J-13*
G01*
X103469*
G75*
G02X112661I4596*
G01*
X113469*
G75*
G02X122661I4596J-13*
G01*
X123469*
G75*
G02X132661I4596J-13*
G01*
X133469*
G75*
G02X142661I4596J-13*
G01*
X166470*
G75*
G02X164331Y200476I5433J5276*
G01*
G75*
G02X168143Y207049I7573*
G01*
G37*
X178476Y196715D02*
G36*
G75*
G02X177337Y195201I-6573J3761D01*
G01*
X178476*
Y196715*
G37*
X213951Y75530D02*
X205229D01*
G75*
G02X202770Y67866I-2459J-3437*
G01*
G75*
G02X199469Y69454J4226*
G01*
Y65291*
G75*
G02X207366Y62093I3301J-3198*
G01*
G75*
G02X199469Y58894I-4596*
G01*
Y54731*
G75*
G02X206669Y53722I3301J-2639*
G01*
X219545*
Y59276*
G75*
G02X220024Y60430I1630*
G01*
X226238Y66644*
Y69106*
X231935*
Y68850*
X235451*
Y71732*
X234616*
G75*
G02X233508Y71297I-1108J1196*
G01*
X232488*
Y71260*
X222461*
Y74594*
X232441*
G75*
G02X233038Y74922I1066J-1233*
G01*
G75*
G02X232039Y75614I362J1589*
G01*
X222091*
Y79689*
X231547*
X230528Y80709*
X222461*
Y83339*
X217456Y78304*
X217454Y78302*
X215219Y76057*
G75*
G02X213951Y75530I-1268J1260*
G01*
G36*
X205229*
G75*
G02X202770Y67866I-2459J-3437*
G01*
G75*
G02X199469Y69454J4226*
G01*
Y65291*
G75*
G02X207366Y62093I3301J-3198*
G01*
G75*
G02X199469Y58894I-4596*
G01*
Y54731*
G75*
G02X206669Y53722I3301J-2639*
G01*
X219545*
Y59276*
G75*
G02X220024Y60430I1630*
G01*
X226238Y66644*
Y69106*
X231935*
Y68850*
X235451*
Y71732*
X234616*
G75*
G02X233508Y71297I-1108J1196*
G01*
X232488*
Y71260*
X222461*
Y74594*
X232441*
G75*
G02X233038Y74922I1066J-1233*
G01*
G75*
G02X232039Y75614I362J1589*
G01*
X222091*
Y79689*
X231547*
X230528Y80709*
X222461*
Y83339*
X217456Y78304*
X217454Y78302*
X215219Y76057*
G75*
G02X213951Y75530I-1268J1260*
G01*
G37*
X243018Y68364D02*
Y55736D01*
X264510*
Y56106*
X268821*
Y74881*
X247146*
G75*
G02X245128Y76511I-351J1630*
G01*
G75*
G02X247146Y78141I1667*
G01*
X268821*
Y81539*
X247325*
Y81169*
X243018*
Y71939*
X244364*
G75*
G02Y68364J-1787*
G01*
X243018*
G36*
Y55736*
X264510*
Y56106*
X268821*
Y74881*
X247146*
G75*
G02X245128Y76511I-351J1630*
G01*
G75*
G02X247146Y78141I1667*
G01*
X268821*
Y81539*
X247325*
Y81169*
X243018*
Y71939*
X244364*
G75*
G02Y68364J-1787*
G01*
X243018*
G37*
X265423Y47799D02*
Y47697D01*
X278442*
G75*
G02X280461Y46067I351J-1630*
G01*
G75*
G02X278442Y44437I-1667*
G01*
X263793*
G75*
G02X262273Y45478J1630*
G01*
Y42944*
G75*
G02X262311Y42593I-1630J-351*
G01*
G75*
G02X258976I-1667*
G01*
G75*
G02X259013Y42944I1667*
G01*
Y48169*
X242833*
Y55551*
X240864*
Y45916*
G75*
G02X240901Y45565I-1630J-351*
G01*
G75*
G02X237567I-1667*
G01*
G75*
G02X237604Y45916I1667*
G01*
Y55551*
X235451*
Y65275*
X231935*
Y64787*
X228992*
X228130Y63925*
X232305*
Y58866*
X225868*
Y61663*
X222805Y58600*
Y52824*
G75*
G02X222978Y52093I-1456J-731*
G01*
Y51657*
X237697Y36939*
X247388*
G75*
G02X248855I733J-1630*
G01*
X263413*
G75*
G02X264115I351J-1630*
G01*
X286051*
Y53059*
X284848Y54263*
Y49453*
X278411*
Y54512*
X284599*
X283737Y55374*
X278781*
Y55746*
X276388*
Y55551*
X269372*
Y47799*
X265423*
G36*
Y47697*
X278442*
G75*
G02X280461Y46067I351J-1630*
G01*
G75*
G02X278442Y44437I-1667*
G01*
X263793*
G75*
G02X262273Y45478J1630*
G01*
Y42944*
G75*
G02X262311Y42593I-1630J-351*
G01*
G75*
G02X258976I-1667*
G01*
G75*
G02X259013Y42944I1667*
G01*
Y48169*
X242833*
Y55551*
X240864*
Y45916*
G75*
G02X240901Y45565I-1630J-351*
G01*
G75*
G02X237567I-1667*
G01*
G75*
G02X237604Y45916I1667*
G01*
Y55551*
X235451*
Y65275*
X231935*
Y64787*
X228992*
X228130Y63925*
X232305*
Y58866*
X225868*
Y61663*
X222805Y58600*
Y52824*
G75*
G02X222978Y52093I-1456J-731*
G01*
Y51657*
X237697Y36939*
X247388*
G75*
G02X248855I733J-1630*
G01*
X263413*
G75*
G02X264115I351J-1630*
G01*
X286051*
Y53059*
X284848Y54263*
Y49453*
X278411*
Y54512*
X284599*
X283737Y55374*
X278781*
Y55746*
X276388*
Y55551*
X269372*
Y47799*
X265423*
G37*
X336207Y197191D02*
G75*
G02X321811Y200476I-6823J3286D01*
G01*
G75*
G02X326098Y207299I7573*
G01*
X192180*
G75*
G02X196467Y200476I-3286J-6823*
G01*
G75*
G02X182089Y197155I-7573*
G01*
Y23956*
G75*
G02X196467Y20634I6806J-3322*
G01*
G75*
G02X192180Y13811I-7573*
G01*
X326098*
G75*
G02X321811Y20634I3286J6823*
G01*
G75*
G02X336207Y23920I7573*
G01*
Y197191*
X292596Y77502D02*
G75*
G02X294614Y75872I351J-1630D01*
G01*
G75*
G02X292596Y74242I-1667*
G01*
X285939*
Y73713*
X278858*
Y73362*
G75*
G02X278824Y73031I-1630J0*
G01*
X285939*
Y68713*
X282744*
G75*
G02X282106Y68582I-639J1500*
G01*
X279528*
G75*
G02Y65543I-686J-1520*
G01*
X281119*
G75*
G02X282432Y62551I351J-1630*
G01*
X284748*
G75*
G02Y58976J-1787*
G01*
X284644*
G75*
G02X285034Y58688I-762J-1440*
G01*
X288834Y54887*
G75*
G02X289311Y53734I-1153J-1152*
G01*
Y35309*
G75*
G02X287681Y33679I-1630*
G01*
X264115*
G75*
G02X263413I-351J1630*
G01*
X249909*
Y29827*
G75*
G02X249378Y28556I-1787*
G01*
X243285Y22530*
Y20362*
X238967*
Y26059*
X241770*
X246334Y30573*
Y33679*
X237022*
G75*
G02X235868Y34158J1630*
G01*
X220197Y49828*
G75*
G02X219804Y50463I1151J1154*
G01*
X206669*
G75*
G02X198870I-3900J1630*
G01*
X198415*
G75*
G02X196948I-733J1630*
G01*
X196669*
G75*
G02X188543Y52093I-3900J1630*
G01*
G75*
G02X195894Y54939I4226*
G01*
Y59246*
G75*
G02X188543Y62093I-3124J2846*
G01*
G75*
G02X195894Y64939I4226*
G01*
Y69246*
G75*
G02X188707Y73257I-3124J2846*
G01*
X184876Y77088*
G75*
G02X184398Y78242I1151J1154*
G01*
Y93803*
G75*
G02X184876Y94957I1630*
G01*
X188063Y98143*
G75*
G02X189217Y98622I1154J-1151*
G01*
X189756*
G75*
G02X192770Y106689I3014J3470*
G01*
G75*
G02X195783Y98622J-4596*
G01*
X200357*
G75*
G02X202770Y106319I2412J3470*
G01*
G75*
G02X205182Y98622J-4226*
G01*
X215617*
G75*
G02X217636Y96992I351J-1630*
G01*
G75*
G02X215617Y95362I-1667*
G01*
X205448*
G75*
G02X202770Y87866I-2678J-3270*
G01*
G75*
G02X200092Y95362J4226*
G01*
X196000*
G75*
G02X192770Y87496I-3231J-3270*
G01*
G75*
G02X188640Y94110I0J4596*
G01*
X187657Y93128*
Y78917*
X190763Y75812*
G75*
G02X195894Y74939I2007J-3719*
G01*
Y77317*
G75*
G02X197681Y79104I1787*
G01*
X199781*
G75*
G02X202770Y86319I2989J2988*
G01*
G75*
G02X205759Y79104J-4226*
G01*
X213208*
X214920Y80824*
X214920*
X222470Y88419*
G75*
G02X223738Y88947I1268J-1260*
G01*
X227087*
Y89319*
X232783*
Y88615*
G75*
G02X233203Y88311I-735J-1455*
G01*
X239793Y81720*
X242463*
Y89476*
X244794*
X244719Y89551*
G75*
G02X244240Y90705I1151J1154*
G01*
Y99990*
X243711*
Y105687*
X248030*
Y99990*
X247500*
Y91380*
X249196Y89684*
G75*
G02X249407Y89425I-1152J-1154*
G01*
Y107789*
G75*
G02X249933Y109056I1787*
G01*
X251978Y111101*
Y113512*
X256297*
Y107815*
X253748*
X252982Y107049*
Y106022*
X256504*
Y100325*
X256131*
Y93898*
G75*
G02X259013Y93623I1362J-961*
G01*
Y93934*
G75*
G02X262163Y94971I1630J351*
G01*
Y95302*
G75*
G02X262126Y95654I1630J351*
G01*
G75*
G02X265460I1667*
G01*
G75*
G02X265423Y95302I-1667*
G01*
Y91389*
G75*
G02X268572Y90352I1520J-686*
G01*
Y89106*
X269002*
Y81720*
X270974*
Y85706*
G75*
G02X270937Y86057I1630J351*
G01*
G75*
G02X274271I1667*
G01*
G75*
G02X274234Y85706I-1667*
G01*
Y81720*
X275598*
Y83569*
G75*
G02X276077Y84723I1630*
G01*
X278274Y86919*
Y88031*
X285939*
Y83713*
X279677*
X279366Y83402*
X286309*
Y78343*
X278858*
Y78031*
X285939*
Y77502*
X292596*
X188173Y82093D02*
G75*
G02X197366I4596D01*
G01*
G75*
G02X188173I-4596*
G01*
X233415Y26059D02*
X237734D01*
Y20362*
X233415*
Y21422*
X228553*
Y20583*
X223447*
Y26083*
X228553*
Y24996*
X233415*
Y26059*
X216778Y26453D02*
X222624D01*
Y20213*
X216778*
Y26453*
X198543Y112093D02*
G75*
G02X206996I4226D01*
G01*
G75*
G02X198543I-4226*
G01*
Y122093D02*
G75*
G02X206996I4226D01*
G01*
G75*
G02X198543I-4226*
G01*
Y132093D02*
G75*
G02X206996I4226D01*
G01*
G75*
G02X198543I-4226*
G01*
Y142093D02*
G75*
G02X206996I4226D01*
G01*
G75*
G02X198543I-4226*
G01*
X318946Y131356D02*
G75*
G02X330333Y127976I5192J-3380D01*
G01*
G75*
G02X318946Y124596I-6195*
G01*
X296276*
G75*
G02X296109Y124540I-1165J3172*
G01*
G75*
G02X293293Y124921I-997J3230*
G01*
X292953*
Y125170*
G75*
G02X291732Y127770I2159J2600*
G01*
Y133406*
X243939*
G75*
G02X237349Y135585I-2537J3380*
G01*
X213974Y158961*
G75*
G02X212982Y161352I2388J2392*
G01*
Y185201*
G75*
G02X216362Y188581I3380*
G01*
X223224*
G75*
G02X228299I2537J-3380*
G01*
X233008*
G75*
G02X237858Y188738I2537J-3380*
G01*
X243252*
G75*
G02X248083Y188568I2293J-3550*
G01*
X253008*
G75*
G02X257858Y188725I2537J-3380*
G01*
X263213*
G75*
G02X267697Y188838I2333J-3524*
G01*
X273415*
G75*
G02X278083Y188568I2130J-3650*
G01*
X283008*
G75*
G02X288083I2537J-3380*
G01*
X293008*
G75*
G02X299772Y185188I2537J-3380*
G01*
G75*
G02X293008Y181808I-4226*
G01*
X288083*
G75*
G02X283008I-2537J3380*
G01*
X278083*
G75*
G02X273371Y181563I-2537J3380*
G01*
X267697*
G75*
G02X263252Y181650I-2152J3638*
G01*
X257858*
G75*
G02X253008Y181808I-2313J3537*
G01*
X248083*
G75*
G02X243213Y181663I-2537J3380*
G01*
X237858*
G75*
G02X233008Y181821I-2313J3537*
G01*
X228299*
G75*
G02X223224I-2537J3380*
G01*
X219742*
Y162752*
X241483Y141011*
G75*
G02X243939Y140165I-82J-4226*
G01*
X295112*
G75*
G02X298492Y136785J-3380*
G01*
Y131356*
X318946*
X291319Y175188D02*
G75*
G02X299772I4226D01*
G01*
G75*
G02X291319I-4226*
G01*
X281319D02*
G75*
G02X289772I4226D01*
G01*
G75*
G02X281319I-4226*
G01*
X271319D02*
G75*
G02X279772I4226D01*
G01*
G75*
G02X271319I-4226*
G01*
X261319Y175201D02*
G75*
G02X269772I4226D01*
G01*
G75*
G02X261319I-4226*
G01*
X251319Y175188D02*
G75*
G02X259772I4226D01*
G01*
G75*
G02X251319I-4226*
G01*
X241319D02*
G75*
G02X249772I4226D01*
G01*
G75*
G02X241319I-4226*
G01*
X231319Y175201D02*
G75*
G02X239772I4226D01*
G01*
G75*
G02X231319I-4226*
G01*
X221535D02*
G75*
G02X229988I4226D01*
G01*
G75*
G02X221535I-4226*
G01*
X324667Y68329D02*
G75*
G02X323269Y59354I-1398J-4379D01*
G01*
G75*
G02X320395Y67537J4596*
G01*
X316143*
G75*
G02X313269Y59354I-2874J-3587*
G01*
G75*
G02X310395Y67537J4596*
G01*
X308055*
G75*
G02X306490Y68713J1630*
G01*
X299533*
Y73031*
X306425*
Y73713*
X299533*
Y78031*
X307199*
Y77502*
X307910*
G75*
G02X307171Y78713I883J1370*
G01*
X299533*
Y83031*
X307199*
Y82502*
X308793*
G75*
G02X309334Y82410I0J-1630*
G01*
G75*
G02X313269Y88177I3935J1541*
G01*
G75*
G02X314523Y79914J-4226*
G01*
G75*
G02X314900Y78872I-1253J-1042*
G01*
Y77850*
G75*
G02X316083Y70797I-1630J-3899*
G01*
X320455*
G75*
G02X323269Y78177I2814J3153*
G01*
G75*
G02X324900Y70051J-4226*
G01*
Y69167*
G75*
G02X324667Y68329I-1630J0*
G01*
X319043Y53950D02*
G75*
G02X327496I4226D01*
G01*
G75*
G02X319043I-4226*
G01*
X309043D02*
G75*
G02X317496I4226D01*
G01*
G75*
G02X309043I-4226*
G01*
X319043Y83950D02*
G75*
G02X327496I4226D01*
G01*
G75*
G02X319043I-4226*
G01*
Y93950D02*
G75*
G02X327496I4226D01*
G01*
G75*
G02X319043I-4226*
G01*
X309043D02*
G75*
G02X317496I4226D01*
G01*
G75*
G02X309043I-4226*
G01*
X297661Y104591D02*
X304098D01*
Y99531*
X297661*
Y104591*
X304996Y88031D02*
X307199D01*
Y83713*
X299533*
Y88031*
X301736*
Y94350*
X298031*
Y98669*
X303728*
Y98099*
G75*
G02X304996Y96510I-363J-1589*
G01*
Y88031*
X288811Y105362D02*
X291533D01*
Y100256*
X286033*
Y103530*
X280530Y109033*
X261848*
Y107815*
X257530*
Y113512*
X261848*
Y112293*
X281205*
G75*
G02X282359Y111815J-1630*
G01*
X288811Y105362*
X285663Y99433D02*
X291904D01*
Y93587*
X285663*
Y99433*
X278317Y105461D02*
X283817D01*
Y100354*
X278317*
Y101543*
X262055*
Y100325*
X257736*
Y106022*
X262055*
Y104803*
X278317*
Y105461*
X277947Y99531D02*
X284187D01*
Y93685*
X277947*
Y99531*
X271687Y131067D02*
X277533D01*
Y124827*
X271687*
Y131067*
X287402Y130618D02*
X291720D01*
Y124921*
X287402*
Y126317*
X283463*
Y125197*
X278356*
Y130697*
X283463*
Y129577*
X287402*
Y130618*
X226717Y95240D02*
X233154D01*
Y90181*
X226717*
Y95240*
X236805Y126943D02*
G75*
G02X245998I4596D01*
G01*
G75*
G02X236805I-4596*
G01*
X237789Y106057D02*
X242848D01*
Y99620*
X237789*
Y106057*
X221165Y195201D02*
G75*
G02X230358I4596D01*
G01*
G75*
G02X221165I-4596*
G01*
X230949D02*
G75*
G02X240142I4596D01*
G01*
G75*
G02X230949I-4596*
G01*
X240949Y195188D02*
G75*
G02X250142I4596D01*
G01*
G75*
G02X240949I-4596*
G01*
X250949D02*
G75*
G02X260142I4596D01*
G01*
G75*
G02X250949I-4596*
G01*
X260949Y195201D02*
G75*
G02X270142I4596D01*
G01*
G75*
G02X260949I-4596*
G01*
X270949Y195188D02*
G75*
G02X280142I4596D01*
G01*
G75*
G02X270949I-4596*
G01*
X280949D02*
G75*
G02X290142I4596D01*
G01*
G75*
G02X280949I-4596*
G01*
X290949D02*
G75*
G02X300142I4596D01*
G01*
G75*
G02X290949I-4596*
G01*
X317573Y150132D02*
X330703D01*
Y137002*
X317573*
Y150132*
X188173Y112093D02*
G75*
G02X197366I4596D01*
G01*
G75*
G02X188173I-4596*
G01*
Y132093D02*
G75*
G02X197366I4596D01*
G01*
G75*
G02X188173I-4596*
G01*
X188543Y122093D02*
G75*
G02X196996I4226D01*
G01*
G75*
G02X188543I-4226*
G01*
X188173Y142093D02*
G75*
G02X197366I4596D01*
G01*
G75*
G02X188173I-4596*
G01*
X322267Y23222D02*
G36*
X243986D01*
X243285Y22530*
Y20362*
X238967*
Y23222*
X237734*
Y20362*
X233415*
Y21422*
X228553*
Y20583*
X223447*
Y23222*
X222624*
Y20213*
X216778*
Y23222*
X196011*
G75*
G02X196467Y20634I-7117J-2589*
G01*
G75*
G02X192655Y14061I-7573*
G01*
X325623*
G75*
G02X321811Y20634I3761J6573*
G01*
G75*
G02X322267Y23222I7573J0*
G01*
G37*
X188973Y53950D02*
G36*
X182339D01*
Y24425*
G75*
G02X196011Y23222I6556J-3791*
G01*
X216778*
Y26453*
X222624*
Y23222*
X223447*
Y26083*
X228553*
Y24996*
X233415*
Y26059*
X237734*
Y23222*
X238967*
Y26059*
X241770*
X246334Y30573*
Y33679*
X237022*
G75*
G02X235868Y34158I0J1629*
G01*
X220197Y49828*
G75*
G02X219804Y50463I1153J1155*
G01*
X206669*
G75*
G02X198870I-3900J1630*
G01*
X198415*
G75*
G02X196948I-733J1630*
G01*
X196669*
G75*
G02X188543Y52092I-3900J1630*
G01*
Y52093*
Y52093*
G75*
G02X188973Y53950I4226J0*
G01*
G37*
X335957Y24395D02*
G36*
Y53950D01*
X327496*
G75*
G02X319043I-4226*
G01*
X317496*
G75*
G02X309043I-4226*
G01*
X289296*
G75*
G02X289311Y53734I-1616J-217*
G01*
Y35309*
G75*
G02X287681Y33679I-1630*
G01*
X264115*
G75*
G02X263413I-351J1630*
G01*
X249909*
Y29827*
Y29826*
G75*
G02X249378Y28556I-1787*
G01*
X243986Y23222*
X322267*
G75*
G02X335957Y24395I7117J-2589*
G01*
G37*
X188973Y53950D02*
G36*
G75*
G02X195894Y54939I3796J-1857D01*
G01*
Y59246*
G75*
G02X188543Y62092I-3124J2846*
G01*
Y62093*
Y62093*
G75*
G02X195894Y64939I4226*
G01*
Y66937*
X182339*
Y53950*
X188973*
G37*
X326763Y66937D02*
G36*
G75*
G02X327866Y63950I-3494J-2987D01*
G01*
G75*
G02X323269Y59354I-4596*
G01*
G75*
G02X318673Y63950J4596*
G01*
G75*
G02X319776Y66937I4596J0*
G01*
X316763*
G75*
G02X317866Y63950I-3494J-2987*
G01*
G75*
G02X313269Y59354I-4596*
G01*
G75*
G02X308673Y63950J4596*
G01*
G75*
G02X309776Y66937I4596J0*
G01*
X280505*
G75*
G02X279528Y65543I-1663J126*
G01*
X281119*
G75*
G02X283138Y63913I351J-1630*
G01*
G75*
G02X282432Y62551I-1667*
G01*
X284748*
G75*
G02X286535Y60763J-1787*
G01*
G75*
G02X284748Y58976I-1787*
G01*
X284644*
G75*
G02X285034Y58688I-762J-1440*
G01*
X288834Y54887*
G75*
G02X289296Y53950I-1153J-1152*
G01*
X309043*
G75*
G02X317496I4226*
G01*
X319043*
G75*
G02X327496I4226*
G01*
X335957*
Y66937*
X326763*
G37*
X195894D02*
G36*
Y69246D01*
G75*
G02X188543Y72093I-3124J2846*
G01*
G75*
G02X188707Y73257I4226*
G01*
X184876Y77088*
G75*
G02X184398Y78242I1150J1154*
G01*
Y78242*
Y82093*
X182339*
Y66937*
X195894*
G37*
X198543Y82093D02*
G36*
X197366D01*
G75*
G02X188173I-4596*
G01*
X187657*
Y78917*
X190763Y75812*
G75*
G02X195894Y74939I2007J-3719*
G01*
Y77317*
G75*
G02X197681Y79104I1787*
G01*
X199781*
G75*
G02X198543Y82093I2989J2989*
G01*
G37*
X216181D02*
G36*
X206996D01*
Y82092*
G75*
G02X205759Y79104I-4226J0*
G01*
X213208*
X214920Y80824*
X214920*
X216181Y82093*
G37*
X242463D02*
G36*
X239421D01*
X239793Y81720*
X242463*
Y82093*
G37*
X270974D02*
G36*
X269002D01*
Y81720*
X270974*
Y82093*
G37*
X275598D02*
G36*
X274234D01*
Y81720*
X275598*
Y82093*
G37*
X299533D02*
G36*
X286309D01*
Y78343*
X278858*
Y78031*
X285939*
Y77502*
X292596*
G75*
G02X294614Y75872I352J-1630*
G01*
Y75872*
Y75872*
G75*
G02X292596Y74242I-1667*
G01*
X285939*
Y73713*
X278858*
Y73362*
G75*
G02X278824Y73031I-1668J4*
G01*
X285939*
Y68713*
X282744*
G75*
G02X282106Y68582I-640J1506*
G01*
X279528*
G75*
G02X280510Y67063I-686J-1520*
G01*
G75*
G02X280505Y66937I-1667*
G01*
X309776*
G75*
G02X310395Y67537I3494J-2986*
G01*
X308055*
G75*
G02X306490Y68713I0J1630*
G01*
X299533*
Y73031*
X306425*
Y73713*
X299533*
Y78031*
X307199*
Y77502*
X307910*
G75*
G02X307171Y78713I882J1369*
G01*
X299533*
Y82093*
G37*
X327065D02*
G36*
G75*
G02X319473I-3796J1858D01*
G01*
X317066*
G75*
G02X314523Y79914I-3796J1858*
G01*
G75*
G02X314900Y78872I-1256J-1043*
G01*
Y77850*
G75*
G02X317496Y73950I-1630J-3899*
G01*
G75*
G02X316083Y70797I-4226*
G01*
X320455*
G75*
G02X319043Y73950I2815J3153*
G01*
G75*
G02X323269Y78177I4226*
G01*
G75*
G02X327496Y73950J-4226*
G01*
G75*
G02X324900Y70051I-4226*
G01*
Y69167*
G75*
G02X324667Y68329I-1625J-1*
G01*
G75*
G02X326763Y66937I-1398J-4379*
G01*
X335957*
Y82093*
X327065*
G37*
X319776Y66937D02*
G36*
G75*
G02X320395Y67537I3494J-2986D01*
G01*
X316143*
G75*
G02X316763Y66937I-2874J-3587*
G01*
X319776*
G37*
X184404Y93950D02*
G36*
X182339D01*
Y82093*
X184398*
Y93803*
Y93804*
G75*
G02X184404Y93950I1630J-1*
G01*
G37*
X242463Y82093D02*
G36*
Y89476D01*
X244794*
X244719Y89551*
G75*
G02X244240Y90705I1150J1154*
G01*
Y90705*
Y93950*
X233154*
Y90181*
X226717*
Y93950*
X206566*
G75*
G02X206996Y92093I-3796J-1858*
G01*
G75*
G02X202770Y87866I-4226*
G01*
G75*
G02X198543Y92093J4226*
G01*
G75*
G02X198974Y93950I4226*
G01*
X196974*
G75*
G02X197366Y92093I-4204J-1858*
G01*
G75*
G02X192770Y87496I-4596*
G01*
G75*
G02X188173Y92093J4596*
G01*
G75*
G02X188565Y93950I4596J0*
G01*
X188480*
X187657Y93128*
Y82093*
X188173*
G75*
G02X197366I4596*
G01*
X198543*
G75*
G02X202770Y86319I4227*
G01*
G75*
G02X206996Y82093J-4226*
G01*
X216181*
X222470Y88419*
G75*
G02X223738Y88947I1268J-1259*
G01*
X227087*
Y89319*
X232783*
Y88615*
G75*
G02X233203Y88311I-732J-1452*
G01*
X239421Y82093*
X242463*
G37*
X249407Y93950D02*
G36*
X247500D01*
Y91380*
X249196Y89684*
G75*
G02X249407Y89425I-1139J-1143*
G01*
Y93950*
G37*
X256170D02*
G36*
X256131D01*
Y93898*
G75*
G02X256170Y93950I1363J-961*
G01*
G37*
X259010D02*
G36*
X258818D01*
G75*
G02X259013Y93623I-1324J-1013*
G01*
Y93934*
G75*
G02X259010Y93950I1632J367*
G01*
G37*
X317066Y82093D02*
G36*
X319473D01*
G75*
G02X319043Y83950I3796J1858*
G01*
G75*
G02X327496I4226*
G01*
G75*
G02X327065Y82093I-4226*
G01*
X335957*
Y93950*
X327496*
G75*
G02X319043I-4226*
G01*
X317496*
G75*
G02X309043I-4226*
G01*
X304996*
Y88031*
X307199*
Y83713*
X299533*
Y88031*
X301736*
Y93950*
X291904*
Y93587*
X285663*
Y93950*
X284187*
Y93685*
X277947*
Y93950*
X265423*
Y91389*
G75*
G02X268610Y90702I1520J-686*
G01*
G75*
G02X268572Y90352I-1667J0*
G01*
Y89106*
X269002*
Y82093*
X270974*
Y85706*
G75*
G02X270937Y86057I1639J352*
G01*
G75*
G02X274271I1667*
G01*
G75*
G02X274234Y85706I-1677J1*
G01*
Y82093*
X275598*
Y83569*
Y83569*
G75*
G02X276077Y84723I1629*
G01*
X278274Y86919*
Y88031*
X285939*
Y83713*
X279677*
X279366Y83402*
X286309*
Y82093*
X299533*
Y83031*
X307199*
Y82502*
X308793*
G75*
G02X309334Y82410I-1J-1636*
G01*
G75*
G02X309043Y83950I3935J1541*
G01*
G75*
G02X313269Y88177I4226*
G01*
G75*
G02X317496Y83950J-4226*
G01*
G75*
G02X317066Y82093I-4226J-1*
G01*
G37*
X188173Y102061D02*
G36*
X182339D01*
Y93950*
X184404*
G75*
G02X184876Y94957I1622J-147*
G01*
X188063Y98143*
G75*
G02X189217Y98622I1154J-1150*
G01*
X189756*
G75*
G02X188173Y102061I3014J3470*
G01*
G37*
X188565Y93950D02*
G36*
G75*
G02X188640Y94110I4205J-1860D01*
G01*
X188480Y93950*
X188565*
G37*
X198543Y102061D02*
G36*
X197366D01*
G75*
G02X195783Y98622I-4596J31*
G01*
X200357*
G75*
G02X198543Y102061I2412J3470*
G01*
G37*
X198974Y93950D02*
G36*
G75*
G02X200092Y95362I3796J-1858D01*
G01*
X196000*
G75*
G02X196974Y93950I-3231J-3270*
G01*
X198974*
G37*
X243711Y102061D02*
G36*
X242848D01*
Y99620*
X237789*
Y102061*
X206996*
G75*
G02X205182Y98622I-4226J31*
G01*
X215617*
G75*
G02X217636Y96993I352J-1630*
G01*
Y96992*
Y96992*
G75*
G02X215617Y95362I-1667*
G01*
X205448*
G75*
G02X206566Y93950I-2678J-3270*
G01*
X226717*
Y95240*
X233154*
Y93950*
X244240*
Y99990*
X243711*
Y102061*
G37*
X249407D02*
G36*
X248030D01*
Y99990*
X247500*
Y93950*
X249407*
Y102061*
G37*
X304996Y93950D02*
G36*
X309043D01*
G75*
G02X317496I4226*
G01*
X319043*
G75*
G02X327496I4226*
G01*
X335957*
Y102061*
X304098*
Y99531*
X297661*
Y102061*
X291533*
Y100256*
X286033*
Y102061*
X283817*
Y100354*
X278317*
Y101543*
X262055*
Y100325*
X257736*
Y102061*
X256504*
Y100325*
X256131*
Y93950*
X256170*
G75*
G02X258818I1324J-1013*
G01*
X259010*
G75*
G02X258976Y94286I1634J334*
G01*
G75*
G02X262163Y94971I1667*
G01*
Y95302*
G75*
G02X262126Y95654I1639J352*
G01*
G75*
G02X265460I1667*
G01*
G75*
G02X265423Y95302I-1677J1*
G01*
Y93950*
X277947*
Y99531*
X284187*
Y93950*
X285663*
Y99433*
X291904*
Y93950*
X301736*
Y94350*
X298031*
Y98669*
X303728*
Y98099*
G75*
G02X304996Y96510I-363J-1589*
G01*
Y93950*
G37*
X249407Y102061D02*
G36*
Y107789D01*
G75*
G02X249933Y109056I1788*
G01*
X251978Y111101*
Y112093*
X206996*
G75*
G02X198543I-4226*
G01*
X197366*
G75*
G02X188173I-4596*
G01*
X182339*
Y102061*
X188173*
G75*
G02Y102093I4592J16*
G01*
G75*
G02X192770Y106689I4596*
G01*
G75*
G02X197366Y102093J-4596*
G01*
G75*
G02Y102061I-4592J-16*
G01*
X198543*
G75*
G02Y102093I4236J16*
G01*
G75*
G02X202770Y106319I4226*
G01*
G75*
G02X206996Y102093J-4226*
G01*
G75*
G02Y102061I-4236J-16*
G01*
X237789*
Y106057*
X242848*
Y102061*
X243711*
Y105687*
X248030*
Y102061*
X249407*
G37*
X286033D02*
G36*
Y103530D01*
X280530Y109033*
X261848*
Y107815*
X257530*
Y112093*
X256297*
Y107815*
X253748*
X252982Y107049*
Y106022*
X256504*
Y102061*
X257736*
Y106022*
X262055*
Y104803*
X278317*
Y105461*
X283817*
Y102061*
X286033*
G37*
X291533D02*
G36*
X297661D01*
Y104591*
X304098*
Y102061*
X335957*
Y112093*
X281989*
G75*
G02X282359Y111815I-783J-1429*
G01*
X288811Y105362*
X291533*
Y102061*
G37*
X326076Y122093D02*
G36*
G75*
G02X322199I-1939J5883D01*
G01*
X206996*
G75*
G02X198543I-4226*
G01*
X196996*
G75*
G02X188543I-4226*
G01*
X182339*
Y112093*
X188173*
G75*
G02X197366I4596*
G01*
X198543*
G75*
G02X206996I4226*
G01*
X251978*
Y113512*
X256297*
Y112093*
X257530*
Y113512*
X261848*
Y112293*
X281205*
G75*
G02X281989Y112093I0J-1629*
G01*
X335957*
Y122093*
X326076*
G37*
X291732Y127947D02*
G36*
X291720D01*
Y124921*
X287402*
Y126317*
X283463*
Y125197*
X278356*
Y127947*
X277533*
Y124827*
X271687*
Y127947*
X245887*
G75*
G02X245998Y126943I-4486J-1004*
G01*
G75*
G02X236805I-4596*
G01*
G75*
G02X236916Y127947I4597J0*
G01*
X203592*
G75*
G02X201948I-822J4146*
G01*
X194755*
G75*
G02X190785I-1985J4146*
G01*
X182339*
Y122093*
X188543*
G75*
G02X196996I4226*
G01*
X198543*
G75*
G02X206996I4226*
G01*
X322199*
G75*
G02X318946Y124596I1939J5884*
G01*
X296276*
G75*
G02X296109Y124540I-1186J3234*
G01*
G75*
G02X293293Y124921I-997J3228*
G01*
X292953*
Y125170*
G75*
G02X291732Y127770I2160J2600*
G01*
Y127947*
G37*
X330333D02*
G36*
G75*
G02X326076Y122093I-6195J30D01*
G01*
X335957*
Y127947*
X330333*
G37*
X188173Y132093D02*
G36*
X182339D01*
Y127947*
X190785*
G75*
G02X188173Y132093I1985J4146*
G01*
G37*
X198543D02*
G36*
X197366D01*
G75*
G02X194755Y127947I-4596*
G01*
X201948*
G75*
G02X198543Y132093I822J4146*
G01*
G37*
X291732Y127947D02*
G36*
Y132093D01*
X206996*
G75*
G02X203592Y127947I-4226*
G01*
X236916*
G75*
G02X245887I4485J-1004*
G01*
X271687*
Y131067*
X277533*
Y127947*
X278356*
Y130697*
X283463*
Y129577*
X287402*
Y130618*
X291720*
Y127947*
X291732*
G37*
X319508Y132093D02*
G36*
X298492D01*
Y131356*
X318946*
G75*
G02X319508Y132093I5192J-3380*
G01*
G37*
X330333Y127947D02*
G36*
X335957D01*
Y132093*
X328768*
G75*
G02X330333Y127976I-4630J-4116*
G01*
G75*
G02Y127947I-6220J-15*
G01*
G37*
X291732Y132093D02*
G36*
Y133406D01*
X243939*
G75*
G02X237349Y135585I-2537J3380*
G01*
X230842Y142093*
X206996*
G75*
G02X198543I-4226*
G01*
X197366*
G75*
G02X188173I-4596*
G01*
X182339*
Y132093*
X188173*
G75*
G02X197366I4596*
G01*
X198543*
G75*
G02X206996I4226*
G01*
X291732*
G37*
X330703Y142093D02*
G36*
Y137002D01*
X317573*
Y142093*
X240402*
X241483Y141011*
G75*
G02X243939Y140165I-81J-4224*
G01*
X295112*
G75*
G02X298492Y136785J-3380*
G01*
Y132093*
X319508*
G75*
G02X328768I4630J-4116*
G01*
X335957*
Y142093*
X330703*
G37*
X230842D02*
G36*
X213974Y158961D01*
G75*
G02X212982Y161352I2390J2393*
G01*
Y175188*
X182339*
Y142093*
X188173*
G75*
G02X197366I4596*
G01*
X198543*
G75*
G02X206996I4226*
G01*
X230842*
G37*
X269772Y175188D02*
G36*
G75*
G02X261319I-4226J13D01*
G01*
X259772*
G75*
G02X251319I-4226*
G01*
X249772*
G75*
G02X241319I-4226*
G01*
X239772*
G75*
G02X231319I-4226J13*
G01*
X229988*
G75*
G02X221535I-4226J13*
G01*
X219742*
Y162752*
X240402Y142093*
X317573*
Y150132*
X330703*
Y142093*
X335957*
Y175188*
X299772*
G75*
G02X291319I-4226*
G01*
X289772*
G75*
G02X281319I-4226*
G01*
X279772*
G75*
G02X271319I-4226*
G01*
X269772*
G37*
X323951Y195201D02*
G36*
X300142D01*
G75*
G02Y195188I-4624J-6*
G01*
G75*
G02X290949I-4596*
G01*
G75*
G02Y195201I4624J7*
G01*
X290142*
G75*
G02Y195188I-4624J-6*
G01*
G75*
G02X280949I-4596*
G01*
G75*
G02Y195201I4624J7*
G01*
X280142*
G75*
G02Y195188I-4624J-6*
G01*
G75*
G02X270949I-4596*
G01*
G75*
G02Y195201I4624J7*
G01*
X270142*
G75*
G02X260949I-4596*
G01*
X260142*
G75*
G02Y195188I-4624J-6*
G01*
G75*
G02X250949I-4596*
G01*
G75*
G02Y195201I4624J7*
G01*
X250142*
G75*
G02Y195188I-4624J-6*
G01*
G75*
G02X240949I-4596*
G01*
G75*
G02Y195201I4624J7*
G01*
X240142*
G75*
G02X230949I-4596*
G01*
X230358*
G75*
G02X221165I-4596*
G01*
X194327*
G75*
G02X183461I-5433J5276*
G01*
X182339*
Y175188*
X212982*
Y185201*
G75*
G02X216362Y188581I3380*
G01*
X223224*
G75*
G02X228299I2537J-3380*
G01*
X233008*
G75*
G02X237858Y188738I2537J-3381*
G01*
X243252*
G75*
G02X248083Y188568I2293J-3551*
G01*
X253008*
G75*
G02X257858Y188725I2537J-3381*
G01*
X263213*
G75*
G02X267697Y188838I2333J-3523*
G01*
X273415*
G75*
G02X278083Y188568I2130J-3650*
G01*
X283008*
G75*
G02X288083I2537J-3380*
G01*
X293008*
G75*
G02X299772Y185188I2537J-3380*
G01*
Y185188*
Y185187*
G75*
G02X293008Y181808I-4226*
G01*
X288083*
G75*
G02X283008I-2537J3380*
G01*
X278083*
G75*
G02X273371Y181563I-2537J3381*
G01*
X267697*
G75*
G02X263252Y181650I-2152J3637*
G01*
X257858*
G75*
G02X253008Y181808I-2313J3539*
G01*
X248083*
G75*
G02X243213Y181663I-2537J3381*
G01*
X237858*
G75*
G02X233008Y181821I-2313J3539*
G01*
X228299*
G75*
G02X223224I-2537J3380*
G01*
X219742*
Y175188*
X221535*
G75*
G02Y175201I4230J7*
G01*
G75*
G02X229988I4226*
G01*
G75*
G02Y175188I-4230J-6*
G01*
X231319*
G75*
G02Y175201I4230J7*
G01*
G75*
G02X239772I4226*
G01*
G75*
G02Y175188I-4230J-6*
G01*
X241319*
G75*
G02X249772I4226*
G01*
X251319*
G75*
G02X259772I4226*
G01*
X261319*
G75*
G02Y175201I4230J7*
G01*
G75*
G02X269772I4226*
G01*
G75*
G02Y175188I-4230J-6*
G01*
X271319*
G75*
G02X279772I4226*
G01*
X281319*
G75*
G02X289772I4226*
G01*
X291319*
G75*
G02X299772I4226*
G01*
X335957*
Y195201*
X334817*
G75*
G02X323951I-5433J5276*
G01*
G37*
X183461D02*
G36*
G75*
G02X182339Y196685I5433J5276D01*
G01*
Y195201*
X183461*
G37*
X325623Y207049D02*
G36*
X192655D01*
G75*
G02X196467Y200476I-3761J-6573*
G01*
G75*
G02X194327Y195201I-7573J0*
G01*
X221165*
G75*
G02X230358I4596*
G01*
X230949*
G75*
G02X240142I4596*
G01*
X240949*
G75*
G02X250142I4596J-13*
G01*
X250949*
G75*
G02X260142I4596J-13*
G01*
X260949*
G75*
G02X270142I4596*
G01*
X270949*
G75*
G02X280142I4596J-13*
G01*
X280949*
G75*
G02X290142I4596J-13*
G01*
X290949*
G75*
G02X300142I4596J-13*
G01*
X323951*
G75*
G02X321811Y200476I5433J5276*
G01*
G75*
G02X325623Y207049I7573*
G01*
G37*
X335957Y196715D02*
G36*
G75*
G02X334817Y195201I-6573J3761D01*
G01*
X335957*
Y196715*
G37*
D02*
D71*
X32443Y82093D02*
X30443D01*
X32443Y92093D02*
X30443D01*
X32443Y102093D02*
X30443D01*
X32443Y112093D02*
X30443D01*
X32443Y132093D02*
X30443D01*
X32443Y142093D02*
X30443D01*
X35289Y79246D02*
Y77246D01*
Y84939D02*
Y86939D01*
Y89246D02*
Y87246D01*
Y104939D02*
Y106939D01*
Y109246D02*
Y107246D01*
Y114939D02*
Y116939D01*
Y129246D02*
Y127246D01*
Y134939D02*
Y136939D01*
Y139246D02*
Y137246D01*
Y144939D02*
Y146939D01*
X38136Y82093D02*
X40136D01*
X38136Y92093D02*
X40136D01*
X38136Y102093D02*
X40136D01*
X38136Y112093D02*
X40136D01*
X38136Y132093D02*
X40136D01*
X38136Y142093D02*
X40136D01*
X45289Y59246D02*
Y57246D01*
Y64939D02*
Y66939D01*
X48136Y62093D02*
X50136D01*
X61046Y23334D02*
X59045D01*
X62219Y21964D02*
Y19965D01*
Y24704D02*
Y26705D01*
X63392Y23334D02*
X65392D01*
X65435Y195201D02*
X63435D01*
X68281Y192354D02*
Y190354D01*
Y198047D02*
Y200047D01*
X69560Y77218D02*
X67707Y75364D01*
X69560Y78085D02*
X67707Y79939D01*
X70428Y77218D02*
X72281Y75364D01*
X70428Y78085D02*
X72281Y79939D01*
X70986Y92711D02*
X68986D01*
X71128Y195201D02*
X73128D01*
X71606Y60615D02*
Y58614D01*
Y62174D02*
Y64173D01*
X72455Y91931D02*
Y89931D01*
Y93490D02*
Y95490D01*
X73074Y61395D02*
X75073D01*
X73923Y92711D02*
X75923D01*
X75219Y195201D02*
X73219D01*
X78065Y192354D02*
Y190354D01*
Y198047D02*
Y200047D01*
X80911Y195201D02*
X82911D01*
X81075Y126943D02*
X79075D01*
X82059Y102839D02*
X80059D01*
X82839Y101370D02*
Y99370D01*
Y104307D02*
Y106307D01*
X83618Y102839D02*
X85618D01*
X83921Y124096D02*
Y122096D01*
Y129789D02*
Y131789D01*
X85219Y195188D02*
X83219D01*
X86734Y85322D02*
X84734D01*
X86768Y126943D02*
X88768D01*
X87415Y82919D02*
Y80917D01*
X88065Y192341D02*
Y190341D01*
Y198034D02*
Y200034D01*
X90911Y195188D02*
X92911D01*
X95219D02*
X93219D01*
X98065Y192341D02*
Y190341D01*
Y198034D02*
Y200034D01*
X100911Y195188D02*
X102911D01*
X105219Y195201D02*
X103219D01*
X108065Y192354D02*
Y190354D01*
Y198047D02*
Y200047D01*
X109462Y54356D02*
Y56354D01*
X110143Y51952D02*
X112144D01*
X110911Y195201D02*
X112911D01*
X115219Y195188D02*
X113219D01*
X115957Y127947D02*
X113957D01*
X117130Y126577D02*
Y124577D01*
Y129317D02*
Y131317D01*
X118065Y192341D02*
Y190341D01*
Y198034D02*
Y200034D01*
X118303Y127947D02*
X120303D01*
X120911Y195188D02*
X122911D01*
X122217Y96608D02*
X120217D01*
X122680Y51983D02*
X120679D01*
X123587Y95435D02*
Y93435D01*
Y97781D02*
Y99781D01*
X124148Y51203D02*
Y49205D01*
Y52762D02*
Y54764D01*
X124957Y96608D02*
X126957D01*
X125219Y195188D02*
X123219D01*
X125617Y51983D02*
X127616D01*
X127078Y80872D02*
X129077D01*
X128065Y192341D02*
Y190341D01*
Y198034D02*
Y200034D01*
X129933Y96510D02*
X127933D01*
X130911Y195188D02*
X132911D01*
X131303Y95337D02*
Y93337D01*
Y97683D02*
Y99683D01*
X132673Y96510D02*
X134673D01*
X135219Y195188D02*
X133219D01*
X138065Y192341D02*
Y190341D01*
Y198034D02*
Y200034D01*
X140911Y195188D02*
X142911D01*
X141931Y102061D02*
X139931D01*
X143400Y101281D02*
Y99281D01*
Y102841D02*
Y104841D01*
X144868Y102061D02*
X146868D01*
X152943Y63950D02*
X150943D01*
X155789Y61104D02*
Y59104D01*
X158635Y63950D02*
X160635D01*
X161843Y143567D02*
X159843D01*
X162943Y63950D02*
X160943D01*
X165789Y61104D02*
Y59104D01*
X166657Y138752D02*
Y136752D01*
Y148382D02*
Y150382D01*
X168635Y63950D02*
X170635D01*
X171472Y143567D02*
X173472D01*
X189923Y82093D02*
X187923D01*
X189923Y92093D02*
X187923D01*
X189923Y102093D02*
X187923D01*
X189923Y112093D02*
X187923D01*
X189923Y132093D02*
X187923D01*
X189923Y142093D02*
X187923D01*
X192770Y79246D02*
Y77246D01*
Y84939D02*
Y86939D01*
Y89246D02*
Y87246D01*
Y104939D02*
Y106939D01*
Y109246D02*
Y107246D01*
Y114939D02*
Y116939D01*
Y129246D02*
Y127246D01*
Y134939D02*
Y136939D01*
Y139246D02*
Y137246D01*
Y144939D02*
Y146939D01*
X195616Y82093D02*
X197616D01*
X195616Y92093D02*
X197616D01*
X195616Y102093D02*
X197616D01*
X195616Y112093D02*
X197616D01*
X195616Y132093D02*
X197616D01*
X195616Y142093D02*
X197616D01*
X202770Y59246D02*
Y57246D01*
Y64939D02*
Y66939D01*
X205616Y62093D02*
X207616D01*
X218526Y23334D02*
X216526D01*
X219699Y21964D02*
Y19965D01*
Y24704D02*
Y26705D01*
X220872Y23334D02*
X222872D01*
X222915Y195201D02*
X220915D01*
X225762Y192354D02*
Y190354D01*
Y198047D02*
Y200047D01*
X227041Y77218D02*
X225187Y75364D01*
X227041Y78085D02*
X225187Y79939D01*
X227908Y77218D02*
X229762Y75364D01*
X227908Y78085D02*
X229762Y79939D01*
X228467Y92711D02*
X226467D01*
X228608Y195201D02*
X230608D01*
X229086Y60615D02*
Y58614D01*
Y62174D02*
Y64173D01*
X229935Y91931D02*
Y89931D01*
Y93490D02*
Y95490D01*
X230555Y61395D02*
X232553D01*
X231404Y92711D02*
X233404D01*
X232699Y195201D02*
X230699D01*
X235545Y192354D02*
Y190354D01*
Y198047D02*
Y200047D01*
X238392Y195201D02*
X240392D01*
X238555Y126943D02*
X236555D01*
X239539Y102839D02*
X237539D01*
X240319Y101370D02*
Y99370D01*
Y104307D02*
Y106307D01*
X241098Y102839D02*
X243098D01*
X241402Y124096D02*
Y122096D01*
Y129789D02*
Y131789D01*
X242699Y195188D02*
X240699D01*
X244214Y85322D02*
X242215D01*
X244248Y126943D02*
X246248D01*
X244895Y82919D02*
Y80917D01*
X245545Y192341D02*
Y190341D01*
Y198034D02*
Y200034D01*
X248392Y195188D02*
X250392D01*
X252699D02*
X250699D01*
X255545Y192341D02*
Y190341D01*
Y198034D02*
Y200034D01*
X258392Y195188D02*
X260392D01*
X262699Y195201D02*
X260699D01*
X265545Y192354D02*
Y190354D01*
Y198047D02*
Y200047D01*
X266943Y54356D02*
Y56354D01*
X267624Y51952D02*
X269624D01*
X268392Y195201D02*
X270392D01*
X272699Y195188D02*
X270699D01*
X273437Y127947D02*
X271437D01*
X274610Y126577D02*
Y124577D01*
Y129317D02*
Y131317D01*
X275545Y192341D02*
Y190341D01*
Y198034D02*
Y200034D01*
X275783Y127947D02*
X277783D01*
X278392Y195188D02*
X280392D01*
X279697Y96608D02*
X277697D01*
X280160Y51983D02*
X278159D01*
X281067Y95435D02*
Y93435D01*
Y97781D02*
Y99781D01*
X281628Y51203D02*
Y49205D01*
Y52762D02*
Y54764D01*
X282437Y96608D02*
X284437D01*
X282699Y195188D02*
X280699D01*
X283097Y51983D02*
X285096D01*
X284559Y80872D02*
X286557D01*
X285545Y192341D02*
Y190341D01*
Y198034D02*
Y200034D01*
X287413Y96510D02*
X285413D01*
X288392Y195188D02*
X290392D01*
X288783Y95337D02*
Y93337D01*
Y97683D02*
Y99683D01*
X290154Y96510D02*
X292154D01*
X292699Y195188D02*
X290699D01*
X295545Y192341D02*
Y190341D01*
Y198034D02*
Y200034D01*
X298392Y195188D02*
X300392D01*
X299411Y102061D02*
X297411D01*
X300880Y101281D02*
Y99281D01*
Y102841D02*
Y104841D01*
X302348Y102061D02*
X304348D01*
X310423Y63950D02*
X308423D01*
X313269Y61104D02*
Y59104D01*
X316116Y63950D02*
X318116D01*
X319323Y143567D02*
X317323D01*
X320423Y63950D02*
X318423D01*
X323269Y61104D02*
Y59104D01*
X324138Y138752D02*
Y136752D01*
Y148382D02*
Y150382D01*
X326116Y63950D02*
X328116D01*
X328953Y143567D02*
X330953D01*
D02*
D22*
X58488Y96992D03*
X81754Y45565D03*
X86884Y70152D03*
X89315Y76511D03*
X100013Y92937D03*
X103163Y42593D03*
Y94285D03*
X106283Y35309D03*
X106313Y95654D03*
X109462Y90703D03*
X115124Y86057D03*
X121313Y46067D03*
X121362Y67063D03*
X123990Y63913D03*
X127268Y60860D03*
X135467Y75872D03*
X145885D03*
Y80872D03*
X215969Y96992D03*
X239234Y45565D03*
X244364Y70152D03*
X246795Y76511D03*
X257494Y92937D03*
X260643Y42593D03*
Y94285D03*
X263764Y35309D03*
X263793Y95654D03*
X266943Y90703D03*
X272604Y86057D03*
X278793Y46067D03*
X278843Y67063D03*
X281470Y63913D03*
X284748Y60860D03*
X292947Y75872D03*
X303366D03*
Y80872D03*
D02*
D25*
X78094Y23209D03*
X82839Y102839D03*
X83646Y23209D03*
X88390Y102839D03*
X96657Y110663D03*
X96864Y103173D03*
X102209Y110663D03*
X102415Y103173D03*
X132081Y127770D03*
X137632D03*
X235575Y23209D03*
X240319Y102839D03*
X241126Y23209D03*
X245870Y102839D03*
X254138Y110663D03*
X254344Y103173D03*
X259689Y110663D03*
X259896Y103173D03*
X289561Y127770D03*
X295112D03*
D02*
D26*
X71606Y61395D03*
Y66946D03*
X72455Y87159D03*
Y92711D03*
X124148Y51983D03*
Y57534D03*
X143400Y96510D03*
Y102061D03*
X229086Y61395D03*
Y66946D03*
X229935Y87159D03*
Y92711D03*
X281628Y51983D03*
Y57534D03*
X300880Y96510D03*
Y102061D03*
D02*
D27*
X81754Y57614D03*
Y60763D03*
Y63913D03*
Y67063D03*
Y70212D03*
Y73362D03*
Y76511D03*
Y79661D03*
X115124Y57614D03*
Y60763D03*
Y63913D03*
Y67063D03*
Y70212D03*
Y73362D03*
Y76511D03*
Y79661D03*
X239234Y57614D03*
Y60763D03*
Y63913D03*
Y67063D03*
Y70212D03*
Y73362D03*
Y76511D03*
Y79661D03*
X272604Y57614D03*
Y60763D03*
Y63913D03*
Y67063D03*
Y70212D03*
Y73362D03*
Y76511D03*
Y79661D03*
D02*
D28*
X87415Y51952D03*
Y85322D03*
X90565Y51952D03*
Y85322D03*
X93714Y51952D03*
Y85322D03*
X96864Y51952D03*
Y85322D03*
X100013Y51952D03*
Y85322D03*
X103163Y51952D03*
Y85322D03*
X106313Y51952D03*
Y85322D03*
X109462Y51952D03*
Y85322D03*
X244895Y51952D03*
Y85322D03*
X248045Y51952D03*
Y85322D03*
X251194Y51952D03*
Y85322D03*
X254344Y51952D03*
Y85322D03*
X257494Y51952D03*
Y85322D03*
X260643Y51952D03*
Y85322D03*
X263793Y51952D03*
Y85322D03*
X266943Y51952D03*
Y85322D03*
D02*
D29*
X123587Y96608D03*
Y102907D03*
X131303Y96510D03*
Y102809D03*
X281067Y96608D03*
Y102907D03*
X288783Y96510D03*
Y102809D03*
D02*
D73*
X69994Y72927D03*
Y77652D03*
Y82376D03*
X227474Y72927D03*
Y77652D03*
Y82376D03*
D02*
D74*
X35289Y52093D03*
Y62093D03*
Y72093D03*
Y82093D03*
Y92093D03*
Y102093D03*
Y112093D03*
Y122093D03*
Y132093D03*
Y142093D03*
X45289Y52093D03*
Y62093D03*
Y72093D03*
Y82093D03*
Y92093D03*
Y102093D03*
Y112093D03*
Y122093D03*
Y132093D03*
Y142093D03*
X68281Y175201D03*
Y185201D03*
Y195201D03*
X78065Y175201D03*
Y185201D03*
Y195201D03*
X83921Y126943D03*
Y136785D03*
X88065Y175188D03*
Y185188D03*
Y195188D03*
X98065Y175188D03*
Y185188D03*
Y195188D03*
X108065Y175201D03*
Y185201D03*
Y195201D03*
X118065Y175188D03*
Y185188D03*
Y195188D03*
X128065Y175188D03*
Y185188D03*
Y195188D03*
X138065Y175188D03*
Y185188D03*
Y195188D03*
X155789Y53950D03*
Y63950D03*
Y73950D03*
Y83950D03*
Y93950D03*
X165789Y53950D03*
Y63950D03*
Y73950D03*
Y83950D03*
Y93950D03*
X192770Y52093D03*
Y62093D03*
Y72093D03*
Y82093D03*
Y92093D03*
Y102093D03*
Y112093D03*
Y122093D03*
Y132093D03*
Y142093D03*
X202770Y52093D03*
Y62093D03*
Y72093D03*
Y82093D03*
Y92093D03*
Y102093D03*
Y112093D03*
Y122093D03*
Y132093D03*
Y142093D03*
X225762Y175201D03*
Y185201D03*
Y195201D03*
X235545Y175201D03*
Y185201D03*
Y195201D03*
X241402Y126943D03*
Y136785D03*
X245545Y175188D03*
Y185188D03*
Y195188D03*
X255545Y175188D03*
Y185188D03*
Y195188D03*
X265545Y175201D03*
Y185201D03*
Y195201D03*
X275545Y175188D03*
Y185188D03*
Y195188D03*
X285545Y175188D03*
Y185188D03*
Y195188D03*
X295545Y175188D03*
Y185188D03*
Y195188D03*
X313269Y53950D03*
Y63950D03*
Y73950D03*
Y83950D03*
Y93950D03*
X323269Y53950D03*
Y63950D03*
Y73950D03*
Y83950D03*
Y93950D03*
D02*
D77*
X43134Y165801D03*
X56018Y61608D03*
X58596Y133094D03*
X67898Y108124D03*
X92573Y59610D03*
Y63675D03*
Y67425D03*
Y71480D03*
X93793Y41431D03*
X96559Y59610D03*
Y63675D03*
Y67425D03*
Y71480D03*
X100093Y59610D03*
Y63675D03*
Y67425D03*
Y71480D03*
X104069Y59610D03*
Y63675D03*
Y67425D03*
Y71480D03*
X107907Y59610D03*
Y63675D03*
Y67425D03*
Y71480D03*
X113321Y26904D03*
X113419Y31047D03*
X117415Y26904D03*
X117484Y22671D03*
X121372Y26972D03*
X121569Y31126D03*
X136372Y81402D03*
Y85161D03*
X138980Y71185D03*
X157622Y106972D03*
X159482Y170230D03*
X200614Y165801D03*
X213498Y61608D03*
X216077Y133094D03*
X225378Y108124D03*
X250053Y59610D03*
Y63675D03*
Y67425D03*
Y71480D03*
X251274Y41431D03*
X254039Y59610D03*
Y63675D03*
Y67425D03*
Y71480D03*
X257573Y59610D03*
Y63675D03*
Y67425D03*
Y71480D03*
X261549Y59610D03*
Y63675D03*
Y67425D03*
Y71480D03*
X265388Y59610D03*
Y63675D03*
Y67425D03*
Y71480D03*
X270801Y26904D03*
X270900Y31047D03*
X274896Y26904D03*
X274965Y22671D03*
X278852Y26972D03*
X279049Y31126D03*
X293852Y81402D03*
Y85161D03*
X296461Y71185D03*
X315102Y106972D03*
X316963Y170230D03*
D02*
D78*
X35289Y72093D02*
X34697D01*
X28547Y78242*
Y93803*
X31736Y96992*
X58488*
X40201Y52093D02*
X35289D01*
X40201D02*
Y77317D01*
X56470*
Y77327*
X58708Y79564*
Y79610*
X66257Y87159*
X72455*
X45289Y52093D02*
X40201D01*
X45289D02*
X63695D01*
X63868*
Y50982*
X79541Y35309*
X90641*
X69994Y72927D02*
X76028D01*
Y73362*
X81754*
X69994Y82376D02*
X73685D01*
X75919Y80142*
Y76511*
X81754*
X71606Y66946D02*
X71365D01*
X63695Y59276*
Y52093*
X72455Y87159D02*
X74569D01*
X81754Y79974*
Y79661*
X78094Y23209D02*
Y23334D01*
X68518*
X81754Y45565D02*
Y57614D01*
Y67063D02*
X71606D01*
Y66946*
X81754Y79564D02*
Y79661D01*
X83646Y23209D02*
Y22907D01*
X83722*
X90641Y29827*
Y35309*
X86884Y70152D02*
X81754D01*
Y70212*
X89315Y76511D02*
X115124D01*
X90565Y85322D02*
Y88530D01*
X88390Y90705*
Y102839*
X90641Y35309D02*
X106283D01*
X93714Y85322D02*
Y107789D01*
X96588Y110663*
X96657*
X96864Y85322D02*
X96864D01*
Y103173*
X100013Y85322D02*
Y92937D01*
X102209Y110663D02*
X123724D01*
X131303Y103085*
Y102809*
X102415Y103173D02*
X123587D01*
Y102907*
X103163Y51952D02*
Y42593D01*
Y85322D02*
Y94285D01*
X106313Y51952D02*
Y46067D01*
X121313*
X106313Y85322D02*
Y95654D01*
X109462Y90703D02*
Y85322D01*
X115124Y60763D02*
X121451D01*
Y60860*
X127268*
X115124Y63913D02*
X123990D01*
X115124Y67063D02*
X121362D01*
X115124Y70212D02*
X124626D01*
Y70872*
X115124Y73362D02*
X119748D01*
Y83569*
X122051Y85872*
X124626*
X115124Y86057D02*
Y79661D01*
X124148Y57534D02*
Y57614D01*
X115124*
X124148Y57534D02*
X126401D01*
X130201Y53734*
Y35309*
X106283*
X124626Y75872D02*
X135467D01*
X132081Y127770D02*
Y127947D01*
X123429*
X145885Y75872D02*
X150575D01*
Y69167*
X165789*
Y73950*
X145885Y75872D02*
Y80872*
X151313D01*
Y78872*
X155789*
Y73950*
X145885Y80872D02*
Y85872*
Y96510D01*
X143400*
X192770Y72093D02*
X192177D01*
X186028Y78242*
Y93803*
X189217Y96992*
X215969*
X197681Y52093D02*
X192770D01*
X197681D02*
Y77317D01*
X213951*
Y77327*
X216188Y79564*
Y79610*
X223737Y87159*
X229935*
X202770Y52093D02*
X197681D01*
X202770D02*
X221175D01*
X221348*
Y50982*
X237022Y35309*
X248121*
X227474Y72927D02*
X233508D01*
Y73362*
X239234*
X227474Y82376D02*
X231165D01*
X233400Y80142*
Y76511*
X239234*
X229086Y66946D02*
X228846D01*
X221175Y59276*
Y52093*
X229935Y87159D02*
X232049D01*
X239234Y79974*
Y79661*
X235575Y23209D02*
Y23334D01*
X225998*
X239234Y45565D02*
Y57614D01*
Y67063D02*
X229086D01*
Y66946*
X239234Y79564D02*
Y79661D01*
X241126Y23209D02*
Y22907D01*
X241202*
X248121Y29827*
Y35309*
X244364Y70152D02*
X239234D01*
Y70212*
X246795Y76511D02*
X272604D01*
X248045Y85322D02*
Y88530D01*
X245870Y90705*
Y102839*
X248121Y35309D02*
X263764D01*
X251194Y85322D02*
Y107789D01*
X254069Y110663*
X254138*
X254344Y85322D02*
X254344D01*
Y103173*
X257494Y85322D02*
Y92937D01*
X259689Y110663D02*
X281205D01*
X288783Y103085*
Y102809*
X259896Y103173D02*
X281067D01*
Y102907*
X260643Y51952D02*
Y42593D01*
Y85322D02*
Y94285D01*
X263793Y51952D02*
Y46067D01*
X278793*
X263793Y85322D02*
Y95654D01*
X266943Y90703D02*
Y85322D01*
X272604Y60763D02*
X278931D01*
Y60860*
X284748*
X272604Y63913D02*
X281470D01*
X272604Y67063D02*
X278843D01*
X272604Y70212D02*
X282106D01*
Y70872*
X272604Y73362D02*
X277228D01*
Y83569*
X279531Y85872*
X282106*
X272604Y86057D02*
Y79661D01*
X281628Y57534D02*
Y57614D01*
X272604*
X281628Y57534D02*
X283881D01*
X287681Y53734*
Y35309*
X263764*
X282106Y75872D02*
X292947D01*
X289561Y127770D02*
Y127947D01*
X280909*
X303366Y75872D02*
X308055D01*
Y69167*
X323269*
Y73950*
X303366Y75872D02*
Y80872*
X308793D01*
Y78872*
X313269*
Y73950*
X303366Y80872D02*
Y85872*
Y96510D01*
X300880*
D02*
D90*
X68281Y185201D02*
X78065D01*
X88065*
Y185188*
X83921Y136785D02*
X83449D01*
X58882Y161352*
Y185201*
X68281*
X83921Y136785D02*
X137632D01*
Y127770*
X88065Y185188D02*
X98065D01*
X108065*
Y185201*
Y185188*
X118065*
X128065*
X138065D02*
X128065D01*
X166657Y127976D02*
X137632D01*
Y127770*
X225762Y185201D02*
X235545D01*
X245545*
Y185188*
X241402Y136785D02*
X240929D01*
X216362Y161352*
Y185201*
X225762*
X241402Y136785D02*
X295112D01*
Y127770*
X245545Y185188D02*
X255545D01*
X265545*
Y185201*
Y185188*
X275545*
X285545*
X295545D02*
X285545D01*
X324138Y127976D02*
X295112D01*
Y127770*
D02*
D91*
X31414Y20634D03*
Y200476D03*
X171904Y20634D03*
Y200476D03*
X188894Y20634D03*
Y200476D03*
X329384Y20634D03*
Y200476D03*
D02*
D92*
X124626Y70872D03*
Y75872D03*
Y80872D03*
Y85872D03*
X145885Y70872D03*
Y75872D03*
Y80872D03*
Y85872D03*
X282106Y70872D03*
Y75872D03*
Y80872D03*
Y85872D03*
X303366Y70872D03*
Y75872D03*
Y80872D03*
Y85872D03*
D02*
D93*
X62219Y23334D03*
X68518D03*
X117130Y127947D03*
X123429D03*
X219699Y23334D03*
X225998D03*
X274610Y127947D03*
X280909D03*
D02*
D95*
X166657Y143567D03*
X324138D03*
D02*
D96*
X166657Y127976D03*
X324138D03*
X0Y0D02*
M02*
