G04 EasyPC Gerber Version 21.0.3 Build 4286 *
G04 #@! TF.Part,Single*
G04 #@! TF.FileFunction,Paste,Top *
G04 #@! TF.FilePolarity,Positive *
%FSLAX45Y45*%
%MOIN*%
G04 #@! TA.AperFunction,SMDPad*
%ADD134R,0.01962X0.05407*%
%ADD131R,0.02159X0.03537*%
%ADD135R,0.02946X0.03340*%
%ADD136R,0.07868X0.01175*%
%ADD133R,0.05407X0.01962*%
%ADD130R,0.03537X0.02159*%
%ADD129R,0.05506X0.02159*%
%ADD132R,0.03340X0.02946*%
X0Y0D02*
D02*
D129*
X124626Y70872D03*
Y75872D03*
Y80872D03*
Y85872D03*
X145885Y70872D03*
Y75872D03*
Y80872D03*
Y85872D03*
X282106Y70872D03*
Y75872D03*
Y80872D03*
Y85872D03*
X303366Y70872D03*
Y75872D03*
Y80872D03*
Y85872D03*
D02*
D130*
X71606Y61395D03*
Y66946D03*
X72455Y87159D03*
Y92711D03*
X124148Y51983D03*
Y57534D03*
X143400Y96510D03*
Y102061D03*
X229086Y61395D03*
Y66946D03*
X229935Y87159D03*
Y92711D03*
X281628Y51983D03*
Y57534D03*
X300880Y96510D03*
Y102061D03*
D02*
D131*
X78094Y23209D03*
X82839Y102839D03*
X83646Y23209D03*
X88390Y102839D03*
X96657Y110663D03*
X96864Y103173D03*
X102209Y110663D03*
X102415Y103173D03*
X132081Y127770D03*
X137632D03*
X235575Y23209D03*
X240319Y102839D03*
X241126Y23209D03*
X245870Y102839D03*
X254138Y110663D03*
X254344Y103173D03*
X259689Y110663D03*
X259896Y103173D03*
X289561Y127770D03*
X295112D03*
D02*
D132*
X123587Y96608D03*
Y102907D03*
X131303Y96510D03*
Y102809D03*
X281067Y96608D03*
Y102907D03*
X288783Y96510D03*
Y102809D03*
D02*
D133*
X81754Y57614D03*
Y60763D03*
Y63913D03*
Y67063D03*
Y70212D03*
Y73362D03*
Y76511D03*
Y79661D03*
X115124Y57614D03*
Y60763D03*
Y63913D03*
Y67063D03*
Y70212D03*
Y73362D03*
Y76511D03*
Y79661D03*
X239234Y57614D03*
Y60763D03*
Y63913D03*
Y67063D03*
Y70212D03*
Y73362D03*
Y76511D03*
Y79661D03*
X272604Y57614D03*
Y60763D03*
Y63913D03*
Y67063D03*
Y70212D03*
Y73362D03*
Y76511D03*
Y79661D03*
D02*
D134*
X87415Y51952D03*
Y85322D03*
X90565Y51952D03*
Y85322D03*
X93714Y51952D03*
Y85322D03*
X96864Y51952D03*
Y85322D03*
X100013Y51952D03*
Y85322D03*
X103163Y51952D03*
Y85322D03*
X106313Y51952D03*
Y85322D03*
X109462Y51952D03*
Y85322D03*
X244895Y51952D03*
Y85322D03*
X248045Y51952D03*
Y85322D03*
X251194Y51952D03*
Y85322D03*
X254344Y51952D03*
Y85322D03*
X257494Y51952D03*
Y85322D03*
X260643Y51952D03*
Y85322D03*
X263793Y51952D03*
Y85322D03*
X266943Y51952D03*
Y85322D03*
D02*
D135*
X62219Y23334D03*
X68518D03*
X117130Y127947D03*
X123429D03*
X219699Y23334D03*
X225998D03*
X274610Y127947D03*
X280909D03*
D02*
D136*
X69994Y72927D03*
Y77652D03*
Y82376D03*
X227474Y72927D03*
Y77652D03*
Y82376D03*
X0Y0D02*
M02*
